<svg viewBox="0 0 24 24" fill="currentColor" xmlns="http://www.w3.org/2000/svg">
    <path d="M12.1158 17.8839C12.2318 18 12.3697 18.0921 12.5213 18.1549C12.673 18.2178 12.8356 18.2501 12.9998 18.2501C13.1639 18.2501 13.3265 18.2178 13.4782 18.1549C13.6299 18.0921 13.7677 18 13.8838 17.8839L18.8838 12.8839C18.9999 12.7678 19.092 12.63 19.1548 12.4783C19.2177 12.3266 19.25 12.1641 19.25 11.9999C19.25 11.8357 19.2177 11.6731 19.1548 11.5215C19.092 11.3698 18.9999 11.232 18.8838 11.1159L13.8838 6.11589C13.6493 5.88144 13.3313 5.74973 12.9998 5.74973C12.6682 5.74973 12.3502 5.88144 12.1158 6.11589C11.8813 6.35034 11.7496 6.66833 11.7496 6.99989C11.7496 7.33145 11.8813 7.64944 12.1158 7.88389L14.9818 10.7499L5.99977 10.7499C5.66825 10.7499 5.3503 10.8816 5.11588 11.116C4.88146 11.3504 4.74977 11.6684 4.74977 11.9999C4.74977 12.3314 4.88146 12.6494 5.11588 12.8838C5.3503 13.1182 5.66825 13.2499 5.99977 13.2499L14.9818 13.2499L12.1158 16.1159C11.9997 16.232 11.9076 16.3698 11.8447 16.5215C11.7819 16.6731 11.7495 16.8357 11.7495 16.9999C11.7495 17.1641 11.7819 17.3266 11.8447 17.4783C11.9076 17.63 11.9997 17.7678 12.1158 17.8839Z" />
</svg>
