<svg viewBox="0 0 24 24" fill="currentColor" xmlns="http://www.w3.org/2000/svg">
    <path d="M2 6.5C2 5.67157 2.67157 5 3.5 5H20.5C21.3284 5 22 5.67157 22 6.5C22 7.32843 21.3284 8 20.5 8H3.5C2.67157 8 2 7.32843 2 6.5Z" />
    <path d="M2 12C2 11.1716 2.67157 10.5 3.5 10.5H20.5C21.3284 10.5 22 11.1716 22 12C22 12.8284 21.3284 13.5 20.5 13.5H3.5C2.67157 13.5 2 12.8284 2 12Z" />
    <path d="M2 17.5C2 16.6716 2.67157 16 3.5 16H20.5C21.3284 16 22 16.6716 22 17.5C22 18.3284 21.3284 19 20.5 19H3.5C2.67157 19 2 18.3284 2 17.5Z" />
</svg>
