<svg viewBox="0 0 50 50" fill="currentCOlor" xmlns="http://www.w3.org/2000/svg">
    <path d="M33.9609 10H27.25C26.625 10 26.0234 10.2344 25.5625 10.6563L17.8828 17.6875C17.875 17.6953 17.8672 17.7109 17.8594 17.7188C16.5625 18.9375 16.5859 20.8828 17.6953 22.0938C18.6875 23.1797 20.7734 23.4688 22.0781 22.3047C22.0859 22.2969 22.1016 22.2969 22.1094 22.2891L28.3516 16.5703C28.8594 16.1094 29.6562 16.1406 30.1172 16.6484C30.5859 17.1563 30.5469 17.9453 30.0391 18.4141L28 20.2813L39.375 29.5156C39.6016 29.7031 39.8047 29.9063 39.9922 30.1172V15L35.7266 10.7344C35.2656 10.2656 34.625 10 33.9609 10ZM42.5 15.0156V32.5078C42.5 33.8906 43.6172 35.0078 45 35.0078H50V15.0156H42.5ZM46.25 32.5078C45.5625 32.5078 45 31.9453 45 31.2578C45 30.5703 45.5625 30.0078 46.25 30.0078C46.9375 30.0078 47.5 30.5703 47.5 31.2578C47.5 31.9453 46.9375 32.5078 46.25 32.5078ZM0 35H5C6.38281 35 7.5 33.8828 7.5 32.5V15.0156H0V35ZM3.75 30.0078C4.4375 30.0078 5 30.5703 5 31.2578C5 31.9453 4.4375 32.5078 3.75 32.5078C3.0625 32.5078 2.5 31.9453 2.5 31.2578C2.5 30.5625 3.0625 30.0078 3.75 30.0078ZM37.8047 31.4609L26.1406 21.9922L23.7969 24.1406C21.4766 26.2578 17.9219 26.0547 15.8516 23.7969C13.75 21.5 13.9141 17.9453 16.1953 15.8516L22.5859 10H16.0391C15.375 10 14.7422 10.2656 14.2734 10.7344L10 15V32.4922H11.4297L18.5 38.8906C20.6406 40.6328 23.7891 40.3047 25.5312 38.1641L25.5469 38.1484L26.9453 39.3594C28.1875 40.375 30.0234 40.1797 31.0312 38.9375L33.4844 35.9219L33.9062 36.2656C34.9766 37.1328 36.5547 36.9766 37.4219 35.8984L38.1641 34.9844C39.0391 33.9063 38.875 32.3359 37.8047 31.4609Z" />
</svg>
