<svg width="401" height="176" viewBox="0 0 401 176" fill="none" xmlns="http://www.w3.org/2000/svg">
<path d="M94.1 162.45C92.8667 162.45 91.9167 162.117 91.25 161.45C90.6167 160.783 90.3 159.833 90.3 158.6V140.9C90.3 139.667 90.6167 138.717 91.25 138.05C91.9167 137.383 92.8667 137.05 94.1 137.05C95.3 137.05 96.2167 137.383 96.85 138.05C97.5167 138.717 97.85 139.667 97.85 140.9V146.6H100.8L106.4 138.8C106.933 138.033 107.55 137.533 108.25 137.3C108.983 137.067 109.683 137.05 110.35 137.25C111.017 137.45 111.567 137.817 112 138.35C112.433 138.85 112.667 139.45 112.7 140.15C112.767 140.85 112.517 141.6 111.95 142.4L106.55 150L105.05 147.55C105.95 147.65 106.767 147.917 107.5 148.35C108.233 148.783 108.9 149.35 109.5 150.05C110.1 150.717 110.667 151.533 111.2 152.5L113.85 157.35C114.317 158.183 114.467 158.967 114.3 159.7C114.167 160.4 113.817 160.983 113.25 161.45C112.717 161.917 112.083 162.2 111.35 162.3C110.617 162.433 109.9 162.35 109.2 162.05C108.5 161.75 107.917 161.167 107.45 160.3L104.4 154.9C104.067 154.233 103.717 153.717 103.35 153.35C102.983 152.983 102.567 152.733 102.1 152.6C101.667 152.467 101.15 152.4 100.55 152.4H97.85V158.6C97.85 159.833 97.5167 160.783 96.85 161.45C96.2167 162.117 95.3 162.45 94.1 162.45ZM131.055 162.55C128.422 162.55 126.122 162.033 124.155 161C122.222 159.967 120.722 158.483 119.655 156.55C118.588 154.617 118.055 152.333 118.055 149.7C118.055 147.733 118.355 145.967 118.955 144.4C119.555 142.833 120.422 141.5 121.555 140.4C122.722 139.267 124.105 138.417 125.705 137.85C127.305 137.25 129.088 136.95 131.055 136.95C133.688 136.95 135.972 137.467 137.905 138.5C139.872 139.533 141.388 141 142.455 142.9C143.555 144.8 144.105 147.067 144.105 149.7C144.105 151.7 143.788 153.483 143.155 155.05C142.555 156.617 141.688 157.967 140.555 159.1C139.422 160.233 138.038 161.1 136.405 161.7C134.805 162.267 133.022 162.55 131.055 162.55ZM131.055 156.9C132.155 156.9 133.105 156.633 133.905 156.1C134.705 155.567 135.338 154.783 135.805 153.75C136.272 152.683 136.505 151.333 136.505 149.7C136.505 147.267 136.005 145.483 135.005 144.35C134.005 143.183 132.688 142.6 131.055 142.6C129.988 142.6 129.038 142.85 128.205 143.35C127.405 143.85 126.772 144.633 126.305 145.7C125.872 146.733 125.655 148.067 125.655 149.7C125.655 152.133 126.155 153.95 127.155 155.15C128.155 156.317 129.455 156.9 131.055 156.9ZM158.381 162.45C157.181 162.45 156.248 162.117 155.581 161.45C154.948 160.783 154.631 159.833 154.631 158.6V143.35H149.231C147.131 143.35 146.081 142.367 146.081 140.4C146.081 139.467 146.348 138.75 146.881 138.25C147.448 137.717 148.231 137.45 149.231 137.45H167.531C169.664 137.45 170.731 138.433 170.731 140.4C170.731 141.367 170.448 142.1 169.881 142.6C169.348 143.1 168.564 143.35 167.531 143.35H162.181V158.6C162.181 159.833 161.864 160.783 161.231 161.45C160.598 162.117 159.648 162.45 158.381 162.45ZM191.407 162.45C190.641 162.45 189.991 162.3 189.457 162C188.924 161.7 188.524 161.267 188.257 160.7C188.024 160.1 187.907 159.333 187.907 158.4V140.65C187.907 139.483 188.207 138.6 188.807 138C189.407 137.367 190.241 137.05 191.307 137.05C192.407 137.05 193.241 137.367 193.807 138C194.407 138.6 194.707 139.483 194.707 140.65V154.1H193.357L204.407 139.45C204.807 138.917 205.324 138.383 205.957 137.85C206.591 137.317 207.491 137.05 208.657 137.05C209.424 137.05 210.057 137.2 210.557 137.5C211.091 137.767 211.474 138.2 211.707 138.8C211.974 139.367 212.107 140.117 212.107 141.05V158.85C212.107 159.983 211.807 160.867 211.207 161.5C210.641 162.133 209.824 162.45 208.757 162.45C207.624 162.45 206.757 162.133 206.157 161.5C205.591 160.867 205.307 159.983 205.307 158.85V145.35H206.707L195.607 160C195.207 160.567 194.691 161.117 194.057 161.65C193.457 162.183 192.574 162.45 191.407 162.45ZM244.633 162.55C241.966 162.55 239.633 162.033 237.633 161C235.666 159.933 234.149 158.433 233.083 156.5C232.016 154.567 231.483 152.283 231.483 149.65C231.483 147.683 231.783 145.917 232.383 144.35C232.983 142.783 233.849 141.45 234.983 140.35C236.149 139.25 237.549 138.417 239.183 137.85C240.816 137.25 242.633 136.95 244.633 136.95C245.666 136.95 246.766 137.083 247.933 137.35C249.099 137.583 250.249 138 251.383 138.6C252.049 138.9 252.499 139.333 252.733 139.9C252.999 140.433 253.099 141 253.033 141.6C252.966 142.167 252.749 142.683 252.383 143.15C252.049 143.583 251.616 143.883 251.083 144.05C250.549 144.183 249.949 144.083 249.283 143.75C248.649 143.383 247.983 143.117 247.283 142.95C246.616 142.783 245.983 142.7 245.383 142.7C244.383 142.7 243.499 142.867 242.733 143.2C241.966 143.5 241.316 143.95 240.783 144.55C240.283 145.117 239.883 145.833 239.583 146.7C239.316 147.567 239.183 148.567 239.183 149.7C239.183 151.9 239.716 153.633 240.783 154.9C241.883 156.133 243.416 156.75 245.383 156.75C245.983 156.75 246.616 156.683 247.283 156.55C247.949 156.383 248.616 156.117 249.283 155.75C249.949 155.417 250.549 155.333 251.083 155.5C251.616 155.667 252.033 155.983 252.333 156.45C252.666 156.883 252.849 157.4 252.883 158C252.949 158.567 252.849 159.133 252.583 159.7C252.349 160.233 251.916 160.65 251.283 160.95C250.149 161.517 249.016 161.917 247.883 162.15C246.749 162.417 245.666 162.55 244.633 162.55ZM269.19 162.55C266.557 162.55 264.257 162.033 262.29 161C260.357 159.967 258.857 158.483 257.79 156.55C256.723 154.617 256.19 152.333 256.19 149.7C256.19 147.733 256.49 145.967 257.09 144.4C257.69 142.833 258.557 141.5 259.69 140.4C260.857 139.267 262.24 138.417 263.84 137.85C265.44 137.25 267.223 136.95 269.19 136.95C271.823 136.95 274.107 137.467 276.04 138.5C278.007 139.533 279.523 141 280.59 142.9C281.69 144.8 282.24 147.067 282.24 149.7C282.24 151.7 281.923 153.483 281.29 155.05C280.69 156.617 279.823 157.967 278.69 159.1C277.557 160.233 276.173 161.1 274.54 161.7C272.94 162.267 271.157 162.55 269.19 162.55ZM269.19 156.9C270.29 156.9 271.24 156.633 272.04 156.1C272.84 155.567 273.473 154.783 273.94 153.75C274.407 152.683 274.64 151.333 274.64 149.7C274.64 147.267 274.14 145.483 273.14 144.35C272.14 143.183 270.823 142.6 269.19 142.6C268.123 142.6 267.173 142.85 266.34 143.35C265.54 143.85 264.907 144.633 264.44 145.7C264.007 146.733 263.79 148.067 263.79 149.7C263.79 152.133 264.29 153.95 265.29 155.15C266.29 156.317 267.59 156.9 269.19 156.9ZM299.666 162.55C296.966 162.55 294.616 162.017 292.616 160.95C290.616 159.85 289.066 158.233 287.966 156.1C286.899 153.933 286.366 151.267 286.366 148.1V144.55C286.366 141.217 286.882 138.433 287.916 136.2C288.982 133.933 290.549 132.117 292.616 130.75C294.682 129.383 297.232 128.367 300.266 127.7L306.266 126.3C307.299 126.067 308.166 126.15 308.866 126.55C309.566 126.917 310.016 127.6 310.216 128.6C310.416 129.6 310.249 130.433 309.716 131.1C309.216 131.767 308.449 132.2 307.416 132.4L300.816 133.85C299.216 134.217 297.866 134.783 296.766 135.55C295.666 136.317 294.832 137.283 294.266 138.45C293.699 139.583 293.416 140.933 293.416 142.5V145.6H292.466C292.766 144.2 293.299 142.917 294.066 141.75C294.866 140.583 295.916 139.667 297.216 139C298.549 138.3 300.116 137.95 301.916 137.95C303.949 137.95 305.749 138.433 307.316 139.4C308.882 140.367 310.116 141.75 311.016 143.55C311.949 145.317 312.416 147.433 312.416 149.9C312.416 152.467 311.882 154.7 310.816 156.6C309.749 158.5 308.266 159.967 306.366 161C304.466 162.033 302.232 162.55 299.666 162.55ZM299.416 156.9C300.582 156.9 301.566 156.65 302.366 156.15C303.166 155.617 303.766 154.867 304.166 153.9C304.599 152.9 304.816 151.683 304.816 150.25C304.816 148.083 304.332 146.433 303.366 145.3C302.432 144.133 301.099 143.55 299.366 143.55C298.232 143.55 297.249 143.817 296.416 144.35C295.616 144.85 294.999 145.583 294.566 146.55C294.166 147.517 293.966 148.683 293.966 150.05C293.966 152.283 294.432 153.983 295.366 155.15C296.299 156.317 297.649 156.9 299.416 156.9ZM326.041 162.55C324.241 162.55 322.625 162.2 321.191 161.5C319.758 160.8 318.641 159.85 317.841 158.65C317.041 157.45 316.641 156.1 316.641 154.6C316.641 152.8 317.108 151.383 318.041 150.35C318.975 149.283 320.491 148.533 322.591 148.1C324.691 147.633 327.475 147.4 330.941 147.4H333.591V151.3H330.991C329.291 151.3 327.908 151.4 326.841 151.6C325.808 151.767 325.058 152.067 324.591 152.5C324.158 152.933 323.941 153.533 323.941 154.3C323.941 155.233 324.258 156 324.891 156.6C325.558 157.2 326.508 157.5 327.741 157.5C328.708 157.5 329.558 157.283 330.291 156.85C331.058 156.383 331.658 155.767 332.091 155C332.525 154.2 332.741 153.3 332.741 152.3V146.55C332.741 145.083 332.408 144.05 331.741 143.45C331.075 142.817 329.941 142.5 328.341 142.5C327.441 142.5 326.458 142.617 325.391 142.85C324.358 143.05 323.208 143.4 321.941 143.9C321.208 144.233 320.558 144.317 319.991 144.15C319.425 143.95 318.991 143.617 318.691 143.15C318.391 142.65 318.241 142.117 318.241 141.55C318.241 140.95 318.408 140.383 318.741 139.85C319.075 139.283 319.625 138.867 320.391 138.6C321.958 137.967 323.425 137.533 324.791 137.3C326.191 137.067 327.475 136.95 328.641 136.95C331.208 136.95 333.308 137.333 334.941 138.1C336.608 138.833 337.858 139.983 338.691 141.55C339.525 143.083 339.941 145.067 339.941 147.5V158.6C339.941 159.833 339.641 160.783 339.041 161.45C338.441 162.117 337.575 162.45 336.441 162.45C335.308 162.45 334.425 162.117 333.791 161.45C333.191 160.783 332.891 159.833 332.891 158.6V156.75L333.241 157.05C333.041 158.183 332.608 159.167 331.941 160C331.308 160.8 330.491 161.433 329.491 161.9C328.491 162.333 327.341 162.55 326.041 162.55ZM350.204 162.45C348.97 162.45 348.02 162.117 347.354 161.45C346.72 160.783 346.404 159.833 346.404 158.6V140.9C346.404 139.667 346.72 138.717 347.354 138.05C348.02 137.383 348.97 137.05 350.204 137.05C351.404 137.05 352.32 137.383 352.954 138.05C353.62 138.717 353.954 139.667 353.954 140.9V146.6H356.904L362.504 138.8C363.037 138.033 363.654 137.533 364.354 137.3C365.087 137.067 365.787 137.05 366.454 137.25C367.12 137.45 367.67 137.817 368.104 138.35C368.537 138.85 368.77 139.45 368.804 140.15C368.87 140.85 368.62 141.6 368.054 142.4L362.654 150L361.154 147.55C362.054 147.65 362.87 147.917 363.604 148.35C364.337 148.783 365.004 149.35 365.604 150.05C366.204 150.717 366.77 151.533 367.304 152.5L369.954 157.35C370.42 158.183 370.57 158.967 370.404 159.7C370.27 160.4 369.92 160.983 369.354 161.45C368.82 161.917 368.187 162.2 367.454 162.3C366.72 162.433 366.004 162.35 365.304 162.05C364.604 161.75 364.02 161.167 363.554 160.3L360.504 154.9C360.17 154.233 359.82 153.717 359.454 153.35C359.087 152.983 358.67 152.733 358.204 152.6C357.77 152.467 357.254 152.4 356.654 152.4H353.954V158.6C353.954 159.833 353.62 160.783 352.954 161.45C352.32 162.117 351.404 162.45 350.204 162.45ZM383.659 162.55C381.859 162.55 380.242 162.2 378.809 161.5C377.375 160.8 376.259 159.85 375.459 158.65C374.659 157.45 374.259 156.1 374.259 154.6C374.259 152.8 374.725 151.383 375.659 150.35C376.592 149.283 378.109 148.533 380.209 148.1C382.309 147.633 385.092 147.4 388.559 147.4H391.209V151.3H388.609C386.909 151.3 385.525 151.4 384.459 151.6C383.425 151.767 382.675 152.067 382.209 152.5C381.775 152.933 381.559 153.533 381.559 154.3C381.559 155.233 381.875 156 382.509 156.6C383.175 157.2 384.125 157.5 385.359 157.5C386.325 157.5 387.175 157.283 387.909 156.85C388.675 156.383 389.275 155.767 389.709 155C390.142 154.2 390.359 153.3 390.359 152.3V146.55C390.359 145.083 390.025 144.05 389.359 143.45C388.692 142.817 387.559 142.5 385.959 142.5C385.059 142.5 384.075 142.617 383.009 142.85C381.975 143.05 380.825 143.4 379.559 143.9C378.825 144.233 378.175 144.317 377.609 144.15C377.042 143.95 376.609 143.617 376.309 143.15C376.009 142.65 375.859 142.117 375.859 141.55C375.859 140.95 376.025 140.383 376.359 139.85C376.692 139.283 377.242 138.867 378.009 138.6C379.575 137.967 381.042 137.533 382.409 137.3C383.809 137.067 385.092 136.95 386.259 136.95C388.825 136.95 390.925 137.333 392.559 138.1C394.225 138.833 395.475 139.983 396.309 141.55C397.142 143.083 397.559 145.067 397.559 147.5V158.6C397.559 159.833 397.259 160.783 396.659 161.45C396.059 162.117 395.192 162.45 394.059 162.45C392.925 162.45 392.042 162.117 391.409 161.45C390.809 160.783 390.509 159.833 390.509 158.6V156.75L390.859 157.05C390.659 158.183 390.225 159.167 389.559 160C388.925 160.8 388.109 161.433 387.109 161.9C386.109 162.333 384.959 162.55 383.659 162.55Z" fill="white"/>
<path d="M25.4586 113.234C23.934 117.115 20.5742 122.238 20.5742 122.238C19.9128 123.02 20.2986 123.968 20.5742 124.344L27.472 131.303C32.0624 136.968 40.5758 135.006 44.2587 133.317C52.5849 130.094 56.5384 136.166 57.4744 139.605C59.3057 149.079 54.0866 158.833 51.2481 162.526C62.0892 155.738 71.4532 145.597 74.78 141.375C107.572 91.4178 66.6512 74.9403 42.0917 72.9463C48.4412 80.8513 47.5561 81.7364 47.5561 84.1476C45.9446 77.2864 35.5499 77.3617 31.4703 77.7381C36.5734 82.3285 37.7475 86.6097 37.6966 88.1764C37.6966 88.1764 29.2088 95.495 27.472 101.972C26.2464 106.543 27.189 108.83 25.4586 113.234Z" fill="white" stroke="white" stroke-width="0.0610426" stroke-linecap="round" stroke-linejoin="round"/>
<path d="M95.3154 0.766602C97.8558 0.6459 100.229 0.44305 103.166 1.01172C103.549 1.10094 103.962 1.21565 104.414 1.41797C104.878 1.64886 105.507 1.91607 106.07 2.85352C106.67 3.84964 106.375 5.13857 106.069 5.65918C105.759 6.25044 105.44 6.58778 105.135 6.89844C103.962 8.0131 102.867 8.61362 101.716 9.21582C98.9596 11.0446 96.2026 12.8734 93.4443 14.6992L93.3779 14.7412C93.067 14.8981 92.8022 15.1095 92.5801 15.3652C92.8027 15.3417 93.0255 15.3176 93.249 15.2979C99.5449 14.7903 106.061 15.5356 112.029 18.8057C113.382 19.6603 112.97 21.4303 111.38 21.6094C111.243 21.6258 111.07 21.6486 110.897 21.6729C105.305 22.5533 99.6479 23.7552 94.3975 26.2148C98.4314 31.2611 102.461 36.3112 106.484 41.3662L106.872 41.8535L106.866 42.4424C106.816 47.5952 106.759 52.7486 106.7 57.9014C115.079 66.9535 123.44 76.0232 131.782 85.1104L131.912 85.2793C133.021 87.0706 132.756 89.4312 131.492 91.042C129.891 93.1365 127.598 94.616 124.973 95.0195L124.922 95.0264C121.678 95.2333 118.821 97.0026 116.29 99.3008C113.068 101.978 109.336 104.267 105.159 105.067C98.4586 106.535 91.6419 102.527 88.5537 96.832C91.9072 102.399 98.7165 105.921 104.993 104.273C108.932 103.357 112.427 101.036 115.451 98.3301C117.854 95.9683 121.057 93.7478 124.729 93.3906C126.804 93.0098 128.76 91.6538 129.969 89.9336L130.001 89.8906C130.713 88.916 130.867 87.4703 130.229 86.4463C121.481 77.5002 112.752 68.5358 104.042 59.5537L103.628 59.127L103.621 58.4971C103.562 53.3534 103.506 48.2091 103.455 43.0654C98.9578 37.6351 94.4668 32.1996 89.9824 26.7588L89.7588 26.4111C88.6295 24.1121 87.8886 21.7404 87.7354 19.0723C87.5363 16.5335 88.4835 13.0157 91.2676 11.3789C94.0227 9.50879 96.779 7.63949 99.5361 5.77246L99.7461 5.64941C100.197 5.41677 100.657 5.15309 101.074 4.88379C99.4489 4.7347 97.5182 4.82346 95.6748 4.94043C86.7889 6.3223 77.9371 8.44132 69.3398 11.2305C42.3259 20.045 14.462 36.6051 5.86523 64.5596C-2.58116 92.6821 10.7567 122.069 26.502 146.085C30.1662 151.628 33.8029 156.683 37.9502 162.056C33.5812 156.861 29.722 151.963 25.833 146.546C9.17357 123.104 -5.67272 93.6881 2.5957 63.5967C11.2234 33.6505 40.3934 16.1748 68.0195 7.16602C76.8733 4.29406 85.9749 2.14851 95.1387 0.786133L95.3154 0.766602ZM131.468 91.0762C131.476 91.0655 131.484 91.0527 131.492 91.042C131.495 91.0391 131.498 91.0362 131.5 91.0332L131.468 91.0762ZM92.3135 15.7285C91.0475 17.7321 91.6902 21.6404 93.0703 24.5527C93.3096 24.8519 93.5479 25.152 93.7871 25.4512C97.4351 22.5198 101.827 20.6124 106.396 19.4697C102.321 17.799 97.7725 16.6633 93.2266 15.8779C92.9228 15.8264 92.6187 15.7769 92.3135 15.7285Z" fill="white"/>
</svg>
