<svg width="326" height="179" viewBox="0 0 326 179" fill="none" xmlns="http://www.w3.org/2000/svg">
<g clip-path="url(#clip0_904_5293)">
<g filter="url(#filter0_gn_904_5293)">
<path fill-rule="evenodd" clip-rule="evenodd" d="M26.3782 16.9187C26.1844 17.8732 27.5369 18.8638 33.6085 22.2144C37.7165 24.4814 45.1126 28.7257 50.0451 31.6463C54.9777 34.5668 60.3648 37.6564 62.0172 38.5122C69.3894 42.3314 84.3748 48.2606 98.4855 52.9424C106.913 55.7385 119.781 60.1627 127.081 62.7744C145.631 69.4091 158.171 71.8467 167.434 70.6171C172.433 69.954 184.342 65.7543 199.088 59.4535C215.435 52.47 229.418 47.5425 236.954 46.1103C240.357 45.4638 242.919 48.7178 241.568 51.9716C240.579 54.3542 235.878 58.1372 229.973 61.3028C224.032 64.4874 221.505 66.5464 221.373 68.3071C221.252 69.9296 223.38 73.0975 225.871 75.0041C232.597 80.1505 247.834 85.4194 262.178 87.5587C277.654 89.8661 283.089 91.0129 286.27 92.6404L289.104 94.0912L288.329 95.9354C287.725 97.3723 287.015 97.9709 285.113 98.6505C282.266 99.666 279.329 99.7753 256.199 99.7282C238.457 99.6927 236.334 100.052 236.708 103.025C236.976 105.151 249.352 107.827 269.575 110.132C285.397 111.936 289.988 113.748 288.386 117.557C286.273 122.58 275.389 123.045 253.048 119.066C236.807 116.174 234.625 115.902 233.315 116.604C232.606 116.984 232.089 117.782 232.164 118.378C232.468 120.792 238.721 123.612 255.483 128.896C264.845 131.846 273.093 134.655 273.814 135.136C275.684 136.385 276.727 138.631 275.888 139.603C272.826 143.15 257.824 140.923 236.211 133.714C229.833 131.586 223.722 129.859 222.631 129.875C220.353 129.908 218.396 131.687 218.626 133.515C219.12 137.424 223.77 140.039 239.355 145.167C245.556 147.208 251.681 149.49 252.966 150.239C256.976 152.577 257.322 155.065 253.761 155.959C250.453 156.791 241.972 155.196 227.247 150.974C211.032 146.325 204.907 145.133 190.357 143.792C185.501 143.344 176.748 142.174 170.905 141.191C157.581 138.949 153.292 138.513 142.347 138.288C124.638 137.924 119.325 137.38 105.659 134.528C77.2753 128.603 59.2824 122.849 40.5474 113.704C31.1308 109.108 16.2277 100.932 11.5653 97.8036C9.5897 96.4778 7.62162 95.5815 7.19228 95.8117C5.92727 96.4898 7.18196 98.7246 9.89695 100.63C15.0261 104.229 41.6644 118.095 51.1588 122.108C68.2074 129.315 103.896 138.705 121.151 140.523C125.361 140.967 134.423 141.498 141.287 141.704C148.971 141.935 159.068 142.905 167.56 144.228C175.146 145.41 185.637 146.791 190.874 147.297C205.146 148.674 208.54 149.343 224.793 153.979C240.153 158.361 247.063 159.758 251.929 159.464C261.158 158.907 262.132 151.189 253.533 146.751C251.815 145.865 245.109 143.415 238.631 141.308C227.289 137.619 221.742 134.956 222.538 133.581C222.742 133.229 230.587 135.288 239.972 138.156C249.356 141.024 259.504 143.733 262.523 144.177C268.291 145.024 274.066 144.624 276.735 143.194C278.823 142.074 280.113 139.003 279.461 136.7C278.54 133.44 274.892 131.398 264.599 128.38C255.177 125.619 240.129 120.491 242.434 120.829C243.08 120.923 247.54 121.663 252.343 122.471C271.939 125.771 281.842 126.002 286.922 123.279C290.46 121.383 292.193 119.111 292.031 116.586C291.631 110.383 286.541 108.374 265.646 106.174C256.954 105.258 247.619 103.751 247.761 103.285C247.801 103.153 250.744 103.066 254.302 103.093C257.86 103.119 265.014 103.173 270.2 103.211C284.057 103.314 287.507 102.52 290.799 98.4733C292.822 95.9868 292.645 93.6252 290.257 91.2241C287.831 88.7856 280.419 86.8286 264.452 84.4131C248.927 82.0641 236.397 78.1103 229.733 73.4586C227.3 71.7601 225.281 69.9177 225.207 69.3287C225.1 68.4839 226.024 67.7507 229.71 65.7547C235.147 62.8107 241.521 57.9241 243.294 55.3416C247.395 49.3645 244.031 42.3741 237.313 42.9142C230.99 43.4229 217.432 48.0771 196.017 57.09C173.791 66.4438 167.14 68.2899 158.687 67.4513C151.707 66.7591 140.54 64.2618 135.475 62.2609C133.029 61.2944 123.875 58.0728 115.132 55.1032C86.1473 45.2551 80.9281 43.3519 71.4477 39.1719C66.2761 36.8919 58.8882 33.0798 55.0306 30.7003C45.0646 24.5548 28.5208 15.5041 27.489 15.6345C27.0093 15.6951 26.5098 16.2729 26.3782 16.9187Z" fill="white"/>
</g>
</g>
<defs>
<filter id="filter0_gn_904_5293" x="4.89775" y="13.8328" width="289.096" height="147.469" filterUnits="userSpaceOnUse" color-interpolation-filters="sRGB">
<feFlood flood-opacity="0" result="BackgroundImageFix"/>
<feBlend mode="normal" in="SourceGraphic" in2="BackgroundImageFix" result="shape"/>
<feTurbulence type="fractalNoise" baseFrequency="1.25 1.25" numOctaves="3" seed="6290" />
<feDisplacementMap in="shape" scale="3.5999999046325684" xChannelSelector="R" yChannelSelector="G" result="displacedImage" width="100%" height="100%" />
<feMerge result="effect1_texture_904_5293">
<feMergeNode in="displacedImage"/>
</feMerge>
<feTurbulence type="fractalNoise" baseFrequency="3.3333332538604736 3.3333332538604736" stitchTiles="stitch" numOctaves="3" result="noise" seed="8744" />
<feColorMatrix in="noise" type="luminanceToAlpha" result="alphaNoise" />
<feComponentTransfer in="alphaNoise" result="coloredNoise1">
<feFuncA type="discrete" tableValues="0 0 0 0 1 1 1 1 1 1 1 1 1 1 1 1 1 1 1 1 1 1 1 1 1 1 1 1 1 1 1 1 1 1 1 1 1 1 1 1 1 1 1 1 1 0 0 0 0 0 0 0 0 0 0 0 0 0 0 0 0 0 0 0 0 0 0 0 0 0 0 0 0 0 0 0 0 0 0 0 0 0 0 0 0 0 0 0 0 0 0 0 0 0 0 0 0 0 0 0 "/>
</feComponentTransfer>
<feComposite operator="in" in2="effect1_texture_904_5293" in="coloredNoise1" result="noise1Clipped" />
<feFlood flood-color="rgba(167, 167, 167, 0.5)" result="color1Flood" />
<feComposite operator="in" in2="noise1Clipped" in="color1Flood" result="color1" />
<feMerge result="effect2_noise_904_5293">
<feMergeNode in="effect1_texture_904_5293" />
<feMergeNode in="color1" />
</feMerge>
</filter>
<clipPath id="clip0_904_5293">
<rect width="326" height="179" fill="white"/>
</clipPath>
</defs>
</svg>
