<svg viewBox="0 0 511 481" fill="currentColor" xmlns="http://www.w3.org/2000/svg">
    <path fill-rule="evenodd" clip-rule="evenodd" d="M159.775 2.40626C162.462 2.717 165.936 3.61937 167.567 4.43028C170.019 5.65054 170.861 6.59639 172.626 10.1112C174.965 14.7697 179.995 26.2068 185.178 38.6552C187.036 43.1152 190.866 52.1883 193.69 58.817C196.514 65.4464 198.825 71.3725 198.825 71.9862C198.825 75.0806 195.715 78.5 190.558 81.0735C186.547 83.0755 170.647 86.3276 160.128 87.2974C140.457 89.1119 118.785 87.0522 114.116 82.925C112.354 81.3674 112.712 78.5747 115.008 75.9661C120.916 69.2544 139.936 64.6043 161.481 64.6043C174.433 64.6043 183.962 65.593 187.278 67.2803C188.695 68.0017 189.643 68.2488 189.383 67.8298C188.678 66.6913 184.879 65.266 179.697 64.1963C172.139 62.6348 148.048 62.2656 139.147 63.5748C127.221 65.3276 120.606 67.7889 115.28 72.4533C113.853 73.7034 112.925 74.127 112.636 73.6605C112.079 72.762 112.743 61.1135 113.984 50.0079C114.502 45.3695 115.214 37.4875 115.567 32.4923C115.919 27.4971 116.397 22.3157 116.629 20.9774C117.122 18.1262 116.597 17.9647 112.647 19.7545C109.819 21.0364 106.143 24.8042 105.055 27.5367C101.998 35.2156 101.352 50.9486 101.283 119.343C101.259 143.919 100.969 173.55 100.64 185.189C100.311 196.828 99.8715 223.721 99.6647 244.951L99.2875 283.55L107.66 259.223C116.92 232.317 119.626 225.418 123.555 218.709C128.414 210.41 134.091 206.031 144.882 202.258C156.765 198.105 167.79 196.591 191.435 195.867L205.182 195.445L205.614 192.14C205.851 190.322 206.279 184.457 206.563 179.105C207.052 169.929 207.71 166.419 209.1 165.562C209.946 165.04 215.274 168.952 219.936 173.517L223.884 177.382L231.76 177.54L239.635 177.697L243.326 174.508C245.355 172.755 248.166 170.637 249.572 169.802L252.129 168.284L252.774 169.802C253.626 171.807 256.056 192.267 256.056 197.431V201.486H259.867C261.964 201.486 265.037 201.671 266.696 201.898C272.491 202.69 269.644 203.432 260.771 203.442C255.853 203.448 251.39 203.735 250.853 204.081C250.16 204.528 250.947 204.713 253.573 204.72C256.022 204.726 258.996 205.365 262.39 206.613C265.207 207.649 270.422 209.122 273.978 209.886C287.608 212.815 294.745 215.336 301.055 219.454C311.745 226.43 317.133 236.951 316.409 249.434L316.103 254.707L317.569 253.333C320.295 250.779 321.957 245.786 321.98 240.085C321.997 235.672 321.581 233.633 319.198 226.462C315.762 216.125 315.073 209.462 316.878 204.039C319.144 197.235 327.282 191.37 332.606 192.703C335.317 193.382 336.05 194.265 336.055 196.862C336.059 198.93 335.566 199.658 331.99 202.868L327.921 206.52L327.956 213.247C327.985 218.835 328.343 221.174 330.07 227.061C333.202 237.738 332.78 244.334 328.409 253.06L326.133 257.601L331.955 251.691C336.526 247.051 338.814 245.279 342.604 243.444C345.259 242.158 348.602 240.914 350.033 240.679C353.298 240.143 352.393 241.189 348.682 242.239C344.807 243.335 338.921 247.429 334.099 252.379L329.872 256.72L332.473 256.197C336.31 255.426 345.233 255.742 347.672 256.736C349.6 257.522 349.034 257.601 341.459 257.606C333.983 257.61 332.789 257.773 329.872 259.178L326.62 260.746L330.522 261.211C332.668 261.467 335.449 262.05 336.701 262.508C341.762 264.357 349.467 269.241 351.609 271.958C354.041 275.04 353.027 275.032 349.714 271.941C343.684 266.315 332.289 261.926 325.74 262.706C324.078 262.905 318.21 263.341 312.701 263.677C301.03 264.387 292.02 263.454 289.63 261.285C286.379 258.337 282.071 257.531 282.071 259.871C282.071 260.934 282.504 261.169 284.469 261.169C285.888 261.169 287.744 261.765 289.011 262.628C292.363 264.911 292.166 265.903 288.708 264.155C287.015 263.3 284.902 262.497 284.013 262.371C282.681 262.182 282.361 262.441 282.199 263.836C282.028 265.306 282.287 265.575 284.165 265.879C287.259 266.38 291.176 268.846 291.176 270.293C291.176 271.373 290.871 271.3 288.387 269.627C286.853 268.595 284.805 267.551 283.834 267.308C282.158 266.889 282.071 266.985 282.071 269.223C282.071 271.195 282.361 271.691 283.852 272.256C287.153 273.508 289.82 275.478 289.465 276.402C289.207 277.07 288.376 276.732 286.196 275.072C282.67 272.388 281.871 272.317 280.83 274.594C280.117 276.156 280.193 276.466 281.539 277.499C282.368 278.135 283.339 278.669 283.697 278.684C284.054 278.7 285.064 279.263 285.941 279.935C287.299 280.976 287.407 281.31 286.677 282.188C285.912 283.107 285.473 282.929 282.61 280.538C279.728 278.131 279.236 277.934 277.772 278.599C276.582 279.14 275.784 279.148 274.809 278.627C273.042 277.684 271.71 278.847 272.681 280.487C273.367 281.643 282.35 286.387 283.954 286.439C284.454 286.455 291.596 289.833 299.826 293.944C316.574 302.31 327.222 306.753 333.326 307.923C342.557 309.693 356.097 307.34 363.333 302.707C373.742 296.046 380.82 282.579 382.098 267.007C382.712 259.54 381.99 244.753 380.628 236.841C378.374 223.757 369.695 201.656 362.381 190.373C358.625 184.579 351.425 177.29 346.131 173.921C342.424 171.563 319.473 160.174 317.702 159.813C316.253 159.518 317.081 162.562 319.163 165.185C320.242 166.543 320.843 167.829 320.499 168.041C320.155 168.253 318.943 167.272 317.806 165.86C316.015 163.637 315.574 163.396 314.513 164.057C312.892 165.067 312.946 165.4 315.27 168.77C317.741 172.352 316.689 172.56 313.86 169.049C310.373 164.721 308.787 166.01 311.374 171.07C314.227 176.647 311.448 174.818 307.673 168.634C306.373 166.504 305.906 168.281 306.928 171.472C308.452 176.233 307.451 177.168 305.526 172.78C304.184 169.721 303.607 169.049 302.321 169.049C300.799 169.049 300.764 169.158 301.179 172.676C301.716 177.23 300.433 177.269 298.98 172.744C298.279 170.562 297.662 169.704 296.791 169.701C295.697 169.699 295.623 170.055 296.034 173.339C296.616 177.98 295.304 177.914 293.817 173.225C293.017 170.701 292.472 169.976 291.245 169.803C289.587 169.569 289.567 169.882 290.911 175.221C291.253 176.581 291.145 176.936 290.454 176.719C289.957 176.564 288.964 174.646 288.249 172.459C287.383 169.813 286.541 168.373 285.73 168.157C284.641 167.866 284.547 168.136 284.837 170.711C285.016 172.295 284.935 173.591 284.656 173.591C283.986 173.591 282.721 169.912 282.721 167.965C282.721 166.48 282.663 166.462 281.131 167.463C280.035 168.18 279.467 169.241 279.299 170.885L279.057 173.266L278.532 171.158C278.243 169.998 277.908 169.049 277.788 169.049C276.973 169.049 261.702 176.001 259.472 177.388C256.999 178.924 256.702 179.377 256.643 181.7C256.534 185.961 255.549 181.883 255.467 176.834C255.399 172.638 254.645 168.924 253.499 167.14C252.697 165.891 251.075 166.654 245.362 170.968C240.556 174.597 240.193 174.567 239.404 170.479C238.984 168.308 239.439 159.054 240.182 154.615C240.782 151.037 239.392 151.527 237.522 155.552C235.311 160.312 234.87 164.837 236.179 169.33C236.767 171.345 237.797 173.541 238.468 174.211C239.697 175.436 239.582 176.185 238.166 176.185C236.996 176.185 233.986 170.188 233.545 166.977C233.06 163.446 234.658 156.864 236.944 152.973C238.563 150.217 238.574 150.106 237.552 147.119C235.836 142.1 235.55 133.777 236.849 126.584C237.475 123.119 237.803 119.36 237.58 118.231C237.355 117.102 235.787 113.446 234.095 110.107L231.018 104.037V94.5379C231.018 85.4044 231.088 84.9004 232.852 81.4316C235.821 75.5892 239.281 72.1931 248.727 65.8486C263.052 56.226 268.612 54.2571 281.513 54.2357C289.184 54.2234 289.604 53.9827 288.86 50.0254C288.147 46.2343 291.593 40.2413 296.543 36.6649L299.175 34.7628H297.254C296.197 34.7628 293.989 35.6127 292.347 36.6513C289.905 38.1959 289.112 39.2053 287.992 42.1901C287.239 44.1973 286.623 46.5346 286.623 47.3845C286.623 49.4286 285.993 50.981 285.162 50.981C284.149 50.981 284.985 43.7912 286.301 41.193C288.801 36.2569 292.673 33.4654 297.022 33.4654C298.485 33.4654 300.83 32.8815 302.232 32.1679C307.351 29.5626 313.566 30.9788 317.719 35.6976C318.837 36.9672 320.032 38.0065 320.375 38.0065C320.717 38.0065 321.605 38.7759 322.345 39.7159C323.979 41.7873 324.155 46.5158 322.702 49.2956C322.16 50.3303 321.884 51.7031 322.088 52.3447C322.732 54.3667 321.059 58.9286 318.874 61.1083C317.529 62.4499 315.853 63.3549 314.217 63.6228C309.022 64.4726 308.871 64.7879 312.528 67.1285C316.709 69.8058 325.294 78.851 328.091 83.527C332.705 91.2404 334.104 100.326 331.83 107.804C331.297 109.555 330.859 111.588 330.855 112.32C330.84 115.105 334.85 119.125 343.124 124.619C354.779 132.359 359.74 137.348 363.139 144.755C365.653 150.232 365.98 157.322 363.884 160.89C362.007 164.086 360.353 164.853 361.929 161.796C362.721 160.26 363.039 158.061 363.036 154.129C363.033 149.179 362.811 148.173 360.866 144.302C357.378 137.357 350.783 130.861 342.229 125.942C340.438 124.913 340.463 124.972 342.531 126.662C353.905 135.96 356.661 139.287 358.881 146.403C360.274 150.867 360.409 156.597 359.2 159.967C358.637 161.538 357.55 162.702 355.673 163.746C354.18 164.576 352.96 164.94 352.96 164.557C352.96 163.428 350.651 163.758 349.474 165.056C347.975 166.708 341.974 167.993 339.731 167.143C336.66 165.978 337.875 166.933 343.692 170.259C350.038 173.887 355.08 177.881 359.473 182.761L362.409 186.023L367.216 183.307C373.718 179.631 388.272 174.126 392.436 173.766C395.247 173.524 396.401 173.784 399.265 175.309C403.031 177.313 409.815 183.713 410.519 185.923C411.401 188.697 410.051 188.04 405.775 183.611C401.292 178.968 395.687 175.537 392.586 175.537C391.677 175.537 389.942 176.267 388.729 177.159C387.517 178.051 386.025 178.78 385.414 178.78C383.567 178.78 371.003 183.351 369.063 184.729C368.067 185.437 367.427 186.297 367.639 186.641C368.176 187.506 370.671 186.624 371.663 185.219C372.608 183.88 377.983 181.716 384.421 180.085C388.692 179.002 389.034 179.004 392.066 180.109C393.813 180.745 397.654 182.643 400.602 184.326C413.733 191.818 417.601 195.317 418.438 200.458C418.719 202.189 419.087 202.753 419.765 202.493C420.281 202.296 420.934 202.135 421.217 202.135C421.948 202.135 420.935 197.246 419.299 192.883C418.442 190.598 416.635 187.779 414.612 185.572C410.775 181.384 410.928 179.941 414.812 183.688C418.775 187.512 422.548 195.933 422.548 200.955C422.548 202.534 422.802 202.783 424.408 202.783C425.432 202.783 427.672 202.975 429.388 203.209L432.506 203.636L432.059 199.804C431.813 197.696 430.889 193.113 430.006 189.621C428.948 185.432 428.431 181.676 428.49 178.592L428.578 173.915L429.077 178.456C429.351 180.954 430.329 185.332 431.248 188.187C432.169 191.041 433.275 195.566 433.708 198.242C434.141 200.918 434.568 203.21 434.657 203.335C434.922 203.708 448.846 205.206 449.375 204.918C449.643 204.772 449.868 203.867 449.873 202.907C449.879 201.947 450.187 200.724 450.559 200.188C451.058 199.469 451.181 200.026 451.03 202.323C450.841 205.188 450.953 205.459 452.458 205.787C453.355 205.982 455.5 206.584 457.222 207.124C458.944 207.664 460.532 207.926 460.751 207.708C460.97 207.49 460.409 206.511 459.504 205.534C454.864 200.522 446.768 185.245 445.154 178.456C443.742 172.523 443.062 161.692 443.88 158.183C444.233 156.667 444.296 155.426 444.02 155.426C442.956 155.426 441.923 157.431 442.281 158.8C442.488 159.588 442.083 162.418 441.382 165.088C440.681 167.758 440.137 171.42 440.173 173.226L440.238 176.51L440.82 173.915C442.176 167.874 442.15 167.936 442.738 169.374C443.03 170.087 443.288 176.405 443.314 183.412C443.355 194.868 443.238 196.301 442.16 197.63C441.465 198.486 440.552 198.951 439.989 198.735C439.455 198.531 437.154 194.659 434.877 190.13L430.738 181.897L430.828 176.284C430.947 168.902 432.8 162.92 436.169 159.036C438.511 156.337 438.718 155.77 439.073 151.074C440.201 136.153 440.883 130.352 442.117 125.158C444.465 115.273 444.617 117.706 442.414 129.905C441.478 135.088 439.869 154.107 440.328 154.565C440.456 154.692 441.995 153.994 443.748 153.012C446.715 151.352 447.462 151.228 454.516 151.219L462.095 151.209L467.311 153.913C471.1 155.878 472.616 156.387 472.852 155.775C473.403 154.341 479.555 153.283 485.265 153.638C489.115 153.878 491.814 154.49 495.093 155.867C500.828 158.275 506.707 162.019 508.112 164.157C509.807 166.737 508.562 167.568 502.209 168.095C497.374 168.497 496.618 168.735 495.692 170.146C494.758 171.568 494.345 171.694 491.926 171.297C490.432 171.051 488.051 170.458 486.634 169.979C485.217 169.5 483.94 169.224 483.796 169.367C483.113 170.05 488.209 172.268 491.955 172.919C495.947 173.613 496.289 173.568 498.981 171.994C501.666 170.424 503.01 170.488 501.989 172.137C501.25 173.328 496.955 174.888 494.412 174.888C493.138 174.888 491.053 175.322 489.78 175.853C486.495 177.221 484.143 175.604 482.717 170.996C482.441 170.104 481.081 167.459 479.696 165.119C478.312 162.779 477.178 160.526 477.178 160.113C477.178 159.699 477.931 158.966 478.852 158.485C480.352 157.701 480.418 157.522 479.485 156.75C478.611 156.026 478.086 156.082 476.186 157.102C474.943 157.77 473.926 158.395 473.926 158.491C473.926 158.588 474.986 160.139 476.282 161.938C480.889 168.335 484.335 180.272 484.327 189.809C484.325 192.128 483.74 196.451 483.027 199.416C482.315 202.381 481.64 207.636 481.529 211.093C481.336 217.064 481.413 217.494 483.068 219.65C486.806 224.523 488.754 230.245 490.247 240.734C491.327 248.321 490.593 262.426 486.939 304.309C484.764 329.229 482.81 341.865 478.422 359.37C474.56 374.781 474.408 375.203 468.522 386.983C465.235 393.563 461.391 400.668 459.98 402.774L457.414 406.6L459.167 413.579C460.131 417.417 460.915 421.112 460.91 421.792C460.903 422.597 459.772 423.646 457.658 424.81C453.681 426.998 453.277 427.011 452.347 424.974C451.305 422.695 448.337 422.058 438.807 422.073C429.942 422.086 427 422.561 422.158 424.762L418.971 426.209L436.75 426.694C454.689 427.184 457.369 427.54 461.407 429.97C464.172 431.634 464.303 434.363 461.732 436.751C457.918 440.293 427.874 453.972 413.443 458.737C411.476 459.387 402.697 461.719 393.935 463.918C382.842 466.704 377.985 468.194 377.938 468.826C377.902 469.326 377.827 470.1 377.772 470.546C377.706 471.089 376.44 471.356 373.934 471.354C370.49 471.353 370.091 471.197 368.893 469.386C368.024 468.071 367.202 467.517 366.416 467.714C365.769 467.878 359.477 467.023 352.433 465.814C331.428 462.211 318.091 461.003 291.984 460.341C279.008 460.012 268.092 459.558 267.724 459.332C266.924 458.838 235.402 457.477 224.839 457.48C211.908 457.483 204.735 460.66 203.708 466.838C203.443 468.431 202.977 470.208 202.673 470.788C201.495 473.028 191.762 474.177 165.006 475.236C152.786 475.72 147.632 476.193 142.894 477.268C134.684 479.131 123.354 479.333 120.305 477.671C117.57 476.179 116.016 473.198 116.568 470.498C117.189 467.46 120.642 462.667 123.461 460.929C126.456 459.083 126.242 458.453 123.123 459.93C120.954 460.956 107.854 465.836 98.3445 469.159C95.8406 470.034 90.4264 471.616 86.3129 472.674C82.1993 473.732 76.3806 475.329 73.3831 476.224C63.83 479.074 53.9465 478.977 49.8928 475.993C45.0405 472.421 49.6118 463.73 61.116 454.653C65.0748 451.531 69.2169 448.194 70.3218 447.24L72.3301 445.505L70.4994 444.807C67.2593 443.573 57.2159 444.044 45.8294 445.963C38.2143 447.246 34.5469 448.151 33.641 448.969C32.5933 449.915 31.9377 450.022 30.2253 449.527C27.7682 448.818 27.8873 450.154 28.7269 432.751L29.2595 421.717L24.7005 420.252C22.1927 419.447 18.9722 417.943 17.544 416.911C14.847 414.962 12.172 410.429 12.172 407.806C12.172 406.974 11.19 404.803 9.98944 402.983C7.69888 399.509 4.82043 392.829 3.2511 387.346C2.74057 385.562 2.15912 379.83 1.9588 374.608C1.62909 366.017 1.73245 364.66 3.04745 360.342C4.3508 356.061 4.9498 355.137 8.87015 351.348L13.2393 347.125L12.1636 342.584C11.5711 340.086 9.80078 334.394 8.22824 329.934C5.57867 322.416 5.37512 321.375 5.44147 315.662C5.52863 308.16 6.39621 305.846 10.9064 301.089C16.03 295.685 17.4243 295.383 38.1733 295.176C56.8321 294.991 58.4984 294.747 69.0784 290.64C72.8797 289.164 74.9426 288.821 81.5789 288.566C88.1969 288.311 89.5776 288.083 89.8326 287.202C90.6351 284.433 92.7924 170.423 92.8483 127.855C92.9101 81.1423 93.8056 43.9573 94.999 38.6137C96.0357 33.9694 97.8437 29.1812 98.364 29.7008C98.5441 29.8805 98.1136 32.4793 97.4079 35.4764C95.1531 45.0471 94.6745 57.7135 94.4208 114.556C94.2862 144.706 93.8798 184.846 93.5175 203.756C91.7804 294.391 91.798 287.767 93.2964 287.767C94.5639 287.767 94.6511 287.296 95.0049 278.522C95.7664 259.598 96.9078 175.344 97.1374 121.044C97.4079 57.1277 97.9679 38.567 99.8214 32.0881C102.234 23.6573 106.59 18.5751 113.671 15.9335L117.53 14.494V11.6039C117.53 6.06248 122.186 3.56164 134.777 2.34073C142.449 1.59664 153.007 1.62454 159.775 2.40626ZM177.878 32.3029C180.782 38.8018 183.05 44.2278 182.918 44.3595C182.786 44.4912 182.092 44.2862 181.376 43.9047C180.54 43.4577 179.44 41.2968 178.294 37.8514C177.314 34.9036 175.541 29.8805 174.356 26.6881C173.169 23.4957 172.29 20.7944 172.399 20.6848C172.509 20.5752 174.975 25.8033 177.878 32.3029ZM312.861 34.1894C315.986 35.8339 315.691 36.2958 312.288 35.0865C310.87 34.5831 308.45 34.1582 306.908 34.1427C305.212 34.1251 304.265 33.8579 304.508 33.4654C305.189 32.3664 310.226 32.803 312.861 34.1894ZM321.309 41.0341C322.139 41.8612 321.761 47.5629 320.826 48.3375C320.048 48.981 319.963 48.4769 320.264 45.0108C320.653 40.5203 320.682 40.4087 321.309 41.0341ZM325.01 51.3476C326.506 55.2704 324.813 61.1751 321.433 63.8271C319.265 65.5287 315.429 66.3513 314.41 65.3341C313.868 64.7937 314.175 64.6037 315.597 64.6017C320.662 64.5952 324.84 58.8241 324.127 52.8202C323.716 49.3514 324.042 48.8071 325.01 51.3476ZM240.978 74.0316C238.967 76.5175 236.279 80.5954 235.005 83.093C232.578 87.8495 231.99 88.024 233.585 83.5128C234.926 79.7223 239.254 73.6054 242.158 71.3958C244.51 69.606 244.451 69.739 240.978 74.0316ZM194.923 74.9509C194.923 75.9901 190.885 78.6999 187.155 80.1627C181.977 82.1933 168.584 84.5371 157.132 85.4155C140.798 86.6688 126.026 85.5368 117.661 82.3911C111.983 80.2561 114.356 79.8812 138.395 79.1163C151.526 78.6986 164.784 77.9311 169.233 77.3323C178.005 76.151 192.871 74.3676 194.11 74.3482C194.556 74.341 194.923 74.6122 194.923 74.9509ZM324.812 82.2821C328.949 88.8966 330.381 92.8804 330.705 98.6884C330.992 103.829 329.945 111.313 328.939 111.313C328.231 111.313 327.596 106.249 327.596 100.607C327.596 94.3601 326.735 90.1726 324.111 83.6542C322.91 80.6694 322.005 78.2276 322.101 78.2276C322.198 78.2276 323.417 80.0525 324.812 82.2821ZM476.988 84.0454C480.283 86.0447 481.564 88.397 483.454 95.9275C485.034 102.222 485.281 104.473 485.286 112.61C485.291 120.853 485.074 122.795 483.537 128.304C482.571 131.762 480.341 137.746 478.581 141.603C476.822 145.459 475.178 149.56 474.929 150.716C474.335 153.473 473.492 153.901 471.764 152.325C470.986 151.614 468.283 149.723 465.758 148.123C459.648 144.251 455.69 139.593 451.839 131.748C446.893 121.67 445.699 117.562 446.522 113.47C447.241 109.898 450.162 103.623 453.112 99.3112C454.088 97.884 455.106 95.9865 455.373 95.0945C456.497 91.3442 463.546 85.9727 469.049 84.674C470.837 84.2517 472.921 83.6737 473.678 83.3902C474.61 83.0411 475.682 83.2533 476.988 84.0454ZM269 87.4162C273.334 92.5807 283.609 98.9869 287.56 98.9869C288.447 98.9869 289.758 99.7485 290.63 100.771C295.243 106.182 300.046 107.807 308.191 106.711C311.29 106.295 314.592 106.146 315.528 106.38C318.028 107.006 319.786 110.322 319.789 114.415C319.792 118.719 318.61 121.577 315.677 124.361L313.381 126.54L315.328 128.171C317.839 130.272 318.114 133.649 315.919 135.422C313.9 137.052 309.05 136.998 306.281 135.313C305.11 134.601 304.012 134.018 303.842 134.018C303.672 134.018 303.532 135.875 303.532 138.144C303.532 143.104 305.677 147.746 311.106 154.543C313.022 156.94 314.589 159.232 314.589 159.637C314.589 160.632 311.46 163.489 309.06 164.683C302.946 167.728 290.117 168.652 285.762 166.361L283.925 165.395L286.609 162.977C288.085 161.646 289.936 160.314 290.722 160.015C292.747 159.245 296.43 153.964 295.729 152.834C295.108 151.831 294.642 152.092 290.585 155.717C288.983 157.148 288.635 157.3 289.327 156.263C289.855 155.475 291.803 153.599 293.657 152.094C297.654 148.851 298.349 147.192 294.952 149.006C294.039 149.494 293.479 149.508 293.197 149.052C292.944 148.644 291.387 149.261 289.215 150.629C284.041 153.887 278.215 155.551 271.99 155.549C264.329 155.547 260.162 153.8 254.593 148.254C252.179 145.85 250.203 143.581 250.203 143.211C250.203 142.841 250.792 142.353 251.511 142.125C253.434 141.516 254.893 138.354 254.149 136.405C253.469 134.619 250.157 133.194 247.965 133.742C246.406 134.132 246.75 134.75 241.972 122.99C239.254 116.299 236.546 106.24 236.546 102.836C236.546 100.739 236.919 100.049 238.884 98.5282C241.414 96.5665 247.602 88.3023 247.602 86.8835C247.602 86.4041 247.894 86.0123 248.252 86.0123C248.61 86.0123 248.902 86.4619 248.902 87.0114C248.902 88.7545 251.46 93.0893 253.134 94.1837C254.105 94.8181 255.365 95.0828 256.302 94.848C257.289 94.6008 258.153 94.8123 258.663 95.4253C259.105 95.9567 260.163 96.3919 261.013 96.3919C262.575 96.3919 263.059 95.2249 261.969 94.089C261.246 93.3358 259.288 86.8161 259.361 85.4077C259.39 84.8485 259.851 85.4122 260.386 86.661C262.879 92.4899 267.904 97.0407 271.846 97.0407C274.49 97.0407 274.426 96.1603 271.583 93.4162C268.966 90.8901 266.204 86.4301 266.587 85.3474C266.697 85.0347 267.783 85.9656 269 87.4162ZM476.148 85.9254C476.429 86.3775 476.482 86.9225 476.267 87.1366C475.685 87.7172 475.051 86.8634 475.365 85.9228C475.585 85.2637 475.739 85.2637 476.148 85.9254ZM473.926 86.9854C473.926 87.5206 473.634 87.9585 473.278 87.9585C472.921 87.9585 470.799 88.8155 468.563 89.8625C466.326 90.9095 463.618 91.9501 462.545 92.1739L460.594 92.5813L462.856 90.5852C465.005 88.6903 470.93 86.0123 472.975 86.0123C473.498 86.0123 473.926 86.4502 473.926 86.9854ZM477.973 93.1795C482.289 100.75 482.661 102.258 482.61 111.961C482.553 122.932 481.169 128.523 476.494 136.671C474.679 139.837 472.956 142.572 472.666 142.751C472.376 142.93 471.942 141.549 471.701 139.682C471.46 137.816 470.524 132.973 469.62 128.921C468.345 123.204 468.113 121.025 468.586 119.19L469.195 116.827L470.284 119.297C470.883 120.656 471.755 124.331 472.223 127.465C473.165 133.785 473.749 135.341 474.648 133.925C474.956 133.441 475.211 131.982 475.217 130.682C475.223 129.225 475.588 128.18 476.169 127.958C477.65 127.391 478.661 122.488 478.193 118.133C477.69 113.451 475.518 106.523 474.215 105.444C473.427 104.792 473.276 105.027 473.276 106.899C473.276 108.127 473.715 110.609 474.253 112.415C475.884 117.893 476.489 122.07 475.936 124.039L475.412 125.909L474.662 123.218C473.425 118.78 471.303 114.493 470.568 114.946C469.801 115.419 470.251 112.657 471.636 108.393C472.099 106.966 472.685 104.266 472.938 102.393C473.191 100.52 473.635 98.8415 473.926 98.6625C474.217 98.4834 474.301 97.753 474.114 97.04C473.928 96.3271 474.086 95.7432 474.467 95.7432C474.848 95.7432 475.247 94.2103 475.356 92.3374L475.552 88.9316L477.973 93.1795ZM470.024 95.9846C470.024 96.8305 468.574 99.7387 466.801 102.448C463.007 108.245 457.711 121.249 457.204 126.014C456.781 129.982 457.345 132.721 458.586 132.721C459.705 132.721 460.269 131.301 460.269 128.481C460.269 127.277 461.021 124.309 461.941 121.884C462.86 119.459 464.088 116.083 464.67 114.382C465.251 112.681 466.035 111.391 466.413 111.513C467.995 112.03 467.445 115.564 464.94 120.972C462.187 126.918 460.609 132.991 461.285 135.041C462.187 137.782 463.861 140.505 464.644 140.505C465.241 140.505 465.493 139.013 465.549 135.153L465.626 129.801L466.517 134.667C467.006 137.343 467.68 140.845 468.012 142.451C468.345 144.056 468.504 145.482 468.366 145.619C468.228 145.757 467.231 145.505 466.15 145.058C459.962 142.501 448.874 123.525 448.897 115.529C448.91 111.014 450.174 108.923 455.169 105.163C457.548 103.372 461.53 100.228 464.019 98.1759C466.507 96.124 468.876 94.4458 469.283 94.4458C469.691 94.4458 470.024 95.138 470.024 95.9846ZM478.514 99.0556C480.358 102.662 481.66 109.224 481.251 112.851C480.895 115.99 479.779 116.377 479.779 113.36C479.779 111.367 477.722 105.189 475.82 101.47C474.766 99.4105 474.692 98.7838 475.374 97.6959C476.53 95.8496 476.972 96.041 478.514 99.0556ZM467.423 98.1039C467.423 98.3323 466.586 99.8756 465.563 101.534C464.54 103.192 462.348 108.041 460.692 112.31C457.125 121.504 455.623 124.543 454.741 124.355C453.198 124.028 455.712 115.449 459.798 107.096C462.094 102.404 467.423 96.1188 467.423 98.1039ZM289.225 102.892C291.959 105.337 293.912 106.436 297.517 107.553C300.11 108.358 302.232 109.241 302.232 109.516C302.232 110.379 298.043 110.06 294.767 108.947C291.331 107.779 285.322 102.55 285.322 100.728C285.322 100.127 285.396 99.6479 285.485 99.6635C285.574 99.679 287.257 101.132 289.225 102.892ZM459.618 103.682C459.618 103.89 458.267 106.85 456.614 110.259C454.962 113.668 453.459 117.792 453.275 119.424C452.819 123.456 451.541 122.816 451.288 118.43C451.062 114.51 452.334 110.578 454.64 108.069C456.787 105.733 459.618 103.238 459.618 103.682ZM280.382 106.947C281.974 108.138 281.206 109.367 278.867 109.367C277.863 109.367 275.549 109.985 273.724 110.742C270.159 112.22 268.189 112.006 268.528 110.179C269.013 107.558 277.943 105.123 280.382 106.947ZM314.589 111.042C314.589 111.249 313.603 112.635 312.398 114.123C309.406 117.817 308.735 119.265 308.735 122.028C308.735 123.632 308.473 124.309 307.922 124.128C305.558 123.352 307.506 116.475 311.107 112.883C313.141 110.854 314.589 110.088 314.589 111.042ZM252.245 113.246C253.555 114.342 253.637 114.626 252.804 115.182C252.268 115.54 250.073 115.834 247.927 115.834C245.781 115.834 243.586 115.54 243.049 115.182C241.387 114.072 244.584 111.961 247.927 111.961C249.749 111.961 251.239 112.404 252.245 113.246ZM279.144 119.886C283.343 122.271 282.888 126.813 278.337 127.953C275.168 128.746 272.311 123.596 274.429 120.909C275.571 119.459 277.613 119.017 279.144 119.886ZM401.247 121.685C402.229 121.984 404.424 123.237 406.124 124.471C408.204 125.98 410.28 126.859 412.467 127.158C419.093 128.066 426.433 133.232 427.491 137.732C427.723 138.722 428.849 140.554 429.993 141.803C434.402 146.62 435.907 150.417 434.894 154.17C433.971 157.588 432.273 159.442 428.172 161.512C423.72 163.759 422.679 163.321 424.807 160.098C427.013 156.757 427.448 153.215 426.125 149.348C425.311 146.967 425.229 146.008 425.794 145.455C426.823 144.448 428.811 146.948 429.773 150.46C430.486 153.056 430.188 155.509 428.66 159.643L428.181 160.94L429.681 159.643C433.198 156.602 433.886 151.272 431.276 147.285C429.569 144.677 424.659 140.505 423.297 140.505C422 140.505 422.484 141.908 423.909 142.28C425.052 142.577 425.201 142.958 424.84 144.651C424.604 145.761 424.199 149.15 423.941 152.183C423.237 160.436 419.508 168.393 418.754 163.25C418.634 162.435 419.175 159.188 419.957 156.034C420.738 152.881 421.258 149.943 421.112 149.507C420.519 147.732 417.847 153.035 417.218 157.236C416.859 159.63 416.055 163.281 415.432 165.35C414.414 168.725 414.404 169.068 415.333 168.703C420.469 166.685 425.8 165.46 425.8 166.299C425.8 167.073 423.48 168.13 416.752 170.42C413.743 171.444 410.737 172.774 410.071 173.375C408.503 174.789 407.858 174.08 407.02 170.023C406.651 168.239 406.076 165.503 405.742 163.943C405.153 161.197 405.694 153.667 406.584 152.232C407.227 151.193 406.21 151.388 404.009 152.728C400.946 154.591 394.864 156.685 387.429 158.434C379.577 160.282 376.277 161.984 373.242 165.751C372.057 167.223 370.813 168.257 370.478 168.051C369.596 167.507 369.741 164.703 370.864 160.616C371.403 158.654 372.256 154.203 372.76 150.726C373.85 143.204 375.188 140.311 380.824 133.284C387.852 124.522 395.776 120.022 401.247 121.685ZM403.525 123.742C405.974 124.987 405.192 125.379 400.726 125.148C396.738 124.942 393.932 125.618 393.932 126.784C393.932 127.062 396.305 127.973 399.207 128.809C402.107 129.645 405.339 131.05 406.388 131.93C408.744 133.908 408.333 134.625 405.839 132.889C401.486 129.859 392.376 128.422 389.734 130.348C388.662 131.131 388.88 131.26 391.846 131.611C396.098 132.113 402.226 134.666 400.924 135.393C400.414 135.678 398.013 135.603 395.588 135.227C390.525 134.44 386.648 134.86 383.312 136.557L380.978 137.744L381.983 135.807C383.549 132.785 388.065 128.193 391.869 125.755C395.683 123.311 400.903 122.409 403.525 123.742ZM260.991 124.379C261.244 124.787 261.593 127.837 261.766 131.157L262.083 137.195L264.11 136.795C265.945 136.432 266.052 136.497 265.245 137.477C264.69 138.149 263.394 138.559 261.83 138.559H259.308V131.099C259.308 124.215 259.763 122.397 260.991 124.379ZM252.172 125.385C254.32 126.851 254.734 127.532 254.746 129.617C254.763 132.66 250.642 133.807 248.252 131.423C246.696 129.871 246.553 126.723 247.973 125.306C249.278 124.005 250.175 124.022 252.172 125.385ZM239.114 129.801C239.157 133.013 239.605 137.951 240.11 140.776C240.802 144.647 240.848 146.245 240.297 147.263C239.633 148.492 239.481 148.321 238.626 145.371C237.532 141.598 237.366 128.861 238.372 125.909C238.925 124.285 239.048 124.93 239.114 129.801ZM306.763 125.747C306.752 126.193 306.313 127.125 305.788 127.817C305.263 128.51 304.824 129.678 304.814 130.412C304.797 131.541 304.7 131.589 304.191 130.719C303.41 129.389 304.74 124.936 305.918 124.936C306.395 124.936 306.775 125.301 306.763 125.747ZM291.981 126.243C295.579 128.454 294.214 133.325 289.402 135.448C282.683 138.413 278.486 133.493 282.961 127.895C284.132 126.431 285.062 126.015 287.636 125.808C289.404 125.665 291.359 125.861 291.981 126.243ZM408.304 129.042C409.589 130.173 411.709 131.914 413.017 132.911C415.529 134.826 416.046 135.964 414.402 135.964C413.857 135.964 413.144 135.264 412.817 134.408C412.491 133.552 411.669 132.457 410.99 131.975C408.57 130.256 405.479 127.473 405.722 127.232C405.857 127.096 407.019 127.911 408.304 129.042ZM312.033 127.675C315.673 129.018 317.015 132.154 314.868 134.296C313.348 135.812 308.412 135.642 306.784 134.018C305.231 132.469 305.189 131.927 306.434 129.525C307.481 127.506 309.641 126.792 312.033 127.675ZM419.452 133.568C420.634 134.747 422.107 135.906 422.725 136.142C424.2 136.706 424.186 138.098 422.711 137.661C422.084 137.475 420.841 137.149 419.946 136.936C418.844 136.673 417.969 135.723 417.231 133.986C415.901 130.86 416.605 130.728 419.452 133.568ZM276.664 137.668C278.187 141.628 268.322 146.779 263.818 144.375C261.506 143.141 262.423 142.389 265.708 142.823C269.621 143.342 272.497 142.021 274.376 138.843C275.874 136.311 276.098 136.197 276.664 137.668ZM413.181 137.923C418.226 138.454 420.597 139.041 420.597 139.759C420.597 140.349 412.558 145.671 412.2 145.318C412.054 145.173 412.375 144.542 412.914 143.915C413.454 143.288 414.143 142.338 414.444 141.803C414.927 140.948 414.841 140.943 413.73 141.765C413.036 142.28 411.004 144.092 409.216 145.791C405.105 149.697 397.099 153.478 388.159 155.734C384.447 156.67 379.662 158.317 377.525 159.393C375.388 160.469 373.512 161.223 373.357 161.068C372.699 160.412 375.897 153.568 378.152 150.808C380.749 147.628 386.037 143.605 388.712 142.773C389.796 142.435 388.282 144.276 384.069 148.417C377.645 154.732 374.791 158.67 376.637 158.67C377.924 158.67 388.32 149.5 392.319 144.837C395.368 141.282 398.112 139.343 401.632 138.256C403.236 137.761 396.152 144.819 389.198 150.643C383.092 155.758 386.697 154.898 394.564 149.363C396.164 148.238 399.737 145.054 402.503 142.289C405.271 139.525 407.766 137.301 408.049 137.35C408.333 137.398 410.642 137.656 413.181 137.923ZM393.561 139.019C392.641 139.975 391.099 140.431 387.784 140.727L383.262 141.13L384.619 139.776C385.63 138.767 387.104 138.332 390.397 138.068C394.811 137.715 394.815 137.716 393.561 139.019ZM410.191 139.24C410.191 140.711 408.137 143.761 406.127 145.274C404.036 146.847 399.135 149.157 399.135 148.568C399.135 148.068 409.175 138.56 409.703 138.559C409.972 138.559 410.191 138.865 410.191 139.24ZM417.701 148.871C416.287 150.336 414.696 151.534 414.166 151.534C413.635 151.534 412.524 152.168 411.696 152.944C409.077 155.399 410.071 153.085 412.955 150.014C414.812 148.037 416.466 146.929 417.995 146.639L420.272 146.208L417.701 148.871ZM355.151 150.399C355.899 153.18 355.583 159.69 354.639 160.977C353.189 162.955 352.917 161.821 354 158.315C354.634 156.262 354.852 153.989 354.604 152.02C354.196 148.782 354.486 147.922 355.151 150.399ZM292.802 156.724C292.154 157.437 291.478 158.021 291.299 158.021C291.12 158.021 291.504 157.437 292.151 156.724C292.798 156.01 293.475 155.426 293.653 155.426C293.832 155.426 293.449 156.01 292.802 156.724ZM490.836 156.755C491.932 157.127 491.403 157.185 489.21 156.932C487.421 156.726 485.836 156.449 485.687 156.316C485.175 155.86 489.211 156.205 490.836 156.755ZM413.366 160.539C412.785 165.967 411.516 170.438 410.699 169.935C410.012 169.511 410.51 165.795 411.946 160.616C413.382 155.444 413.915 155.416 413.366 160.539ZM456.994 163.642C461.208 168.686 461.645 169.467 461.26 171.264C460.032 176.985 459.641 181.622 459.944 186.889C460.258 192.363 460.223 192.584 459.377 190.424C457.938 186.749 457.508 180.81 458.346 176.185C459.469 169.978 459.45 168.792 458.217 168.545C456.977 168.296 456.132 170.431 454.773 177.256L453.887 181.7L453.826 177.932C453.792 175.86 454.097 172.159 454.503 169.708C455.255 165.166 454.918 162.451 453.746 163.62C453.4 163.964 452.431 166.549 451.592 169.365C450.311 173.661 449.998 174.215 449.643 172.806C449.172 170.935 450.098 165.197 451.203 163.138C451.597 162.403 451.756 161.64 451.557 161.441C450.915 160.801 449.273 162.628 448.45 164.896C447.438 167.69 446.611 167.727 446.611 164.981C446.611 162.72 449.881 158.021 451.453 158.021C451.918 158.021 454.412 160.55 456.994 163.642ZM463.846 162.202C467.065 164.121 470.723 166.755 471.975 168.056L474.251 170.42L469.049 168.056C465.185 166.3 463.002 164.788 460.569 162.181C458.767 160.249 457.45 158.68 457.643 158.692C457.835 158.704 460.626 160.284 463.846 162.202ZM489.706 160.024C491.768 160.325 495.28 161.342 497.511 162.284C499.742 163.226 502.392 164.084 503.402 164.191C507.036 164.576 506.68 165.546 502.668 166.185C500.333 166.558 499.975 166.471 500.307 165.609C500.758 164.436 495.698 162.659 487.746 161.2C485.153 160.724 483.031 160.106 483.031 159.826C483.031 159.23 484.581 159.276 489.706 160.024ZM482.309 163.152C482.805 163.466 486.098 164.392 489.625 165.21C493.152 166.028 496.038 166.935 496.038 167.225C496.038 169.262 481.688 165.727 480.822 163.476C480.423 162.438 480.985 162.316 482.309 163.152ZM436.502 168.482C435.981 169.954 435.546 172.654 435.534 174.483C435.516 177.419 435.411 177.672 434.633 176.649C434.014 175.835 433.903 174.776 434.26 173.081C434.54 171.756 434.959 169.577 435.191 168.239C435.445 166.777 435.98 165.806 436.531 165.806C437.316 165.806 437.312 166.192 436.502 168.482ZM469.389 171.383C475.57 175.432 478.466 178.15 480.167 181.499C481.075 183.286 481.708 184.858 481.573 184.992C481.439 185.126 480.254 183.954 478.941 182.387C477.628 180.819 474.409 178.204 471.788 176.575C468.433 174.488 466.701 172.938 465.933 171.331C465.333 170.076 465.064 169.049 465.334 169.049C465.605 169.049 467.429 170.099 469.389 171.383ZM465.332 175.873C467.648 180.558 467.98 181.995 466.455 180.733C465.669 180.082 465.408 180.136 465.069 181.018C464.555 182.355 465.139 198.075 465.771 199.864C466.215 201.124 466.199 201.126 465.228 199.941C463.187 197.451 462.395 189.527 462.983 177.483C463.079 175.52 462.915 173.404 462.619 172.78C462.318 172.145 462.337 171.644 462.661 171.644C462.98 171.644 464.182 173.548 465.332 175.873ZM215.021 174.673C216.128 176.339 216.887 177.847 216.708 178.025C216.322 178.41 216.465 178.575 213.857 174.726C212.709 173.031 212.049 171.644 212.39 171.644C212.731 171.644 213.915 173.007 215.021 174.673ZM398.225 178.7C401.682 181.243 405.445 185.268 404.365 185.268C403.881 185.268 402.579 184.58 401.472 183.739C398.879 181.77 394.268 179.429 392.983 179.429C392.415 179.429 391.981 178.867 391.981 178.132C391.981 176.169 395.18 176.461 398.225 178.7ZM246.301 178.052C246.301 178.365 245.814 179.022 245.219 179.512C244.238 180.319 244.209 180.266 244.916 178.943C245.723 177.433 246.301 177.061 246.301 178.052ZM472.372 180.466C476.623 183.3 479.029 185.981 480.078 189.053C482.136 195.076 481.032 194.402 475.285 186.124C473.754 183.919 472.109 181.965 471.63 181.782C470.831 181.476 468.995 178.78 469.585 178.78C469.727 178.78 470.981 179.539 472.372 180.466ZM388.271 182.432C388.858 183.018 381.258 192.002 377.029 195.721C373.575 198.759 373.512 198.873 375.267 198.882C378.31 198.897 380.398 197.334 386.01 190.84C388.967 187.419 391.886 184.623 392.497 184.629C395.791 184.658 395.23 185.787 388.358 192.95L381.414 200.188L378.08 200.181C373.315 200.171 369.869 199.497 369.869 198.576C369.869 198.139 371.218 196.936 372.867 195.904C374.516 194.871 378.186 191.325 381.021 188.025C385.799 182.463 387.211 181.374 388.271 182.432ZM472.616 184.132C472.607 185.312 472.485 185.406 471.975 184.619C471.16 183.361 471.16 182.673 471.975 182.673C472.333 182.673 472.621 183.329 472.616 184.132ZM469.14 184.675C469.549 185.179 470.358 187.001 470.938 188.723C471.9 191.576 471.904 192.118 470.979 194.834C470.163 197.23 470.1 198.449 470.658 201.043C471.441 204.683 471.069 205.85 470.012 203.076C468.172 198.248 467.428 182.561 469.14 184.675ZM379.541 185.105C379.051 185.73 378.487 186.387 378.29 186.565C378.093 186.743 376.23 189.006 374.152 191.593C372.074 194.18 369.966 196.296 369.47 196.296C368.974 196.296 368.568 196.116 368.568 195.896C368.568 195.015 373.264 189.194 376.016 186.663C378.997 183.922 381.257 182.924 379.541 185.105ZM400.196 187.854C401.482 188.372 401.226 188.787 396.619 193.643C393.64 196.783 390.647 199.285 389.131 199.9C385.545 201.357 384.827 200.166 387.979 197.987C389.382 197.017 392.246 194.203 394.344 191.732C396.443 189.261 398.306 187.252 398.485 187.268C398.664 187.283 399.434 187.547 400.196 187.854ZM405.917 191.054C406.996 192.244 406.983 192.335 405.62 193.063C404.834 193.482 402.471 195.403 400.368 197.331C398.173 199.344 395.939 200.837 395.122 200.837C393.887 200.837 394.044 200.541 396.305 198.611C397.738 197.387 399.913 194.914 401.137 193.114C403.595 189.501 404.251 189.218 405.917 191.054ZM368.637 191.307C367.05 193.043 365.967 193.078 365.967 191.392C365.967 190.878 366.382 190.457 366.889 190.457C367.396 190.457 368.348 190.265 369.003 190.029C369.97 189.682 369.9 189.923 368.637 191.307ZM218.817 192.384C223.188 194.363 225.206 200.188 221.52 200.188C217.254 200.188 211.832 196.897 211.832 194.308C211.832 192.837 213.539 191.102 214.967 191.12C215.568 191.128 217.3 191.697 218.817 192.384ZM245.225 193.59C248.109 196.77 245.134 199.815 239.021 199.941C232.695 200.072 231.856 198.061 236.581 194.096C239.08 191.998 243.543 191.737 245.225 193.59ZM412.11 194.747C414.255 196.547 416.044 199.45 416.044 201.129C416.044 201.957 415.084 202.135 410.607 202.135C407.616 202.135 403.822 201.95 402.173 201.725L399.176 201.315L401.92 199.379C403.429 198.314 404.956 197.101 405.313 196.683C405.671 196.266 406.89 195.276 408.022 194.483L410.08 193.043L412.11 194.747ZM238.38 196.016C238.146 198.875 236.977 199.473 236.675 196.889C236.564 195.93 236.931 194.838 237.535 194.339C238.481 193.555 238.568 193.727 238.38 196.016ZM218.166 195.972C217.45 198.296 216.384 199.047 216.384 197.226C216.384 195.897 217.576 193.701 218.298 193.701C218.609 193.701 218.55 194.723 218.166 195.972ZM475.204 198.08C476.049 201.065 476.874 209.919 476.307 209.919C475.35 209.919 473.8 204.714 473.457 200.351C473.048 195.137 474.015 193.88 475.204 198.08ZM205.62 198.404C205.758 198.851 206.028 199.945 206.222 200.837L206.574 202.459L199.696 202.236C194.832 202.077 192.948 202.22 193.259 202.722C193.501 203.113 194.955 203.432 196.491 203.432C198.027 203.432 201.054 203.616 203.217 203.842C206.58 204.192 207.256 204.487 207.889 205.872C208.296 206.763 208.545 207.543 208.442 207.605C208.339 207.667 205.429 208.379 201.976 209.189C195.74 210.649 191.707 212.453 194.597 212.489C196.385 212.511 206.425 210.074 207.992 209.237C210.179 208.07 215.155 212.528 217.677 217.917C218.818 220.353 219.652 222.399 219.531 222.462C219.41 222.525 217.262 223.26 214.759 224.096C212.255 224.931 208.157 226.582 205.654 227.765C203.15 228.948 199.135 230.795 196.732 231.87C189.433 235.131 187.203 238.815 190.433 242.273C193.343 245.389 196.85 245.681 203.115 243.329C205.49 242.437 207.566 241.707 207.726 241.707C207.886 241.707 207.019 242.948 205.799 244.464C204.579 245.98 202.623 248.637 201.452 250.367C200.076 252.401 198.488 253.849 196.96 254.463C195.661 254.984 193.05 256.15 191.159 257.052C187.964 258.576 186.952 258.704 176.851 258.86C167.844 258.999 165.258 259.264 161.754 260.405C152.549 263.406 144.831 269.502 139.046 278.341C134.768 284.876 126.687 300.971 121.411 313.46L117.272 323.259L109.434 323.695C105.123 323.935 100.848 324.293 99.9346 324.489C98.3978 324.82 98.0941 324.465 95.8914 319.768C91.7934 311.03 91.48 309.756 92.4854 305.952C92.9686 304.126 94.2648 300.905 95.3665 298.794C96.4676 296.683 97.365 294.287 97.3598 293.47C97.354 292.576 96.0019 294.651 93.9669 298.677C89.4092 307.697 89.3396 310.327 93.4408 318.581C95.0361 321.792 96.4298 324.575 96.5371 324.766C96.6451 324.956 93.8817 325.494 90.3971 325.96C77.5831 327.676 68.1087 330.786 51.613 338.692C42.6505 342.988 33.4082 346.152 29.8221 346.152C28.4336 346.152 27.858 346.4 28.1507 346.873C28.6716 347.714 33.2293 347.246 39.1619 345.743C41.3081 345.2 48.0393 342.479 54.1201 339.697C66.7904 333.9 72.7763 331.647 80.1345 329.903C87.1544 328.239 102.105 326.075 109.965 325.587L116.382 325.188L115.889 326.74C115.617 327.594 113.27 333.26 110.675 339.331C106.629 348.792 98.0011 365.493 86.0663 386.963C81.6192 394.964 81.6198 394.934 85.7405 399.138C87.6649 401.102 90.892 403.99 92.912 405.556L96.5846 408.403L94.8741 412.957L93.1637 417.512H82.064C62.9767 417.512 50.6557 416.272 36.2353 412.898C15.4785 408.043 10.5449 404.073 5.94943 388.528C4.68839 384.264 4.16745 380.738 3.90405 374.696C3.33627 361.655 5.595 355.466 12.6644 350.693C16.9145 347.823 17.0022 346.559 13.5475 337.894C8.93585 326.324 7.43155 320.911 7.37106 315.662C7.29886 309.366 8.31216 306.64 12.2097 302.648C17.1043 297.636 17.7072 297.498 34.7512 297.492C51.3464 297.487 55.5821 296.999 63.5503 294.177C74.0751 290.448 78.2718 289.604 86.3031 289.603C90.4218 289.602 95.1779 289.454 96.8714 289.274L99.9508 288.945L101.337 284.301C103.844 275.903 118.668 233.716 121.091 228.084C126.761 214.903 131.937 209.386 142.422 205.344C154.357 200.744 162.71 199.395 186.401 198.24C203.587 197.402 205.315 197.417 205.62 198.404ZM230.579 200.105C231.242 200.524 230.975 201.158 229.42 202.852C227.729 204.694 227.294 204.895 226.748 204.081C225.213 201.789 224.803 200.772 225.173 200.175C225.653 199.4 229.388 199.352 230.579 200.105ZM387.103 202.465C394.973 203.274 406.094 204.13 411.817 204.369C438.509 205.483 448.928 206.532 457.296 208.951C464.089 210.914 476.1 216.015 478.839 218.099C483.397 221.567 486.304 228.252 487.928 238.998C489.047 246.401 489.124 252.314 488.23 262.107C487.869 266.051 486.686 280.079 485.599 293.281C484.513 306.482 482.783 322.976 481.755 329.934C479.866 342.72 476.175 360.22 475.124 361.377C474.789 361.745 474.69 361.209 474.886 360.08C476.61 350.147 477.432 332.125 476.572 323.122C475.819 315.241 474.643 311.517 472.494 310.215C470.603 309.069 470.431 310.321 472.194 312.41C474.619 315.285 474.905 317.576 474.871 333.826C474.849 344.729 474.452 351.87 473.304 362.046C471.895 374.533 471.582 376.06 469.556 380.347C465.854 388.18 459.09 393.065 436.531 404.199C417.378 413.651 389.214 426.64 388.787 426.217C388.64 426.071 389.765 424.71 391.287 423.192C394.85 419.637 399.469 411.827 401.095 406.604C401.796 404.351 402.96 399.057 403.682 394.838C404.404 390.62 405.435 385.923 405.974 384.399C407.237 380.826 406.744 380.345 405.107 383.553C403.448 386.804 402.621 389.878 401.381 397.402C399.244 410.369 392.529 421.673 384.312 426.134C380.528 428.188 375.697 428.959 361.414 429.785C346.267 430.662 328.461 429.831 285.544 426.247C267.671 424.754 257.328 424.341 222.238 423.719C214.189 423.576 206.873 423.162 205.979 422.797C204.454 422.176 204.441 422.133 205.767 422.094C208.556 422.013 213.814 420.527 213.027 420.041C212.419 419.667 212.434 419.325 213.092 418.534C214.29 417.094 215.3 417.264 214.889 418.836C214.597 419.947 214.768 420.092 215.951 419.737C216.726 419.503 217.617 419.074 217.932 418.783C218.616 418.149 232.247 359.3 233.594 351.165C234.112 348.035 234.702 345.206 234.905 344.877C235.109 344.549 235.577 342.65 235.947 340.656C236.317 338.662 237.349 335.581 238.242 333.808C242.933 324.491 242.78 312.338 237.821 300.456C236.68 297.721 235.879 295.352 236.042 295.189C236.579 294.653 241.036 304.883 242.134 309.175C243.46 314.355 243.078 325.391 241.411 330.108C240.809 331.809 240.481 333.625 240.68 334.143C241.203 335.503 258.867 343.833 283.07 354.135C293.135 358.419 299.253 359.494 310.361 358.928C326.236 358.118 341.061 352.488 350.408 343.717L355.611 338.834L362.253 339.282C365.905 339.528 371.966 340.167 375.722 340.701C379.478 341.235 386.309 341.85 390.902 342.067C397.248 342.366 399.339 342.682 399.608 343.383C400.132 344.745 398.517 357.428 397.124 362.898C395.507 369.245 392.613 374.47 387.828 379.678C383.79 384.074 384.373 384.387 389.054 380.337C396.388 373.993 400.09 362.371 401.083 342.584C401.387 336.518 401.955 330.723 402.345 329.706C403.781 325.966 409.134 323.114 422.548 318.945C427.377 317.444 436.303 314.649 442.384 312.735C454.621 308.881 459.293 307.877 464.979 307.877C467.64 307.877 468.663 307.656 468.349 307.149C468.039 306.649 465.73 306.525 460.994 306.754C454.633 307.061 452.561 307.551 434.634 312.985C413.833 319.292 408.654 321.336 404.698 324.8C401.533 327.572 400.623 329.766 400.058 335.988L399.606 340.962H394.977C392.43 340.962 386.545 340.509 381.897 339.956C377.249 339.403 369.856 338.57 365.467 338.107C361.079 337.643 357.368 337.142 357.219 336.993C357.071 336.845 357.95 334.685 359.173 332.193C362.403 325.617 363.485 320.892 363.665 312.597L363.821 305.315L368.517 300.979C374.129 295.795 377.682 290.765 380.24 284.377C385.6 270.992 386.007 258.751 381.858 235.709C379.88 224.725 376.751 215.027 372.587 206.97L369.416 200.837L371.106 200.916C372.035 200.96 379.234 201.657 387.103 202.465ZM257.357 208.875C264.141 210.682 265.282 211.094 263.692 211.165C262.337 211.226 251.101 208.73 249.228 207.952C246.438 206.794 251.847 207.408 257.357 208.875ZM241.098 214.412C241.098 214.736 239.708 215.537 238.009 216.191C234.6 217.503 225.355 217.819 223.389 216.691C222.59 216.233 224.191 216.051 228.917 216.064C233.784 216.077 236.312 215.779 238.334 214.952C239.854 214.331 241.098 214.087 241.098 214.412ZM475.675 225.327C477.386 235.322 474.991 279.27 471.903 294.541C469.294 307.44 468.78 302.547 471.02 286.145C472.553 274.918 474.101 250.356 474.177 236.032C474.218 228.451 474.453 222.248 474.699 222.247C474.946 222.246 475.385 223.631 475.675 225.327ZM268.901 227.831C271.719 229.083 268.162 231.23 257.614 234.644C251.818 236.52 248.141 238.398 250.178 238.443C250.701 238.454 255.319 237.255 260.44 235.779C265.562 234.303 269.926 233.269 270.139 233.481C271.323 234.662 268.911 236.003 261.147 238.479C256.38 239.998 252.357 241.346 252.208 241.474C251.292 242.261 253.361 242.33 258.283 241.677C264.363 240.869 268.39 241.266 266.25 242.461C264.397 243.495 254.177 246.842 249.675 247.889C244.386 249.118 242.28 249.081 237.574 247.676C233.255 246.386 231.525 244.628 230.921 240.916C230.003 235.27 231.503 234.192 241.483 233.327C246.006 232.935 250.3 232.029 255.344 230.403C262.651 228.047 267.371 227.151 268.901 227.831ZM230.205 234.588C229.579 235.31 228.042 236.915 226.79 238.153C224.53 240.387 224.625 241.392 226.901 239.336C228.017 238.328 228.091 238.345 228.091 239.607C228.091 240.347 228.268 241.411 228.484 241.973C228.732 242.619 228.434 243.149 227.671 243.418C227.007 243.652 225.685 244.561 224.732 245.438L222.999 247.034L222.568 243.56C222.055 239.427 222.924 236.718 225.017 235.924C225.843 235.611 226.908 234.886 227.385 234.314C227.861 233.742 228.946 233.273 229.796 233.273C231.29 233.273 231.304 233.318 230.205 234.588ZM283.371 235.613C287.038 236.594 295.93 240.424 295.511 240.842C295.383 240.97 293.257 240.3 290.788 239.354C284.641 236.998 279.811 235.892 275.567 235.868C273.015 235.854 272.27 235.669 272.966 235.22C274.365 234.318 279.214 234.501 283.371 235.613ZM221.587 236.693C221.587 236.847 221.279 237.854 220.903 238.933C220.352 240.507 220.491 241.708 221.608 245.03C222.374 247.305 223.483 249.704 224.074 250.361C225.075 251.474 225.065 251.615 223.927 252.445C223.069 253.07 221.817 253.204 219.708 252.895C215.413 252.266 206.732 252.314 203.797 252.982C201.424 253.523 201.327 253.485 201.979 252.268C203.149 250.088 211.879 241.088 214.694 239.16C217.038 237.555 221.587 235.927 221.587 236.693ZM229.696 245.767C230.62 247.082 230.566 247.275 228.901 248.635C226.691 250.44 226.332 250.467 225.822 248.868C224.896 245.955 228.053 243.427 229.696 245.767ZM260.609 250.987C269.769 254.319 271.32 255.248 274.476 259.285C276.238 261.539 277.423 262.466 278.541 262.466C280.079 262.466 280.12 262.599 280.12 267.587C280.12 271.514 279.895 272.793 279.155 273.076C278.624 273.279 278.349 273.856 278.541 274.358C278.76 274.926 278.344 275.414 277.437 275.65C275.547 276.143 248.252 263.39 248.252 262.014C248.252 258.68 251.572 257.285 259.525 257.28C262.998 257.278 264.542 257.045 264.376 256.549C264.242 256.149 261.39 254.7 258.037 253.328C251.168 250.519 250.049 249.747 251.509 248.826C252.76 248.037 252.01 247.859 260.609 250.987ZM213.783 255.137C219.105 255.716 231.122 258.105 232.944 258.946C234.031 259.448 234.334 259.732 233.619 259.579C228.38 258.455 218.17 257.83 208.528 258.041C197.815 258.276 197.004 258.384 193.622 260.032C177.902 267.69 170.178 285.329 160.741 335.124C159.49 341.724 158.337 347.563 158.18 348.098C158.023 348.633 155.975 360.447 153.629 374.351C151.284 388.255 148.767 402.556 148.036 406.13L146.709 412.629L148.075 413.732C148.825 414.338 152.869 416.175 157.061 417.813C165.352 421.053 166.8 421.777 166.198 422.378C165.675 422.9 153.814 419.059 149.909 417.103C146.52 415.406 145.495 414.018 145.495 411.125C145.495 407.701 148.696 388.429 151.977 372.101C153.733 363.36 155.945 351.099 156.893 344.855C158.851 331.949 162.582 315.035 166.409 301.714C173.123 278.35 175.357 273.187 181.727 266.324C184.681 263.142 186.645 261.775 191.942 259.219C200.352 255.16 205.373 254.222 213.783 255.137ZM275.697 277.517C275.09 278.122 274.743 278.122 274.136 277.517C273.529 276.911 273.702 276.738 274.917 276.738C276.131 276.738 276.304 276.911 275.697 277.517ZM221.894 289.809C225.941 294.607 234.777 314.917 237.232 325.068C239.2 333.205 238.662 332.927 235.976 324.42C232.268 312.675 225.702 297.856 221.46 291.659C219.046 288.132 218.865 287.767 219.54 287.767C219.887 287.767 220.947 288.686 221.894 289.809ZM418.369 345.017C416.414 354.492 415.763 357.112 414.999 358.599C413.678 361.167 412.694 361.468 413.725 358.988C414.213 357.815 415.286 353.864 416.109 350.207C416.933 346.549 417.846 343.557 418.138 343.557C418.431 343.557 418.535 344.214 418.369 345.017ZM24.854 366.289C31.1794 368.314 38.8042 369.033 50.153 368.673C55.9119 368.491 61.3553 368.126 62.2496 367.863C63.3617 367.535 63.67 367.595 63.2251 368.053C61.436 369.894 41.5747 370.793 32.0047 369.465C26.0695 368.641 19.6063 366.774 19.765 365.928C19.9536 364.924 20.7743 364.982 24.854 366.289ZM289.225 380.393C289.225 381.073 283.489 381.477 263.872 382.181C244.297 382.884 253.674 381.844 282.233 380.147C286.828 379.874 289.225 379.958 289.225 380.393ZM364.487 385.331C364.029 386.786 356.044 388.922 351.009 388.935C343.535 388.955 343.371 387.902 350.79 387.521C354.675 387.322 358.665 386.686 360.95 385.903C363.192 385.134 364.621 384.903 364.487 385.331ZM463.532 393.153C461.303 399.001 456.239 403.891 449.453 406.746C446.581 407.954 438.547 411.925 431.601 415.571C379.595 442.865 384.771 440.866 366.101 440.866C359.187 440.866 349.376 440.576 344.301 440.221C339.227 439.865 328.636 439.293 320.767 438.948C312.898 438.604 303.093 437.879 298.98 437.338C280.233 434.876 249.396 432.177 228.091 431.133C220.4 430.757 210.304 430.167 205.654 429.821C201.004 429.475 196.833 429.192 196.386 429.19C195.911 429.19 195.573 428.354 195.573 427.176V425.164L201.264 425.531C204.393 425.733 220.563 426.187 237.196 426.539C253.829 426.892 272.705 427.627 279.144 428.172C298.136 429.78 315.186 431.061 331.823 432.13C355.873 433.674 377.079 432.551 387.429 429.183C397.581 425.879 446.923 402.045 458.093 395.049C461.156 393.132 463.768 391.563 463.9 391.563C464.031 391.563 463.866 392.279 463.532 393.153ZM88.8167 396.072C88.537 396.908 87.6454 397.058 87.5648 396.282C87.5381 396.024 87.8672 395.695 88.2964 395.553C88.7256 395.41 88.9598 395.643 88.8167 396.072ZM93.2086 399.672C91.9658 400.61 90.8654 400.44 90.8654 399.309C90.8654 398.973 91.6698 398.708 92.6538 398.72C94.3487 398.739 94.3773 398.789 93.2086 399.672ZM98.0193 402.591C98.0193 402.948 97.4164 403.24 96.6802 403.24C95.944 403.24 95.5219 402.948 95.743 402.591C95.9642 402.235 96.5664 401.943 97.0821 401.943C97.5979 401.943 98.0193 402.235 98.0193 402.591ZM455.764 406.646C456.039 407.567 458.455 418.304 458.723 419.795C459.041 421.562 458.807 421.905 456.334 423.291C454.087 424.551 453.495 424.666 453.053 423.927C452.756 423.432 450.622 420.409 448.31 417.21C445.999 414.01 444.263 411.14 444.455 410.831C444.804 410.268 448.902 408.375 451.651 407.507C452.62 407.201 453.115 407.311 453.115 407.833C453.115 409.245 455.962 416.451 456.218 415.687C456.354 415.278 456.005 413.36 455.441 411.424C454.244 407.316 454.181 406.484 455.066 406.484C455.424 406.484 455.738 406.556 455.764 406.646ZM103.222 407.477C103.222 408.001 102.783 408.43 102.247 408.43C101.71 408.43 101.271 408.169 101.271 407.851C101.271 407.532 101.71 407.103 102.247 406.898C102.841 406.671 103.222 406.897 103.222 407.477ZM18.0708 409.75C20.0628 410.787 25.1844 412.536 29.4521 413.635C45.2649 417.711 59.8244 419.38 80.6222 419.5C89.4697 419.552 92.1661 419.759 92.1661 420.389C92.1661 421.415 90.8257 425.468 90.2892 426.065C89.073 427.416 33.6586 420.965 25.5376 418.527C21.6224 417.352 16.9248 414.556 16.015 412.86C15.351 411.623 14.047 407.721 14.3312 407.823C14.3956 407.846 16.0781 408.713 18.0708 409.75ZM110.005 410.302C110.201 410.619 109.797 411.025 109.106 411.205C107.714 411.568 106.974 411.144 107.505 410.286C107.957 409.557 109.55 409.568 110.005 410.302ZM150.698 411.025C150.698 411.382 150.242 411.673 149.684 411.673C149.127 411.673 148.851 411.382 149.072 411.025C149.293 410.668 149.749 410.376 150.086 410.376C150.423 410.376 150.698 410.668 150.698 411.025ZM101.921 412.682C106.717 416.224 113.924 419.507 118.243 420.116C120.43 420.424 122.362 420.818 122.535 420.991C122.708 421.164 121.361 424.301 119.54 427.963C117.16 432.749 116.229 435.379 116.229 437.318C116.229 440.778 114.649 442.258 110.545 442.642C107.22 442.953 101.249 441.134 98.6157 439.007C97.2492 437.904 97.2401 437.806 98.3145 435.734C99.3902 433.659 99.3805 433.554 97.9588 432.044C97.1537 431.189 95.5212 430.139 94.3304 429.709C93.1403 429.28 92.1661 428.572 92.1661 428.136C92.1661 427.451 93.3348 423.906 96.7381 414.268C98.0883 410.445 98.6566 410.271 101.921 412.682ZM160.454 412.971L162.08 413.491L160.291 413.555C159.307 413.591 158.503 413.328 158.503 412.971C158.503 412.614 158.575 412.351 158.665 412.387C158.755 412.423 159.559 412.686 160.454 412.971ZM168.519 413.448C169.302 414.229 168.875 414.917 167.608 414.917C166.892 414.917 166.307 414.656 166.307 414.338C166.307 413.609 167.998 412.928 168.519 413.448ZM116.229 414.268C116.229 414.625 115.773 414.917 115.215 414.917C114.658 414.917 114.382 414.625 114.603 414.268C114.825 413.912 115.28 413.62 115.617 413.62C115.954 413.62 116.229 413.912 116.229 414.268ZM181.103 415.728C180.954 416.174 180.28 416.645 179.606 416.776C178.545 416.981 178.497 416.872 179.252 415.965C180.283 414.725 181.489 414.571 181.103 415.728ZM175.27 415.666C175.11 416.146 174.457 416.639 173.82 416.763C173.078 416.906 172.766 416.673 172.952 416.115C173.112 415.634 173.765 415.141 174.403 415.017C175.144 414.874 175.457 415.108 175.27 415.666ZM120.45 416.225C120.225 416.588 119.769 416.717 119.436 416.511C118.534 415.955 118.702 415.566 119.845 415.566C120.402 415.566 120.675 415.862 120.45 416.225ZM135.09 417.783C135.09 418.348 134.627 418.81 134.06 418.81C132.912 418.81 133.111 417.413 134.317 417.012C134.742 416.87 135.09 417.218 135.09 417.783ZM209.868 418.501C209.415 419.044 208.911 419.356 208.747 419.193C208.297 418.743 209.213 417.512 209.999 417.512C210.43 417.512 210.381 417.884 209.868 418.501ZM194.272 418.161C194.272 418.518 193.816 418.81 193.258 418.81C192.701 418.81 192.425 418.518 192.646 418.161C192.867 417.804 193.323 417.512 193.66 417.512C193.997 417.512 194.272 417.804 194.272 418.161ZM128.586 418.161C128.586 418.518 128.147 418.81 127.611 418.81C127.074 418.81 126.635 418.518 126.635 418.161C126.635 417.804 127.074 417.512 127.611 417.512C128.147 417.512 128.586 417.804 128.586 418.161ZM198.825 418.81C198.825 419.166 198.515 419.458 198.136 419.458C197.758 419.458 197.628 419.166 197.849 418.81C198.07 418.453 198.38 418.161 198.538 418.161C198.696 418.161 198.825 418.453 198.825 418.81ZM205.979 419.458C205.979 419.815 205.557 420.107 205.042 420.107C204.526 420.107 203.924 419.815 203.702 419.458C203.481 419.101 203.903 418.81 204.64 418.81C205.376 418.81 205.979 419.101 205.979 419.458ZM142.244 419.458C142.244 419.815 141.951 420.107 141.593 420.107C141.236 420.107 140.943 419.815 140.943 419.458C140.943 419.101 141.236 418.81 141.593 418.81C141.951 418.81 142.244 419.101 142.244 419.458ZM173.786 422.084C175.217 422.383 180.069 422.644 184.57 422.664C194.714 422.711 194.395 422.352 194.132 433.406L193.947 441.191L191.596 442.338C190.124 443.055 186.899 443.638 182.976 443.895C177.484 444.255 176.546 444.16 175.409 443.134C174.695 442.49 174.111 441.435 174.111 440.791C174.111 439.128 171.657 437.06 169.12 436.585C166.681 436.129 166.674 436.118 167.716 434.177C168.134 433.398 168.646 430.282 168.854 427.252C169.273 421.168 169.295 421.146 173.786 422.084ZM141.156 421.827C141.256 421.915 154.302 423.493 162.73 424.437C166.867 424.9 166.959 424.965 166.947 427.443C166.928 431.485 166.88 431.497 155.454 430.552C149.798 430.084 140.634 429.553 135.09 429.372C129.545 429.192 124.643 428.749 124.196 428.388C123.069 427.48 123.178 424.976 124.389 423.975C124.941 423.517 125.27 422.821 125.118 422.428C124.928 421.932 127.311 421.716 132.944 421.722C137.398 421.726 141.094 421.773 141.156 421.827ZM35.1258 423.419C35.8672 423.849 36.154 424.531 35.912 425.29C35.7033 425.947 35.8575 426.686 36.2548 426.93C37.1315 427.471 36.7211 430.35 34.5001 439.24C32.9269 445.538 32.1328 447.354 30.9531 447.354C30.2826 447.354 30.2013 437.115 30.8048 428.64C31.1944 423.165 31.3336 422.703 32.5933 422.721C33.3445 422.732 34.4839 423.046 35.1258 423.419ZM57.6971 425.31C63.9568 425.936 69.81 426.576 70.7043 426.733C72.0167 426.964 70.887 427.718 64.851 430.642C60.7375 432.635 54.3543 435.464 50.6667 436.928C46.9785 438.391 42.1821 440.485 40.0074 441.58C37.6023 442.792 36.1638 443.232 36.3354 442.705C42.8598 422.629 42.2491 424.043 44.3648 424.111C45.4379 424.145 51.4374 424.685 57.6971 425.31ZM123.394 430.823C124.876 432.396 124.884 432.492 124.036 438.101C123.289 443.033 123.139 449.054 123.586 456.111C123.693 457.823 123.355 458.227 120.782 459.461C119.172 460.233 113.904 461.783 109.075 462.905C104.246 464.028 96.0519 466.405 90.8654 468.187C75.0272 473.628 69.5602 475.193 63.9626 475.886C57.6958 476.664 52.9625 476.005 51.04 474.087C49.1221 472.173 50.0912 471.234 52.8129 472.368C54.0453 472.882 56.1824 473.303 57.5618 473.303C61.0334 473.303 79.2935 468.697 87.9387 465.641C95.4419 462.988 99.5984 461.929 111.289 459.688C117.814 458.437 122.083 456.645 122.083 455.156C122.083 454.858 120.613 455.171 118.818 455.852C115.719 457.026 104.464 459.168 103.961 458.68C103.607 458.336 106.387 453.98 109.513 449.978C111.034 448.032 112.113 446.281 111.911 446.086C111.283 445.481 105.231 452.707 103.7 455.89L102.247 458.912L89.2323 463.204C82.0751 465.564 75.1976 467.646 73.9489 467.831C71.7715 468.153 71.592 468.02 69.5083 464.543C68.3038 462.532 66.2038 460.171 64.7932 459.24C63.3943 458.316 62.2496 457.324 62.2496 457.034C62.2496 456.444 67.0759 452.502 73.5437 447.81L77.8315 444.699L81.7928 447.324C83.9716 448.767 86.0508 449.948 86.413 449.948C87.6539 449.948 86.5378 448.327 84.3117 446.894C79.0867 443.531 79.2298 443.813 81.5561 441.454L83.6288 439.352L85.7834 440.971C88.3953 442.932 92.2604 444.881 92.6896 444.453C93.5676 443.577 89.2225 440.535 85.7828 439.617L84.2688 439.213L85.5539 437.583C86.2615 436.687 87.4815 434.725 88.2659 433.224C89.5308 430.803 89.8872 430.541 91.4169 430.91C96.4773 432.129 97.1218 432.851 95.9746 436.014C95.2351 438.055 95.2813 438.415 96.4214 439.483C97.9224 440.888 107.557 444.11 110.256 444.11C113.322 444.11 116.21 442.788 117.142 440.958C117.621 440.016 118.681 437.118 119.495 434.519C120.31 431.92 121.183 429.667 121.435 429.512C121.687 429.357 122.569 429.946 123.394 430.823ZM200.392 432.125C201.79 432.606 203.528 433.592 204.254 434.317C205.558 435.617 205.561 435.724 204.476 442.963C203.872 446.995 203.377 453.111 203.377 456.555C203.377 459.999 203.195 463.29 202.973 463.867C201.93 466.578 194.19 468.597 181.59 469.443C172.079 470.082 162.052 471.591 144.195 475.071C134.344 476.991 124.919 477.381 121.651 476.004C119.354 475.037 117.829 472.187 118.491 470.103C119.034 468.4 121.842 465.043 123.439 464.191C125.055 463.328 128.873 464.919 131.675 467.624C133.046 468.947 133.789 469.329 133.789 468.709C133.789 467.064 131.855 464.905 129.151 463.528L126.549 462.204L128.185 460.92C131.015 458.7 137.173 456.3 139.069 456.678C140.03 456.87 142.767 457.946 145.149 459.068C147.532 460.191 149.61 460.981 149.768 460.823C150.363 460.229 147.427 458.229 143.805 456.761L140.051 455.239L143.005 453.807L145.958 452.375L150.272 453.808C152.645 454.595 154.756 455.513 154.963 455.848C155.374 456.51 156.552 456.028 156.552 455.199C156.552 454.68 152.889 452.955 150.211 452.213C148.298 451.683 148.364 451.13 150.491 449.842C152.139 448.844 152.495 448.878 156.986 450.458C159.599 451.376 161.958 451.908 162.228 451.638C162.868 451 160.928 449.874 157.004 448.606L153.855 447.588L156.49 445.849C159.618 443.784 161.128 443.708 164.914 445.422C168.287 446.948 168.908 447.005 168.908 445.786C168.908 445.28 167.518 444.356 165.819 443.732C164.12 443.108 162.472 442.374 162.156 442.099C161.36 441.411 165.028 438.317 166.67 438.292C168.763 438.26 170.534 439.923 170.534 441.92C170.534 443.554 170.896 443.834 174.436 444.936C182.434 447.427 194.668 445.422 196.799 441.27C197.189 440.513 197.584 437.949 197.678 435.572L197.849 431.251L200.392 432.125ZM376.308 450.397C376.272 454.253 376.025 459.89 375.759 462.923C375.347 467.603 375.258 466.603 375.173 456.312C375.11 448.816 375.32 444.033 375.722 443.786C376.142 443.527 376.35 445.872 376.308 450.397ZM373.352 447.84C373.937 454.265 374.048 468.701 373.517 469.231C372.786 469.96 370.953 468.483 370.458 466.765C370.209 465.901 368.511 460.485 366.685 454.73C364.859 448.975 363.365 444.085 363.365 443.864C363.365 443.642 365.523 443.461 368.159 443.461H372.953L373.352 447.84ZM77.4056 451.232C80.2054 453.003 81.3292 454.49 79.8678 454.49C78.7082 454.49 72.0791 450.353 72.403 449.831C72.9844 448.892 74.2812 449.255 77.4056 451.232ZM190.752 452.197C189.352 453.055 185.914 456.031 183.11 458.811C177.893 463.985 176.575 464.442 179.858 459.939C182.354 456.514 186.789 452.615 189.445 451.507C192.843 450.091 193.566 450.473 190.752 452.197ZM70.2074 455.664C73.1568 457.335 74.6096 459.481 72.1676 458.561C69.609 457.596 66.8021 455.602 66.8021 454.75C66.8021 453.644 66.4971 453.562 70.2074 455.664ZM63.6745 460.5C66.1972 462.706 69.4035 467.123 69.4035 468.392C69.4035 469.478 61.6903 471.356 57.2269 471.356C55.0299 471.356 52.8792 470.981 52.1892 470.478C51.0244 469.629 51.0316 469.504 52.4227 466.639C53.9016 463.591 58.977 458.374 60.4468 458.392C60.9014 458.397 62.3543 459.346 63.6745 460.5ZM196.223 463.588C196.223 464.876 193.131 465.352 175.737 466.747C166.079 467.522 153.897 468.9 148.665 469.81C141.585 471.041 138.44 471.324 136.365 470.915C133.798 470.408 134.526 470.199 145.552 468.279C152.138 467.132 161.185 465.901 165.657 465.543C170.128 465.184 178.322 464.452 183.867 463.915C195.914 462.748 196.223 462.739 196.223 463.588Z" />
</svg>
