<svg viewBox="0 0 540 457" fill="currentColor" xmlns="http://www.w3.org/2000/svg">
    <path fill-rule="evenodd" clip-rule="evenodd"
          d="M282.181 3.8117C284.141 5.55477 284.459 6.30834 284.564 9.46905L284.686 13.1148L289.143 13.1828C296.138 13.2883 299.461 16.2852 298.461 21.5859C297.932 24.3941 293.782 29.343 290.013 31.662C287.902 32.9603 287.763 33.2524 288.396 35.06C289.515 38.2547 287.731 41.5293 283.854 43.3972C282.086 44.2494 280.639 45.2111 280.639 45.5344C280.639 45.8578 281.264 48.7181 282.028 51.8913C285.919 68.0563 283.987 82.1536 276.653 91.1153C273.571 94.8804 273.518 95.033 273.815 99.136C274.186 104.24 276.057 106.237 281.149 106.967C286.603 107.749 300.243 112.07 304.159 114.257C306.166 115.377 308.127 116.294 308.516 116.294C308.929 116.294 309.229 114.197 309.235 111.263C309.257 102.068 312.73 98.5254 322.635 97.5949C325.804 97.2972 329.562 96.4902 330.986 95.8018L333.575 94.5501L329.707 92.9853C320.714 89.3479 315.81 83.8307 317.542 79.2982C318.559 76.6329 320.758 75.5601 327.62 74.377C331.027 73.79 334.488 72.8699 335.312 72.3328C336.135 71.7957 338.196 68.7911 339.892 65.6568C343.401 59.1668 347.718 54.9243 351.975 53.7835C357.834 52.2132 365.344 54.8653 370.353 60.2728C373.078 63.2164 375.136 66.2612 374.643 66.6199C374.516 66.7122 372.246 67.1702 369.6 67.6379C365.159 68.4227 360.319 70.2324 360.959 70.8694C361.108 71.0179 362.941 70.6716 365.033 70.0999C369.631 68.8425 380.298 68.6774 384.56 69.7973C386.264 70.2449 389.047 71.3745 390.743 72.3078L393.828 74.0037L395.972 71.9428C402.765 65.4133 413.171 65.5291 422.328 72.2357C428.974 77.1041 430.563 85.222 426.79 95.0392C425.783 97.6608 424.962 100.159 424.964 100.59C424.968 101.022 426.811 102.837 429.062 104.622C435.519 109.746 437.839 116.028 434.501 119.35C431.275 122.561 423.326 122.253 416.346 118.648C414.486 117.686 412.811 117.051 412.625 117.236C411.572 118.284 411.763 126.515 413.005 133.591C414.249 140.68 414.624 141.732 416.54 143.514C418.665 145.491 418.934 146.24 418.723 149.607C418.663 150.564 419.105 152.516 419.704 153.944C420.748 156.429 420.937 156.54 424.124 156.54C428.524 156.54 434.826 158.22 439.179 160.553C444.473 163.39 451.781 170.574 454.048 175.169C455.783 178.684 455.987 179.85 456.013 186.378L456.042 193.664L464.099 205.807C468.53 212.486 473.047 219.512 474.137 221.42C475.226 223.328 476.843 225.772 477.729 226.851C478.615 227.93 479.548 229.647 479.801 230.667C480.054 231.687 482.653 237.206 485.578 242.931C491.533 254.588 499.424 273.396 503.629 285.952C509.809 304.407 511.305 313.845 510.088 326.706C509.645 331.388 509.103 335.901 508.883 336.734C508.549 338.004 509.035 338.526 511.893 339.967C513.768 340.913 517.039 342.007 519.161 342.397C522.951 343.094 524.13 342.955 530.616 341.044C532.911 340.367 533.822 340.395 535.497 341.19C537.247 342.021 537.589 342.625 537.775 345.202C537.915 347.144 537.454 349.56 536.491 351.92C535.258 354.945 534.032 356.36 529.649 359.821C524.057 364.235 515.816 368.614 509.32 370.62C506.406 371.519 502.219 371.86 491.89 372.036C484.412 372.164 476.412 372.606 474.111 373.018C471.811 373.43 460.249 374.675 448.42 375.784C436.589 376.894 426.772 377.94 426.603 378.108C426.433 378.277 427.328 379.1 428.59 379.937L430.885 381.461L427.399 381.024L423.913 380.587L426.847 383.231C428.46 384.684 430.946 388.059 432.371 390.731C433.796 393.403 435.521 396.397 436.204 397.386C437.755 399.633 445.61 402.799 456.547 405.587C460.957 406.711 465.799 408.405 467.305 409.352C470.999 411.672 475.6 416.992 476.608 420.107C477.06 421.505 477.725 423.021 478.085 423.473C478.445 423.926 479.005 425.175 479.328 426.249C479.899 428.142 479.92 428.122 479.977 425.607C480.06 422.038 477.848 416.582 474.835 412.923C471.73 409.152 465.156 405.812 454.959 402.826C445.208 399.971 440.407 397.646 438.993 395.093C438.368 393.966 436.375 390.806 434.565 388.071C432.744 385.32 431.611 382.983 432.031 382.84C432.913 382.54 435.202 385.098 438.572 390.152C441.876 395.106 443.796 396.265 454.401 399.703C471.656 405.297 476.494 408.446 480.594 416.752C482.264 420.135 482.476 421.357 482.464 427.508C482.453 433.796 482.237 434.945 480.159 439.763C476.915 447.286 474.879 449.694 469.589 452.258C465.727 454.13 464.101 454.493 458.434 454.749C449.195 455.165 437.734 453.083 424.592 448.6C411.498 444.133 388.599 432.753 382.676 427.768C378.415 424.182 376.15 422.606 370.064 418.99L366.412 416.821L364.774 419.041C363.873 420.263 361.041 424.291 358.481 427.993C355.92 431.695 353.592 434.867 353.306 435.043C353.021 435.218 351.535 435.116 350.004 434.814C344.266 433.684 312.289 424.075 291.097 417.113C268.81 409.791 236.637 400.793 232.748 400.793C230.917 400.793 230.554 401.099 230.179 402.961C229.939 404.154 229.743 406.027 229.743 407.124C229.743 408.743 230.045 409.119 231.347 409.119C234.885 409.119 235.759 412.91 232.881 415.775C230.485 418.159 230.689 418.834 233.81 418.834C242.889 418.834 247.625 421.665 246.951 426.691L246.595 429.344L249.299 428.89C255.046 427.923 254.478 430.806 248.699 431.937C231.019 435.397 166.53 441.819 147.823 441.982L136.668 442.08L118.889 438.038C109.111 435.814 97.6594 433.078 93.4413 431.956C89.2233 430.833 81.8504 428.936 77.0572 427.739C72.2639 426.543 68.2878 425.531 68.2209 425.49C67.8541 425.266 69.5965 413.535 70.0692 413.045C70.378 412.724 75.7639 413.571 82.0366 414.928C88.3093 416.285 100.03 418.661 108.082 420.21C116.135 421.758 127.131 423.956 132.517 425.093C137.904 426.23 142.965 427.161 143.764 427.161C145.303 427.161 146.147 424.89 147.135 418.086C147.55 415.226 147.426 414.799 145.89 413.797C144.951 413.185 142.492 412.204 140.425 411.617C133.027 409.517 99.5341 403.474 96.1471 403.628C93.762 403.736 98.657 404.874 119.935 409.157C131.439 411.472 141.87 413.684 143.117 414.072C145.857 414.926 146.087 416.058 143.52 416.058C139.578 416.058 102.835 407.883 91.8475 404.561C82.2485 401.659 72.584 401.124 79.3231 403.868C80.5696 404.375 85.9813 405.799 91.3497 407.033C96.7182 408.266 101.408 409.552 101.773 409.891C102.749 410.799 100.778 410.659 91.0011 409.125C76.7838 406.894 77.0383 406.961 75.8649 405.179C74.8435 403.627 74.8735 403.408 76.3153 401.881C78.0883 400.003 78.0381 399.954 72.791 398.456C70.636 397.841 68.4824 396.869 68.0048 396.296C67.5279 395.724 66.9931 393.301 66.8174 390.911C66.5525 387.315 66.7763 386.038 68.117 383.486C69.008 381.791 70.5209 379.86 71.4796 379.196C73.3516 377.899 81.5841 376.675 101.459 374.739C107.786 374.123 120.806 372.554 130.393 371.253C139.979 369.951 148.79 368.884 149.972 368.88C153.636 368.868 153.203 368.086 147.852 365.051C140.909 361.113 134.525 356.479 130.841 352.701L127.803 349.587L123.521 351.556C117.726 354.219 110.292 355.611 98.9756 356.151L89.5112 356.603L89.9358 358.286C90.5528 360.734 89.7949 362.43 87.87 362.912C84.9153 363.65 9.93512 362.022 9.12079 361.203C8.59998 360.679 9.0658 359.904 10.7028 358.569C13.012 356.687 13.0196 356.661 12.4444 352.541L11.8664 348.403L6.99371 348.056C3.07404 347.777 2.07568 347.472 1.88953 346.495C1.61481 345.058 1.18115 345.076 13.8813 345.988C20.8596 346.488 23.8213 346.468 24.4906 345.916C25.1683 345.356 35.5182 345.365 62.8392 345.95C85.5393 346.437 100.512 346.501 100.899 346.115C101.251 345.765 101.442 343.795 101.325 341.737L101.11 337.995L56.5902 337.409C24.5686 336.988 11.856 337.036 11.3073 337.583C10.7551 338.132 12.0128 338.342 15.8634 338.342C19.9978 338.342 21.4543 338.612 22.4045 339.556C23.5382 340.681 26.2705 340.77 59.7283 340.761C87.4733 340.755 96.0293 340.554 96.6924 339.894C98.07 338.523 99.3675 338.898 99.3675 340.668V342.302L83.827 342.794C75.2794 343.065 57.8626 343.222 45.1234 343.143C25.7253 343.023 21.7645 343.164 20.7501 344.009C19.8179 344.785 18.0282 344.952 12.9993 344.73L6.45966 344.442L6.83472 340.325C7.26556 335.599 8.151 334.194 10.7341 334.139C12.3997 334.103 12.3439 334.024 10.1262 333.272C7.35687 332.332 7.15613 331.16 9.70996 330.841C11.6684 330.596 12.475 328.268 12.0972 323.949C11.8754 321.412 11.9396 321.331 14.4649 320.994C16.5663 320.713 16.9336 320.449 16.3926 319.606C16.0259 319.034 15.7205 317.065 15.7142 315.231C15.7051 312.42 16.0259 311.601 17.7521 310.026C19.7064 308.242 19.7684 308.01 19.1054 304.934C18.4319 301.809 18.319 301.697 15.395 301.26C12.0317 300.758 10.6854 299.597 9.10693 295.838C7.62048 292.297 7.75922 288.917 9.47992 286.74C10.9231 284.914 10.9363 284.911 21.114 284.911H31.3029L29.5146 283.003C28.5315 281.953 27.3742 280.413 26.944 279.58C26.0293 277.807 25.924 273.175 26.7683 271.85C27.4655 270.755 32.9023 269.422 33.9766 270.082C34.4709 270.387 34.5971 269.974 34.3433 268.882C32.8353 262.392 31.084 252.565 30.7075 248.482C29.9161 239.892 29.8806 239.809 26.9782 239.798C25.5706 239.791 24.0737 239.558 23.6519 239.277C21.006 237.519 20.3282 229.336 22.5977 226.548C23.8365 225.025 24.5986 224.891 35.4958 224.282C43.0527 223.859 47.0721 223.37 47.0624 222.874C47.0254 221.052 44.2561 216.226 42.6428 215.174C41.673 214.542 39.2077 213.799 37.1635 213.522C32.5418 212.899 31.7393 212.415 31.7393 210.253C31.7393 209.023 32.438 208.125 34.2005 207.091C36.0453 206.008 36.5577 205.319 36.2467 204.342C35.9344 203.364 36.451 202.674 38.3167 201.578C39.6839 200.776 40.8029 199.751 40.8029 199.302C40.8029 198.853 39.4692 197.869 37.8398 197.115C35.2365 195.912 34.851 195.438 34.6641 193.209C34.4975 191.214 34.7903 190.437 36.0397 189.566C36.9126 188.958 38.1947 188.46 38.8891 188.46C39.5828 188.46 40.4118 187.758 40.7304 186.9C41.231 185.552 40.9221 185.121 38.4499 183.724C35.0064 181.777 34.5525 181.141 34.5386 178.24C34.5232 174.999 37.0297 173.457 40.4745 174.589C43.4027 175.55 43.9145 175.262 43.3379 172.975C42.9907 171.598 42.3381 171.225 39.633 170.856C33.453 170.013 31.0463 165.419 35.3996 162.778C39.0738 160.548 42.5452 161.062 46.2034 164.378C47.0644 165.159 47.9652 165.603 48.2043 165.365C49.0765 164.496 47.7386 161.654 44.5915 157.686L41.3718 153.627L39.5186 155.387C36.3589 158.387 30.9438 159.634 29.09 157.789C27.8887 156.594 28.0595 153.74 29.4218 152.242C30.3185 151.256 30.3993 150.766 29.7704 150.14C29.3194 149.691 28.9505 148.435 28.9505 147.347C28.9505 143.466 34.3747 140.515 39.5981 141.555C41.6172 141.957 41.7267 141.897 40.7457 140.92C40.1489 140.326 38.1152 139.29 36.2265 138.617C32.2162 137.189 31.5818 135.677 33.9418 133.177C35.5432 131.481 35.5481 131.429 34.2207 130.463C33.4761 129.922 31.3691 129.478 29.539 129.478C26.8102 129.478 25.7665 129.09 23.746 127.324C17.1038 121.521 25.5035 114.926 34.0052 119.27C35.8263 120.201 37.3169 120.77 37.3169 120.534C37.3169 119.349 34.5587 110.733 33.5701 108.83C31.9178 105.65 32.1291 102.66 34.1481 100.65C36.4182 98.3901 40.2751 98.3089 41.809 100.489C43.248 102.533 43.1852 103.884 41.3676 109.987C39.8408 115.112 39.8401 115.149 41.0818 122.477C41.7671 126.518 42.6547 130.22 43.0535 130.703C43.453 131.185 43.9368 133.769 44.1292 136.445C44.3217 139.121 44.7497 141.476 45.0809 141.68C45.412 141.884 45.6833 142.614 45.6833 143.303C45.6833 143.993 46.3463 145.396 47.1572 146.422C47.968 147.447 48.4805 148.436 48.2971 148.619C48.113 148.803 46.5185 148.567 44.7539 148.098C42.9886 147.628 41.3488 147.439 41.1082 147.678C40.6195 148.165 49.1811 159.178 50.1147 159.262C50.443 159.292 52.0118 158.319 53.6007 157.1C55.1896 155.882 56.607 154.802 56.7506 154.701C56.8942 154.6 56.1754 153.527 55.1526 152.318C53.5358 150.405 53.3531 149.724 53.7505 147.084C54.1549 144.4 54.0546 144.05 52.8742 144.05C50.0066 144.05 48.8228 140.184 50.8467 137.43C51.6938 136.277 51.6799 135.811 50.7484 134.001C50.1551 132.849 49.0577 131.126 48.3103 130.172C46.6147 128.008 44.9861 124.196 44.9861 122.391C44.9861 121.638 44.3586 120.229 43.5917 119.259C42.5968 118 42.1973 116.444 42.1973 113.825C42.1973 110.653 42.488 109.866 44.3426 108.021C48.3159 104.066 54.0497 105.599 54.0497 110.617C54.0497 112.275 53.1997 113.744 50.5636 116.641C48.0161 119.441 47.0777 121.031 47.0777 122.547C47.0777 125.092 47.7281 125.154 49.9194 122.82C53.6418 118.854 58.3186 117.941 60.9003 120.675C63.7672 123.713 62.2292 127.135 56.4926 130.481C51.4122 133.444 52.5005 134.852 58.861 133.544C63.5162 132.587 65.2048 133.247 65.2048 136.024C65.2048 136.908 66.0798 138.188 67.2964 139.083C71.1693 141.933 69.091 147.3 62.8106 150.666C59.9591 152.194 59.6321 153.529 61.8931 154.409C63.7658 155.137 66.5992 157.703 66.5992 158.67C66.5992 159.049 66.0498 159.528 65.3791 159.735C64.7084 159.941 63.6884 160.391 63.1132 160.735C62.538 161.078 61.0418 161.875 59.7876 162.505C57.5217 163.644 54.7468 166.817 54.7468 168.27C54.7468 169.456 55.4189 169.185 57.5921 167.122C61.4873 163.425 63.0268 162.236 63.4165 162.624C64.371 163.575 63.632 165.278 61.3702 167.34C59.0521 169.454 58.06 172.5 59.69 172.5C60.1076 172.5 61.0153 171.805 61.7069 170.955C62.6509 169.794 63.7044 169.409 65.9362 169.409C69.121 169.409 69.5267 169.758 75.128 177.314C76.3836 179.008 77.7237 180.413 78.1058 180.437C78.4879 180.46 78.8936 179.37 79.0086 178.014C79.2638 174.993 77.3633 172.344 73.5524 170.408C70.4282 168.822 69.6341 167.814 70.6841 166.769C72.2995 165.161 81.2404 171.493 81.2404 174.244C81.2404 176.005 82.2792 177.103 82.9394 176.04C83.1597 175.685 83.417 145.781 83.5104 109.588C83.6791 44.3222 83.6924 43.756 85.1489 40.6237C87.2949 36.0072 90.5695 32.6453 95.0574 30.4519C98.9359 28.5561 99.3145 28.511 113.137 28.2911C120.903 28.1675 127.255 27.9427 127.255 27.7914C127.255 27.6395 126.343 26.1795 125.229 24.5461C122.247 20.178 122.019 18.2885 124.163 15.7523C126.314 13.2085 129.537 12.2183 135.684 12.2134C141.103 12.2086 140.867 11.9026 143.327 22.0973L144.96 28.8628L149.18 28.8781C154.821 28.8982 158.202 30.5386 163.248 35.7026C170.04 42.6541 175.298 53.0084 175.344 59.5227C175.354 60.9293 175.674 62.8958 176.055 63.8936C177.008 66.3875 174.937 69.0521 168.981 72.9941C160.574 78.5592 151.696 81.5887 139.359 83.1028C133.314 83.8446 132.88 83.8092 130.913 82.4145C128.438 80.661 126.245 75.8758 124.815 69.1083C123.577 63.2497 123.491 58.375 124.527 52.7982C125.411 48.0394 128.959 38.7863 130.595 36.9752C131.404 36.0794 131.533 35.4111 131.042 34.6375C130.453 33.7076 128.378 33.5702 116.43 33.6688C108.747 33.7326 101.35 34.1247 99.9295 34.5445C96.4749 35.5638 92.696 38.7717 90.8066 42.2877L89.2581 45.1695L89.0692 107.447C88.9095 160.111 89.0294 169.724 89.8451 169.724C90.8895 169.724 97.2759 163.258 97.2759 162.201C97.2759 161.847 96.5055 161.055 95.5643 160.441C90.7899 157.328 89.7231 153.814 92.705 151.026C94.9159 148.959 98.3356 149.494 101.071 152.335C103.063 154.406 103.282 156.848 101.786 160.321C101.246 161.575 101.361 161.561 103.388 160.126C105.434 158.675 105.547 158.371 105.183 155.304C104.861 152.591 105.036 151.812 106.21 150.757C108.37 148.815 112.629 148.482 114.635 150.099C116.101 151.28 116.187 151.618 115.409 153.117C114.926 154.046 113.865 155.537 113.05 156.432C111.963 157.625 111.847 158.02 112.614 157.911C115.098 157.56 116.711 158.036 118.439 159.629C121.946 162.864 120.201 166.255 115.029 166.255C112.59 166.255 111.458 165.811 109.475 164.079L106.986 161.903L104.243 163.134C102.735 163.812 100.972 164.947 100.326 165.657C99.2086 166.886 99.242 166.949 101.025 166.949C105.655 166.949 109.698 170.256 108.879 173.375C108.657 174.218 109.059 175.504 109.862 176.52C110.608 177.465 111.22 178.814 111.22 179.517C111.22 181.326 107.992 183.206 105.022 183.128C103.638 183.092 99.4359 182.949 95.6849 182.811L88.8649 182.561L89.339 202.684C89.6005 213.752 90.0655 222.906 90.3723 223.028C90.6797 223.148 91.7743 223.907 92.8047 224.714C94.6502 226.158 94.6718 226.27 94.248 232.206C93.7223 239.585 93.3932 240.502 91.2751 240.502H89.6067L89.6102 254.553C89.6116 262.282 89.8166 272.118 90.0648 276.411L90.5173 284.218L94.0709 284.222C98.8453 284.227 102.676 285.366 103.581 287.05C104.366 288.51 104.124 289.964 102.437 293.932L101.405 296.361L58.0313 296.169C34.176 296.064 14.285 295.847 13.8283 295.686C13.3723 295.527 12.9017 294.076 12.7825 292.462C12.4737 288.274 10.8234 288.029 10.8234 292.171C10.8234 294.622 11.2139 295.772 12.4709 297.023L14.1176 298.662L54.8256 298.705C93.336 298.745 95.5392 298.814 95.6444 299.982C96.6205 310.763 96.7837 311.451 98.7791 313.22C99.8695 314.187 100.762 315.688 100.762 316.556C100.762 317.845 100.413 318.109 98.8446 318.002C97.1588 317.888 96.9008 318.144 96.7091 320.127L96.4901 322.382L91.4801 322.437C87.2983 322.483 86.7845 322.606 88.3748 323.185C90.5165 323.963 91.9856 327.57 91.5861 331.068L91.3497 333.137L54.0497 333.484C8.25421 333.91 13.7955 334.713 65.8832 335.2C101.67 335.533 103.184 335.6 103.653 336.863C103.981 337.744 105.368 338.464 107.855 339.046C112.278 340.081 119.604 343.26 122.141 345.247C125.505 347.881 125.3 346.696 121.696 342.678C114.5 334.658 111.957 326.178 113.105 314.032C113.682 307.927 114.199 305.919 116.351 301.436C118.787 296.36 123.146 291.116 127.042 288.576C128.603 287.558 129.069 287.674 135.515 290.692C153.377 299.053 175.575 303.842 205.342 305.753C217.754 306.55 218.41 306.667 222.772 308.859C225.264 310.112 234.206 314.105 242.642 317.734C256.473 323.682 266.849 328.409 277.85 333.774C279.959 334.802 284.195 336.689 287.262 337.967C290.33 339.244 300.056 343.712 308.875 347.895C317.695 352.078 326.323 356.141 328.048 356.924C333.002 359.17 361.41 372.868 366.151 375.295L370.439 377.491L366.808 381.682C364.812 383.988 362.106 387.279 360.795 388.996C359.484 390.714 355.371 395.756 351.654 400.2C342.501 411.146 334.323 421.607 334.323 422.37C334.323 424.119 336.261 422.247 342.48 414.497C346.231 409.822 352.44 402.219 356.278 397.6C360.117 392.982 365.102 386.971 367.356 384.242C369.76 381.334 371.992 379.282 372.752 379.282C373.464 379.282 376.699 380.375 379.942 381.71C385.819 384.131 388.217 384.745 386.927 383.499C385.223 381.853 321.762 350.986 299.463 340.957C293.52 338.283 288.565 336.016 288.452 335.917C288.34 335.819 291.742 333.976 296.012 331.825C300.282 329.672 305.081 327.021 306.674 325.933C308.268 324.846 315.377 320.449 322.471 316.163C329.565 311.878 337.094 307.178 339.204 305.72C341.313 304.262 349.94 298.776 358.376 293.528C366.813 288.28 375.592 282.581 377.885 280.863C382.463 277.435 388.845 274.318 393.861 273.061C395.64 272.616 397.265 271.977 397.473 271.642C398.073 270.675 396.206 270.927 391.936 272.389C384.565 274.913 379.311 277.533 373.715 281.477C370.647 283.639 363.745 288.015 358.376 291.2C353.008 294.387 347.552 297.71 346.252 298.585C344.953 299.461 343.376 300.177 342.747 300.177C342.12 300.177 340.644 301.036 339.468 302.085C336.175 305.024 333.913 306.542 322.009 313.802C305.257 324.019 288.844 333.476 287.078 333.929C285.384 334.364 281.587 332.851 263.209 324.425C251.122 318.883 233.055 311.051 226.432 308.483C224.035 307.553 222.074 306.587 222.074 306.334C222.074 306.082 225.806 305.764 230.367 305.628C237.323 305.421 238.898 305.168 240.128 304.06C242.37 302.04 241.882 301.57 239.041 303.01C235.71 304.701 223.643 304.672 222.262 302.969C221.5 302.031 221.325 302.029 220.704 302.953C220.32 303.525 219.922 304.185 219.82 304.418C219.583 304.958 195.202 302.753 180.591 300.87C159.098 298.1 147.211 294.863 133.616 288.077C125.148 283.85 120.522 280.155 117.703 275.369C112.226 266.067 111.207 247.701 115.12 228.844C118.098 214.492 122.554 202.533 132.107 183.254C151.084 144.952 170.57 124.289 202.978 108.103C206.805 106.192 211.24 104.279 212.833 103.852C216.061 102.986 217.985 100.797 219.694 96.0433C220.815 92.9249 223.04 82.8877 223.835 77.3608L224.294 74.164L220.796 72.0219C214.545 68.1937 211.19 59.3611 213.96 54.0278C214.978 52.0696 219.862 48.9859 221.946 48.9859C223.419 48.9859 222.831 47.6508 219.634 43.7449C216.336 39.7147 215.83 37.6386 217.243 33.9401C217.653 32.8666 218.503 31.4226 219.131 30.7315C219.865 29.9238 220.204 28.5305 220.081 26.8297C219.976 25.3746 220.349 23.0889 220.911 21.7497C221.867 19.473 221.838 19.2211 220.462 17.852C218.407 15.8071 219.805 14.4138 222.006 16.3137C223.563 17.6584 223.603 17.6585 225.79 16.331C228.327 14.792 229.916 14.6469 231.752 15.7884C232.463 16.2304 233.564 16.3935 234.199 16.1513C235.382 15.6989 235.617 15.252 236.294 12.1489C236.509 11.1608 237.376 10.0464 238.22 9.67168C239.143 9.26158 240.052 7.93345 240.502 6.33749C241.346 3.34609 243.196 1.72792 244.401 2.92767C244.939 3.46266 244.647 4.62356 243.374 7.00502C242.396 8.83622 241.61 11.3023 241.629 12.4861C241.659 14.5165 241.733 14.4554 242.933 11.4016C245.513 4.83381 248.919 1.80078 253.712 1.80078C256.33 1.80078 257.765 2.86661 259.409 6.0301C260.643 8.4067 261.686 8.54479 264.103 6.65252C267.431 4.04763 273.199 1.81466 276.619 1.80772C279.281 1.80217 280.357 2.19006 282.181 3.8117ZM271.551 34.3682C272.503 36.1377 272.462 36.4957 271.312 36.4957C270.784 36.4957 269.964 36.9606 269.491 37.5282C268.524 38.6884 268.534 38.6947 273.469 39.9513C276.366 40.689 276.431 40.7729 277.911 45.7107C283.546 64.4966 282.06 80.9601 273.92 89.946C269.24 95.1121 260.037 98.4768 254.644 96.9947C252.82 96.4937 251.819 96.536 250.975 97.1501C249.96 97.8884 250.585 98.5726 255.939 102.585C262.634 107.603 268.046 110.049 272.451 110.049H275.293L272.563 112.464C271.061 113.792 268.107 115.728 265.998 116.766C260.528 119.458 249.849 119.884 241.943 117.726C234.522 115.699 217.194 106.981 217.194 105.274C217.194 105.017 217.848 104.249 218.647 103.568C219.446 102.887 220.836 100.71 221.737 98.7301C223.352 95.1794 226.818 79.5938 227.139 74.4395C227.294 71.931 227.158 71.7388 224.566 70.8361C223.061 70.3115 220.723 68.7821 219.371 67.4367C217.17 65.246 216.885 64.5285 216.631 60.5525C216.292 55.274 217.115 53.4012 220.365 52.0495C223.677 50.6728 225.122 50.8136 228.067 52.8023C231.551 55.1553 234.062 55.0547 236.243 52.4755C238.038 50.3515 239.504 45.1812 239.504 40.972C239.504 39.3372 239.826 38.5774 240.52 38.5774C241.079 38.5774 242.381 37.5241 243.413 36.2362L245.29 33.895L248.34 36.0343C251.06 37.9425 251.934 38.175 256.428 38.1854C261.59 38.1972 265.905 36.6865 268.047 34.1177C269.277 32.6432 270.677 32.7431 271.551 34.3682ZM163.859 38.7509C166.778 42.1274 171.564 51.5908 172.241 55.3247C173.063 59.8614 171.368 58.8767 169.395 53.6725C167.018 47.4038 164.62 42.5708 161.988 38.7509C160.871 37.1292 160.261 35.8018 160.633 35.8018C161.005 35.8018 162.457 37.1292 163.859 38.7509ZM249.439 40.3635C250.355 41.2864 250.004 42.0469 248.662 42.0469C247.947 42.0469 246.564 42.6714 245.589 43.4347C244.614 44.198 243.317 44.8225 242.706 44.8225C241.311 44.8225 241.249 42.5028 242.614 41.3759C243.853 40.3524 248.714 39.6314 249.439 40.3635ZM274.971 48.4072C275.742 50.475 275.205 51.8906 273.753 51.6123C273.019 51.4714 272.621 50.6887 272.621 49.3814C272.621 46.8702 274.158 46.2332 274.971 48.4072ZM268.693 48.1185C269.885 50.3355 274.179 61.0986 274.624 62.9874C275.291 65.8109 273.607 67.0273 269.034 67.0273C265.758 67.0273 265.232 66.8503 265.43 65.8129C265.598 64.9268 266.461 64.541 268.619 64.3856C270.64 64.2392 271.575 63.8534 271.575 63.1643C271.575 62.6106 270.32 59.2341 268.787 55.6605C267.253 52.0876 265.998 48.6556 265.998 48.0346C265.998 46.5295 267.87 46.5885 268.693 48.1185ZM252.239 50.7886C253.016 51.5623 252.851 55.7812 252.023 56.2906C251.14 56.8339 249.265 55.401 249.265 54.1818C249.265 52.8981 251.638 50.1905 252.239 50.7886ZM224.02 55.0006C228.806 57.3481 230.626 62.6793 227.652 65.6395C225.794 67.4887 224.466 67.3888 222.304 65.237C220.74 63.6806 220.56 63.0512 220.925 60.4054C221.254 58.0156 221.1 57.2273 220.207 56.7298C218.928 56.0179 219.404 53.8335 220.833 53.8592C221.323 53.8675 222.758 54.3817 224.02 55.0006ZM225.792 60.5511C226.646 61.3997 226.271 63.5578 225.27 63.5578C224.153 63.5578 223.515 62.2546 223.994 60.9556C224.348 60.0001 225.075 59.8364 225.792 60.5511ZM173.27 65.5902C173.27 67.3867 166.791 71.7826 159.331 75.0467C152.861 77.8785 142.833 80.5874 136.23 81.289C132.338 81.7025 131.917 81.6359 132.833 80.754C133.408 80.2002 136.075 79.3502 138.759 78.8652C148.519 77.1006 161.868 71.8034 169.292 66.7469C172.064 64.8595 173.27 64.5091 173.27 65.5902ZM248.457 68.805C250.121 69.3255 255.048 70.265 259.406 70.8923C266.877 71.9685 270.163 71.8741 275.759 70.4211C277.778 69.8972 276.786 72.2398 274.578 73.2071C273.332 73.7532 271.989 75.0529 271.529 76.1597C270.302 79.1087 266.332 82.275 263.707 82.3978C257.037 82.7094 253.455 81.5797 249.444 77.9007C245.968 74.7115 244.385 72.0788 244.385 69.4906C244.385 67.4998 244.318 67.5109 248.457 68.805ZM382.82 71.8408C386.814 72.7929 391.664 75.6816 394.333 78.6986C397.46 82.2347 398.787 85.9742 399.828 94.1844C400.874 102.436 402.242 105.979 405.978 110.115L409.179 113.659L409.286 122.436C409.379 130.067 410.373 137.2 412.13 142.85C412.413 143.758 411.901 144.332 410.168 145.053C406.268 146.675 391.585 150.201 384.165 151.297C375.618 152.56 358.051 153.7 354.019 153.253C348.987 152.696 350.346 151.199 357.545 149.367C364.717 147.543 369.455 145.195 373.43 141.495C378.178 137.077 381.02 132.105 381.029 128.206C381.037 124.472 379.762 124.613 378.602 128.473C375.004 140.451 364.767 146.88 347.57 147.959C335.89 148.693 328.378 146.194 321.005 139.125C316.73 135.025 313.426 129.241 313.414 125.835C313.407 123.89 314.951 123.178 315.892 124.693C316.81 126.17 322.154 128.06 325.456 128.075C331.048 128.101 336.613 124.987 340.212 119.816C342.291 116.833 342.676 113.172 341.337 109.135C340.35 106.158 336.017 102.108 332.188 100.583C330.646 99.9694 329.511 99.3414 329.664 99.1881C329.819 99.0354 331.789 98.2645 334.044 97.4762C336.707 96.5443 341.269 95.8213 347.062 95.4126C355.848 94.7922 359.867 93.7715 362.36 91.5267C365.193 88.9753 362.965 88.4264 359.067 90.7156C356.062 92.4802 346.873 93.4697 346.873 92.0291C346.873 90.2743 352.027 81.4853 354.61 78.8367C357.803 75.5622 362.597 73.0378 367.648 71.9706C371.712 71.1129 379.484 71.0463 382.82 71.8408ZM254.553 72.9136C259.823 74.0551 265.649 76.7633 265.649 78.072C265.649 79.7513 262.006 80.475 258.02 79.5868C253.953 78.6813 249.265 75.2729 249.265 73.2217C249.265 71.691 248.983 71.7069 254.553 72.9136ZM356.403 86.1671C356.65 86.8048 356.226 87.8643 355.394 88.6922C353.802 90.277 351.753 89.9523 351.753 88.1162C351.753 86.854 353.657 85.1262 355.086 85.0908C355.578 85.0783 356.171 85.5627 356.403 86.1671ZM267.392 89.9648C267.392 91.2873 261.255 93.4863 258.193 93.2608C254.588 92.9964 253.656 91.3137 257.114 91.3137C258.427 91.3137 261.041 90.8488 262.924 90.2805C267.021 89.0433 267.392 89.0169 267.392 89.9648ZM380.232 95.6485C381.308 96.7199 381.245 97.6469 379.971 99.4573C378.574 101.442 376.852 100.749 376.852 98.2028C376.852 95.908 378.921 94.344 380.232 95.6485ZM39.7445 103.238C40.3427 105.729 39.1784 111.09 38.0392 111.09C36.8623 111.09 35.7615 107.291 36.0578 104.252C36.3318 101.445 39.1296 100.676 39.7445 103.238ZM319.193 103.548C319.434 103.789 319.319 104.57 318.936 105.283C318.006 107.012 315.499 106.999 315.499 105.266C315.499 103.627 318.07 102.431 319.193 103.548ZM286.798 110.17C292.505 111.547 292.6 111.605 292.145 113.412C291.89 114.423 291.591 115.339 291.482 115.448C290.942 115.985 278.547 110.348 278.547 109.566C278.547 108.387 279.79 108.479 286.798 110.17ZM218.414 109.121C220.034 109.771 219.269 111.074 213.866 116.851L208.479 122.611L206.232 121.014C204.996 120.135 203.842 119.059 203.668 118.622C203.359 117.849 215.744 108.606 216.943 108.716C217.273 108.746 217.934 108.928 218.414 109.121ZM50.7958 109.124C51.7391 110.062 51.2114 111.759 49.3875 113.654C46.9801 116.155 45.6833 116.15 45.6833 113.639C45.6833 110.825 49.2982 107.633 50.7958 109.124ZM229.147 115.713L231.688 117.032L227.818 124.47C225.689 128.56 223.874 132.003 223.784 132.121C223.554 132.42 216.497 128.051 216.497 127.609C216.497 127.179 226.228 114.171 226.452 114.303C226.537 114.353 227.749 114.987 229.147 115.713ZM280.278 118.465C282.956 120.349 285.452 122.194 285.825 122.566C286.571 123.309 280.255 130.172 278.826 130.172C278.376 130.172 276.98 127.596 275.724 124.447C274.469 121.298 273.113 118.299 272.71 117.78C272.167 117.082 272.321 116.587 273.304 115.872C274.034 115.341 274.806 114.936 275.02 114.973C275.235 115.009 277.6 116.581 280.278 118.465ZM266.275 120.342C266.665 120.97 270.181 134.674 270.181 135.566C270.181 135.913 268.847 136.579 267.218 137.045C265.589 137.512 263.705 138.051 263.035 138.243C261.937 138.558 261.819 137.982 261.855 132.474C261.911 123.928 262.51 121.092 264.407 120.394C265.257 120.081 266.098 120.058 266.275 120.342ZM241.77 120.235C242.441 120.413 242.99 120.691 242.99 120.852C242.99 121.929 236.455 137.111 235.991 137.111C235.672 137.111 234.597 136.803 233.601 136.426C231.799 135.744 231.796 135.73 232.975 133.477C233.627 132.232 235.175 128.715 236.416 125.662C238.619 120.237 239.277 119.571 241.77 120.235ZM34.3162 122.911C37.6118 124.545 38.6723 125.924 38.7015 128.611C38.7162 129.92 37.7171 129.659 35.7426 127.838C34.5281 126.718 32.8451 126.091 30.4349 125.86C28.4932 125.675 26.3918 125.099 25.7651 124.581C24.7214 123.719 24.7555 123.533 26.1673 122.395C28.2568 120.711 30.1183 120.829 34.3162 122.911ZM59.2696 122.525C59.9528 123.625 58.3869 125.855 55.6134 127.73C52.635 129.745 51.2609 129.947 51.2609 128.371C51.2609 124.63 57.6709 119.95 59.2696 122.525ZM255.978 123.753C255.784 124.421 255.121 127.778 254.504 131.213C252.843 140.467 253.185 139.916 249.398 139.423C247.599 139.189 246.072 138.96 246.004 138.914C245.935 138.867 246.6 136.023 247.48 132.592C248.36 129.162 249.285 125.497 249.535 124.447C249.948 122.712 250.275 122.539 253.16 122.539C255.849 122.539 256.277 122.724 255.978 123.753ZM41.0351 133.41C41.7281 134.1 41.597 137.805 40.8803 137.805C39.4496 137.805 37.0994 135.206 37.5275 134.097C37.9681 132.954 40.1482 132.527 41.0351 133.41ZM62.416 136.289C62.416 137.085 55.4182 141.274 54.088 141.274C52.725 141.274 53.563 139.092 55.4441 137.741C57.5238 136.248 62.416 135.229 62.416 136.289ZM65.7967 141.495C66.9088 142.829 65.1637 144.978 60.6151 147.873C58.5229 149.206 56.6606 150.295 56.4766 150.295C56.2918 150.295 56.1412 149.485 56.1412 148.494C56.1412 143.94 63.4297 138.656 65.7967 141.495ZM38.4331 144.857C39.0299 145.818 34.8015 149.806 33.6016 149.413C33.1526 149.266 32.6889 148.498 32.5711 147.705C32.2016 145.22 37.1614 142.809 38.4331 144.857ZM347.57 151.972C347.57 152.131 346.954 153.692 346.201 155.442C344.744 158.822 342.917 159.886 343.666 156.918C344.558 153.379 345.478 151.683 346.507 151.683C347.092 151.683 347.57 151.813 347.57 151.972ZM112.614 152.673C112.614 153.676 109.446 156.54 108.337 156.54C107.134 156.54 107.752 153.11 109.082 152.401C110.99 151.385 112.614 151.511 112.614 152.673ZM38.7113 152.304C38.7113 153.332 34.9464 155.152 32.82 155.152C30.6217 155.152 30.4955 153.935 32.6108 153.142C35.7412 151.968 38.7113 151.56 38.7113 152.304ZM416.592 153.361C416.592 153.902 416.768 154.801 416.983 155.358C417.262 156.081 416.398 156.72 413.963 157.591C409.001 159.367 405.266 162.106 403.824 165.027C402.594 167.519 402.597 167.673 403.933 170.679C404.688 172.378 405.953 174.114 406.744 174.535C407.942 175.173 408.069 175.596 407.507 177.068C406.635 179.349 406.643 183.71 407.522 186.012C408.455 188.455 411.582 191.235 413.395 191.235C414.209 191.235 416.062 192.038 417.513 193.019C421.527 195.734 424.227 195.921 426.914 193.671C428.139 192.645 429.142 191.379 429.142 190.859C429.142 190.13 429.949 190.008 432.652 190.326C436.115 190.735 436.203 190.697 439.263 187.518C440.969 185.746 442.802 184.296 443.334 184.296C446.244 184.296 455.83 197.571 471.896 223.848C481.573 239.676 494.274 266.4 499.928 282.83C511.929 317.697 510.347 341.243 494.971 356.631C487.288 364.321 478.276 368.827 464.869 371.68C459.087 372.91 453.977 373.231 430.536 373.832C390.514 374.859 380.339 374.187 379.781 370.48C379.398 367.93 384.203 364.559 391.842 362.02C395.677 360.745 399.285 359.326 399.86 358.866C400.435 358.407 402.317 357.433 404.043 356.701C407.801 355.108 416.841 350 423.768 345.555C432.442 339.99 451.552 319.689 457.026 310.224C458.134 308.308 460.061 303.781 461.307 300.163C463.282 294.43 463.579 292.648 463.614 286.285C463.651 279.376 463.529 278.732 461.334 274.294C457.587 266.72 449.32 259.581 440.994 256.734C435.479 254.847 423.268 254.985 414.969 257.028C411.583 257.861 408.716 258.543 408.597 258.543C408.478 258.543 408.175 257.45 407.924 256.115C407.357 253.109 405.437 252.758 405.437 255.66C405.437 258.468 404.046 259.422 394.724 263.005C384.33 267.001 373.241 272.044 356.111 280.568L342.689 287.246V290.611C342.689 295.362 341.133 298.789 338.975 298.789C337.75 298.789 337.041 298.213 336.415 296.708C335.939 295.563 335.116 294.626 334.587 294.626C334.058 294.626 333.626 294.792 333.626 294.995C333.626 295.947 335.891 300.605 336.885 301.699C337.91 302.825 337.898 302.963 336.744 303.403C334.725 304.174 330.689 301.539 328.879 298.269C327.981 296.647 326.957 295.32 326.602 295.32C325.612 295.32 325.835 297.93 327.021 300.212C327.905 301.915 327.921 302.259 327.115 302.259C324.999 302.259 322.604 299.46 321.774 296.017C320.632 291.275 319.366 290.626 319.881 295.045C320.098 296.914 320.5 299.177 320.776 300.074C321.55 302.599 319.053 301.743 317.017 298.785C315.46 296.523 315.374 295.919 315.737 289.769C316.485 277.104 318.187 272.43 323.924 267.297C327.389 264.196 330.493 262.533 348.233 254.279C357.559 249.938 364.303 245.323 364.303 243.279C364.303 241.197 362.095 241.555 359.727 244.023C356.959 246.906 351.181 250.321 342.929 253.951C332.474 258.55 333.37 258.592 331.664 253.42C325.822 235.708 325.66 214.402 331.239 197.663C333.627 190.5 341.416 173.168 345.306 166.362L348.616 160.572L365 160.406C383.287 160.22 387.394 159.668 404.174 155.14C415.489 152.087 416.592 151.929 416.592 153.361ZM98.353 154.08C99.9559 155.675 100.621 158.53 99.622 159.525C99.3787 159.767 97.9738 159.117 96.4999 158.079C93.6735 156.091 92.903 153.558 94.8929 152.798C96.4615 152.199 96.4643 152.2 98.353 154.08ZM61.0216 157.91C61.0216 158.282 60.1181 159.051 59.0137 159.62C57.9093 160.188 56.0269 161.473 54.8305 162.475C53.6341 163.476 52.6552 164.097 52.6552 163.853C52.6552 162.705 54.9009 159.287 56.2925 158.317C58.016 157.115 61.0216 156.857 61.0216 157.91ZM426.702 159.343C437.585 160.835 447.061 167.459 451.77 176.862C453.202 179.722 453.543 181.416 453.54 185.646L453.535 190.888L450.6 187.419C446.425 182.484 443.145 179.439 442.005 179.439C441.464 179.439 440.352 180.766 439.533 182.388C436.713 187.97 434.036 189.385 432.528 186.088C431.918 184.758 432.074 183.38 433.282 179.423C434.119 176.679 434.603 174.235 434.358 173.99C433.7 173.335 429.242 178.413 428.843 180.272C428.654 181.15 428.146 183.691 427.713 185.919C426.568 191.813 423.303 194.345 420.477 191.533C418.227 189.293 419.239 185.023 424.448 174.783C425.654 172.412 426.388 170.227 426.079 169.926C425.26 169.128 421.034 174.25 419.026 178.474C418.075 180.476 416.955 183.698 416.538 185.634C415.676 189.638 414.644 190.053 412.029 187.45C408.676 184.114 410.06 177.227 415.501 170.163C419.258 165.285 417.778 164.639 412.625 168.907C407.774 172.925 406.134 172.802 406.134 168.423C406.134 165.226 407.742 163.551 413.109 161.153C417.806 159.053 421.248 158.595 426.702 159.343ZM112.614 159.112C115.418 160.132 118.111 164.173 115.987 164.173C114.82 164.173 109.128 160.756 109.128 160.055C109.128 159.579 111.002 158.467 111.451 158.677C111.515 158.707 112.039 158.903 112.614 159.112ZM324.18 162.265C324.328 162.742 325.784 167.903 327.414 173.735C329.044 179.566 330.623 184.093 330.924 183.794C331.224 183.495 331.562 180.757 331.676 177.709C331.856 172.902 332.059 172.134 333.21 171.916C334.439 171.682 334.506 171.999 334.118 176.137C333.657 181.063 330.882 191.235 330 191.235C329.694 191.235 329.436 189.752 329.427 187.939C329.418 185.848 328.045 180.533 325.673 173.403C323.617 167.221 322.108 161.99 322.319 161.78C322.98 161.122 323.897 161.361 324.18 162.265ZM45.5383 167.122L49.2257 169.377L49.0228 173.486C48.8994 176.001 48.4832 177.705 47.9492 177.88C47.374 178.069 47.0777 177.413 47.0777 175.948C47.0777 174.728 46.4077 172.543 45.5885 171.092C44.2631 168.745 43.8594 168.492 41.9282 168.792C39.3046 169.2 36.8896 167.67 37.5303 166.008C38.2289 164.197 41.4987 164.651 45.5383 167.122ZM104.801 170.812C105.66 171.411 106.182 172.192 105.962 172.547C105.334 173.558 101.175 173.305 99.675 172.166C98.5037 171.277 98.4625 171.045 99.3675 170.442C100.893 169.426 103.021 169.571 104.801 170.812ZM95.8815 171.05C95.8815 173.197 99.615 175.778 103.487 176.307C107.712 176.886 109.392 178.411 107.4 179.861C105.31 181.382 104.154 181.042 100.065 177.704C96.6693 174.932 95.8481 174.58 92.749 174.571L89.2581 174.561L92.0469 172.169C95.2715 169.402 95.8815 169.225 95.8815 171.05ZM235.321 171.512C235.896 171.644 243.583 173.014 252.402 174.559C261.222 176.103 272.673 178.142 277.85 179.09C283.027 180.039 290.949 181.485 295.454 182.305C301.915 183.48 303.644 184.031 303.636 184.913C303.609 187.633 302.894 187.702 292.485 185.996C282.024 184.281 241.069 178.904 233.404 178.239C228.515 177.815 227.977 176.945 230.243 173.127C231.377 171.215 232.483 170.864 235.321 171.512ZM56.5017 171.825C56.8691 172.417 53.1216 176.663 52.2327 176.663C52.0815 176.663 51.958 175.414 51.958 173.888C51.958 171.279 52.0814 171.112 54.0085 171.112C55.1366 171.112 56.2584 171.433 56.5017 171.825ZM69.3371 174.328C70.1319 175.334 70.7824 176.427 70.7824 176.757C70.7824 178.34 65.8351 176.447 64.3793 174.308C62.7319 171.886 67.4226 171.905 69.3371 174.328ZM62.2417 175.735C63.9694 176.429 63.056 178.667 60.187 180.766C56.9625 183.127 55.9865 183.354 54.8612 182.004C53.8251 180.762 56.2612 176.847 58.6274 175.952C60.5566 175.222 60.9114 175.201 62.2417 175.735ZM95.1843 177.857C96.5801 178.358 98.6703 180.203 98.6703 180.934C98.6703 181.802 96.5927 181.629 93.4413 180.5C91.9075 179.95 89.4129 179.486 87.8986 179.469C86.2887 179.451 85.42 179.188 85.807 178.834C86.6248 178.086 93.753 177.344 95.1843 177.857ZM43.149 178.796C45.5153 180.648 45.7007 183.221 43.4174 182.52C38.6688 181.063 36.5716 178.751 39.1171 177.778C40.7834 177.142 41.1578 177.236 43.149 178.796ZM71.4796 179.807C71.4796 180.392 70.9302 181.046 70.2595 181.26C66.3161 182.521 65.2871 183.182 64.905 184.697C64.2712 187.211 66.1732 191.103 68.2962 191.633C69.2799 191.878 70.0859 192.436 70.0873 192.871C70.0908 194.261 66.9813 199.562 66.1628 199.562C64.9762 199.562 63.2861 197.314 64.2343 196.995C64.6596 196.853 65.5932 196.31 66.3099 195.788C68.3338 194.315 66.9185 191.114 63.7957 190.101C61.7418 189.434 61.4044 189.036 61.5947 187.499C61.7732 186.054 61.5243 185.684 60.3746 185.684C58.3054 185.684 58.5933 184.505 60.9603 183.287C62.0765 182.713 63.6117 181.455 64.3724 180.494C65.4482 179.132 66.3872 178.745 68.6169 178.745C70.7231 178.745 71.4796 179.026 71.4796 179.807ZM236.018 181.521C237.744 181.834 246.685 182.917 255.888 183.929C285.488 187.183 302.109 189.613 301.087 190.538C300.769 190.826 298.156 190.809 295.28 190.5C276.125 188.448 233.857 187.011 231.384 188.328C230.319 188.895 229.352 191.152 227.694 196.931C226.459 201.24 224.545 207.576 223.442 211.011C222.338 214.446 220.625 220.535 219.634 224.542C217.563 232.919 213.821 244.703 212.924 245.672C212.092 246.57 212.143 244.88 213.038 241.885C213.437 240.552 216.91 227.127 220.757 212.052C224.603 196.977 228.123 183.862 228.578 182.908C229.509 180.956 231.18 180.645 236.018 181.521ZM209.271 181.673C210.513 183.674 208.446 193.444 204.25 205.393C202.923 209.172 201.926 212.353 202.034 212.461C202.142 212.569 203.896 209.398 205.93 205.416C207.964 201.433 209.919 198.174 210.274 198.174C211.352 198.174 211.095 198.821 205.37 210.498C199.771 221.919 193.749 239.252 194.606 241.476C195.301 243.281 199.049 245.084 206.822 247.357C210.896 248.548 214.513 249.523 214.86 249.523C215.522 249.523 218.696 240.77 221.655 230.787C227.112 212.369 231.138 197.906 231.138 196.714C231.138 195.966 231.592 194.271 232.148 192.948L233.158 190.541L243.129 190.548C254.023 190.556 283.163 192.172 292.957 193.311C296.343 193.705 300.918 194.224 303.124 194.465C305.329 194.705 307.132 195.136 307.132 195.422C307.132 195.708 307.93 196.141 308.905 196.385C309.88 196.628 310.836 197.237 311.028 197.737C311.221 198.237 310.014 200.96 308.345 203.788C302.501 213.69 298.245 224.727 294.496 239.699C291.707 250.84 289.776 253.785 285.157 253.939C283.16 254.007 282.437 253.77 282.579 253.096C282.688 252.581 282.968 249.276 283.2 245.753C283.951 234.364 281.643 229.4 275.595 229.4C271.393 229.4 269.473 231.877 267.604 239.705C266.234 245.447 265.646 246.639 261.484 252.126C258.952 255.465 256.029 260.025 254.99 262.261L253.1 266.325L249.614 265.925C247.438 265.675 245.865 265.091 245.43 264.37C242.184 258.991 238.348 257.119 226.267 255.019C218.083 253.597 215.014 252.671 192.1 244.707C186.543 242.776 181.314 241.196 180.48 241.196C178.232 241.196 176.756 240.479 176.756 239.387C176.756 237.872 179.668 238.226 185.934 240.502C189.086 241.647 191.81 242.584 191.987 242.584C192.85 242.584 189.219 239.344 185.63 236.912C180.855 233.675 176.897 232.175 173.132 232.175C170.88 232.175 170.424 231.954 170.628 230.961C170.827 229.985 171.56 229.763 174.359 229.83C178.264 229.925 182.978 232.015 188.153 235.947C189.944 237.307 191.667 238.42 191.981 238.42C192.635 238.42 203.218 203.607 205.27 194.705C206.018 191.461 206.84 187.168 207.097 185.164C207.58 181.391 208.34 180.173 209.271 181.673ZM76.0114 181.521C76.2484 181.902 76.1097 182.214 75.7039 182.214C75.2982 182.214 74.9656 181.902 74.9656 181.521C74.9656 181.139 75.1036 180.827 75.273 180.827C75.4424 180.827 75.7743 181.139 76.0114 181.521ZM83.311 185.857C83.3333 190.154 83.0217 190.422 79.7079 188.949L77.8262 188.113L80.5585 184.99L83.2901 181.867L83.311 185.857ZM53.6132 185.43C54.332 186.412 56.0576 187.698 57.4478 188.287L59.9758 189.361L57.9839 189.911C54.7266 190.81 53.243 192.59 53.4787 195.314C53.6049 196.77 53.3462 197.829 52.8226 198.003C52.1979 198.21 51.9267 196.974 51.8451 193.548C51.7824 190.94 51.6569 187.636 51.5656 186.204C51.3717 183.157 51.8235 182.986 53.6132 185.43ZM73.2526 185.717C74.5954 187.193 74.5933 187.213 72.9653 188.525C72.0631 189.253 71.0683 189.847 70.7552 189.847C69.5595 189.847 67.9288 187.53 68.131 186.118C68.4301 184.03 71.4998 183.79 73.2526 185.717ZM48.797 186.508C49.0194 187.773 48.9531 189.68 48.6498 190.747L48.0991 192.688L46.1169 190.63C44.4144 188.861 44.2275 188.294 44.7895 186.607C45.1876 185.413 46.0221 184.558 46.918 184.427C48.1053 184.252 48.4714 184.658 48.797 186.508ZM43.7548 192.576C45.4783 194.117 45.8366 194.809 45.2294 195.422C44.6179 196.04 43.8197 196.013 41.8738 195.313C38.5524 194.118 37.5665 192.955 38.7113 191.582C39.9844 190.056 41.2038 190.296 43.7548 192.576ZM82.3552 193.238C86.7022 195.285 88.365 197.199 86.4359 197.936C83.622 199.011 75.7088 194.975 75.6774 192.449C75.6565 190.718 77.4532 190.93 82.3552 193.238ZM62.9389 192.388C64.106 192.857 64.0426 194.343 62.8127 195.358C61.4825 196.458 57.6806 196.518 56.632 195.456C54.873 193.676 59.9703 191.196 62.9389 192.388ZM77.0572 197.407C78.0158 198.105 79.7414 198.98 80.8918 199.35L82.9833 200.023L83.1743 211.936L83.3647 223.848H72.5421C66.5894 223.848 61.7188 223.593 61.7188 223.281C61.7188 222.024 63.8948 215.522 64.3152 215.522C64.5634 215.522 65.4969 216.204 66.3893 217.039C67.5802 218.153 69.1405 218.638 72.2465 218.862C76.3746 219.159 76.4743 219.126 76.2456 217.517C76.0323 216.014 75.729 215.889 72.7931 216.097C69.9848 216.296 69.3866 216.085 68.087 214.442C66.8105 212.826 66.0338 209.97 66.8718 209.97C67.0217 209.97 68.5116 210.588 70.1835 211.343C73.8528 213 76.4402 213.099 79.1836 211.687C80.8701 210.819 81.2404 210.189 81.2404 208.186C81.2404 206.551 80.7014 205.207 79.6089 204.121C77.9496 202.469 72.8552 201.145 71.4601 202.003C70.2664 202.737 72.5937 204.884 75.1294 205.389C78.1309 205.986 80.0893 207.802 79.0609 209.035C78.0033 210.303 73.5398 210.218 71.6399 208.894C68.543 206.735 68.4782 205.546 71.1889 200.637C72.5693 198.137 74.0627 196.102 74.5068 196.115C74.9509 196.126 76.0985 196.708 77.0572 197.407ZM49.1693 200.982V205.328L47.7038 204.008C45.7377 202.238 44.0302 198.844 44.7525 198.144C45.0725 197.833 46.1971 197.366 47.252 197.107L49.1693 196.636V200.982ZM310.473 208.756C307.791 214.958 304.5 223.311 303.158 227.318C300.525 235.189 298.963 237.91 299.773 233.216C301.199 224.95 312.698 197.48 314.732 197.48C315.071 197.48 313.154 202.555 310.473 208.756ZM61.6826 199.522C62.4606 200.014 62.2201 200.253 60.6367 200.565C59.5066 200.787 57.1808 201.419 55.4691 201.968C53.7575 202.517 52.1888 202.798 51.9832 202.592C51.2476 201.856 54.9393 199.562 56.8586 199.562C57.9351 199.562 59.234 199.409 59.7444 199.223C60.2554 199.035 61.1276 199.17 61.6826 199.522ZM64.8269 202.29C65.0472 202.646 64.7635 203.972 64.196 205.239C63.6292 206.506 62.0326 211.211 60.6486 215.695L58.1331 223.848H54.8214H51.5097L51.7635 216.049C52.002 208.732 52.1317 208.131 53.8593 206.336C54.8723 205.284 57.3809 203.797 59.4334 203.033C63.6515 201.462 64.2608 201.379 64.8269 202.29ZM42.8032 203.772C44.0037 204.498 44.9861 205.377 44.9861 205.724C44.9861 206.071 45.7648 207.091 46.7172 207.989C47.9993 209.2 48.447 210.342 48.4449 212.399L48.4414 215.175L47.1558 212.357C46.2738 210.424 44.7476 208.823 42.2907 207.254C40.3218 205.997 38.7113 204.566 38.7113 204.074C38.7113 202.532 40.5338 202.398 42.8032 203.772ZM43.2256 211.416C46.7276 214.629 47.0087 215.844 43.6837 213.398C42.5236 212.544 40.381 211.652 38.9225 211.416C35.7816 210.909 35.2546 209.046 38.157 208.713C39.5751 208.55 40.8322 209.22 43.2256 211.416ZM91.674 227.272C93.5173 230.701 91.653 239.369 89.385 237.915C88.9319 237.624 74.2984 237.229 56.8663 237.036L25.1718 236.686L24.7136 234.452C24.2144 232.021 24.6293 228.706 25.4318 228.706C25.7078 228.706 25.9066 230.033 25.8731 231.655L25.8131 234.604L57.7099 234.951L89.6074 235.298L89.6067 230.614C89.6067 225.92 90.3235 224.762 91.674 227.272ZM278.236 231.787C279.788 234.145 280.405 245.368 279.254 250.28C278.77 252.345 277.776 254.689 277.043 255.49C275.878 256.766 275.841 257.054 276.748 257.803C277.317 258.273 278.347 258.482 279.037 258.265C279.726 258.049 282.912 257.418 286.116 256.863C293.108 255.653 297.203 253.313 297.835 250.167C298.065 249.022 298.91 247.628 299.712 247.068C301.039 246.143 301.321 246.2 302.81 247.68C303.745 248.612 304.601 250.473 304.804 252.019C305.333 256.033 303.009 259.02 297.133 261.881C292.901 263.941 291.022 265.638 291.95 266.562C292.129 266.741 294.06 266.103 296.239 265.144C300.992 263.052 300.858 263.063 300.858 264.756C300.858 267.429 299.263 269.492 295.213 272.06C290.048 275.335 289.486 278.444 294.583 275.544C297.907 273.653 298.34 274.639 295.605 277.873C294.568 279.101 290.69 281.485 286.207 283.651C282.01 285.68 278.678 287.652 278.801 288.034C279.134 289.062 281.807 288.491 287.088 286.265C292.394 284.027 293.203 284.671 289.528 288.207C284.421 293.122 275.34 295.201 253.875 296.368C246.715 296.758 245.641 296.68 245.983 295.791C247.062 292.993 248 282.753 247.763 276.367L247.496 269.2L250.963 269.827C253.933 270.364 254.558 270.278 255.333 269.223C255.83 268.547 256.243 267.506 256.25 266.911C256.27 265.112 260.032 258.886 265.189 252.112C269.86 245.976 270.1 245.472 270.885 240.155C271.465 236.23 272.207 233.943 273.419 232.349C275.466 229.655 276.735 229.507 278.236 231.787ZM85.6446 240.259C86.6046 241.215 86.0768 247.037 84.3547 254.481C82.4883 262.544 79.4235 271.034 78.3777 271.034C77.4302 271.034 77.6212 269.772 79.429 264.094C80.3403 261.232 81.8044 254.831 82.6828 249.87C84.2752 240.875 84.7424 239.361 85.6446 240.259ZM230.621 257.545C235.193 258.648 239.725 260.796 238.11 261.096C237.535 261.202 234.24 260.906 230.789 260.437C225.119 259.666 224.493 259.434 224.291 258.023C224.029 256.183 224.745 256.129 230.621 257.545ZM235.177 266.493C242.65 267.383 243.418 267.695 243.803 269.993C244.028 271.33 243.719 271.371 235.321 271.124C230.528 270.984 226.371 270.731 226.083 270.563C225.795 270.395 225.56 269.184 225.56 267.87C225.56 265.139 224.768 265.253 235.177 266.493ZM84.0187 268.39C84.0243 269.417 83.7154 270.451 83.3319 270.687C82.4416 271.234 82.4416 268.935 83.3319 267.564C83.8604 266.75 84.0103 266.93 84.0187 268.39ZM455.481 270.163C459.886 275.734 460.826 278.447 460.832 285.605C460.836 290.557 460.436 293.479 459.225 297.348C457.513 302.822 453.52 312.18 453.082 311.745C452.939 311.602 453.95 308.575 455.331 305.018C461.161 289.992 460.837 279.321 454.298 271.106C453.097 269.596 452.409 268.18 452.768 267.96C453.128 267.738 454.348 268.73 455.481 270.163ZM61.8931 277.799C81.5443 277.965 84.7263 278.135 84.7263 279.023C84.7263 279.59 84.0807 280.697 83.2908 281.483C81.8881 282.879 81.3038 282.906 57.5098 282.697L33.1637 282.483L31.3196 280.647C28.7456 278.083 29.6373 277.249 34.7436 277.442C37.1175 277.533 49.3345 277.693 61.8931 277.799ZM234.972 278.441C236.89 278.562 239.792 278.836 241.422 279.052C244.339 279.439 244.385 279.487 244.385 282.178V284.911H234.214H224.043L224.533 281.962C224.803 280.341 225.163 278.78 225.333 278.493C225.632 277.99 227.605 277.979 234.972 278.441ZM97.9731 288.299C100.691 288.777 101.48 290.608 99.898 292.761C99.0335 293.938 96.6645 294.007 58.214 293.983C35.7921 293.969 16.9678 293.952 16.3829 293.945C15.5706 293.935 15.3789 293.301 15.5734 291.268L15.8286 288.604L41.3885 288.146C70.9065 287.618 94.4634 287.682 97.9731 288.299ZM237.761 291.79L243.339 292.197L243.094 294.279C242.96 295.424 242.707 296.595 242.53 296.881C242.149 297.502 226.647 297.583 223.618 296.98C221.516 296.562 221.507 296.543 222.378 294.031L223.255 291.503L227.72 291.443C230.175 291.411 234.694 291.567 237.761 291.79ZM93.4085 304.064C93.6679 305.439 93.6756 306.767 93.426 307.014C92.9902 307.444 22.5663 307.238 22.1306 306.805C22.0141 306.689 21.7345 305.463 21.5086 304.08L21.0987 301.565H57.0183H92.9372L93.4085 304.064ZM60.3077 310.562L94.1051 310.933L94.7744 312.827C95.1425 313.869 95.307 314.837 95.1397 314.979C94.9724 315.12 81.1881 314.998 64.5076 314.707C35.4449 314.201 31.6863 314.368 32.7719 316.115C32.9476 316.399 44.1606 316.838 57.689 317.09C87.2069 317.642 94.8978 318.087 93.8018 319.179C93.2573 319.722 82.8537 320.018 59.0381 320.168L25.0525 320.383L24.0799 316.699C22.6388 311.239 22.7469 310.243 24.7834 310.215C25.733 310.202 41.719 310.358 60.3077 310.562ZM21.1412 313.584C22.2679 316.684 22.2164 317.043 20.4908 318.116C19.2498 318.887 18.9046 318.886 18.4096 318.109C17.0724 316.009 18.0945 311.28 19.8863 311.28C20.1164 311.28 20.6811 312.316 21.1412 313.584ZM441.668 325.558C433.252 334.105 425.529 341.478 424.743 341.715C424.287 341.853 428.458 337.404 434.013 331.827C439.569 326.25 444.421 321.688 444.796 321.688C445.171 321.688 443.764 323.43 441.668 325.558ZM83.9385 324.481C87.2844 324.968 90.412 326.669 89.5461 327.531C89.3669 327.709 87.9474 327.57 86.3919 327.223C82.9206 326.446 46.7214 325.995 45.9824 326.719C45.6902 327.005 45.6268 327.414 45.8416 327.629C46.057 327.842 55.5995 328.238 67.0482 328.507C78.4969 328.777 88.2611 329.248 88.7464 329.554C89.2323 329.86 89.4491 330.401 89.2281 330.757C88.989 331.142 73.6646 331.403 51.1834 331.403H13.539L13.7502 327.76L13.9608 324.117L47.0777 324.027C65.292 323.977 81.879 324.181 83.9385 324.481ZM512.457 342.758C515.557 344.38 522.737 344.712 530.759 343.603L535.116 343.001L535.11 345.703C535.099 349.824 531.788 354.932 526.614 358.803C515.383 367.206 505.052 369.733 491.969 367.279L487.517 366.445L491.86 363.052C497.502 358.644 503.251 351.669 506.046 345.84C507.271 343.286 508.588 341.219 508.971 341.247C509.355 341.276 510.923 341.956 512.457 342.758ZM19.8291 341.374C19.0239 342.085 9.42902 342.527 9.42902 341.853C9.42902 341.398 11.4718 341.117 14.7744 341.117C17.7138 341.117 19.9888 341.232 19.8291 341.374ZM63.0854 348.697L85.0185 349.097L85.4919 351.404C85.798 352.891 85.6836 353.814 85.1718 354.001C84.7347 354.16 69.0045 354.371 50.2151 354.47L16.0524 354.648L15.4081 352.052C15.0533 350.624 14.8964 349.33 15.0596 349.176C15.6933 348.58 42.2078 348.315 63.0854 348.697ZM86.8179 358.274C86.8179 359.547 86.2086 359.744 80.7175 360.245C72.7827 360.97 15.869 360.707 14.4907 359.939C12.0582 358.585 16.1841 358.284 39.3088 358.132C52.5932 358.044 68.7173 357.722 75.1399 357.416C86.6102 356.869 86.8179 356.884 86.8179 358.274ZM363.48 368.282C365.521 369.063 367.052 369.838 366.882 370.006C366.593 370.295 359.404 367.698 358.783 367.08C358.171 366.472 359.91 366.917 363.48 368.282ZM162.812 369.335C168.007 370.146 180.383 372.756 188.957 374.85C194.326 376.161 204.209 378.173 210.919 379.322C226.319 381.959 236.333 384.19 239.253 385.635C242.508 387.246 243.267 392.605 240.64 395.426C239.372 396.788 238.034 397.306 234.888 397.652C232.634 397.9 224.514 398.866 216.845 399.797C185.569 403.598 149.405 407.732 147.434 407.732C145.574 407.732 145.416 407.578 146.055 406.39C146.452 405.651 146.777 403.601 146.777 401.833C146.777 400.066 146.452 398.016 146.055 397.277C145.658 396.539 145.495 395.935 145.693 395.935C145.892 395.935 150.844 395.152 156.699 394.194C162.554 393.236 174.717 391.672 183.728 390.719C192.74 389.764 204.819 388.379 210.571 387.638C216.322 386.899 223.303 386.08 226.083 385.82C231.869 385.279 232.999 384.247 227.478 384.545C225.464 384.654 219.896 384.927 215.102 385.153C197.721 385.969 154.464 390.766 146.925 392.712C142.96 393.736 138.138 393.021 110.781 387.358C104.212 385.999 96.6826 384.546 94.0479 384.129C86.9149 383.002 79.8459 381.32 79.8459 380.749C79.8459 380.472 87.6114 379.384 97.1016 378.331C106.592 377.278 118.122 375.84 122.724 375.134C127.325 374.429 136.267 373.194 142.594 372.391C148.921 371.586 155.551 370.466 157.328 369.901C159.105 369.335 160.674 368.916 160.814 368.968C160.954 369.02 161.854 369.185 162.812 369.335ZM164.207 373.454C165.165 373.618 168.93 374.244 172.573 374.845C178.449 375.815 184.709 377.197 192.966 379.348C196.503 380.269 196.327 381.761 192.618 382.296C145.382 389.103 145.85 389.086 126.21 384.641C110.512 381.089 107.853 380.269 108.848 379.29C109.194 378.949 114.654 378.034 120.981 377.255C127.308 376.477 135.622 375.326 139.456 374.698C146.254 373.586 160.716 372.859 164.207 373.454ZM173.096 377.401C186.685 380.164 190.142 381.357 184.6 381.369C180.31 381.378 152.517 385.122 147.944 386.305C146.216 386.753 144.988 386.759 144.458 386.323C144.008 385.952 137.992 384.479 131.09 383.049C124.188 381.619 118.29 380.233 117.983 379.97C117.677 379.707 120.187 379.302 123.561 379.071C126.935 378.839 134.86 377.699 141.173 376.537C147.485 375.375 154.074 374.448 155.814 374.476C157.554 374.505 165.331 375.821 173.096 377.401ZM392.888 379.336C393.968 379.647 392.511 379.843 389.053 379.851C383.174 379.867 382.773 379.585 388.007 379.115C389.733 378.96 391.929 379.06 392.888 379.336ZM392.627 381.732C392.387 382.355 392.191 383.158 392.191 383.518C392.191 383.877 391.396 383.653 390.426 383.02C388.399 381.699 388.394 381.717 391.058 381.079C392.732 380.679 392.992 380.787 392.627 381.732ZM75.699 382.532C78.7458 383.824 121.418 393.214 135.154 395.615C141.745 396.767 142.049 396.899 143.092 399.077C144.483 401.98 143.888 404.255 141.225 406.215L139.111 407.771L128.667 405.631C122.924 404.454 108.883 401.95 97.4662 400.067C83.1284 397.701 75.6886 396.162 73.4108 395.091C70.4798 393.711 68.8477 392.078 69.6271 391.303C69.7763 391.154 72.8426 391.648 76.4409 392.401C91.059 395.459 123.178 401.555 129.904 402.548C137.195 403.624 138.411 403.527 138.411 401.86C138.411 401.232 136.991 400.77 134.053 400.441C127.257 399.679 112.905 397.032 97.2759 393.656C89.415 391.959 80.0028 390.015 76.36 389.337C72.7171 388.66 69.6452 388.032 69.533 387.944C69.0673 387.573 71.6574 382.138 72.4417 381.838C72.9117 381.659 74.3772 381.971 75.699 382.532ZM385.677 389.663C385.099 392.54 386.172 392.841 388.247 390.386C390.521 387.696 391.568 387.76 394.21 390.755C396.24 393.056 396.372 393.539 396.337 398.562C396.29 405.44 394.896 413.15 393.166 416.097C392.419 417.37 389.838 419.753 387.431 421.393L383.053 424.375L379.414 421.698C377.412 420.227 374.505 418.379 372.955 417.591C371.404 416.804 369.757 415.706 369.295 415.151C368.378 414.052 369.25 412.801 379.435 400.593C384.341 394.711 385.265 393.16 383.863 393.16C381.38 393.16 362.861 416.231 358.6 424.632C355.899 429.957 353.139 433.406 351.579 433.406C350.239 433.406 349.94 432.357 351.08 431.656C351.476 431.413 354.357 427.413 357.481 422.768C364.472 412.378 369.668 405.306 374.646 399.405C380.182 392.843 385.044 387.608 385.603 387.608C385.871 387.608 385.904 388.533 385.677 389.663ZM228 401.486C227.762 401.871 225.021 402.139 221.859 402.087C216.461 402 216.339 401.965 219.634 401.455C224.756 400.661 228.505 400.675 228 401.486ZM226.644 405.988C226.414 407.127 225.824 408.46 225.332 408.95C224.386 409.892 202.154 412.905 177.802 415.392C170.133 416.175 161.819 417.107 159.327 417.464C152.029 418.508 150.263 418.37 150.263 416.752C150.263 415.625 150.728 415.364 152.732 415.364C155.136 415.364 189.312 411.511 192.792 410.847C193.751 410.665 198.927 410.048 204.296 409.477C213.759 408.472 221.05 407.175 220.473 406.6C220.317 406.446 218.026 406.619 215.381 406.986C212.735 407.353 204.296 408.155 196.627 408.77C182.064 409.935 151.003 413.174 150.313 413.599C150.094 413.734 149.026 413.141 147.942 412.279L145.97 410.715L152.474 410.24C160.369 409.663 179.183 407.507 192.443 405.658C198.329 404.838 207.138 404.222 214.632 404.107L227.061 403.915L226.644 405.988ZM85.0749 409.498C91.6314 410.887 144.335 420.222 145.629 420.222C145.877 420.222 146.08 420.69 146.08 421.263C146.08 422.686 144.411 422.605 131.575 420.558C116.679 418.182 80.0391 411.324 75.4885 410.059C73.6869 409.558 73.9714 407.718 75.8371 407.801C76.6995 407.84 80.8569 408.603 85.0749 409.498ZM231.703 412.415C231.516 413.387 230.424 413.73 226.249 414.129C223.377 414.403 216.479 415.262 210.919 416.038C205.359 416.813 196.231 418.082 190.633 418.857C178.695 420.51 151.154 422.915 149.391 422.458C148.721 422.284 148.171 421.899 148.171 421.603C148.171 420.569 150.672 420.099 159.327 419.506C164.12 419.177 170.865 418.576 174.316 418.171C177.767 417.765 186.395 416.811 193.489 416.05C207.701 414.526 220.386 412.906 226.2 411.873C231.382 410.951 231.975 411.01 231.703 412.415ZM80.8918 418.54C84.3429 419.455 95.7944 421.958 106.339 424.103C125.795 428.061 141.034 431.622 141.808 432.392C142.042 432.625 141.687 433.121 141.019 433.493C140.352 433.864 139.8 434.856 139.794 435.696C139.772 438.984 139.367 438.997 125.848 436.164C114.671 433.821 72.9883 423.774 72.2674 423.249C71.6232 422.781 73.0469 416.759 73.788 416.815C74.244 416.849 77.4406 417.626 80.8918 418.54ZM227.303 418.14C228.131 419.472 226.566 420.014 219.364 420.888C215.678 421.336 207.172 422.455 200.461 423.376C184.092 425.623 177.801 426.277 164.207 427.144C157.88 427.548 151.657 428.069 150.377 428.302C148.241 428.691 148.07 428.593 148.286 427.104C148.579 425.074 150.381 424.545 157.297 424.454C165.209 424.351 183.458 422.487 194.884 420.614C200.444 419.703 208.444 418.76 212.662 418.52C216.88 418.279 221.781 417.904 223.554 417.687C225.721 417.42 226.948 417.569 227.303 418.14ZM236.018 423.311C236.018 424.815 235.88 424.844 223.12 426.087C216.985 426.685 206.631 427.796 200.113 428.556C193.594 429.317 185.593 430.245 182.334 430.621C179.075 430.995 169.573 432.117 161.219 433.112C146.591 434.857 143.988 434.913 143.988 433.483C143.988 432.547 146.258 432.18 159.675 430.949C166.194 430.351 182.508 428.501 195.929 426.837C209.35 425.174 222.998 423.613 226.257 423.369C229.517 423.125 233.046 422.76 234.101 422.559C235.551 422.283 236.018 422.466 236.018 423.311ZM243.66 424.005C244.841 425.422 243.925 427.698 241.721 428.823C237.855 430.797 178.889 437.521 149.391 439.352C142.756 439.763 141.897 439.688 141.897 438.693C141.897 437.816 142.622 437.568 145.208 437.565C147.029 437.563 162.168 435.875 178.848 433.816C195.529 431.756 215.713 429.349 223.704 428.465C238.01 426.884 238.251 426.83 239.612 424.928C241.15 422.779 242.4 422.494 243.66 424.005ZM417.833 424.291C418.502 424.702 418.37 425.146 417.288 426.121C415.957 427.32 414.002 432.824 412.607 439.304C412.24 441.005 411.614 442.08 410.988 442.08C409.473 442.08 410.021 437.39 412.29 430.952C414.175 425.602 416.135 423.246 417.833 424.291Z"/>
</svg>
