<svg viewBox="0 0 24 24" fill="currentColor" xmlns="http://www.w3.org/2000/svg">
    <path fill-rule="evenodd" clip-rule="evenodd" d="M13.0609 16.06C12.7796 16.3409 12.3984 16.4987 12.0009 16.4987C11.6034 16.4987 11.2221 16.3409 10.9409 16.06L5.28288 10.404C5.00161 10.1226 4.84366 9.74102 4.84375 9.34316C4.84384 8.9453 5.00198 8.56377 5.28338 8.28251C5.56477 8.00125 5.94637 7.84329 6.34423 7.84338C6.74209 7.84348 7.12361 8.00162 7.40488 8.28301L12.0009 12.879L16.5969 8.28301C16.8797 8.00964 17.2585 7.85827 17.6518 7.8615C18.0451 7.86473 18.4214 8.0223 18.6996 8.30028C18.9779 8.57827 19.1358 8.95441 19.1394 9.34771C19.143 9.741 18.992 10.12 18.7189 10.403L13.0619 16.061L13.0609 16.06Z" />
</svg>
