<svg viewBox="0 0 24 24" fill="currentColor" xmlns="http://www.w3.org/2000/svg">
    <path d="M17 2C17.5523 2 18 2.44772 18 3V4H19C20.1023 4 21 4.89772 21 6V20C21 21.1023 20.1023 22 19 22H5C3.89772 22 3 21.1023 3 20V6C3 4.89772 3.89772 4 5 4H6V3C6 2.44772 6.44772 2 7 2C7.55228 2 8 2.44772 8 3V4H16V3C16 2.44772 16.4477 2 17 2ZM7 15C6.44772 15 6 15.4477 6 16C6 16.5523 6.44772 17 7 17H14C14.5523 17 15 16.5523 15 16C15 15.4477 14.5523 15 14 15H7ZM7 11C6.44772 11 6 11.4477 6 12C6 12.5523 6.44772 13 7 13H17C17.5523 13 18 12.5523 18 12C18 11.4477 17.5523 11 17 11H7Z" />
</svg>
