<svg viewBox="0 0 24 24" fill="currentColor" xmlns="http://www.w3.org/2000/svg">
    <path d="M19.5297 6.41002C19.8187 6.68324 19.9874 7.06005 19.9986 7.4576C20.0099 7.85515 19.8628 8.24089 19.5897 8.53002L11.0897 17.53C10.9519 17.6756 10.7864 17.7921 10.6028 17.8727C10.4193 17.9532 10.2215 17.9962 10.021 17.999C9.8206 18.0018 9.62165 17.9644 9.43592 17.889C9.2502 17.8136 9.08146 17.7017 8.93969 17.56L4.43969 13.06C4.17473 12.7757 4.03049 12.3996 4.03734 12.011C4.0442 11.6224 4.20162 11.2516 4.47645 10.9768C4.75128 10.7019 5.12205 10.5445 5.51065 10.5377C5.89925 10.5308 6.27534 10.6751 6.55969 10.94L9.96969 14.348L17.4097 6.47002C17.6829 6.18101 18.0597 6.01234 18.4573 6.00109C18.8548 5.98984 19.2406 6.13693 19.5297 6.41002Z" />
</svg>
