<svg viewBox="0 0 9 9" fill="currentColor" xmlns="http://www.w3.org/2000/svg">
<path d="M4.5 0C6.98528 0 9 2.01472 9 4.5C9 6.98528 6.98528 9 4.5 9C2.01472 9 0 6.98528 0 4.5C0 2.01472 2.01472 0 4.5 0ZM4.63281 2.5C4.55759 2.5 4.47521 2.51712 4.38672 2.55078C4.29844 2.58066 4.21035 2.61832 4.12207 2.66309L3.20605 3.12793C3.12208 3.16902 3.0642 3.22167 3.0332 3.28516C3.00668 3.34493 3.0019 3.40507 3.01953 3.46484C3.03721 3.52462 3.07055 3.57722 3.11914 3.62207C3.17224 3.66321 3.23487 3.68898 3.30566 3.7002C3.38068 3.70759 3.46013 3.69134 3.54395 3.65039L4.1084 3.36035V5.90527H3.36523C3.25019 5.90527 3.15915 5.92989 3.09277 5.97852C3.03097 6.02714 3 6.10014 3 6.19727C3.00005 6.29067 3.03087 6.36582 3.09277 6.42188C3.15914 6.47418 3.25025 6.5 3.36523 6.5H5.63477C5.74966 6.5 5.83846 6.4741 5.90039 6.42188C5.96671 6.36955 5.99995 6.2944 6 6.19727C6 6.10007 5.9667 6.02714 5.90039 5.97852C5.83844 5.92989 5.74981 5.90527 5.63477 5.90527H4.95801V2.77441C4.95791 2.67751 4.92697 2.60847 4.86523 2.56738C4.8033 2.52251 4.7257 2.50001 4.63281 2.5Z" />
</svg>
