<svg viewBox="0 0 24 24" fill="currentColor" xmlns="http://www.w3.org/2000/svg">
<path d="M13.9992 12V19.88C14.0392 20.18 13.9392 20.5 13.7092 20.71C13.6166 20.8027 13.5068 20.8762 13.3858 20.9264C13.2648 20.9766 13.1351 21.0024 13.0042 21.0024C12.8732 21.0024 12.7435 20.9766 12.6225 20.9264C12.5016 20.8762 12.3917 20.8027 12.2992 20.71L10.2892 18.7C10.1802 18.5933 10.0973 18.4629 10.047 18.319C9.99666 18.175 9.9803 18.0213 9.99915 17.87V12H9.96915L4.20915 4.62C4.04676 4.41153 3.97349 4.14726 4.00534 3.88493C4.0372 3.6226 4.17159 3.38355 4.37915 3.22C4.56915 3.08 4.77915 3 4.99915 3H18.9992C19.2192 3 19.4292 3.08 19.6192 3.22C19.8267 3.38355 19.9611 3.6226 19.993 3.88493C20.0248 4.14726 19.9515 4.41153 19.7892 4.62L14.0292 12H13.9992Z" />
</svg>
