<svg viewBox="0 0 50 50" fill="currentColor" xmlns="http://www.w3.org/2000/svg">
    <path d="M26.5625 0C27.2532 8.2178e-06 27.9159 0.274327 28.4043 0.762695C28.8926 1.25105 29.167 1.91391 29.167 2.60449V25H31.25V5.72949C31.25 5.03882 31.5243 4.37607 32.0127 3.8877C32.5011 3.39933 33.1638 3.125 33.8545 3.125C34.545 3.12509 35.207 3.3995 35.6953 3.8877C36.1837 4.37607 36.458 5.03882 36.458 5.72949V25H38.542V11.9795C38.542 11.2888 38.8163 10.6261 39.3047 10.1377C39.793 9.6495 40.455 9.37508 41.1455 9.375C41.8362 9.375 42.4989 9.64932 42.9873 10.1377C43.4757 10.6261 43.75 11.2888 43.75 11.9795V33.333C43.75 42.5413 36.2913 50 27.083 50C20.2916 49.9999 14.1879 45.8542 11.667 39.542L5.35449 23.6875C5.20819 23.3196 5.16923 22.9173 5.24316 22.5283C5.31713 22.1395 5.50048 21.7797 5.77148 21.4912C6.04257 21.2026 6.39082 20.9975 6.77441 20.8994C7.15789 20.8014 7.5613 20.8145 7.9375 20.9375L9.58301 21.4795C10.7496 21.8545 11.7086 22.7498 12.167 23.8955L15.1045 31.25H16.667V6.77051C16.6671 6.07996 16.9414 5.41799 17.4297 4.92969C17.918 4.44139 18.58 4.16707 19.2705 4.16699C19.9612 4.16699 20.6239 4.44131 21.1123 4.92969C21.6005 5.41797 21.8749 6.08004 21.875 6.77051V25H23.958V2.60449C23.958 1.91389 24.2324 1.25106 24.7207 0.762695C25.2091 0.274319 25.8718 0 26.5625 0ZM35 34.7402C35 31.6336 31.425 29.4285 28.5 32.416C25.575 29.4282 22.0001 31.632 22 34.7393C22 37.8466 24.6131 39.502 26.5254 40.9844C27.2 41.507 27.85 42 28.5 42C29.1499 41.9998 29.8 41.5082 30.4746 40.9844C32.3875 39.5033 34.9999 37.8468 35 34.7402Z" />
</svg>
