<svg viewBox="0 0 24 24" fill="currentColor" xmlns="http://www.w3.org/2000/svg">
    <path d="M9.1875 0.75C8.81454 0.75 8.45685 0.898158 8.19313 1.16188C7.92941 1.4256 7.78125 1.78329 7.78125 2.15625V7.78125H2.15625C1.78329 7.78125 1.4256 7.92941 1.16188 8.19313C0.898158 8.45685 0.75 8.81454 0.75 9.1875V14.8125C0.75 15.1855 0.898158 15.5431 1.16188 15.8069C1.4256 16.0706 1.78329 16.2188 2.15625 16.2188H7.78125V21.8438C7.78125 22.2167 7.92941 22.5744 8.19313 22.8381C8.45685 23.1018 8.81454 23.25 9.1875 23.25H14.8125C15.1855 23.25 15.5431 23.1018 15.8069 22.8381C16.0706 22.5744 16.2188 22.2167 16.2188 21.8438V16.2188H21.8438C22.2167 16.2188 22.5744 16.0706 22.8381 15.8069C23.1018 15.5431 23.25 15.1855 23.25 14.8125V9.1875C23.25 8.81454 23.1018 8.45685 22.8381 8.19313C22.5744 7.92941 22.2167 7.78125 21.8438 7.78125H16.2188V2.15625C16.2188 1.78329 16.0706 1.4256 15.8069 1.16188C15.5431 0.898158 15.1855 0.75 14.8125 0.75H9.1875Z" />
</svg>
