<svg viewBox="0 0 24 24" fill="currentColor" xmlns="http://www.w3.org/2000/svg">
<path fill-rule="evenodd" clip-rule="evenodd" d="M12.7076 2.29303C12.52 2.10556 12.2657 2.00024 12.0006 2.00024C11.7354 2.00024 11.4811 2.10556 11.2936 2.29303L4.29357 9.29303L2.29357 11.293C2.19806 11.3853 2.12188 11.4956 2.06947 11.6176C2.01706 11.7396 1.98947 11.8709 1.98832 12.0036C1.98717 12.1364 2.01247 12.2681 2.06275 12.391C2.11303 12.5139 2.18728 12.6255 2.28117 12.7194C2.37507 12.8133 2.48672 12.8876 2.60962 12.9379C2.73251 12.9881 2.86419 13.0134 2.99697 13.0123C3.12975 13.0111 3.26097 12.9835 3.38297 12.9311C3.50498 12.8787 3.61532 12.8025 3.70757 12.707L4.00057 12.414V19C4.00057 19.7957 4.31664 20.5587 4.87925 21.1214C5.44186 21.684 6.20492 22 7.00057 22H17.0006C17.7962 22 18.5593 21.684 19.1219 21.1214C19.6845 20.5587 20.0006 19.7957 20.0006 19V12.414L20.2936 12.707C20.4822 12.8892 20.7348 12.99 20.997 12.9877C21.2592 12.9854 21.51 12.8803 21.6954 12.6948C21.8808 12.5094 21.986 12.2586 21.9882 11.9964C21.9905 11.7342 21.8897 11.4816 21.7076 11.293L12.7076 2.29303Z" />
</svg>
