<svg viewBox="0 0 50 50" fill="currentColor" xmlns="http://www.w3.org/2000/svg">
    <path d="M25.0002 4.16406L25.2439 4.17865C25.7089 4.23349 26.1419 4.44339 26.4731 4.7745C26.8042 5.10561 27.0141 5.53861 27.0689 6.00365L27.0835 6.2474V14.5807L27.0939 14.8932C27.1685 15.8853 27.5955 16.8179 28.2978 17.5225C29.0001 18.227 29.9313 18.6571 30.9231 18.7349L31.2502 18.7474H39.5835L39.8272 18.762C40.2923 18.8168 40.7253 19.0267 41.0564 19.3578C41.3875 19.6889 41.5974 20.1219 41.6522 20.587L41.6668 20.8307V39.5807C41.6669 41.1749 41.0578 42.7089 39.9642 43.8688C38.8705 45.0287 37.3749 45.7268 35.7835 45.8203L35.4168 45.8307H14.5835C12.9893 45.8308 11.4553 45.2217 10.2955 44.1281C9.13556 43.0344 8.43744 41.5388 8.34391 39.9474L8.3335 39.5807V10.4141C8.33341 8.81987 8.94251 7.28591 10.0362 6.12602C11.1298 4.96613 12.6254 4.26801 14.2168 4.17448L14.5835 4.16406H25.0002ZM25.0002 29.1641H22.9168C22.3643 29.1641 21.8344 29.3836 21.4437 29.7743C21.053 30.165 20.8335 30.6949 20.8335 31.2474C20.8335 31.7999 21.053 32.3298 21.4437 32.7205C21.8344 33.1112 22.3643 33.3307 22.9168 33.3307V39.5807C22.9168 40.1333 23.1363 40.6632 23.527 41.0539C23.9177 41.4446 24.4476 41.6641 25.0002 41.6641H27.0835C27.636 41.6641 28.1659 41.4446 28.5566 41.0539C28.9473 40.6632 29.1668 40.1333 29.1668 39.5807L29.1522 39.337C29.0974 38.8719 28.8875 38.4389 28.5564 38.1078C28.2253 37.7767 27.7923 37.5668 27.3272 37.512L27.0835 37.4974V31.2474C27.0835 30.6949 26.864 30.165 26.4733 29.7743C26.0826 29.3836 25.5527 29.1641 25.0002 29.1641ZM25.021 22.9141H25.0002C24.4692 22.9146 23.9584 23.118 23.5723 23.4825C23.1862 23.847 22.9538 24.3452 22.9227 24.8753C22.8916 25.4054 23.0641 25.9274 23.4049 26.3345C23.7457 26.7417 24.2291 27.0034 24.7564 27.0661L25.021 27.0807C25.5735 27.0807 26.1034 26.8612 26.4941 26.4705C26.8848 26.0798 27.1043 25.5499 27.1043 24.9974C27.1043 24.4449 26.8848 23.915 26.4941 23.5243C26.1034 23.1336 25.5735 22.9141 25.021 22.9141Z" />
    <path d="M39.5835 14.5776H31.2501L31.248 6.24219L39.5835 14.5776Z" />
</svg>
