<svg viewBox="0 0 41 50" fill="currentColor" xmlns="http://www.w3.org/2000/svg">
<path d="M7.72603 34.3658C7.26331 35.5435 6.24364 37.0983 6.24364 37.0983C6.04292 37.3354 6.16001 37.6232 6.24364 37.7375L8.33706 39.8494C9.7302 41.5686 12.3139 40.9733 13.4317 40.4608C15.9586 39.4826 17.1584 41.3253 17.4425 42.3689C17.9983 45.2441 16.4143 48.2045 15.5529 49.3254C18.8431 47.2653 21.6849 44.1875 22.6946 42.9062C32.6467 27.7446 20.2276 22.7439 12.774 22.1387C14.701 24.5378 14.4324 24.8064 14.4324 25.5382C13.9433 23.4559 10.7886 23.4787 9.5505 23.593C11.0993 24.9861 11.4556 26.2854 11.4401 26.7609C11.4401 26.7609 8.86417 28.982 8.33706 30.9477C7.96511 32.3348 8.25119 33.0291 7.72603 34.3658Z" stroke-width="0.0185258" stroke-linecap="round" stroke-linejoin="round"/>
<path d="M28.9263 0.231964C29.6971 0.195339 30.418 0.133708 31.3091 0.306183C31.4251 0.333225 31.551 0.367983 31.688 0.42923C31.8286 0.499219 32.0191 0.58103 32.1899 0.864777C32.3719 1.16689 32.2828 1.55811 32.1899 1.71634C32.0957 1.89584 31.9993 1.99898 31.9067 2.09329C31.5515 2.43092 31.2192 2.61206 30.8706 2.79446C30.0333 3.35001 29.1958 3.90586 28.3579 4.46048L28.3384 4.47318C28.2442 4.5207 28.1645 4.58522 28.0972 4.66263C28.1648 4.6555 28.2324 4.64811 28.3003 4.64212C30.2109 4.4881 32.1892 4.71436 34.0005 5.70657C34.4108 5.96595 34.2857 6.50277 33.8032 6.55716C33.7618 6.56213 33.7091 6.56934 33.6567 6.57669C31.9595 6.84392 30.2425 7.20995 28.6489 7.95657C29.8727 9.4876 31.0954 11.0196 32.3159 12.5533L32.4331 12.7017L32.4321 12.8804C32.4168 14.4437 32.3993 16.0075 32.3813 17.5708C34.9243 20.3181 37.4619 23.0717 39.9937 25.8296L40.0327 25.8804C40.3716 26.4278 40.2883 27.1511 39.8979 27.6402L39.9077 27.6265C39.4219 28.2636 38.7252 28.7137 37.9272 28.8365L37.9116 28.8384C36.9272 28.9013 36.0596 29.4388 35.2915 30.1363C34.3137 30.9487 33.1811 31.6435 31.9136 31.8863C29.8801 32.3313 27.8117 31.1145 26.8745 29.3863C27.8922 31.0756 29.958 32.1448 31.8628 31.6451C33.0583 31.367 34.1196 30.6626 35.0376 29.8413C35.7659 29.1255 36.7364 28.4519 37.8491 28.3423C38.4803 28.2277 39.0753 27.8164 39.4429 27.2935L39.4526 27.2798C39.6695 26.983 39.7153 26.5429 39.519 26.232C36.8652 23.518 34.217 20.7977 31.5747 18.0728L31.4487 17.9439L31.4468 17.7525C31.4287 16.1914 31.4123 14.6299 31.397 13.0689C30.0323 11.4211 28.6688 9.7716 27.3081 8.12064L27.2397 8.01517C26.8971 7.31755 26.672 6.59723 26.6255 5.78763C26.5649 5.01422 26.8552 3.94101 27.7075 3.44681L27.687 3.4595C28.5266 2.88957 29.3673 2.32048 30.2075 1.7515L30.271 1.71341C30.4071 1.64321 30.5455 1.56319 30.6714 1.48196C30.1791 1.43712 29.5946 1.46317 29.0366 1.49857C26.3394 1.91796 23.6521 2.56113 21.0425 3.40775C12.8443 6.08288 4.38786 11.1087 1.77881 19.5923C-0.784506 28.127 3.26317 37.046 8.0415 44.3345C9.1534 46.0165 10.2577 47.5508 11.5161 49.1812C10.1904 47.605 9.01944 46.118 7.83936 44.4742C2.78354 37.3599 -1.72263 28.4325 0.786621 19.3003C3.40506 10.2122 12.258 4.90842 20.6421 2.17435C23.3291 1.30274 26.0915 0.651302 28.8726 0.237823L28.9263 0.231964ZM28.0161 4.77396C27.6324 5.38204 27.8269 6.56712 28.2456 7.45071C28.3185 7.54191 28.3914 7.63392 28.4644 7.72513C29.5718 6.83525 30.9046 6.25557 32.2915 5.90872C31.0548 5.40151 29.6734 5.0563 28.2935 4.8179C28.2012 4.80225 28.1088 4.7886 28.0161 4.77396Z"/>
</svg>
