<svg viewBox="0 0 149 65" fill="none" xmlns="http://www.w3.org/2000/svg">
<path d="M10.013 44.537C9.41334 46.0633 8.09187 48.0783 8.09187 48.0783C7.83175 48.3856 7.98349 48.7586 8.09187 48.9066L10.8049 51.6437C12.6104 53.8717 15.9589 53.1002 17.4074 52.436C20.6823 51.1683 22.2373 53.5564 22.6054 54.9089C23.3257 58.6352 21.2729 62.4718 20.1565 63.9244C24.4205 61.2546 28.1035 57.2658 29.412 55.6052C42.3097 35.9561 26.2148 29.4752 16.5551 28.6909C19.0525 31.8001 18.7044 32.1482 18.7044 33.0966C18.0705 30.398 13.9821 30.4276 12.3775 30.5756C14.3847 32.3811 14.8465 34.065 14.8264 34.6812C14.8264 34.6812 11.488 37.5597 10.8049 40.1073C10.3229 41.9049 10.6936 42.8047 10.013 44.537Z" fill="#F3CCCD" stroke="#F3CCCD" stroke-width="0.0240092" stroke-linecap="round" stroke-linejoin="round"/>
<path d="M37.4883 0.30127C38.4875 0.253796 39.421 0.173297 40.5762 0.396973C40.7268 0.432071 40.8894 0.477518 41.0674 0.557129C41.2498 0.647915 41.4973 0.75301 41.7188 1.12158C41.9546 1.51345 41.8382 2.02046 41.7178 2.2251C41.5958 2.45759 41.4704 2.59024 41.3506 2.7124C40.8879 3.15211 40.4562 3.38891 40.002 3.62646C38.919 4.34504 37.8357 5.06338 36.752 5.78076L36.7266 5.79736C36.6043 5.85903 36.5004 5.94198 36.4131 6.04248C36.5011 6.03318 36.5894 6.0239 36.6777 6.01611C39.1539 5.81654 41.7171 6.10987 44.0645 7.396C44.5962 7.73212 44.4337 8.42797 43.8086 8.49854C43.755 8.50498 43.687 8.5144 43.6191 8.52393C41.4189 8.87033 39.1935 9.3441 37.1279 10.312C38.714 12.2962 40.299 14.2814 41.8809 16.269L42.0332 16.4614L42.0312 16.6929C42.0114 18.7196 41.9891 20.7463 41.9658 22.7729C45.2615 26.3334 48.5499 29.9009 51.8311 33.4751L51.8818 33.5415C52.3171 34.2447 52.2153 35.1707 51.7207 35.8042C51.091 36.6299 50.1876 37.2135 49.1533 37.3726L49.1328 37.3745C47.857 37.4559 46.7338 38.1523 45.7383 39.0562C44.4711 40.1091 43.003 41.01 41.3604 41.3247C38.7251 41.9017 36.0438 40.325 34.8291 38.0854C36.1482 40.2747 38.8263 41.6603 41.2949 41.0122C42.8442 40.6518 44.2186 39.7386 45.4082 38.6743C46.3532 37.7454 47.6124 36.8715 49.0566 36.731C49.8732 36.5813 50.6427 36.0483 51.1182 35.3716L51.1309 35.355C51.4109 34.9718 51.4716 34.4033 51.2207 34.0005C47.78 30.4818 44.3466 26.9562 40.9209 23.4233L40.7578 23.2554L40.7549 23.0073C40.7315 20.9839 40.7094 18.9604 40.6895 16.937C38.9208 14.8014 37.1542 12.6637 35.3906 10.5239L35.3027 10.3872C34.8586 9.48297 34.5671 8.5499 34.5068 7.50049C34.4332 6.56083 34.7588 5.28039 35.71 4.59619L35.8828 4.48389C36.9709 3.74529 38.0595 3.00739 39.1484 2.27002L39.2305 2.22119C39.4074 2.12996 39.5874 2.02601 39.751 1.92041C39.1119 1.86203 38.3534 1.89689 37.6289 1.94287C34.1341 2.4864 30.6528 3.31952 27.2715 4.4165C16.6463 7.88345 5.6868 14.3969 2.30566 25.3921C-1.01636 36.4532 4.22994 48.0115 10.4229 57.4575C11.864 59.6375 13.2937 61.6256 14.9248 63.7388C13.2065 61.6958 11.6887 59.7688 10.1592 57.6382C3.60683 48.4182 -2.23244 36.8485 1.01953 25.0132C4.41286 13.2348 15.8861 6.36121 26.752 2.81787C30.2344 1.68823 33.8145 0.843963 37.4189 0.308105L37.4883 0.30127ZM36.3057 6.18701C35.8093 6.97628 36.0642 8.51402 36.6074 9.65869C36.7013 9.77609 36.7948 9.89382 36.8887 10.0112C38.3242 8.85772 40.0528 8.10719 41.8506 7.65771C40.2477 7.00019 38.4576 6.55366 36.6689 6.24463C36.5483 6.22415 36.4269 6.20626 36.3057 6.18701Z" fill="white"/>
<path d="M40.412 60.144C40.052 60.144 39.77 60.048 39.566 59.856C39.374 59.652 39.278 59.364 39.278 58.992V52.224C39.278 51.852 39.374 51.57 39.566 51.378C39.77 51.174 40.052 51.072 40.412 51.072C40.772 51.072 41.048 51.174 41.24 51.378C41.432 51.57 41.528 51.852 41.528 52.224V54.618H42.806L45.056 51.594C45.224 51.366 45.416 51.222 45.632 51.162C45.848 51.09 46.052 51.084 46.244 51.144C46.448 51.204 46.61 51.312 46.73 51.468C46.862 51.624 46.928 51.81 46.928 52.026C46.94 52.23 46.862 52.446 46.694 52.674L44.552 55.608L44.066 54.888C44.39 54.924 44.678 55.014 44.93 55.158C45.194 55.302 45.434 55.506 45.65 55.77C45.878 56.022 46.1 56.34 46.316 56.724L47.378 58.614C47.522 58.866 47.57 59.1 47.522 59.316C47.486 59.52 47.384 59.694 47.216 59.838C47.06 59.982 46.874 60.072 46.658 60.108C46.442 60.144 46.226 60.114 46.01 60.018C45.806 59.934 45.632 59.766 45.488 59.514L44.282 57.408C44.126 57.132 43.97 56.922 43.814 56.778C43.67 56.622 43.502 56.514 43.31 56.454C43.13 56.394 42.908 56.364 42.644 56.364H41.528V58.992C41.528 59.364 41.432 59.652 41.24 59.856C41.048 60.048 40.772 60.144 40.412 60.144ZM53.3647 60.18C52.4527 60.18 51.6607 59.994 50.9887 59.622C50.3167 59.25 49.7947 58.722 49.4227 58.038C49.0507 57.342 48.8647 56.526 48.8647 55.59C48.8647 54.882 48.9667 54.252 49.1707 53.7C49.3867 53.136 49.6927 52.656 50.0887 52.26C50.4847 51.852 50.9587 51.546 51.5107 51.342C52.0627 51.126 52.6807 51.018 53.3647 51.018C54.2767 51.018 55.0687 51.204 55.7407 51.576C56.4127 51.948 56.9347 52.476 57.3067 53.16C57.6787 53.844 57.8647 54.654 57.8647 55.59C57.8647 56.298 57.7567 56.934 57.5407 57.498C57.3367 58.062 57.0367 58.548 56.6407 58.956C56.2447 59.352 55.7707 59.658 55.2187 59.874C54.6667 60.078 54.0487 60.18 53.3647 60.18ZM53.3647 58.47C53.8087 58.47 54.1987 58.362 54.5347 58.146C54.8707 57.93 55.1287 57.612 55.3087 57.192C55.5007 56.76 55.5967 56.226 55.5967 55.59C55.5967 54.63 55.3927 53.916 54.9847 53.448C54.5767 52.968 54.0367 52.728 53.3647 52.728C52.9207 52.728 52.5307 52.836 52.1947 53.052C51.8587 53.256 51.5947 53.574 51.4027 54.006C51.2227 54.426 51.1327 54.954 51.1327 55.59C51.1327 56.538 51.3367 57.258 51.7447 57.75C52.1527 58.23 52.6927 58.47 53.3647 58.47ZM62.9379 60.144C62.5779 60.144 62.2959 60.048 62.0919 59.856C61.8999 59.652 61.8039 59.364 61.8039 58.992V52.962H59.6079C58.9599 52.962 58.6359 52.668 58.6359 52.08C58.6359 51.804 58.7199 51.588 58.8879 51.432C59.0679 51.276 59.3079 51.198 59.6079 51.198H66.2499C66.8979 51.198 67.2219 51.492 67.2219 52.08C67.2219 52.368 67.1379 52.59 66.9699 52.746C66.8019 52.89 66.5619 52.962 66.2499 52.962H64.0539V58.992C64.0539 59.364 63.9579 59.652 63.7659 59.856C63.5859 60.048 63.3099 60.144 62.9379 60.144ZM74.3884 60.144C74.1604 60.144 73.9684 60.102 73.8124 60.018C73.6564 59.934 73.5364 59.802 73.4524 59.622C73.3804 59.442 73.3444 59.214 73.3444 58.938V52.134C73.3444 51.786 73.4344 51.522 73.6144 51.342C73.7944 51.15 74.0464 51.054 74.3704 51.054C74.6944 51.054 74.9404 51.15 75.1084 51.342C75.2884 51.522 75.3784 51.786 75.3784 52.134V57.696H74.9104L79.3564 51.774C79.4884 51.606 79.6504 51.444 79.8424 51.288C80.0344 51.132 80.2984 51.054 80.6344 51.054C80.8624 51.054 81.0484 51.096 81.1924 51.18C81.3484 51.264 81.4624 51.396 81.5344 51.576C81.6184 51.744 81.6604 51.966 81.6604 52.242V59.064C81.6604 59.4 81.5704 59.664 81.3904 59.856C81.2224 60.048 80.9764 60.144 80.6524 60.144C80.3164 60.144 80.0584 60.048 79.8784 59.856C79.7104 59.664 79.6264 59.4 79.6264 59.064V53.484H80.1124L75.6484 59.424C75.5284 59.592 75.3724 59.754 75.1804 59.91C75.0004 60.066 74.7364 60.144 74.3884 60.144Z" fill="#F3CCCD"/>
<path d="M93.1804 60.18C92.2564 60.18 91.4524 59.994 90.7684 59.622C90.0844 59.238 89.5564 58.698 89.1844 58.002C88.8124 57.306 88.6264 56.49 88.6264 55.554C88.6264 54.846 88.7284 54.216 88.9324 53.664C89.1484 53.1 89.4544 52.626 89.8504 52.242C90.2464 51.846 90.7264 51.546 91.2904 51.342C91.8544 51.126 92.4844 51.018 93.1804 51.018C93.5764 51.018 94.0024 51.072 94.4584 51.18C94.9264 51.288 95.3644 51.468 95.7724 51.72C95.9644 51.84 96.0904 51.984 96.1504 52.152C96.2104 52.32 96.2224 52.494 96.1864 52.674C96.1504 52.842 96.0724 52.992 95.9524 53.124C95.8444 53.244 95.7064 53.322 95.5384 53.358C95.3704 53.382 95.1844 53.34 94.9804 53.232C94.7164 53.076 94.4464 52.962 94.1704 52.89C93.8944 52.806 93.6304 52.764 93.3784 52.764C92.9824 52.764 92.6344 52.83 92.3344 52.962C92.0344 53.082 91.7764 53.262 91.5604 53.502C91.3564 53.73 91.2004 54.018 91.0924 54.366C90.9844 54.714 90.9304 55.116 90.9304 55.572C90.9304 56.46 91.1404 57.162 91.5604 57.678C91.9924 58.182 92.5984 58.434 93.3784 58.434C93.6304 58.434 93.8884 58.398 94.1524 58.326C94.4284 58.254 94.7044 58.14 94.9804 57.984C95.1844 57.876 95.3644 57.84 95.5204 57.876C95.6884 57.912 95.8264 57.996 95.9344 58.128C96.0424 58.248 96.1084 58.398 96.1324 58.578C96.1564 58.746 96.1324 58.914 96.0604 59.082C96.0004 59.25 95.8804 59.388 95.7004 59.496C95.3044 59.736 94.8844 59.91 94.4404 60.018C93.9964 60.126 93.5764 60.18 93.1804 60.18ZM101.88 60.18C100.968 60.18 100.176 59.994 99.5043 59.622C98.8323 59.25 98.3103 58.722 97.9383 58.038C97.5663 57.342 97.3803 56.526 97.3803 55.59C97.3803 54.882 97.4823 54.252 97.6863 53.7C97.9023 53.136 98.2083 52.656 98.6043 52.26C99.0003 51.852 99.4743 51.546 100.026 51.342C100.578 51.126 101.196 51.018 101.88 51.018C102.792 51.018 103.584 51.204 104.256 51.576C104.928 51.948 105.45 52.476 105.822 53.16C106.194 53.844 106.38 54.654 106.38 55.59C106.38 56.298 106.272 56.934 106.056 57.498C105.852 58.062 105.552 58.548 105.156 58.956C104.76 59.352 104.286 59.658 103.734 59.874C103.182 60.078 102.564 60.18 101.88 60.18ZM101.88 58.47C102.324 58.47 102.714 58.362 103.05 58.146C103.386 57.93 103.644 57.612 103.824 57.192C104.016 56.76 104.112 56.226 104.112 55.59C104.112 54.63 103.908 53.916 103.5 53.448C103.092 52.968 102.552 52.728 101.88 52.728C101.436 52.728 101.046 52.836 100.71 53.052C100.374 53.256 100.11 53.574 99.9183 54.006C99.7383 54.426 99.6483 54.954 99.6483 55.59C99.6483 56.538 99.8523 57.258 100.26 57.75C100.668 58.23 101.208 58.47 101.88 58.47ZM112.588 60.18C111.652 60.18 110.836 59.988 110.14 59.604C109.456 59.22 108.928 58.65 108.556 57.894C108.184 57.126 107.998 56.184 107.998 55.068V53.754C107.998 52.566 108.172 51.576 108.52 50.784C108.88 49.98 109.408 49.338 110.104 48.858C110.812 48.366 111.682 47.994 112.714 47.742L115.054 47.166C115.366 47.082 115.63 47.1 115.846 47.22C116.062 47.328 116.2 47.532 116.26 47.832C116.32 48.132 116.272 48.39 116.116 48.606C115.96 48.81 115.72 48.948 115.396 49.02L112.876 49.614C112.276 49.758 111.772 49.986 111.364 50.298C110.956 50.598 110.644 50.976 110.428 51.432C110.224 51.888 110.122 52.416 110.122 53.016V53.988H109.816C109.936 53.472 110.14 53.01 110.428 52.602C110.728 52.194 111.112 51.876 111.58 51.648C112.048 51.408 112.594 51.288 113.218 51.288C113.95 51.288 114.598 51.468 115.162 51.828C115.738 52.176 116.188 52.674 116.512 53.322C116.836 53.97 116.998 54.744 116.998 55.644C116.998 56.568 116.812 57.372 116.439 58.056C116.08 58.728 115.57 59.25 114.91 59.622C114.25 59.994 113.476 60.18 112.588 60.18ZM112.498 58.47C112.978 58.47 113.38 58.368 113.704 58.164C114.04 57.948 114.292 57.636 114.46 57.228C114.64 56.82 114.73 56.322 114.73 55.734C114.73 54.858 114.532 54.186 114.136 53.718C113.752 53.238 113.206 52.998 112.498 52.998C112.03 52.998 111.628 53.106 111.292 53.322C110.956 53.526 110.698 53.826 110.518 54.222C110.35 54.618 110.266 55.092 110.266 55.644C110.266 56.568 110.458 57.27 110.842 57.75C111.238 58.23 111.79 58.47 112.498 58.47ZM121.999 60.18C121.363 60.18 120.793 60.06 120.289 59.82C119.797 59.568 119.407 59.232 119.119 58.812C118.843 58.392 118.705 57.918 118.705 57.39C118.705 56.742 118.873 56.232 119.209 55.86C119.545 55.476 120.091 55.2 120.847 55.032C121.603 54.864 122.617 54.78 123.889 54.78H124.789V56.076H123.907C123.163 56.076 122.569 56.112 122.125 56.184C121.681 56.256 121.363 56.382 121.171 56.562C120.991 56.73 120.901 56.97 120.901 57.282C120.901 57.678 121.039 58.002 121.315 58.254C121.591 58.506 121.975 58.632 122.467 58.632C122.863 58.632 123.211 58.542 123.511 58.362C123.823 58.17 124.069 57.912 124.249 57.588C124.429 57.264 124.519 56.892 124.519 56.472V54.402C124.519 53.802 124.387 53.37 124.123 53.106C123.859 52.842 123.415 52.71 122.791 52.71C122.443 52.71 122.065 52.752 121.657 52.836C121.261 52.92 120.841 53.064 120.397 53.268C120.169 53.376 119.965 53.406 119.785 53.358C119.617 53.31 119.485 53.214 119.389 53.07C119.293 52.914 119.245 52.746 119.245 52.566C119.245 52.386 119.293 52.212 119.389 52.044C119.485 51.864 119.647 51.732 119.875 51.648C120.427 51.42 120.955 51.258 121.459 51.162C121.975 51.066 122.443 51.018 122.863 51.018C123.727 51.018 124.435 51.15 124.987 51.414C125.551 51.678 125.971 52.08 126.247 52.62C126.523 53.148 126.661 53.832 126.661 54.672V58.992C126.661 59.364 126.571 59.652 126.391 59.856C126.211 60.048 125.953 60.144 125.617 60.144C125.281 60.144 125.017 60.048 124.825 59.856C124.645 59.652 124.555 59.364 124.555 58.992V58.128H124.699C124.615 58.548 124.447 58.914 124.195 59.226C123.955 59.526 123.649 59.76 123.277 59.928C122.905 60.096 122.479 60.18 121.999 60.18ZM130.307 60.144C129.947 60.144 129.665 60.048 129.461 59.856C129.269 59.652 129.173 59.364 129.173 58.992V52.224C129.173 51.852 129.269 51.57 129.461 51.378C129.665 51.174 129.947 51.072 130.307 51.072C130.667 51.072 130.943 51.174 131.135 51.378C131.327 51.57 131.423 51.852 131.423 52.224V54.618H132.701L134.951 51.594C135.119 51.366 135.311 51.222 135.527 51.162C135.743 51.09 135.947 51.084 136.139 51.144C136.343 51.204 136.505 51.312 136.625 51.468C136.757 51.624 136.823 51.81 136.823 52.026C136.835 52.23 136.757 52.446 136.589 52.674L134.447 55.608L133.961 54.888C134.285 54.924 134.573 55.014 134.825 55.158C135.089 55.302 135.329 55.506 135.545 55.77C135.773 56.022 135.995 56.34 136.211 56.724L137.273 58.614C137.417 58.866 137.465 59.1 137.417 59.316C137.381 59.52 137.279 59.694 137.111 59.838C136.955 59.982 136.769 60.072 136.553 60.108C136.337 60.144 136.121 60.114 135.905 60.018C135.701 59.934 135.527 59.766 135.383 59.514L134.177 57.408C134.021 57.132 133.865 56.922 133.709 56.778C133.565 56.622 133.397 56.514 133.205 56.454C133.025 56.394 132.803 56.364 132.539 56.364H131.423V58.992C131.423 59.364 131.327 59.652 131.135 59.856C130.943 60.048 130.667 60.144 130.307 60.144ZM142.143 60.18C141.507 60.18 140.937 60.06 140.433 59.82C139.941 59.568 139.551 59.232 139.263 58.812C138.987 58.392 138.849 57.918 138.849 57.39C138.849 56.742 139.017 56.232 139.353 55.86C139.689 55.476 140.235 55.2 140.991 55.032C141.747 54.864 142.761 54.78 144.033 54.78H144.933V56.076H144.051C143.307 56.076 142.713 56.112 142.269 56.184C141.825 56.256 141.507 56.382 141.315 56.562C141.135 56.73 141.045 56.97 141.045 57.282C141.045 57.678 141.183 58.002 141.459 58.254C141.735 58.506 142.119 58.632 142.611 58.632C143.007 58.632 143.355 58.542 143.655 58.362C143.967 58.17 144.213 57.912 144.393 57.588C144.573 57.264 144.663 56.892 144.663 56.472V54.402C144.663 53.802 144.531 53.37 144.267 53.106C144.003 52.842 143.559 52.71 142.935 52.71C142.587 52.71 142.209 52.752 141.801 52.836C141.405 52.92 140.985 53.064 140.541 53.268C140.313 53.376 140.109 53.406 139.929 53.358C139.761 53.31 139.629 53.214 139.533 53.07C139.437 52.914 139.389 52.746 139.389 52.566C139.389 52.386 139.437 52.212 139.533 52.044C139.629 51.864 139.791 51.732 140.019 51.648C140.571 51.42 141.099 51.258 141.603 51.162C142.119 51.066 142.587 51.018 143.007 51.018C143.871 51.018 144.579 51.15 145.131 51.414C145.695 51.678 146.115 52.08 146.391 52.62C146.667 53.148 146.805 53.832 146.805 54.672V58.992C146.805 59.364 146.715 59.652 146.535 59.856C146.355 60.048 146.097 60.144 145.761 60.144C145.425 60.144 145.161 60.048 144.969 59.856C144.789 59.652 144.699 59.364 144.699 58.992V58.128H144.843C144.759 58.548 144.591 58.914 144.339 59.226C144.099 59.526 143.793 59.76 143.421 59.928C143.049 60.096 142.623 60.18 142.143 60.18Z" fill="white"/>
</svg>
