<svg viewBox="0 0 24 24" fill="currentColor" xmlns="http://www.w3.org/2000/svg">
    <path d="M20.7563 16.9603C20.3438 15.7838 19.3824 15.1875 18.4543 14.6109C17.6466 14.1089 16.884 13.6345 16.3852 12.7828C15.0104 10.4236 14.2552 9 12.0029 9C9.75055 9 8.99305 10.4241 7.61493 12.7823C7.11571 13.6359 6.3493 14.1112 5.54071 14.6142C4.61258 15.1912 3.65305 15.7861 3.23915 16.9603C3.07809 17.3837 2.99703 17.8334 3.00008 18.2864C3.00008 20.1961 4.52118 21.75 6.20633 21.75C7.89149 21.75 10.1115 20.9002 12.0076 20.9002C13.9037 20.9002 16.0927 21.75 17.799 21.75C19.5052 21.75 21.0001 20.1961 21.0001 18.2864C21.0014 17.8331 20.9188 17.3835 20.7563 16.9603Z" />
    <path d="M3.375 13.5C4.82475 13.5 6 11.989 6 10.125C6 8.26104 4.82475 6.75 3.375 6.75C1.92525 6.75 0.75 8.26104 0.75 10.125C0.75 11.989 1.92525 13.5 3.375 13.5Z" />
    <path d="M8.625 9C10.0747 9 11.25 7.48896 11.25 5.625C11.25 3.76104 10.0747 2.25 8.625 2.25C7.17525 2.25 6 3.76104 6 5.625C6 7.48896 7.17525 9 8.625 9Z" />
    <path d="M15.375 9C16.8247 9 18 7.48896 18 5.625C18 3.76104 16.8247 2.25 15.375 2.25C13.9253 2.25 12.75 3.76104 12.75 5.625C12.75 7.48896 13.9253 9 15.375 9Z" />
    <path d="M20.625 13.5C22.0747 13.5 23.25 11.989 23.25 10.125C23.25 8.26104 22.0747 6.75 20.625 6.75C19.1753 6.75 18 8.26104 18 10.125C18 11.989 19.1753 13.5 20.625 13.5Z" />
</svg>
