<svg viewBox="0 0 24 24" fill="currentColor" xmlns="http://www.w3.org/2000/svg">
<path d="M23.9274 11.3149C23.7863 10.1015 23.7178 9.93295 23.3942 9.10334C21.8249 5.08053 17.7029 3.65167 13.5199 3.65167C13.3066 3.65167 13.0951 3.65722 12.8853 3.66833C11.5875 3.67032 10.2962 3.84587 9.04803 4.19C8.9414 3.46667 7.96102 2 3.45474 2L4.8307 6.18333C3.96527 6.86087 3.2379 7.68893 2.68592 8.625L0.0148241 8.66667C0.0148241 8.66667 -0.277568 15.3333 1.73478 15.3333H2.66356C3.2968 16.3712 4.14261 17.2725 5.14889 17.9817L5.17469 22H7.03224C9.28539 22 10.3346 22 10.3346 20.75V20.1C12.0696 20.4098 13.8488 20.4053 15.5821 20.0867L15.4944 20.75C15.4944 22 16.5608 22 18.8311 22H20.6543V18.0167C22.266 16.9321 23.5527 15.6166 23.9274 13.4883C24.0229 12.9455 24.0255 12.1583 23.9274 11.3149ZM6.05187 8.25C6.39399 8.25 6.7221 8.3817 6.96401 8.61612C7.20593 8.85054 7.34184 9.16848 7.34184 9.5C7.34184 9.83153 7.20593 10.1495 6.96401 10.3839C6.7221 10.6183 6.39399 10.75 6.05187 10.75C5.70975 10.75 5.38164 10.6183 5.13972 10.3839C4.89781 10.1495 4.7619 9.83153 4.7619 9.5C4.7619 9.16848 4.89781 8.85054 5.13972 8.61612C5.38164 8.3817 5.70975 8.25 6.05187 8.25ZM10.1282 7C9.93396 7.06106 9.72367 7.05318 9.53491 6.97775C9.34616 6.90233 9.19126 6.76429 9.09791 6.58833C9.06865 6.50089 9.05887 6.40842 9.06921 6.31704C9.07955 6.22566 9.10977 6.13744 9.15789 6.05821C9.206 5.97898 9.27091 5.91054 9.34833 5.85742C9.42575 5.80429 9.51392 5.76768 9.60702 5.75C10.7382 5.48672 11.8992 5.36352 13.0624 5.38333L13.2361 5.38167C14.3942 5.38389 15.5116 5.51278 16.5883 5.76833C16.805 5.80833 17.0389 6.07167 17.0389 6.38833C17.0385 6.45566 17.0274 6.52253 17.0063 6.58667C16.9464 6.69496 16.8615 6.78843 16.7583 6.85982C16.6551 6.93121 16.5363 6.97861 16.4112 6.99833H16.148C15.1872 6.77416 14.2021 6.66225 13.2138 6.665H13.0607C12.0201 6.665 11.0088 6.78667 10.0404 7.01667L10.1282 7Z" />
<circle cx="5" cy="10" r="1" />
</svg>
