<svg viewBox="0 0 50 50" fill="currentColor" xmlns="http://www.w3.org/2000/svg">
    <path d="M27.084 18.7513H38.5423L27.084 7.29297V18.7513ZM12.5007 4.16797H29.1673L41.6673 16.668V41.668C41.6673 42.773 41.2283 43.8328 40.4469 44.6142C39.6655 45.3956 38.6057 45.8346 37.5007 45.8346H12.5007C11.3956 45.8346 10.3358 45.3956 9.55437 44.6142C8.77297 43.8328 8.33398 42.773 8.33398 41.668V8.33464C8.33398 6.02214 10.1882 4.16797 12.5007 4.16797ZM14.584 41.668H18.7507V29.168H14.584V41.668ZM22.9173 41.668H27.084V25.0013H22.9173V41.668ZM31.2507 41.668H35.4173V33.3346H31.2507V41.668Z" />
</svg>
