<svg viewBox="0 0 50 50" fill="currentColor" xmlns="http://www.w3.org/2000/svg">
    <path d="M40.625 3.125H9.37501C8.54621 3.125 7.75135 3.45424 7.1653 4.04029C6.57925 4.62634 6.25001 5.4212 6.25001 6.25V26.5625C6.24636 29.6787 7.09152 32.7371 8.69475 35.4092C10.298 38.0814 12.5987 40.2664 15.35 41.7297L25 46.875L34.65 41.7297C37.4013 40.2664 39.702 38.0814 41.3053 35.4092C42.9085 32.7371 43.7537 29.6787 43.75 26.5625V6.25C43.75 5.4212 43.4208 4.62634 42.8347 4.04029C42.2487 3.45424 41.4538 3.125 40.625 3.125ZM35.9375 28.125H14.0625V25H35.9375V28.125ZM35.9375 18.75H14.0625V15.625H35.9375V18.75Z" />
</svg>
