<svg viewBox="0 0 24 24" fill="currentColor" xmlns="http://www.w3.org/2000/svg">
    <path d="M11.9995 18.755L6.66732 21.8125C6.43176 21.9551 6.1855 22.0163 5.92853 21.9959C5.67156 21.9755 5.44671 21.894 5.25398 21.7513C5.06126 21.6086 4.91136 21.4305 4.80429 21.2169C4.69721 21.0032 4.6758 20.7635 4.74004 20.4977L6.15338 14.7191L1.43155 10.8361C1.21741 10.6527 1.08378 10.4435 1.03068 10.2087C0.97757 9.9739 0.993416 9.7448 1.07822 9.5214C1.16302 9.298 1.2915 9.11455 1.46367 8.97105C1.63584 8.82755 1.8714 8.73583 2.17034 8.69588L8.40187 8.17611L10.811 2.73379C10.918 2.4892 11.0842 2.30575 11.3095 2.18345C11.5348 2.06115 11.7648 2 11.9995 2C12.2342 2 12.4641 2.06115 12.6894 2.18345C12.9147 2.30575 13.0809 2.4892 13.1879 2.73379L15.597 8.17611L21.8286 8.69588C22.1284 8.73664 22.3639 8.82837 22.5352 8.97105C22.7065 9.11373 22.835 9.29718 22.9207 9.5214C23.0063 9.74561 23.0226 9.97513 22.9695 10.2099C22.9164 10.4448 22.7824 10.6535 22.5674 10.8361L17.8455 14.7191L19.2589 20.4977C19.3231 20.7627 19.3017 21.0024 19.1946 21.2169C19.0875 21.4313 18.9376 21.6094 18.7449 21.7513C18.5522 21.8932 18.3273 21.9747 18.0704 21.9959C17.8134 22.0171 17.5671 21.956 17.3316 21.8125L11.9995 18.755Z" />
</svg>
