<svg viewBox="0 0 256 256" fill="currentColor" xmlns="http://www.w3.org/2000/svg">
<g filter="url(#filter0_gn_1124_15536)">
<path d="M114.354 9.29128C117.48 8.21228 120.247 8.61866 122.051 10.4221C122.946 11.3178 123.37 11.5069 124.482 11.511C126.208 11.5179 128.115 12.5886 128.958 14.0237C129.446 14.8538 129.604 15.6711 129.604 17.3499C129.604 19.4866 129.551 19.6469 128.242 21.3811C127.493 22.374 126.947 23.3621 127.029 23.5784C127.112 23.7939 127.794 24.1546 128.544 24.3792C129.295 24.6041 131.837 25.7546 134.195 26.9358C136.553 28.117 139.883 29.5728 141.594 30.1712C143.304 30.7698 146.474 32.1076 148.637 33.1428C150.799 34.1783 153.206 35.3044 153.984 35.6458C159.205 37.934 164.809 46.7565 164.282 51.8577L164.112 53.5022L168.879 53.5139C172.473 53.5231 174.149 53.6662 175.69 54.093C180.821 55.5143 186.852 59.2364 192.003 64.1604C195.331 67.3417 205.027 78.9944 209.127 84.7395C217.58 96.5847 229.274 119.531 230.562 126.799C231.287 130.892 232.733 134.755 234.87 138.309C238.362 144.114 241.966 153.746 243.82 162.226C244.993 167.588 245.063 175.011 243.992 180.434C242.546 187.757 238.245 194.51 231.723 199.697C227.082 203.387 223.091 204.756 216.9 204.778C213.453 204.79 212.679 204.69 210.627 203.973C208.518 203.235 208.172 203.195 207.134 203.561C200.875 205.769 191.76 205.563 186.163 203.087C185.24 202.679 184.591 202.551 184.402 202.74C184.034 203.111 186.611 208.027 189.363 212.206C192.173 216.472 196.209 223.454 198.093 227.306C200.649 232.533 200.546 234.544 197.635 236.234C194.066 238.305 188.797 239.212 176.527 239.839L166.434 240.849H166.435C166.428 240.85 166.419 240.851 166.407 240.853C166.383 240.856 166.347 240.861 166.301 240.867C166.207 240.88 166.07 240.899 165.894 240.922C165.541 240.968 165.031 241.033 164.405 241.108C163.212 241.251 161.591 241.429 159.816 241.588C152.779 242.313 146.133 242.182 142.817 241.15C140.038 240.284 138.306 239.288 137.005 237.806C136.113 236.79 136.002 236.473 136.133 235.312C136.171 234.972 136.248 234.642 136.361 234.321C136.476 233.92 136.655 233.56 136.866 233.149C137.385 232.138 138.521 231.35 139.435 230.836C139.905 230.571 140.346 230.364 140.669 230.223C140.83 230.152 140.963 230.097 141.057 230.06C141.103 230.041 141.14 230.027 141.165 230.017C141.178 230.012 141.188 230.009 141.195 230.006C141.199 230.005 141.201 230.004 141.203 230.003C141.204 230.003 141.205 230.002 141.206 230.002L141.207 230.001L141.23 229.993L141.305 229.97C142.041 229.63 142.859 229.302 143.761 228.983L146.277 228.093L145.823 228.076C144.198 228.173 142.644 228.091 141.151 227.907L140.772 227.895C134.875 227.683 131.598 227.122 126.42 225.437C122.42 224.135 120.818 223.155 120.031 221.53C119.267 219.952 119.251 219.684 119.823 218.039C120.583 215.858 121.789 214.914 124.603 214.295C125.954 213.998 128.077 213.582 130.391 213.152C130.408 213.148 130.424 213.145 130.438 213.142C130.466 213.136 130.487 213.132 130.501 213.129C130.508 213.128 130.514 213.126 130.518 213.125C130.519 213.125 130.521 213.124 130.521 213.124H130.522L130.693 213.088L130.703 213.093C134.932 212.31 139.706 211.493 141.558 211.263C143.004 211.083 145.389 210.54 146.857 210.056L149.527 209.175L146.802 208.321C143.194 207.189 140.864 206.22 139.07 205.103C134.848 202.473 133.015 201.234 132.547 200.694C131.4 199.367 130.352 194.251 129.172 184.209C128.159 175.59 127.725 172.57 127.499 172.57C127.036 172.572 127.236 176.202 128.045 182.485C128.484 185.898 128.762 188.772 128.664 188.873C128.377 189.16 125.591 188.333 124.729 187.705C124.296 187.391 123.712 186.512 123.43 185.753L122.917 184.373L122.538 186.257C121.815 189.856 120.911 193.126 120.317 194.291C119.184 196.513 114.441 200.059 111.758 200.69C111.115 200.841 110.726 200.72 110.217 200.211C109.565 199.56 109.495 199.552 108.561 200.047C106.25 201.271 101.989 201.943 100.904 201.254C100.691 201.118 100.435 200.59 100.336 200.079C100.189 199.322 100.487 198.632 101.96 196.321C104.248 192.73 105.553 189.905 106.994 185.415C107.624 183.455 108.403 181.325 108.727 180.683C109.05 180.041 109.314 179.424 109.314 179.312C109.314 179.2 108.443 179.915 107.379 180.901C106.314 181.886 104.96 182.922 104.369 183.204C103.397 183.668 103.215 183.671 102.451 183.233C101.39 182.624 101.45 181.786 102.692 179.831C103.196 179.038 104.421 177.044 105.414 175.401C108.619 170.094 110.849 166.968 112.062 166.08C112.713 165.603 113.355 165.124 113.486 165.018C113.618 164.91 113.44 163.996 113.093 162.986C112.745 161.974 112.46 160.886 112.46 160.567C112.46 159.77 112.093 159.834 110.356 160.936C108.555 162.078 100.697 165.205 94.8438 167.109C91.6182 168.158 90.0387 168.868 88.2725 170.066C85.6165 171.867 84.8791 171.852 86.9805 170.039C88.9591 168.333 91.2724 167.177 95.4736 165.795C103.146 163.271 111.798 159.606 111.821 158.87C111.835 158.417 108.472 147.089 108.258 146.871C107.832 146.446 89.6977 155.868 83.6748 159.645C80.9172 161.374 68.0156 170.906 65.3682 173.17C62.8582 175.317 58.0181 182.149 58.4775 182.898C58.576 183.057 59.4443 183.507 60.4062 183.898L62.1553 184.608L62.9277 183.882C63.4461 183.395 63.7011 182.814 63.7012 182.116C63.7012 180.745 64.5741 178.606 65.291 178.223C66.1102 177.784 66.6001 177.836 68.6436 178.579C70.106 179.111 70.9133 179.711 72.7441 181.622C74.9279 183.903 75.8088 184.414 75.0225 182.945C74.6837 182.311 74.9462 181.955 78.2354 178.592C80.2051 176.578 82.2458 174.379 82.7705 173.705C83.2942 173.032 83.9014 172.54 84.1191 172.613C84.7184 172.812 82.1712 176.063 78.8623 179.322C77.2902 180.87 76.0516 182.187 76.1074 182.25C76.1672 182.31 76.9868 182.135 77.9277 181.862C78.8692 181.588 81.6796 181.093 84.1738 180.761C86.6684 180.429 89.3277 179.938 90.082 179.669C90.8369 179.4 93.1725 178.152 95.2725 176.897C99.7081 174.246 100.091 174.069 100.851 174.31C101.787 174.607 101.83 175.545 101.001 177.651C100.569 178.75 99.7908 181.355 99.2715 183.44C98.7518 185.525 97.9787 188.002 97.5537 188.945C96.8894 190.417 96.7664 191.222 96.6777 194.669L96.5742 198.68L97.9902 198.722L99.4053 198.764L97.9463 198.968C96.4356 199.18 95.3526 199.803 95.6523 200.288C95.747 200.442 96.4892 200.582 97.3008 200.599C98.1123 200.616 99.1299 200.755 99.5625 200.907C100.078 201.088 99.5566 201.124 98.0479 201.011C96.5073 200.896 95.5984 200.963 95.2988 201.211C94.688 201.718 95.0211 202.139 96.042 202.149C97.192 202.16 104.012 203.964 103.023 203.995C102.591 204.009 100.822 203.668 99.0918 203.238C97.3623 202.807 95.6798 202.454 95.3545 202.454C95.0285 202.455 93.8016 203.362 92.627 204.47C91.4517 205.579 90.1805 206.585 89.8027 206.704C89.2242 206.888 89.1475 207.079 89.3154 207.913C89.4252 208.459 89.6527 210.228 89.8213 211.847C90.1371 214.881 90.4113 215.692 93.1006 221.553C93.9499 223.404 94.9768 226.4 95.5254 228.624C96.0488 230.747 96.7417 233.001 97.0645 233.634C97.8303 235.135 100.02 236.743 101.296 236.743C102.561 236.744 103.652 237.758 103.652 238.934V239.841L102.694 238.883C101.617 237.806 100.993 237.93 101.979 239.026C103.031 240.194 103.116 240.523 102.533 241.167C101.885 241.883 101.45 241.953 101.45 241.34C101.45 241.1 101.171 240.569 100.831 240.16C100.33 239.558 100.211 239.518 100.202 239.949C100.196 240.242 100.334 240.569 100.507 240.676C100.997 240.98 100.876 242.003 100.323 242.215C99.3062 242.605 97.179 242.389 96.207 241.796C95.6591 241.462 93.7478 239.523 91.96 237.489C90.1722 235.454 87.218 232.224 85.3945 230.312C79.1495 223.761 77.6926 222.114 76.7998 220.59L75.9062 219.065L76.8818 218.059C77.9397 216.968 78.0803 216.611 77.4531 216.611C76.9794 216.611 74.1266 219.511 73.3232 220.81C72.3257 222.422 71.5654 225.156 71.5654 227.132C71.5654 229.719 72.2497 232.263 73.8115 235.486C74.8842 237.699 75.5899 238.631 77.9082 240.895C81.1335 244.045 81.7627 245.246 80.7295 246.28C80.0664 246.943 80.0586 246.943 80.0586 246.311C80.0586 245.518 79.2523 244.366 78.9258 244.693C78.7939 244.825 78.8529 245.101 79.0576 245.306C79.2623 245.511 79.4297 246.075 79.4297 246.559C79.4296 247.312 79.3029 247.44 78.5547 247.44C77.872 247.44 77.6023 247.232 77.3242 246.495C77.1283 245.977 76.7399 245.552 76.4609 245.552C76.0004 245.552 75.9979 245.637 76.4336 246.48C77.0815 247.733 77.0455 247.855 76.1006 247.618C74.3154 247.17 69.1598 243.209 66.8066 240.478C62.9993 236.059 61.3029 233.246 58.5371 226.768C55.5824 219.847 55.8498 220.245 54.0771 220.133C52.5571 220.037 49.7903 220.538 48.916 221.067C48.6194 221.246 49.6607 221.319 51.7236 221.262L55.0029 221.172L56.0508 223.217C56.627 224.342 57.6484 226.712 58.3203 228.486L59.543 231.71L58.7119 231.749C57.2985 231.816 54.4482 231.679 53.8877 231.518C53.3642 231.367 51.9196 229.288 50.6562 226.868C50.3046 226.195 49.5131 225.075 48.8975 224.379L47.7773 223.114L46.9355 224.551C45.4957 227.008 43.1763 229.279 41.0889 230.277C40.0303 230.782 39.1645 231.369 39.1641 231.579C39.1641 232.153 42.3208 234.925 45.8164 237.421C49.1666 239.813 49.6916 240.612 48.873 242.07C48.2854 243.117 46.9166 243.197 46.7734 242.193C46.7195 241.816 46.4794 241.345 46.2393 241.145C45.876 240.843 45.8306 240.962 45.9736 241.844C46.1734 243.074 45.7616 243.549 44.3545 243.712C43.5357 243.807 43.4232 243.73 43.5068 243.126C43.6279 242.254 43.0559 241.148 42.4834 241.148C42.137 241.148 42.1185 241.329 42.3887 242.045C43.8441 245.9 37.3464 243.535 33.0254 238.637C32.1889 237.689 30.6798 235.801 29.6719 234.442C28.0012 232.188 27.8389 231.829 27.8389 230.366C27.8389 229.138 28.1058 228.247 28.9795 226.559C30.1 224.394 30.1175 224.304 29.96 221.505C29.8433 219.434 29.5645 218.054 28.9385 216.453C26.1186 209.241 25.5455 206.301 26.0107 201.432C26.2168 199.275 26.977 196.142 27.7266 194.355C27.8175 194.138 27.7733 193.961 27.6289 193.961C27.3405 193.962 26.1186 196.217 25.7969 197.343C25.6855 197.732 25.4444 198.051 25.2607 198.051C24.291 198.051 21.052 195.717 18.5264 193.199C13.6176 188.304 11.5224 183.543 11.249 176.659C11.1037 172.999 11.1516 172.554 11.9395 170.214C13.0958 166.779 14.6099 164.405 17.6768 161.22C20.3839 158.408 22.3708 157.083 24.6436 156.573C28.1423 155.787 30.3862 158.31 28.9258 161.388C28.6581 161.951 26.7596 164.206 24.7061 166.397C21.4689 169.85 20.8855 170.638 20.3164 172.323C19.2579 175.457 19.5597 179.302 21.1064 182.373C22.321 184.785 25.0839 187.506 27.5898 188.76L29.8047 189.868L32.5479 187.275C35.4544 184.525 37.5911 183.093 40.8066 181.739C42.6584 180.958 43.0865 180.906 47.6572 180.911C52.2938 180.916 53.8321 181.137 56.5771 182.191C56.8785 182.306 57.363 181.772 58.0537 180.565C59.7531 177.595 62.5814 174.078 64.5352 172.503C70.0168 168.087 81.5121 159.791 85.1553 157.622C90.2529 154.588 96.2043 151.479 102.878 148.362C105.64 147.072 107.937 145.996 107.982 145.972C108.028 145.946 107.787 145.02 107.446 143.912C104.235 133.458 104.632 125.352 108.585 120.655C109.764 119.253 112.457 117.552 115.198 116.477C117.445 115.595 117.45 115.59 117.772 114.088C118.275 111.744 119.329 109.165 120.49 107.44L121.551 105.864L120.601 104.456C119.546 102.894 119.362 102.75 119.604 103.678C119.844 104.594 118.564 104.507 117.094 103.508C115.788 102.621 112.29 98.6487 110.961 96.5452C110.488 95.7969 109.986 95.1853 109.846 95.1848C109.477 95.1839 111.027 97.9319 112.473 99.8411C113.842 101.65 113.634 102.123 112.238 100.374C111.755 99.7687 111.237 99.2737 111.087 99.2737C110.743 99.2746 111.554 100.515 113.299 102.657C114.048 103.577 114.661 104.47 114.662 104.643C114.662 105.257 113.619 105.339 112.077 104.846L110.511 104.344L109.788 105.184C109.123 105.957 108.883 106.021 106.735 106.002C103.645 105.975 101.402 104.98 99.6904 102.876C99.0145 102.046 97.9903 100.861 97.4141 100.241L96.3652 99.1165L97.375 101.075C98.755 103.754 100.219 105.159 102.939 106.415C105.318 107.515 105.629 108.081 103.853 108.081C101.486 108.081 98.4371 105.784 96.5654 102.59C95.5007 100.773 93.9107 96.2895 93.9043 95.0872C93.9021 94.6012 93.7817 94.2768 93.6367 94.3665C93.0134 94.7529 94.2162 99.8983 95.5508 102.554C96.2952 104.035 98.9421 106.898 100.4 107.799C101.819 108.676 101.72 109.026 100.055 109.026C98.2568 109.026 97.2574 108.631 95.2852 107.142C92.5908 105.108 90.4691 101.32 89.8418 97.4231C89.3659 94.4688 90.0315 86.5898 91.2266 81.0276C91.4681 79.903 91.7531 78.1738 91.8604 77.1848C92.05 75.4361 92.086 75.3808 93.1357 75.1839C94.8356 74.8649 94.4039 74.5204 92.0918 74.3508C87.9429 74.0463 85.2842 71.6819 83.4775 66.6897C82.9437 65.2143 82.7982 64.075 82.7793 61.2092C82.7576 57.8808 82.8401 57.3534 83.8076 54.6048C84.3861 52.9618 85.1759 50.909 85.5625 50.0432C85.9494 49.1775 86.4227 47.4627 86.6143 46.2327C86.9868 43.8401 89.4552 37.6039 91.9365 32.7835C93.5975 29.5573 96.3382 26.5799 99.5625 24.5003C102.605 22.5379 108.181 21.1463 113.09 21.1233C116.523 21.107 116.827 21.1592 119.066 22.1516C120.364 22.7267 121.886 23.4001 122.448 23.6477C123.011 23.8955 123.47 23.9617 123.471 23.7952C123.471 23.1912 121.245 21.8165 119.002 21.0344C115.951 19.9709 110.663 19.9357 106.604 20.9524C103.604 21.7039 103.27 21.6077 102.503 19.7737C101.817 18.132 101.976 16.5122 102.979 14.9309C104.759 12.1241 107.443 10.6625 110.316 10.9368C111.369 11.0374 111.781 10.9335 112.152 10.4758C112.416 10.1509 113.407 9.61839 114.354 9.29128ZM182.425 203.2C182.265 203.161 180.963 203.814 179.527 204.651C176.763 206.263 171.41 208.173 167.987 208.769L165.936 209.126L166.619 210.344C167.225 211.422 167.285 211.649 167.016 214.53C166.996 214.929 166.973 215.302 166.95 215.617C166.93 215.9 166.911 216.137 166.896 216.303C166.889 216.386 166.884 216.452 166.88 216.496C166.878 216.519 166.876 216.536 166.875 216.548C166.874 216.554 166.874 216.559 166.874 216.562C166.874 216.563 166.873 216.565 166.873 216.566V216.567L166.871 216.596L166.864 216.624V216.626C166.864 216.627 166.864 216.629 166.863 216.63C166.863 216.633 166.861 216.637 166.86 216.641C166.858 216.65 166.856 216.664 166.852 216.681C166.844 216.715 166.831 216.763 166.815 216.824C166.803 216.873 166.783 216.929 166.765 216.993C166.396 220.073 165.92 220.542 163.325 222.147C161.229 223.443 152.578 227.009 146.538 229.162L146.918 229.343L163.864 222.559L164.027 222.493L164.196 222.545H164.198C164.199 222.546 164.202 222.546 164.204 222.547C164.209 222.549 164.217 222.551 164.228 222.554C164.249 222.56 164.282 222.571 164.324 222.583C164.409 222.608 164.536 222.645 164.699 222.692C165.027 222.785 165.504 222.917 166.1 223.072C167.292 223.381 168.957 223.78 170.848 224.137C174.648 224.855 179.294 225.393 182.853 224.747C185.13 224.334 187.851 223.334 190.021 222.426C191.102 221.974 192.038 221.548 192.704 221.235C193.037 221.078 193.302 220.95 193.483 220.862C193.489 220.859 193.494 220.856 193.5 220.853C193.039 220.108 192.423 218.998 191.889 217.932C191.107 216.371 189.663 213.983 188.679 212.627C187.695 211.271 185.95 208.612 184.801 206.718C183.652 204.824 182.582 203.241 182.425 203.2ZM47.3154 212.993C46.525 210.64 44.8902 207.178 44.8535 207.78C44.8387 208.027 45.2433 209.372 45.7539 210.769C46.2641 212.165 46.9689 214.354 47.3193 215.633C47.67 216.912 48.0498 218.044 48.1641 218.15C48.5485 218.504 47.9549 214.898 47.3154 212.993ZM158.703 209.56C155.156 209.545 151.9 209.574 151.468 209.625C151.035 209.676 148.841 210.127 146.592 210.626C144.343 211.126 140.309 211.912 137.627 212.372C135.486 212.74 133.418 213.126 131.528 213.505L131.863 213.672L149.138 210.506L149.286 210.479L149.425 210.538C152.409 211.817 154.728 212.164 157.185 211.989C159.578 211.818 162.103 211.154 165.544 210.323L165.152 209.587L158.703 209.56ZM80.8906 206.012C82.2298 205.153 80.693 205.696 78.8848 206.721C77.8067 207.332 76.1782 208.547 75.2666 209.418C74.2154 210.424 73.9921 210.734 74.6553 210.268C76.0853 209.262 80.1743 206.471 80.8906 206.012ZM79.8359 204.556C79.6843 204.462 78.5291 204.732 77.2695 205.157C74.4118 206.119 72.2176 207.22 71.4375 208.083C70.6961 208.904 71.0362 208.94 72.1465 208.158C73.4907 207.212 75.4371 206.3 77.8545 205.486C79.0949 205.068 79.9861 204.65 79.8359 204.556ZM79.2568 203.034C79.7905 202.561 76.8203 202.787 74.4902 203.398C72.3415 203.961 70.0584 204.932 70.8184 204.959C71.0137 204.966 71.7511 204.767 72.458 204.518C73.1655 204.268 74.9177 203.892 76.3516 203.682C77.785 203.472 79.0926 203.18 79.2568 203.034ZM168.884 151.414C168.699 150.295 168.095 149.86 167.673 150.543C167.569 150.715 168.686 154.43 170.156 158.8C173.125 167.625 173.554 169.171 174.25 173.538C174.807 177.031 175.551 180.202 176.9 184.838C177.429 186.655 178.176 189.342 178.561 190.81C178.945 192.277 179.311 193.32 179.376 193.127C179.504 192.744 177.985 185.781 176.95 182.007C176.594 180.709 175.812 177.007 175.212 173.78C174.611 170.552 174.028 167.649 173.915 167.33C173.584 166.395 174.106 167.038 177.906 172.255C186.202 183.644 194.79 192.969 201.802 198.199C205.282 200.795 209.289 202.896 211.395 203.23C212.589 203.419 212.553 203.381 210.677 202.479C201.491 198.06 190.283 187.329 179.277 172.412C176.979 169.298 174.652 166.127 174.105 165.366C173.102 163.969 169.263 153.712 168.884 151.414ZM88.1387 202.272C88.9203 201.203 88.5196 200.935 87.0322 201.531C86.6289 201.692 86.3572 202.002 86.4287 202.218C86.6401 202.853 87.6894 202.886 88.1387 202.272ZM94.7656 200.61C94.7225 200.633 94.0499 200.992 93.2715 201.407C92.4932 201.821 92.2097 202.067 92.6416 201.951C94.1336 201.553 94.8434 201.211 94.8438 200.89C94.8438 200.713 94.8086 200.587 94.7656 200.61ZM82.4072 196.51C81.0814 195.346 79.744 195.243 78.2646 196.191C75.7207 197.821 77.0193 200.568 80.334 200.568C81.2195 200.568 81.866 200.33 82.5518 199.753C83.8402 198.669 83.7983 197.731 82.4072 196.51ZM181.96 121.467C178.72 119.764 173.096 119.22 168.997 120.213C166.468 120.826 163.85 122.08 163.316 122.935C163.018 123.413 162.8 125.071 162.668 127.888C162.478 131.938 162.432 132.162 161.608 133.043C160.53 134.197 145.307 145.609 139.199 149.842C135.147 152.651 125.348 158.699 122.486 160.157C120.706 161.065 116.446 163.942 113.995 165.892C111.666 167.745 110.986 168.657 105.28 177.603C104.673 178.554 103.846 179.836 103.442 180.451C102.54 181.825 102.515 182.322 103.349 182.322C104.387 182.322 105.48 181.44 109.554 177.319C113.502 173.323 114.806 172.514 112.531 175.472C111.637 176.635 110.776 178.448 109.653 181.535C106.838 189.28 104.676 194.078 102.709 196.949C102.235 197.642 101.747 198.668 101.624 199.231C101.428 200.129 101.48 200.252 102.058 200.252C102.789 200.252 104.186 199.019 105.088 197.578C105.413 197.059 106.55 195.431 107.615 193.961C108.681 192.491 110.195 190.013 110.98 188.456C112.632 185.182 113.254 184.269 113.601 184.615C114.141 185.159 109.001 194.201 105.806 198.329C105.055 199.299 105.071 199.605 105.863 199.398C107.32 199.017 112.134 193.809 114.45 190.108C114.965 189.286 115.506 188.614 115.653 188.614C116.881 188.614 113.45 193.832 110.058 197.124C107.922 199.196 107.87 199.909 109.932 198.843C110.467 198.566 111.052 198.43 111.23 198.54C111.6 198.769 116.15 194.212 116.558 193.205C116.782 192.649 116.828 192.714 116.845 193.616C116.861 194.508 116.56 195 115.056 196.548C114.061 197.571 112.822 198.634 112.303 198.909C111.784 199.185 111.527 199.467 111.731 199.536C112.73 199.873 117.493 196.549 118.765 194.629C119.775 193.104 121.172 188.964 121.58 186.284C122.4 180.908 124.807 172.53 126.06 170.691C127.147 169.094 135.509 164.554 147.221 159.203C157.012 154.73 159.614 153.443 165.393 150.215C174.862 144.925 177.554 143.246 179.653 141.325C182.103 139.085 182.338 138.371 183.396 129.945C183.656 127.868 183.993 125.464 184.145 124.603C184.457 122.83 184.401 122.75 181.96 121.467ZM94.8867 199.327C96.112 198.58 95.7466 198.471 94.4229 199.189C93.9316 199.455 93.5973 199.74 93.6797 199.823C93.7618 199.905 94.3053 199.682 94.8867 199.327ZM79.9541 196.688C80.6619 195.98 81.3174 196.789 81.3174 198.372C81.3174 199.435 80.8423 199.828 80.2021 199.297C79.7404 198.913 79.5656 197.076 79.9541 196.688ZM92.457 197.712C94.4555 195.337 92.2828 192.137 90.1865 194.367C89.0585 195.568 88.7101 196.978 89.3135 197.899C90.0552 199.031 91.4155 198.95 92.457 197.712ZM90.6562 195.423C91.3499 194.729 92.1863 196.435 91.5674 197.282C91.3461 197.584 91.0019 197.731 90.8027 197.609C90.4106 197.366 90.304 195.776 90.6562 195.423ZM65.8652 180.749C65.7533 180.749 65.5761 181.067 65.4717 181.456C64.9486 183.409 65.4401 193.292 66.0723 193.537C66.2849 193.619 67.007 193.429 67.6758 193.115C68.6413 192.663 69.0997 192.131 69.9023 190.533C70.4582 189.427 71.2143 188.201 71.582 187.809C72.2335 187.116 72.2363 187.067 71.7041 185.946C71.4036 185.312 70.7322 184.368 70.2119 183.848C69.2636 182.9 66.2468 180.749 65.8652 180.749ZM99.874 176.974C99.7466 176.974 99.0932 177.486 98.4229 178.112C97.7522 178.737 96.1063 180.165 94.7656 181.285C93.4249 182.405 92.3271 183.465 92.3271 183.641C92.3274 183.816 92.942 184.643 93.6934 185.479C94.4446 186.315 95.2693 187.431 95.5254 187.96C96.2951 189.549 96.9375 188.649 97.8623 184.681C98.3059 182.778 98.9919 180.265 99.3867 179.097C99.7813 177.931 100 176.976 99.874 176.974ZM73.5381 178.449C73.8746 177.964 74.2207 177.637 74.3057 177.722C74.508 177.928 73.0942 180.434 72.7754 180.434C72.4429 180.434 72.7911 179.527 73.5381 178.449ZM138.413 98.0647C137.375 98.0685 135.537 98.335 134.329 98.6565C131.658 99.3671 128.181 101.093 126.288 102.647C122.909 105.421 119.84 110.147 119.083 113.744C117.93 119.224 118.597 131.042 120.485 138.596C120.723 139.548 121.352 143.087 121.883 146.46C123.027 153.732 123.769 157.872 123.961 158.065C124.823 158.927 123.902 151.404 121.847 140.797C119.693 129.679 119.315 126.828 119.327 121.766C119.344 114.769 120.657 110.144 123.815 105.96C126.295 102.675 131.795 99.6832 136.748 98.9241C140.021 98.4224 140.732 98.0559 138.413 98.0647ZM175.675 55.5159C173.384 54.8999 167.4 54.4551 166.096 54.803C164.725 55.1692 161.262 56.4851 159.175 57.4339C156.474 58.6612 153.674 59.7414 153.041 59.8001C152.782 59.824 152.25 59.8681 151.861 59.8977C151.168 59.9506 151.153 60.0309 151.153 63.8958C151.153 73.9984 149.411 81.1406 146.47 83.0872C145.753 83.5618 144.975 83.8496 144.698 83.7434C143.973 83.465 143.29 81.5806 143.288 79.8587L143.286 78.3538L141.506 81.3215C138.899 85.6668 138.244 87.8086 138.026 92.7073L137.846 96.7571H139.66C141.248 96.7571 141.452 96.6878 141.293 96.2063C141.193 95.9037 140.755 94.6645 140.32 93.4534C139.551 91.3084 139.247 88.5784 139.778 88.5774C139.924 88.5774 140.212 89.3216 140.419 90.2298C140.625 91.1381 141.326 93.0713 141.976 94.5266L143.156 97.1731L146.29 98.1907C150.154 99.4458 153.459 100.976 156.344 102.847L158.546 104.276L158.646 99.6507C158.758 94.3888 158.255 85.2723 157.584 80.4231C157.335 78.6197 157.13 75.3579 157.13 73.1751C157.13 66.9307 158.149 63.9548 161.394 60.719C164.027 58.0933 166.209 57.2628 170.343 57.3137C173.968 57.3584 176.193 58.1051 178.346 60.0003C179.149 60.7077 179.735 61.3594 179.646 61.4475C179.558 61.5351 178.982 61.1649 178.366 60.6243C176.003 58.55 174.971 58.221 170.814 58.221C167.335 58.221 166.902 58.2884 165.281 59.0842C162.146 60.6241 159.851 63.5512 158.804 67.344C157.979 70.3321 157.91 75.2403 158.641 79.0305C159.695 84.4995 160.178 99.7005 159.685 111.857C159.47 117.134 159.21 122.013 159.105 122.699L158.916 123.947L160.304 122.757C165.537 118.272 176.109 117.057 182.355 120.222C184.303 121.209 186.738 123.453 188.439 125.828C189.127 126.787 189.783 127.574 189.899 127.578C190.422 127.595 190.845 124.047 191.1 117.519C191.451 108.484 191.713 105.733 192.174 106.194C192.407 106.428 192.521 109.009 192.521 114.074V121.609L194.88 123.124C196.178 123.958 198.142 125.393 199.244 126.314C202.025 128.635 213.403 140.008 216.568 143.629C219.948 147.496 223.504 151.179 223.857 151.179C224.276 151.179 224.194 150.775 223.602 149.911C222.58 148.422 214.595 139.673 210.962 136.063C208.951 134.064 206.597 131.684 205.732 130.773C204.867 129.861 203.461 128.736 202.607 128.272C201.11 127.457 200.12 126.292 201.316 126.751C201.617 126.866 202.821 127.109 203.992 127.29C205.94 127.593 206.338 127.552 208.646 126.805C211.423 125.906 212.682 125.792 216.428 126.105C217.812 126.22 219.935 126.397 221.146 126.498C224.512 126.779 227.046 127.267 227.854 127.787C228.506 128.209 228.666 128.203 229.363 127.746C229.849 127.429 230.086 127.034 229.992 126.702C229.908 126.409 229.62 125.281 229.352 124.195C228.863 122.22 221.915 108.06 217.896 100.846C215.48 96.5112 211.478 90.0552 208.927 86.3762C203.12 78.0028 191.011 64.2857 186.229 60.6633C183.799 58.8231 178.668 56.3206 175.675 55.5159ZM184.651 127.704C184.525 129.903 184.48 131.761 184.551 131.832C184.846 132.127 188.012 130.014 188.334 129.308C188.712 128.478 188.239 127.615 185.94 124.938L184.883 123.705L184.651 127.704ZM160.669 123.881C160.28 124.297 159.966 124.77 159.972 124.932C159.988 125.367 161.207 126.757 161.402 126.564C161.494 126.472 161.526 125.661 161.474 124.761L161.377 123.124L160.669 123.881ZM131.016 40.343C130.581 40.2413 129.887 40.3294 129.474 40.5383C127.903 41.3339 127.402 42.4809 127.41 45.2688C127.416 47.1701 127.571 48.1251 128.007 48.9348L128.595 50.0305L127.449 49.0237C126.136 47.8705 125.723 47.9194 124.1 49.4212C122.724 50.6938 121.985 51.0789 119.224 51.9612C117.569 52.4899 117.257 52.6705 117.966 52.6878C120.291 52.7449 123.022 52.0429 124.65 50.968C126.536 49.724 126.839 49.9778 125.192 51.4231C123.047 53.3068 120.197 54.2469 116.413 54.3196L114.819 54.3499L115.999 54.8342C116.648 55.1004 117.179 55.4284 117.179 55.5628C117.177 55.6971 116.587 55.9067 115.865 56.0286C115.143 56.1507 113.566 56.7644 112.362 57.3928C108.161 59.5854 105.026 58.7911 100.585 54.4085C98.1628 52.0184 97.7402 51.8482 99.1982 53.8489C101.216 56.6179 104.231 58.7444 107.427 59.6546C109.504 60.246 109.625 60.4845 108.401 61.5833C107.371 62.5087 107.246 62.5389 105.029 62.3967C100.829 62.1271 96.7476 59.3226 95.0605 55.5471C94.2062 53.6354 94.0248 54.4125 94.8418 56.4846C96.3269 60.2524 98.8607 62.5688 102.63 63.6038C105.086 64.2785 105.217 64.8221 102.865 64.5794C98.2627 64.1044 94.686 60.9534 92.791 55.7044C92.3919 54.5987 91.9591 56.7191 92.1387 58.9016C92.4026 62.1087 93.9171 64.5674 96.8105 66.4876C97.4588 66.9178 97.9893 67.3397 97.9902 67.426C97.9902 67.7208 94.7453 67.152 93.8818 66.7053C93.4068 66.4597 92.5083 65.7787 91.8857 65.1917C91.2635 64.6047 90.7549 64.313 90.7549 64.5442C90.7556 65.3447 92.945 67.1635 94.4521 67.6155C95.716 67.9944 95.8484 68.1043 95.3164 68.3303C94.9704 68.4772 94.0144 68.5887 93.1924 68.5774C92.3711 68.5661 91.6993 68.6693 91.6982 68.8079C91.6982 68.9466 92.9374 70.3072 94.4512 71.8313C96.6089 74.0032 97.7364 74.8631 99.6719 75.8108L102.141 77.0188L103.481 76.3499C105.333 75.4253 109.629 75.4204 109.629 76.343C109.629 76.4974 109.389 76.6242 109.095 76.6243C108.679 76.6243 108.644 76.7077 108.938 77.0012C109.815 77.8793 108.86 79.7698 107.538 79.7698C106.791 79.7691 105.172 78.1204 105.329 77.5198C105.506 76.8425 105.513 76.8441 104.445 77.2503L103.625 77.5618L105.168 78.9016C107.443 80.8775 112.006 84.1302 113.676 84.9651C116.547 86.4008 123.715 87.3491 127.023 86.7317C129.6 86.2507 130.946 85.5374 132.751 83.6956C134.464 81.947 136.715 77.9219 138.112 74.1077C138.825 72.1627 139.003 71.0714 139.126 67.8948C139.281 63.9019 139.597 62.9753 139.943 65.5003C140.271 67.8885 140.164 70.3702 139.648 72.3772C139.381 73.4151 139.087 74.5697 138.993 74.9436C138.84 75.5542 139.008 75.6592 140.662 75.9866C141.674 76.1867 143.848 76.681 145.491 77.0852C147.134 77.4893 148.517 77.7834 148.565 77.7385C149.224 77.116 150.275 64.6187 149.952 61.2376C149.848 60.1425 149.722 59.9514 149.108 59.9514C147.041 59.9513 141.77 57.8626 138.459 55.7317C136.339 54.3675 136.069 54.0968 136.552 53.8225C136.861 53.6466 137.456 53.1486 137.874 52.7161C140.405 50.0953 135.593 41.4138 131.016 40.343ZM126.046 79.4583C128.178 77.1748 128.521 76.925 129.092 77.2307C130.14 77.7924 130.274 79.51 129.403 81.2454C128.406 83.2344 126.891 84.0168 124.037 84.0169C121.325 84.0169 120.731 83.5168 122.419 82.6555C123.093 82.3116 124.725 80.8728 126.046 79.4583ZM107.427 73.2835C107.427 73.2501 107.745 73.3055 108.135 73.4065C109.215 73.6871 112.285 76.9272 113.222 78.7766C113.706 79.7334 114.393 80.5764 114.86 80.7893C115.638 81.1439 116.294 81.0047 119.339 79.8391C120.396 79.4346 119.006 80.9727 117.679 81.677C116.326 82.3945 116.191 82.4089 114.915 81.9661C113.753 81.5625 113.426 81.2266 112.467 79.4553C111.858 78.3308 110.475 76.4962 109.394 75.3782C108.313 74.2605 107.428 73.3182 107.427 73.2835ZM144.953 78.1965C144.229 78.1965 144.204 78.2653 144.397 79.6907C144.719 82.0578 144.847 82.3328 145.586 82.2258C146.324 82.1189 147.693 80.3097 147.693 79.4397C147.693 78.8474 146.259 78.1966 144.953 78.1965ZM99.4053 71.2512C100.319 70.8665 102.794 71.0486 102.946 71.512C103.025 71.75 102.786 71.9082 102.342 71.9124C101.398 71.9212 99.2169 72.9114 98.6592 73.5852C98.4217 73.8721 98.0226 74.1077 97.7725 74.1077C96.7957 74.1071 98.1179 71.7932 99.4053 71.2512ZM120.482 65.0989C121.545 64.6266 124.284 64.6584 124.207 65.1419C124.179 65.3149 123.259 65.7664 122.162 66.1458C120.804 66.6157 119.829 67.2046 119.105 67.9934C118.096 69.0938 118.052 69.2407 118.221 70.9221L118.398 72.6917L117.799 71.9612C116.978 70.9611 116.707 69.2694 117.184 68.1184C117.626 67.052 119.076 65.7246 120.482 65.0989ZM119.875 67.9954C120.599 67.2719 121.817 67.3919 122.698 68.2737C123.658 69.2328 123.685 70.1472 122.771 70.7864C121.786 71.4765 121.046 71.3968 120.153 70.5042C119.266 69.6168 119.165 68.706 119.875 67.9954ZM115.606 59.8225C116.8 59.3066 118.436 59.1656 118.438 59.5784C118.438 59.7196 117.513 60.4247 116.384 61.1448C114.949 62.0598 114.035 62.9295 113.349 64.0335C112.276 65.7597 111.517 66.0824 111.517 64.8118C111.517 63.148 113.493 60.7364 115.606 59.8225ZM131.571 43.0217C132.086 43.0809 132.436 43.3123 132.437 43.593C132.437 43.8679 132.206 44.0266 131.886 43.9729C131.431 43.8965 131.335 44.1213 131.335 45.2708C131.335 46.5603 131.403 46.6736 132.27 46.8469C133.362 47.0656 135.11 49.2543 135.11 50.4036C135.11 51.4259 134.727 51.3173 134.166 50.135C133.531 48.7953 132.778 48.3598 131.97 48.8645C131.094 49.4116 131.043 49.3871 130.532 48.1643C130.003 46.8978 129.941 44.9358 130.392 43.7503C130.643 43.0897 130.881 42.9422 131.571 43.0217Z" />
</g>
<defs>
<filter id="filter0_gn_1124_15536" x="-1.8" y="-1.8" width="259.6" height="259.6" filterUnits="userSpaceOnUse" color-interpolation-filters="sRGB">
<feFlood flood-opacity="0" result="BackgroundImageFix"/>
<feBlend mode="normal" in="SourceGraphic" in2="BackgroundImageFix" result="shape"/>
<feTurbulence type="fractalNoise" baseFrequency="1.25 1.25" numOctaves="3" seed="6290" />
<feDisplacementMap in="shape" scale="3.5999999046325684" xChannelSelector="R" yChannelSelector="G" result="displacedImage" width="100%" height="100%" />
<feMerge result="effect1_texture_1124_15536">
<feMergeNode in="displacedImage"/>
</feMerge>
<feTurbulence type="fractalNoise" baseFrequency="3.3333332538604736 3.3333332538604736" stitchTiles="stitch" numOctaves="3" result="noise" seed="8744" />
<feColorMatrix in="noise" type="luminanceToAlpha" result="alphaNoise" />
<feComponentTransfer in="alphaNoise" result="coloredNoise1">
<feFuncA type="discrete" tableValues="0 0 0 0 1 1 1 1 1 1 1 1 1 1 1 1 1 1 1 1 1 1 1 1 1 1 1 1 1 1 1 1 1 1 1 1 1 1 1 1 1 1 1 1 1 0 0 0 0 0 0 0 0 0 0 0 0 0 0 0 0 0 0 0 0 0 0 0 0 0 0 0 0 0 0 0 0 0 0 0 0 0 0 0 0 0 0 0 0 0 0 0 0 0 0 0 0 0 0 0 "/>
</feComponentTransfer>
<feComposite operator="in" in2="effect1_texture_1124_15536" in="coloredNoise1" result="noise1Clipped" />
<feFlood flood-color="rgba(167, 167, 167, 0.5)" result="color1Flood" />
<feComposite operator="in" in2="noise1Clipped" in="color1Flood" result="color1" />
<feMerge result="effect2_noise_1124_15536">
<feMergeNode in="effect1_texture_1124_15536" />
<feMergeNode in="color1" />
</feMerge>
</filter>
</defs>
</svg>
