<svg viewBox="0 0 256 256" fill="currentColor" xmlns="http://www.w3.org/2000/svg">
<g clip-path="url(#clip0_1124_15546)">
<g filter="url(#filter0_gn_1124_15546)">
<path fill-rule="evenodd" clip-rule="evenodd" d="M67.907 46.5686C67.8134 46.6625 67.7966 46.8955 67.87 47.0869C67.9431 47.2782 67.5503 48.1887 66.997 49.1102C66.4438 50.0314 65.9909 51.0981 65.9909 51.4803C65.9909 51.8628 66.3767 52.8516 66.8483 53.6782C67.8999 55.5209 67.8162 55.8244 65.5045 58.5473C60.4079 64.5511 59.9579 66.0239 62.0204 69.9505C62.6527 71.1541 63.0962 72.2128 63.006 72.3032C62.9158 72.3936 61.9186 72.5029 60.7899 72.5459C57.6897 72.6643 56.2291 73.1078 54.808 74.3622C51.9986 76.8418 50.0447 82.371 48.3616 92.6042C47.3468 98.7759 46.4306 102.014 45.2291 103.677L44.3638 104.875L42.5908 103.71C40.0516 102.041 34.2831 99.2599 32.2957 98.7457C30.038 98.1616 29.1272 98.1927 28.4443 98.8775C27.3324 99.9924 27.6137 100.558 31.8499 105.723C35.41 110.063 36.2406 111.282 36.0242 111.848C35.7465 112.573 34.241 112.347 32.197 111.274C29.1998 109.699 25.9582 109.676 24.0086 111.214C23.355 111.729 22.6954 111.888 20.6292 112.025C17.8049 112.212 15.9782 112.931 14.0787 114.604C13.1022 115.463 12.9674 115.497 10.7732 115.444C8.72517 115.395 8.49562 115.442 8.58209 115.892C8.66031 116.299 9.19194 116.46 11.3793 116.742C19.5816 117.796 27.0115 120.109 30.4195 122.67C31.5888 123.548 32.1421 123.606 32.1421 122.849C32.1421 121.83 28.1422 119.524 24.0354 118.175C22.7838 117.764 20.2281 117.098 18.3559 116.695C16.4837 116.291 14.8837 115.893 14.8006 115.81C14.5998 115.609 15.4699 114.972 17.2087 114.048C18.4142 113.408 19.0107 113.288 21.1235 113.262C23.2065 113.236 23.7208 113.135 24.2524 112.65C25.2278 111.759 25.9699 111.455 27.6572 111.256C29.3323 111.059 31.0979 111.632 32.6532 112.878L33.4221 113.494L32.7109 113.294C31.1186 112.848 33.7657 114.3 37.6887 116.026C42.9916 118.36 46.7181 120.249 52.1837 123.377C54.6803 124.806 56.9203 126.007 57.1615 126.045C57.4312 126.088 57.5998 125.9 57.5998 125.556C57.5998 125.14 56.7203 124.488 54.1865 123.025C49.0019 120.031 43.1887 117.037 39.3954 115.408C37.5181 114.602 35.9306 113.891 35.8674 113.829C35.8046 113.767 36.0924 113.449 36.5074 113.121C38.0667 111.892 37.4438 110.337 33.5435 105.723C30.8336 102.517 29.2976 100.47 29.2976 100.064C29.2976 99.1028 33.1174 100.092 37.1198 102.09C46.4928 106.768 62.9619 120.988 71.4841 131.761C73.3387 134.106 74.15 134.658 74.4424 133.778C74.8119 132.664 61.9413 119.046 54.8976 113.096C51.2843 110.045 46.5125 106.341 45.8665 106.087C45.3522 105.884 45.4296 105.314 46.0477 104.753C47.4509 103.48 48.2413 100.582 50.1957 89.5421C50.9595 85.2266 52.2341 80.8274 53.3989 78.4847C55.188 74.8864 56.4581 74.0818 60.7722 73.8137C62.4394 73.7102 63.838 73.4846 64.0348 73.2872C64.6467 72.6737 64.3892 71.3954 63.2813 69.5478C61.4706 66.5276 61.8341 64.919 65.2403 60.8792C69.1662 56.2234 69.4396 55.5149 68.1317 53.3858C67.7463 52.7583 67.4268 51.9415 67.422 51.5707C67.4123 50.8317 68.5106 48.6798 68.8974 48.6798C69.3369 48.6798 71.9552 53.0364 73.9543 57.0936C77.441 64.1706 80.7027 73.2404 84.353 86.0098C86.0198 91.841 86.6854 93.3397 87.3271 92.708C87.5735 92.4656 87.3743 91.4776 86.5221 88.715C85.8995 86.6963 84.7996 83.0358 84.0782 80.5807C79.4736 64.9116 73.5455 51.4726 69.408 47.325C68.4739 46.3887 68.2159 46.2586 67.907 46.5686ZM98.8275 55.552C98.5749 55.9619 101.608 60.4372 108.668 70.0708C114.911 78.5908 119.676 84.8187 120.434 85.4487C120.803 85.7556 120.99 85.7699 121.249 85.5103C121.677 85.0817 121.715 85.1424 117.76 80.0428C114.684 76.0763 104.428 62.0312 101.263 57.4501C99.7901 55.319 99.2371 54.8878 98.8275 55.552ZM128.715 58.9415C128.419 59.4212 129.03 60.2093 131.557 62.6079C142.045 72.5619 152.658 78.5098 163.265 80.3771C167.924 81.1973 174.282 81.1891 178.432 80.3577C184.204 79.2011 189.064 77.0851 193.849 73.6449C196.676 71.6124 197.136 71.1142 196.643 70.6199C196.405 70.3806 195.603 70.8175 193.521 72.3223C185.959 77.7885 178.471 80.0425 169.102 79.6734C160.415 79.3309 152.11 76.4274 143.851 70.8443C139.22 67.7138 136.869 65.808 132.816 61.9003C130.969 60.1194 129.329 58.6623 129.172 58.6623C129.015 58.6623 128.809 58.7881 128.715 58.9415ZM233.151 65.4361C233.082 65.5536 232.291 67.5752 231.395 69.9282C229.5 74.9049 226.612 80.9589 224.146 85.123C222.484 87.9304 222.288 88.6098 223.142 88.6098C223.871 88.6098 228.171 80.9184 230.66 75.1591C232.399 71.1364 234.098 66.4923 234.098 65.7587C234.098 65.2387 233.407 65.0034 233.151 65.4361ZM219.179 71.3689C217.685 73.6514 216.462 75.705 216.462 75.9323C216.462 76.1596 216.694 76.3456 216.977 76.3456C217.442 76.3456 219.851 72.9786 222.135 69.1368C222.748 68.1057 222.766 67.2187 222.174 67.2187C222.021 67.2187 220.673 69.0863 219.179 71.3689ZM213.023 72.7091C209.933 76.8946 203.772 82.675 199.455 85.4387C197.945 86.4056 197.688 86.9792 198.706 87.113C199.342 87.1962 203.102 84.5452 206.653 81.5111C210.455 78.2619 215.938 71.6917 215.475 70.9402C215.079 70.2973 214.489 70.7223 213.023 72.7091ZM132.835 74.0059C132.835 74.9463 140.584 87.9743 141.309 88.2532C141.519 88.3342 141.826 88.2652 141.991 88.1004C142.2 87.8907 141.691 86.8286 140.299 84.5686C139.204 82.7911 137.297 79.6053 136.061 77.4887C133.932 73.8422 132.835 72.6583 132.835 74.0059ZM129.066 75.0866C128.677 75.4765 132.519 82.1924 133.131 82.1924C133.94 82.1924 133.662 81.2832 131.913 78.2012C130.291 75.3436 129.582 74.5684 129.066 75.0866ZM159.431 89.2666C156.554 90.6496 152.285 96.0088 149.084 102.258C148.071 104.236 147.446 105.152 147.11 105.152C146.487 105.152 140.777 106.575 137.883 107.451L135.677 108.119L132.821 105.079C127.016 98.8977 120.115 94.8845 115.292 94.8845C113.514 94.8845 113.376 94.9352 112.356 95.9574C110.504 97.8148 110.187 101.486 111.478 106.141C112.054 108.219 112.032 108.575 111.325 108.575C110.545 108.575 108.089 109.779 108.089 110.162C108.089 110.827 108.545 110.853 110.175 110.278C112.295 109.531 112.53 109.56 112.896 110.614C113.332 111.866 113.298 111.997 112.545 111.997C111.866 111.997 108.632 112.982 107.733 113.463C107.084 113.81 107.091 114.564 107.743 114.564C108.022 114.564 108.969 114.311 109.846 114.002C110.723 113.693 111.954 113.357 112.582 113.257C113.567 113.099 113.769 113.16 114.057 113.699C114.444 114.423 114.257 115.135 113.681 115.135C112.551 115.135 107.401 118.013 107.089 118.819C106.7 119.822 107.551 119.729 109.382 118.57C111.293 117.36 114.779 115.872 115.156 116.106C115.268 116.175 115.726 117.002 116.175 117.944L116.992 119.658L116.11 121.035C113.297 125.431 112.471 130.324 113.802 134.713C114.649 137.511 116.946 142.066 118.598 144.227C119.377 145.246 120.019 146.157 120.025 146.252C120.031 146.346 119.42 146.326 118.669 146.206C115.461 145.698 112.979 144.798 110.271 143.163C109.088 142.448 108.525 142.249 108.307 142.468C107.833 142.943 109.625 144.459 111.929 145.531C114.368 146.666 116.691 147.287 119.47 147.546C121.25 147.712 121.846 147.913 123.256 148.827C125.431 150.237 127.554 151.017 130.24 151.396C131.433 151.564 132.918 151.788 133.54 151.894L134.671 152.085L132.971 153.036C132.036 153.559 130.17 154.678 128.824 155.522C126.323 157.093 125.019 157.556 124.352 157.11C124.006 156.879 123.308 154.54 123.522 154.326C123.573 154.274 124.654 154.145 125.925 154.039C128.481 153.825 129.273 153.536 128.569 153.072C128.002 152.7 127.249 152.719 123.922 153.191C121.634 153.516 120.96 153.523 120.224 153.225C119.729 153.025 118.492 152.655 117.475 152.404C112.044 151.061 106.374 149.603 105.255 149.262L103.986 148.876L101.632 142.344C100.337 138.752 99.3367 135.652 99.4078 135.456C99.4792 135.26 99.7753 135.1 100.066 135.1C100.781 135.1 101.785 133.977 101.99 132.946C102.191 131.94 101.575 129.946 97.312 117.805C92.826 105.028 92.1072 103.181 91.3119 102.383C90.5394 101.609 90.7299 101.614 85.2763 102.197C83.7175 102.364 83.6481 102.343 83.4743 101.649C83.3751 101.253 82.9902 100.642 82.6187 100.292C82.0692 99.7742 81.7136 99.6823 80.7047 99.7961C79.2438 99.9613 77.9683 100.537 77.5439 101.222C77.3187 101.586 77.3622 102.044 77.7123 102.991C78.1692 104.227 78.1663 104.276 77.627 104.447C76.77 104.72 76.1357 105.887 76.326 106.841C76.4685 107.555 84.5487 129.944 88.7766 141.339C89.5549 143.437 90.1389 145.207 90.074 145.272C90.0094 145.337 89.0122 145.015 87.8582 144.556C85.0044 143.422 79.9302 141.774 77.5109 141.196C74.4805 140.471 69.9678 140.536 67.9374 141.334C64.5389 142.669 63.3834 143.98 62.8595 147.094C62.4772 149.366 62.5457 149.345 59.8782 148C59.0977 147.607 57.0497 146.881 55.3271 146.387L52.1954 145.489V144.579C52.1954 143.972 51.9411 143.414 51.4322 142.904C50.7567 142.227 50.365 142.114 48.0189 141.923C46.5614 141.804 44.7287 141.505 43.9465 141.259C41.8578 140.6 38.585 140.663 37.0854 141.391C35.5127 142.154 29.7052 148.186 27.3981 151.452C25.4149 154.259 22.886 159.07 21.8255 162.052C20.9324 164.564 20.5521 166.408 20.0827 170.5C19.6797 174.017 19.798 174.703 20.9372 175.451C21.2968 175.688 21.9328 176.466 22.3503 177.18C23.0097 178.308 23.0851 178.675 22.9232 179.963C22.3899 184.206 22.391 184.308 22.9963 185.497C24.2843 188.029 26.4714 189.031 29.538 188.496C31.4073 188.17 31.4568 188.178 33.4932 189.142C34.6272 189.679 35.554 190.22 35.552 190.346C35.5466 190.709 32.7053 192.553 31.1277 193.217C27.9801 194.543 24.404 194.569 22.3262 193.282C21.3067 192.65 19.3054 190.573 18.7951 189.617C18.4535 188.977 17.791 188.807 17.4969 189.284C16.9906 190.105 19.9974 193.574 22.1225 194.621C23.5737 195.335 24.0451 195.42 26.4532 195.403C28.6898 195.388 29.4973 195.25 31.1391 194.608C33.341 193.746 35.2314 192.6 36.6067 191.294C37.1065 190.82 37.7738 190.431 38.0892 190.431C38.4047 190.431 39.3664 190.167 40.226 189.845C41.795 189.256 44.0554 187.158 44.741 185.654C45.1915 184.665 45.6324 184.878 46.5139 186.509C46.9585 187.333 47.9321 189.072 48.6774 190.375C49.5501 191.9 49.9107 192.784 49.6914 192.858C43.1367 195.088 24.0638 202.317 19.0576 204.47L17.7776 205.02L18.4887 205.42C18.8798 205.64 29.1113 209.109 41.2255 213.129C57.942 218.676 65.3473 221.284 71.9455 223.948C76.7273 225.877 86.0798 229.574 92.7287 232.161C99.3776 234.749 106.452 237.52 108.449 238.32C110.446 239.119 112.273 239.773 112.509 239.773C112.973 239.773 133.993 231.453 150.898 224.578C156.686 222.223 167.438 217.866 174.791 214.895C189.981 208.757 195.656 206.413 202.951 203.264C205.767 202.048 210.567 199.997 213.618 198.706C222.734 194.848 223.949 194.296 224.06 193.961C224.118 193.785 223.872 193.559 223.514 193.457C222.945 193.297 198.792 187.949 196.341 187.441C195.097 187.183 194.998 186.908 195.811 185.96L196.501 185.155L206.695 184.988C214.331 184.863 217.638 184.698 219.875 184.33C222.238 183.942 223.706 183.881 226.9 184.036L230.937 184.231L231.134 185.809C231.43 188.183 231.084 192.856 230.422 195.422C229.403 199.378 227.805 202.206 225.018 204.989C223.103 206.901 222.026 207.709 220.018 208.741C216.03 210.789 211.287 212.037 205.653 212.52C195.037 213.431 191.641 214.335 190.064 216.671C189.119 218.07 189.273 220.445 190.405 221.933C193.045 225.403 200.597 227.763 207.929 227.407C214.426 227.093 220.476 225.378 227.367 221.899C235.01 218.04 241.631 210.796 244.336 203.335C246.088 198.502 246.443 196.291 246.429 190.324L246.416 184.94L249.999 185.128C251.97 185.232 254.126 185.391 254.791 185.482L256 185.647V182.776V179.904L255.075 179.762C253.819 179.568 234.085 178.444 232.016 178.448C230.489 178.452 230.375 178.408 230.543 177.88C230.85 176.908 230.021 176.934 227.51 177.976C219.608 181.256 212.872 182.365 202.809 182.044C197.806 181.884 183.188 180.835 182.974 180.62C182.934 180.58 183.381 180.228 183.966 179.837C184.552 179.446 187.399 177.516 190.293 175.548C200.798 168.405 207.86 164.63 222.151 158.519L226.56 156.633L241.318 156.741L256.076 156.848L255.879 147.756C255.771 142.756 255.567 134.693 255.425 129.839L255.168 121.013L254.256 120.284C246.998 114.488 243.803 112.388 237.068 108.987C226.773 103.789 214.743 100.778 200.107 99.7362C191.781 99.1439 183.522 99.5434 169.111 101.236C168.613 101.294 168.51 101.015 168.184 98.7349C167.536 94.1997 166.41 91.2346 164.726 89.632C163.494 88.4589 161.411 88.3151 159.431 89.2666ZM159.882 101.021C158.327 102.479 156.683 105.508 156.02 108.136C155.48 110.276 155.456 111.997 155.967 111.997C156.216 111.997 156.457 111.257 156.684 109.795C157.164 106.699 158.826 103.341 160.725 101.629C162.023 100.458 162.333 99.7331 161.535 99.7331C161.381 99.7331 160.637 100.313 159.882 101.021ZM80.7104 101.041C80.5002 101.252 81.1351 103.129 81.4221 103.144C82.4281 103.199 82.5206 103.135 82.332 102.514C81.9946 101.404 81.1308 100.619 80.7104 101.041ZM162.235 103.94C161.106 105.139 159.574 108.094 159.573 109.074C159.573 110.22 160.339 109.764 160.723 108.39C161.104 107.025 162.585 104.838 163.753 103.917C164.116 103.63 164.341 103.277 164.253 103.133C163.93 102.609 163.221 102.893 162.235 103.94ZM87.8932 103.492C87.8932 103.677 88.7169 106.083 89.7233 108.84C90.7299 111.596 92.8957 117.637 94.5361 122.265C98.6634 133.909 98.683 133.959 99.168 133.959C100.048 133.959 100.693 133.37 100.693 132.566C100.693 131.756 98.6321 125.427 95.2028 115.705C90.5257 102.446 90.867 103.156 89.1658 103.156C88.3784 103.156 87.8932 103.284 87.8932 103.492ZM85.3332 103.694C85.3332 103.833 87.5564 110.154 90.2737 117.74C101.175 148.176 107.473 166.078 107.692 167.246C107.85 168.09 110.122 171.607 110.509 171.607C110.665 171.607 109.519 168.312 103.814 152.355C100.953 144.355 97.9858 136.012 97.2198 133.816C96.4535 131.62 94.8848 127.192 93.7334 123.976C92.582 120.761 90.7242 115.562 89.605 112.425C88.486 109.288 87.3058 105.983 86.9827 105.081C86.5526 103.881 86.2522 103.441 85.8639 103.441C85.5721 103.441 85.3332 103.555 85.3332 103.694ZM116.096 104.427C116.155 104.726 116.711 105.099 117.475 105.355C119.05 105.883 122.116 107.895 123.433 109.266C123.973 109.827 124.581 110.286 124.784 110.286C125.602 110.286 125.061 109.39 123.261 107.761C121.305 105.991 118.615 104.437 116.949 104.113C116.14 103.957 116.011 104.004 116.096 104.427ZM113.055 108.309C112.763 108.782 112.977 108.859 115.374 109.133C119.222 109.573 122.27 111.004 124.303 113.326C125.106 114.243 126.009 114.467 126.009 113.748C126.009 113.204 122.407 110.168 120.989 109.517C118.367 108.313 113.508 107.573 113.055 108.309ZM70.2576 118.351C70.2576 118.914 74.1391 122.646 74.4953 122.426C75.1873 121.997 74.722 121.092 73.0309 119.579C71.3237 118.052 70.2576 117.58 70.2576 118.351ZM66 119.342C66.0109 119.922 70.5807 124.262 71.1809 124.262C72.4859 124.262 72.0294 123.498 69.2251 120.989C66.8192 118.837 65.983 118.41 66 119.342ZM15.5021 119.698C15.1732 120.231 15.6568 120.523 18.1201 121.276C21.297 122.248 30.1874 125.683 32.0109 126.644L33.4221 127.387L30.2932 127.179C23.8562 126.751 12.8288 127.126 10.4532 127.855C10.1795 127.939 9.95539 128.27 9.95539 128.591C9.95539 129.115 10.0788 129.157 11.1643 128.999C16.6893 128.195 24.6632 128.029 31.3706 128.576C35.4001 128.905 36.8934 128.714 36.624 127.904C36.3072 126.951 28.225 123.333 21.1099 120.958C16.2573 119.339 15.7882 119.234 15.5021 119.698ZM154.311 125.2C151.65 126.478 149.737 129.341 148.902 133.293C148.359 135.861 148.376 136.628 148.988 137.184C149.663 137.797 151.429 138.522 152.245 138.522C152.878 138.522 152.896 138.454 152.794 136.425C152.673 134.018 153.177 132.65 154.29 132.37C155.712 132.012 156.866 133.376 157.199 135.808C157.296 136.516 157.465 137.096 157.574 137.096C157.684 137.096 158.484 136.586 159.352 135.963C162.408 133.769 164.649 128.877 163.545 126.809C162.966 125.725 160.479 124.744 158.009 124.626C156.056 124.533 155.532 124.614 154.311 125.2ZM124.24 128.251C123.015 128.921 122.595 129.574 122.595 130.814C122.595 133.227 125.929 136.973 129.165 138.196L129.903 138.475L129.774 137.136C129.627 135.601 130.222 133.875 131.052 133.43C132.369 132.723 133.904 134.6 134.177 137.252C134.268 138.135 134.5 138.919 134.693 138.993C135.195 139.186 137.079 138.343 137.272 137.84C137.535 137.153 135.129 132.87 133.473 131.076C131.556 129 129.506 127.946 127.077 127.788C125.673 127.697 125.074 127.794 124.24 128.251ZM36.8354 132.533C36.5245 133.037 36.9859 133.388 37.9587 133.388C38.4798 133.388 40.1042 133.638 41.5685 133.943C47.2193 135.118 52.1627 136.906 55.2586 138.894C57.087 140.068 57.3256 140.134 57.5583 139.526C57.9156 138.592 53.5602 136.138 48.7149 134.542C43.139 132.706 37.3337 131.724 36.8354 132.533ZM30.0568 133.116C27.7232 134.957 29.2635 138.753 32.544 139.246C35.7212 139.724 37.968 137.782 36.9864 135.407C36.0424 133.121 31.8203 131.725 30.0568 133.116ZM31.6252 133.735C31.44 133.921 31.2887 134.268 31.2887 134.507C31.2887 134.805 31.4315 134.737 31.7444 134.289C32.2436 133.575 32.1623 133.197 31.6252 133.735ZM32.5571 134.548C32.342 134.897 32.3238 134.879 33.3225 135.308C34.1613 135.668 34.4176 135.542 34.4176 134.767C34.4176 134.378 34.2026 134.244 33.5811 134.244C33.1208 134.244 32.66 134.381 32.5571 134.548ZM32.9954 136.794C32.9954 137.543 33.3748 137.726 33.9924 137.273C34.5934 136.832 34.3383 136.241 33.5475 136.241C33.1905 136.241 32.9954 136.436 32.9954 136.794ZM35.4371 136.994C35.2872 137.385 35.329 137.403 35.6911 137.102C36.1846 136.691 36.2361 136.526 35.8703 136.526C35.7306 136.526 35.5358 136.736 35.4371 136.994ZM47.9489 137.919C47.6375 138.424 47.985 138.728 49.1188 138.941C51.837 139.452 55.0029 141.883 56.0112 144.233C56.6154 145.641 57.3168 146.067 57.6405 145.221C57.9119 144.513 56.371 141.748 55.0936 140.652C52.8277 138.706 48.4868 137.047 47.9489 137.919ZM185.827 139.364C182.121 141.051 176.542 146.223 178.428 146.223C178.63 146.223 179.43 145.57 180.206 144.771C182.022 142.904 184.719 140.961 186.564 140.192C187.364 139.86 188.018 139.412 188.018 139.197C188.018 138.66 187.244 138.719 185.827 139.364ZM141.038 139.841L139.997 140.275L140.466 141.095C140.925 141.896 141.867 142.515 142.629 142.515C143.086 142.515 143.768 141.518 144.023 140.48C144.175 139.862 144.094 139.698 143.57 139.557C142.642 139.307 142.201 139.357 141.038 139.841ZM191.858 141.523C185.667 143.651 177.493 148.038 177.493 149.233C177.493 149.893 177.935 149.73 179.979 148.317C182.79 146.374 188.749 143.578 193.067 142.176C195.263 141.463 196.835 140.803 196.835 140.593C196.835 139.988 195.712 140.198 191.858 141.523ZM68.9167 142.34C66.9373 142.991 65.2451 144.136 64.771 145.144C64.5289 145.659 64.1816 146.909 63.9998 147.922C63.4244 151.126 62.628 152.224 59.5909 154.002C55.9663 156.123 55.3402 157.425 56.1313 161.197C56.3617 162.295 56.443 163.306 56.3119 163.445C55.0552 164.773 53.9894 158.608 55.078 156.308C55.5806 155.246 57.1294 153.885 59.1643 152.716C59.8683 152.312 60.7609 151.642 61.148 151.226C61.7402 150.591 61.7852 150.429 61.4324 150.205C59.6945 149.103 56.4214 149.886 52.9008 152.247C50.2421 154.03 48.8432 155.41 47.6938 157.382C45.0427 161.931 42.2211 176.718 43.1324 181.287C43.2758 182.006 43.5443 182.289 44.4187 182.639C45.856 183.216 47.0307 184.631 48.7821 187.893C51.8034 193.522 53.9661 195.798 58.0766 197.675C63.3618 200.088 74.6671 201.809 80.8634 201.144C83.3643 200.875 83.0388 200.414 80.3483 200.414C74.074 200.414 59.7838 197.178 55.9919 194.899C53.9786 193.689 53.1909 192.475 53.1909 190.582C53.1909 188.56 53.9331 186.438 54.6399 186.438C54.938 186.438 55.1821 186.489 55.1821 186.55C55.1821 186.612 54.9852 187.617 54.7443 188.784C54.2602 191.133 54.4089 191.941 55.5203 192.998C58.0285 195.385 70.2622 198.398 81.0665 199.29C87.3348 199.808 90.243 199.166 93.1554 196.621L94.2932 195.627L93.0132 195.299C87.7947 193.963 63.6576 185.841 63.5015 185.369C63.194 184.44 65.7566 185.138 80.4976 190.002C94.5733 194.646 96.3551 195.081 102.813 195.442C105.591 195.597 105.813 195.571 105.809 195.088C105.8 193.83 105.443 193.401 103.735 192.595C102.766 192.138 99.6052 190.58 96.7109 189.132C93.8167 187.685 88.9527 185.316 85.9021 183.87C82.8514 182.424 77.6355 179.898 74.311 178.258C68.6093 175.444 67.5611 174.713 68.636 174.299C68.8391 174.221 72.7112 175.971 77.2404 178.188C81.7697 180.405 89.8914 184.382 95.2887 187.025C104.264 191.421 105.327 191.872 107.737 192.302C110.017 192.71 110.549 192.721 111.684 192.387C112.405 192.174 113.057 191.841 113.131 191.647C113.206 191.453 112.946 190.747 112.554 190.078C111.77 188.742 108.274 184.518 107.461 183.926C107.179 183.72 105.637 182.423 104.034 181.043C96.8944 174.897 91.3438 171.162 79.415 164.477C74.5547 161.753 72.5431 160.48 72.5389 160.127C72.5357 159.853 72.7326 159.628 72.9761 159.628C73.5145 159.628 84.7666 165.885 89.9642 169.076C94.5762 171.906 98.4219 174.695 103.764 179.082C106.88 181.641 108.191 182.538 109.3 182.868C111.606 183.555 112.394 183.449 113.138 182.354C113.49 181.836 113.778 181.193 113.778 180.926C113.778 179.801 110.036 173.069 108.235 170.952C103.381 165.248 99.0516 161.773 83.8398 151.369C81.2079 149.569 79.9287 148.524 79.9287 148.172C79.9287 147.884 80.0971 147.649 80.3031 147.649C80.6615 147.649 87.2424 152.024 92.0028 155.427C93.2464 156.316 94.298 157.009 94.3398 156.967C94.4243 156.882 90.8676 147.105 90.7006 146.963C90.4432 146.744 82.3456 143.901 79.6443 143.081C76.0822 142 71.0137 141.65 68.9167 142.34ZM20.4204 143.3C19.2288 144.572 16.8244 148.454 15.5186 151.214C12.1502 158.334 10.1255 166.365 10.6457 170.541C10.9125 172.683 12.4258 175.71 13.2916 175.833C13.9137 175.922 13.9083 175.887 13.0115 173.979C11.397 170.545 11.6049 165.979 13.6717 159.497C15.4833 153.815 18.1391 148.368 20.8985 144.677C21.5926 143.749 22.0949 142.883 22.0144 142.752C21.7428 142.311 21.1582 142.512 20.4204 143.3ZM34.1892 145.442C26.0154 153.843 21.3332 163.426 21.3332 171.754C21.3332 173.23 21.4211 173.56 21.8446 173.671C22.3062 173.792 22.3879 173.441 22.6817 170.068C23.4011 161.813 26.8781 155.116 34.6301 147.054C37.3562 144.219 37.8051 143.63 37.3636 143.472C37.0732 143.368 36.7543 143.24 36.6553 143.188C36.5561 143.136 35.4464 144.15 34.1892 145.442ZM37.3448 146.09C32.9095 150.182 28.7765 155.641 26.5746 160.317C24.8455 163.988 24.1665 166.789 23.9765 171.037L23.8172 174.603L29.7573 177.078C33.0244 178.439 37.0427 180.118 38.6871 180.81L41.6763 182.067L41.6886 178.62C41.7096 172.701 43.9064 162.243 46.0707 157.759C47.7518 154.277 49.5916 152.569 55.8903 148.646L56.7411 148.117L55.8903 147.876C52.3095 146.865 40.6708 143.941 40.2271 143.941C39.9225 143.941 38.6254 144.908 37.3448 146.09ZM139.906 150.154C139.022 150.624 137.55 151.519 136.634 152.142C135.718 152.764 132.665 154.655 129.849 156.344C123.815 159.961 122.761 160.751 122.016 162.216C121.062 164.091 121.38 167.046 122.534 167.042C122.802 167.041 125.228 166.407 127.924 165.633C130.619 164.858 134.011 163.966 135.461 163.65C138.179 163.057 138.449 162.929 146.219 158.544C149.711 156.573 150.471 156.328 150.471 157.171C150.471 157.529 146.048 160.287 143.118 161.756C142.281 162.175 141.641 162.561 141.696 162.613C141.751 162.665 142.499 162.599 143.36 162.466C144.22 162.334 146.332 162.092 148.053 161.929C149.774 161.767 151.662 161.551 152.249 161.449C153.081 161.305 153.315 161.357 153.315 161.684C153.315 162.462 151.801 162.804 145.227 163.51C141.625 163.897 137.302 164.525 135.619 164.906C129.862 166.209 119.746 169.358 119.201 170.016C118.712 170.607 119.128 175.597 119.684 175.811C120.457 176.109 124.268 175.069 127.679 173.63C132.927 171.417 132.554 171.457 141.281 172.177C145.475 172.522 149.547 172.91 150.329 173.037C151.678 173.257 151.802 173.223 152.747 172.353C154.819 170.448 162.967 162.779 166.251 159.643C172.779 153.412 174.943 151.271 174.828 151.157C174.642 150.97 153.674 149.698 147.342 149.49L141.511 149.298L139.906 150.154ZM104.675 150.586C104.675 150.789 105.618 153.506 108.505 161.625C109.871 165.468 111.276 169.447 111.626 170.466C112.165 172.039 112.431 172.417 113.375 172.957C114.808 173.777 116.628 173.814 117.328 173.039C118.106 172.176 117.785 168.031 116.649 164.272C115.626 160.886 115.651 161.054 116.179 161.054C116.742 161.054 117.473 162.167 117.485 163.043C117.491 163.439 117.664 164.068 117.869 164.44C118.233 165.098 118.266 165.067 119.112 163.255C119.589 162.231 120.546 160.516 121.239 159.442C122.986 156.732 122.938 156.838 122.728 156.174C122.42 155.201 120.056 154.346 112.605 152.517C108.753 151.57 105.393 150.716 105.138 150.618C104.884 150.52 104.675 150.506 104.675 150.586ZM54.5887 171.757C53.466 174.043 53.2282 176.009 53.8702 177.695C54.3247 178.889 55.838 180.734 56.3625 180.734C57.0301 180.734 56.8361 179.814 55.9128 178.601C55.0472 177.464 54.8985 177.05 54.9044 175.792C54.9087 174.86 55.1784 173.687 55.6377 172.605C56.7351 170.021 56.7559 169.896 56.0863 169.896C55.65 169.896 55.2708 170.367 54.5887 171.757ZM5.68872 172.798C5.68872 173.842 7.63461 177.437 8.90095 178.734C10.6591 180.534 13.1289 181.608 15.958 181.802C18.1121 181.95 18.2558 181.925 18.1585 181.418C18.0751 180.985 17.6971 180.832 16.2738 180.656C11.9317 180.118 9.57053 178.449 7.68837 174.586C6.55002 172.25 5.68872 171.48 5.68872 172.798ZM129.05 174.451C122.579 177.15 121.605 177.744 118.281 181.013L115.229 184.014L116.178 187.313C117.334 191.333 117.833 194.884 117.71 198.225L117.618 200.743L116.04 199.699C115.034 199.035 113.924 197.915 112.977 196.612C112.161 195.487 111.335 194.357 111.142 194.101C110.909 193.791 110.148 193.573 108.876 193.452L106.96 193.268L107.127 194.489C107.266 195.511 107.191 195.802 106.665 196.279C106.112 196.781 105.698 196.84 103.152 196.775C101.565 196.735 99.6265 196.626 98.8443 196.532C97.6809 196.394 97.4869 196.43 97.7776 196.734C97.9733 196.938 98.1332 197.458 98.1332 197.89C98.1332 199.337 94.9258 201.018 89.1732 202.587C84.3908 203.891 78.2653 203.78 69.6887 202.234C61.0095 200.67 55.7979 198.635 52.4676 195.511L50.712 193.864L46.3338 195.392C40.4672 197.44 36.1854 199.056 27.9172 202.343L20.9898 205.097L44.415 212.872C61.8588 218.662 69.2197 220.972 73.2443 221.919C89.9568 225.852 105.927 227.824 111.195 226.605C111.988 226.421 112.708 226.341 112.794 226.427C112.88 226.514 112.688 227.587 112.368 228.812C112.048 230.037 111.786 231.825 111.786 232.787C111.786 234.682 112.268 237.78 112.62 238.147C112.74 238.272 114.937 237.55 117.503 236.542C127.678 232.544 146.989 224.826 153.315 222.229C156.992 220.719 166.208 216.976 173.795 213.911C189.67 207.497 194.12 205.649 207.644 199.861C213.042 197.551 218.198 195.366 219.103 195.005C220.009 194.645 220.693 194.294 220.625 194.225C220.231 193.83 189.927 187.323 183.751 186.307C181.326 185.908 179.018 185.527 178.622 185.459C178.042 185.36 177.344 185.815 175.066 187.775C169.786 192.318 165.614 194.878 162.985 195.191C161.918 195.317 161.325 195.215 160.327 194.73L159.042 194.106L157.956 194.822C156.615 195.706 154.63 196.166 153.326 195.894C151.777 195.571 151.182 194.288 151.182 191.272C151.182 189.03 151.268 188.659 152.246 186.675C153.414 184.306 156.215 181.359 158.301 180.306C159.612 179.644 159.941 179.278 159.564 178.899C159.394 178.729 158.919 178.808 158.279 179.114C157.384 179.542 157.214 179.55 156.844 179.179C156.322 178.655 155.66 178.908 152.977 180.656C149.3 183.051 145.612 187.956 145.526 190.562C145.478 192.02 145.982 191.716 146.641 189.891C147.842 186.568 150.971 182.935 154.258 181.05C155.107 180.562 155.891 180.163 156 180.163C156.109 180.163 155.556 180.79 154.772 181.556C152.979 183.307 151.159 186.109 150.609 187.966C150.123 189.608 150.049 193.17 150.479 194.302L150.77 195.072L149.595 194.914C148.949 194.827 147.826 194.454 147.099 194.085C145.176 193.108 143.08 189.867 142.378 186.784C141.806 184.274 141.873 181.645 142.528 180.845C142.751 180.573 143.957 179.684 145.209 178.869C147.842 177.155 150.135 175.18 149.841 174.878C149.729 174.764 149.095 174.808 148.43 174.977C147.572 175.196 147.116 175.196 146.855 174.98C146.346 174.556 146.397 174.174 146.963 174.174C147.223 174.174 147.374 174.111 147.298 174.035C147.074 173.811 137.2 173.032 134.695 173.041C132.612 173.049 132.111 173.174 129.05 174.451ZM5.78856 179.743C5.36815 180.842 8.99823 184.299 10.3599 184.095C11.3261 183.951 11.1617 183.348 9.99322 182.75C9.36773 182.43 8.30362 181.525 7.62806 180.738C6.31137 179.205 6.04883 179.063 5.78856 179.743ZM162.148 182.914C159.777 185.051 158.573 188.179 158.768 191.692C158.919 194.408 159.44 193.933 159.783 190.768C160.185 187.067 160.923 185.377 162.916 183.595C163.773 182.83 164.385 182.068 164.281 181.898C163.969 181.392 163.687 181.526 162.148 182.914ZM102.4 199.655C99.8185 200.482 95.1144 201.983 91.9465 202.993C88.7786 204.003 86.1865 204.916 86.1865 205.023C86.1865 205.13 86.5617 205.3 87.0205 205.401C87.8861 205.591 89.5247 205.125 100.978 201.433C104.028 200.449 106.971 199.524 107.518 199.377C108.088 199.224 108.552 198.901 108.605 198.621C108.76 197.817 107.478 198.03 102.4 199.655Z" />
</g>
</g>
<defs>
<filter id="filter0_gn_1124_15546" x="3.88872" y="44.6181" width="253.987" height="196.955" filterUnits="userSpaceOnUse" color-interpolation-filters="sRGB">
<feFlood flood-opacity="0" result="BackgroundImageFix"/>
<feBlend mode="normal" in="SourceGraphic" in2="BackgroundImageFix" result="shape"/>
<feTurbulence type="fractalNoise" baseFrequency="1.25 1.25" numOctaves="3" seed="6290" />
<feDisplacementMap in="shape" scale="3.5999999046325684" xChannelSelector="R" yChannelSelector="G" result="displacedImage" width="100%" height="100%" />
<feMerge result="effect1_texture_1124_15546">
<feMergeNode in="displacedImage"/>
</feMerge>
<feTurbulence type="fractalNoise" baseFrequency="3.3333332538604736 3.3333332538604736" stitchTiles="stitch" numOctaves="3" result="noise" seed="8744" />
<feColorMatrix in="noise" type="luminanceToAlpha" result="alphaNoise" />
<feComponentTransfer in="alphaNoise" result="coloredNoise1">
<feFuncA type="discrete" tableValues="0 0 0 0 1 1 1 1 1 1 1 1 1 1 1 1 1 1 1 1 1 1 1 1 1 1 1 1 1 1 1 1 1 1 1 1 1 1 1 1 1 1 1 1 1 0 0 0 0 0 0 0 0 0 0 0 0 0 0 0 0 0 0 0 0 0 0 0 0 0 0 0 0 0 0 0 0 0 0 0 0 0 0 0 0 0 0 0 0 0 0 0 0 0 0 0 0 0 0 0 "/>
</feComponentTransfer>
<feComposite operator="in" in2="effect1_texture_1124_15546" in="coloredNoise1" result="noise1Clipped" />
<feFlood flood-color="rgba(167, 167, 167, 0.5)" result="color1Flood" />
<feComposite operator="in" in2="noise1Clipped" in="color1Flood" result="color1" />
<feMerge result="effect2_noise_1124_15546">
<feMergeNode in="effect1_texture_1124_15546" />
<feMergeNode in="color1" />
</feMerge>
</filter>
<clipPath id="clip0_1124_15546">
<rect width="256" height="256" fill="white"/>
</clipPath>
</defs>
</svg>
