<svg viewBox="0 0 360 360" fill="currentColor" xmlns="http://www.w3.org/2000/svg">
    <g>
        <path fill-rule="evenodd" clip-rule="evenodd" d="M279.901 6.86966C278.739 7.63961 276.269 9.93821 274.412 11.9772L271.037 15.6852L266.886 15.9651C257.814 16.5766 248.085 20.6347 239.593 27.3496C237.546 28.9678 235.24 30.3786 234.171 30.6666C231.717 31.3272 228.999 33.8404 228.05 36.3258C226.346 40.7889 228.837 47.3832 234.332 52.9546C239.197 57.8875 251.79 65.7549 260.216 69.1263C266.121 71.4888 269.656 72.1786 274.886 71.9892C278.824 71.8465 279.751 71.6494 282.311 70.4097C285.771 68.7343 286.746 67.3515 287.277 63.3676C287.481 61.8426 287.964 58.5693 288.351 56.0943C289.635 47.8894 289.179 36.5944 287.261 29.0934L286.38 25.6504L288.508 22.4221C290.332 19.6546 290.842 19.1745 292.084 19.0543C295.379 18.7357 299.819 21.9181 303.184 27.0099C317.251 48.2953 326.679 100.363 330.453 177.594C331.744 204.017 332.777 257.474 331.997 257.464C331.771 257.462 330.582 257.155 329.355 256.783C324.179 255.213 313.228 252.502 312.997 252.733C312.262 253.468 315.03 254.41 325.736 257.07C331.072 258.396 332.261 258.884 332.261 259.751C332.261 260.762 333.91 260.979 334.14 259.998C334.254 259.512 335.503 259.747 339.911 261.084C343.004 262.023 346.422 263.112 347.505 263.505C349.706 264.303 351.161 264.425 351.161 263.812C351.161 263.321 348.917 262.508 340.586 259.981L334.286 258.07L334.19 251.582C333.921 233.187 333.079 197.498 332.7 188.394C329.297 106.566 320.078 51.4053 305.865 27.8325C302.364 22.0252 296.527 17.1864 293.009 17.1738C291.88 17.1697 291.817 17.0784 292.222 16.015C293.562 12.4902 291.976 8.26871 288.653 6.51551C285.69 4.95266 282.607 5.07731 279.901 6.86966ZM234.712 31.9909C231.82 32.9764 230.87 33.7954 229.616 36.3874C227.624 40.5022 229.816 46.152 235.698 52.0677C239.647 56.0376 241.73 57.5487 250.488 62.7948C259.582 68.242 266.784 70.7193 273.526 70.7193C278.442 70.7193 281.593 69.7423 283.802 67.5337C285.436 65.8993 285.525 65.6739 285.241 63.868C284.512 59.2384 280.019 52.0933 274.954 47.5092C271.481 44.3655 264.325 39.5203 259.488 37.0372L255.79 35.1391L254.188 37.5511C251.412 41.7334 251.576 46.323 254.63 49.891C258.606 54.5359 265.748 55.4679 270.848 52.0069C272.342 50.9926 272.62 50.9359 273.207 51.5227C273.794 52.1095 273.667 52.3165 272.129 53.2836C264.549 58.0491 255.574 55.7757 251.644 48.0942C249.864 44.6157 250.529 39.9487 253.325 36.2821C253.991 35.4091 254.458 34.6248 254.361 34.5393C253.637 33.8971 250.84 32.8216 247.87 32.0436C243.442 30.8839 238.026 30.8619 234.712 31.9909ZM156.053 44.6035C151.379 45.8293 147.553 47.7211 143.399 50.8608C137.745 55.1349 135.187 58.3789 129.163 68.9193C124.016 77.9251 119.552 83.3089 114.44 86.6767C112.775 87.7738 107.795 90.22 103.374 92.1118C90.1738 97.7607 85.249 101.038 81.3686 106.754C78.1169 111.545 77.0464 115.11 76.7827 122.019C76.5932 126.987 76.6792 127.933 77.5207 130.119C78.7852 133.404 81.1445 136.536 83.7806 138.429C84.9628 139.279 86.675 141.056 87.5858 142.378C88.4967 143.701 89.8538 145.369 90.6013 146.085C92.9048 148.292 92.1313 148.275 87.9251 146.028L83.8895 143.872L84.8759 142.822C85.6855 141.96 85.7489 141.702 85.2287 141.381C84.3319 140.826 80.2801 144.068 73.9711 150.389C67.1905 157.181 63.8402 161.462 54.9703 174.669C49.4888 182.832 41.9846 199.459 38.6209 210.894C38.0386 212.874 37.2646 215.429 36.901 216.572C36.0451 219.262 35.2342 227.416 35.564 230.019C35.7616 231.581 36.2453 232.494 37.6777 234.011C42.0755 238.667 51.1894 245.602 56.3315 248.205L58.7278 249.418L54.3065 254.016C42.6511 266.136 36.1558 276.467 33.1561 287.658C32.0855 291.653 32.0986 299.53 33.1822 303.144C34.5884 307.836 37.0261 311.89 40.6558 315.576L44.0357 319.009L38.5219 320.212C32.5994 321.505 24.0832 324.045 20.9687 325.448C18.6841 326.478 17.2648 328.577 17.2625 330.932L17.2607 332.619L23.4482 332.602C26.8516 332.592 39.7364 332.312 52.0817 331.979C79.8161 331.23 78.9319 331.123 84.9736 335.958C90.3754 340.281 102.444 345.697 112.128 348.145C137.403 354.534 171.382 349.909 201.062 336.04C204.681 334.348 205.398 334.147 205.853 334.696C206.509 335.485 206.659 335.352 203.111 337.122C199.079 339.132 196.282 340.79 196.519 341.028C196.629 341.137 198.19 340.486 199.989 339.58C206.198 336.453 216.005 333.792 225.599 332.631C230.415 332.048 245.211 332.046 250.729 332.626C255.495 333.129 255.447 333.144 259.506 329.873C263.12 326.96 269.034 323.946 274.014 322.479C277.244 321.528 279.342 321.245 284.673 321.042C289.672 320.851 291.311 320.645 291.311 320.206C291.311 319.337 287.935 319.006 284.353 319.525C282.63 319.774 281.165 319.924 281.099 319.857C281.032 319.791 282.232 318.737 283.764 317.515C287.066 314.884 290.453 310.808 292.053 307.543C293.004 305.604 293.453 305.15 294.62 304.949C298.229 304.327 298.146 304.287 298.778 306.969C299.099 308.331 299.88 312.583 300.514 316.419C302.288 327.168 302.577 328.608 303.147 329.521C303.775 330.527 305.026 330.68 304.652 329.705C304.512 329.339 304.178 327.264 303.909 325.092C302.93 317.167 301.139 307.816 300.077 305.076C299.748 304.226 299.804 304.206 305.036 303.338C306.768 303.051 308.383 302.89 308.623 302.98C309.456 303.293 311.856 310.983 314.714 322.494C315.697 326.454 316.702 330.413 316.947 331.291L317.392 332.888L322.239 332.878C324.905 332.873 327.216 332.683 327.376 332.457C328.151 331.356 326.323 316.662 324.135 306.401C323.407 302.984 322.811 300.007 322.811 299.787C322.811 299.566 325.292 298.585 328.323 297.606C336.869 294.846 348.99 289.932 349.571 288.993C349.732 288.733 349.718 288.519 349.54 288.519C349.362 288.519 345.452 289.917 340.851 291.626C327.622 296.538 311.793 301.144 310.625 300.422C310.375 300.268 309.927 300.342 309.628 300.587C308.777 301.285 292.81 303.721 284.111 304.481C266.081 306.055 241.777 306.293 230.085 305.01L225.386 304.494L225.248 302.088L225.111 299.682L229.523 300.039C236.057 300.568 270.05 300.412 279.386 299.809C310.217 297.819 331.763 293.772 345.016 287.48C347.282 286.405 349.414 285.186 349.753 284.772C350.093 284.358 350.267 284.019 350.141 284.019C350.014 284.019 347.651 285.026 344.89 286.256C331.468 292.237 312.631 295.887 284.336 297.99C276.163 298.597 232.682 299.043 228.366 298.563L225.046 298.194L223.822 295.044C220.62 286.794 217.166 282.627 210.812 279.345C205.625 276.666 204.49 276.365 180.836 271.388C175.037 270.168 169.027 268.65 163.961 267.126C162.847 266.791 161.328 266.429 160.586 266.32C158.945 266.082 155.342 265.124 154.771 264.775C154.185 264.416 155.99 263.817 159.911 263.069C163.671 262.352 170.065 260.66 175.26 259.008C177.143 258.409 179.358 257.919 180.181 257.919C182.034 257.919 187.151 256.676 188.843 255.815C190.042 255.205 190.292 255.284 194.131 257.481C196.347 258.749 198.161 259.933 198.161 260.113C198.161 260.292 197.402 260.711 196.473 261.043C191.901 262.682 181.033 267.041 181.172 267.181C181.72 267.729 233.513 281.688 233.635 281.321C233.718 281.073 233.999 280.869 234.259 280.869C234.519 280.869 237.287 280.071 240.409 279.094C243.531 278.118 255.401 274.558 266.786 271.182C278.171 267.806 289.662 264.339 292.322 263.477C297.015 261.956 297.193 261.85 298.348 259.879C299.84 257.333 308.59 238.423 310.041 234.612C310.633 233.053 311.758 230.522 312.539 228.987C313.321 227.451 317.064 218.499 320.857 209.094C325.812 196.812 327.581 191.956 327.138 191.859C326.66 191.755 269.654 198.193 267.094 198.641C266.768 198.698 265.436 201.276 264.132 204.369C254.12 228.133 247.927 242.468 247.495 242.876C247.215 243.141 241.583 245.122 234.979 247.278L222.973 251.198L220.804 248.873C218.818 246.744 210.495 240.253 204.471 236.133L202.006 234.448L189.171 234.672C182.111 234.795 175.627 234.937 174.761 234.989C170.56 235.239 163.804 232.868 161.271 230.255L159.83 228.768L161.817 227.401C169.48 222.129 173.876 212.591 173.3 202.486L173.074 198.52L175.799 197.135C183.429 193.257 194.509 184.426 200.705 177.284C202.141 175.629 203.365 174.324 203.426 174.384C203.486 174.445 203.318 175.284 203.052 176.249C202.426 178.517 202.773 182.969 203.748 185.18C204.695 187.328 205.143 187.055 204.496 184.724C203.209 180.088 204.198 174.681 207.646 167.509C211.55 159.386 212.896 152.264 212.4 142.334C211.387 122.039 211.541 118.131 213.953 102.894C215.312 94.3137 215.057 95.0193 216.797 95.0193C217.972 95.0193 218.633 94.6602 219.702 93.4425C225.764 86.5381 221.329 69.4521 210.404 57.622L206.936 53.8663L209.691 56.0142C213.403 58.9077 218.748 64.4913 220.969 67.7943C224.924 73.6776 226.059 76.8213 226.381 82.7815C226.678 88.2981 225.938 91.6672 223.593 95.4612C222.755 96.8179 222.178 98.0329 222.31 98.1612C222.805 98.6404 225.524 94.9185 226.454 92.4898C230.981 80.6584 225.817 67.6899 211.999 56.1901C203.631 49.2268 192.792 46.3747 184.865 49.0513L182.219 49.9441L180.648 48.5649C175.757 44.2705 164.336 42.4314 156.053 44.6035ZM190.29 76.4833C188.75 79.4614 183.8 84.6693 182.509 84.6693C182.022 84.6693 180.79 84.375 179.771 84.0154C178.14 83.4403 177.724 83.443 176.294 84.0406C175.401 84.4141 174.032 84.649 173.253 84.5631C171.841 84.4074 171.842 84.4051 173.636 84.0294C174.626 83.8219 175.722 83.425 176.073 83.1483C176.749 82.6132 179.711 78.1596 179.711 77.6776C179.711 77.521 178.783 78.2095 177.648 79.2081C176.514 80.2066 174.675 81.3712 173.561 81.7965C171.655 82.5246 171.461 82.525 170.243 81.805L168.949 81.0409L168.196 82.5174C166.517 85.8109 157.025 95.0868 154.87 95.5399C154.418 95.6349 153.596 94.9522 152.735 93.7669C151.164 91.6065 148.954 90.0733 147.405 90.0711C143.511 90.0648 139.211 95.3932 139.211 100.224C139.211 102.875 140.189 104.929 142.408 106.934C143.814 108.204 144.53 108.519 146.005 108.519C148.129 108.519 150.461 107.104 150.461 105.815C150.461 104.692 151.294 104.222 151.649 105.146C152.041 106.168 150.924 108.096 149.451 108.938L148.217 109.644L148.214 120.219C148.211 134.736 149.461 145.041 152.569 156.117C153.639 159.93 153.821 160.264 154.688 160C156.38 159.485 158.561 158.521 158.561 158.288C158.561 157.438 157.384 155.788 156.486 155.379C155.328 154.851 155.136 153.973 155.876 152.59C156.664 151.118 155.688 151.633 154.829 153.143C154.239 154.178 153.887 154.426 153.524 154.063C152.9 153.439 155.719 147.429 158.634 143.169C159.734 141.561 161.304 139.271 162.122 138.081C162.94 136.891 163.536 135.868 163.447 135.807C163.359 135.747 162.678 135.323 161.936 134.866C159.062 133.099 154.751 129.318 152.434 126.534C148.602 121.931 149.615 121.867 153.884 126.442C158.536 131.427 161.798 133.816 167.786 136.622C175.528 140.251 177.036 140.657 182.861 140.677C187.801 140.693 188.171 140.628 191.019 139.235C194.762 137.403 198.905 133.101 201.076 128.789C202.893 125.182 206.056 114.88 205.51 114.348C205.304 114.147 204.579 113.845 203.898 113.677C202.955 113.445 202.661 113.535 202.661 114.059C202.661 114.436 202.537 115.068 202.386 115.463C202.184 115.987 202.305 116.105 202.836 115.901C203.234 115.748 203.561 115.825 203.561 116.072C203.561 116.639 199.947 118.114 199.567 117.702C199.412 117.534 199.514 117.314 199.794 117.213C200.084 117.109 199.719 116.447 198.947 115.675C198.201 114.929 197.314 114.425 196.976 114.555C196.63 114.687 196.361 114.506 196.361 114.139C196.361 113.2 199.857 111.554 201.977 111.495C202.972 111.467 204.503 111.597 205.38 111.784L206.974 112.125L209.08 106.754C212.014 99.274 213.115 94.9914 212.318 94.1602C211.984 93.811 211.244 93.4735 210.673 93.4101C208.984 93.2215 207.156 92.3809 206.882 91.6668C206.741 91.3005 207.152 89.4235 207.793 87.4957C209.419 82.615 209.25 81.6291 207.426 85.3569C205.419 89.4609 203.031 92.0452 201.645 91.6132C199.303 90.8842 198.609 90.5049 198.089 89.671C197.545 88.8007 197.524 88.8007 196.439 89.6544C195.299 90.5508 194.111 90.7996 194.111 90.1417C194.111 89.9338 194.606 89.5378 195.212 89.262C196.489 88.6801 197.572 87.1708 198.144 85.1778C198.539 83.8008 198.508 83.8143 196.441 85.9212C195.233 87.1524 193.617 88.2832 192.649 88.5757C190.517 89.2192 190.034 88.6225 192.087 87.88C194.388 87.048 197.467 83.3458 198.568 80.0869C199.083 78.5614 199.418 77.2267 199.313 77.1214C199.207 77.0161 198.619 77.9116 198.006 79.1122C196.688 81.688 193.623 84.8907 191.411 86.004C189.601 86.9139 182.602 87.7014 183.072 86.9418C183.232 86.6817 183.73 86.4693 184.177 86.4693C185.508 86.4693 187.215 84.8124 188.708 82.071C190.069 79.5735 192.056 74.3643 191.76 74.0686C191.68 73.9881 191.018 75.0748 190.29 76.4833ZM208.996 81.3316C209.018 81.8559 209.125 81.9625 209.268 81.6039C209.398 81.279 209.382 80.8906 209.233 80.7412C209.083 80.5918 208.977 80.8573 208.996 81.3316ZM178.361 94.3987C174.885 95.5764 173.861 96.0849 173.861 96.6316C173.861 97.425 173.862 97.425 176.891 96.5443C178.558 96.0597 180.109 95.9157 181.572 96.1101C183.726 96.3958 184.324 96.034 183.198 95.1255C182.51 94.5693 179.286 94.0851 178.361 94.3987ZM142.248 95.3064C140.499 95.8153 141.582 96.363 143.823 96.1024C145.823 95.8702 146.376 95.9782 147.423 96.8062C149.043 98.0869 148.986 98.4424 147.056 99.0792C145.179 99.6988 142.361 102.348 142.361 103.494C142.361 103.932 142.604 104.532 142.901 104.829C143.526 105.454 146.223 105.494 147.536 104.897C148.186 104.601 147.767 104.516 146.02 104.591C144.159 104.67 143.491 104.518 143.11 103.927C142.448 102.899 144.12 101.069 146.834 99.8491L148.832 98.9514L149.851 100.23C151.181 101.898 151.78 101.268 150.726 99.31C149.264 96.5952 147.592 95.3559 145.194 95.2092C144.007 95.1367 142.681 95.1804 142.248 95.3064ZM89.7107 100.395C86.7313 101.975 82.7488 106.366 81.0514 109.942C78.6452 115.011 77.8532 118.882 78.0976 124.378C78.3104 129.16 79.228 131.917 81.617 134.955C82.7596 136.407 82.7717 135.728 81.6368 133.866C79.2401 129.936 78.701 123.357 80.2819 117.323C81.7916 111.557 84.3089 107.214 88.9687 102.332C90.4451 100.785 91.5706 99.5283 91.4698 99.5391C91.3685 99.5503 90.577 99.9351 89.7107 100.395ZM201.626 100.033C199.738 100.746 200.395 101.565 202.737 101.418C204.29 101.32 205.132 101.555 206.456 102.453C208.238 103.663 209.04 103.609 208.235 102.333C206.916 100.242 203.874 99.1836 201.626 100.033ZM167.561 105.785C167.561 106.582 169.803 108.857 171.13 109.407C172.225 109.86 172.975 109.832 175.254 109.254C178.083 108.536 179.305 108.655 178.4 109.56C177.304 110.656 178.56 113.019 180.239 113.019C181.144 113.019 182.411 111.581 182.411 110.551C182.411 109.758 182.441 109.757 183.313 110.547C184.463 111.587 184.961 111.113 184.283 109.623C183.213 107.275 178.37 106.473 173.926 107.908L171.638 108.647L170.05 107.435C169.176 106.769 168.461 106.031 168.461 105.796C168.461 105.561 168.258 105.369 168.011 105.369C167.763 105.369 167.561 105.556 167.561 105.785ZM192.888 108.519C192.37 109.633 191.706 111.728 191.413 113.174L190.879 115.804L189.38 115.523C188.521 115.362 187.759 115.44 187.594 115.706C187.253 116.257 189.296 117.133 191.141 117.228C192.439 117.294 192.45 117.274 193.284 113.019C193.745 110.668 194.057 108.238 193.977 107.619C193.846 106.614 193.73 106.71 192.888 108.519ZM170.486 113.019C169.37 113.303 169.58 113.372 171.697 113.416C173.105 113.445 174.383 113.267 174.536 113.019C174.857 112.5 172.527 112.5 170.486 113.019ZM174.879 116.507C174.713 116.94 174.567 118.826 174.556 120.698C174.538 123.696 174.687 124.332 175.803 126.021C178.055 129.43 183.132 130.697 186.88 128.785C188.653 127.881 192.869 123.47 192.634 122.765C192.563 122.55 190.993 121.887 189.145 121.291C184.112 119.666 178.722 117.465 177.512 116.54C176.162 115.507 175.269 115.496 174.879 116.507ZM175.491 119.38C174.884 122.416 176.758 126.32 179.432 127.589C182.396 128.995 185.623 128.389 188.15 125.952L189.613 124.54L187.25 123.948C184.49 123.258 180.182 121.113 177.846 119.266C176.944 118.552 176.109 117.969 175.99 117.969C175.87 117.969 175.646 118.604 175.491 119.38ZM180.058 119.568C181.917 120.87 185.851 122.391 188.074 122.665C190.049 122.91 189.866 122.796 186.363 121.599C184.205 120.861 181.836 119.945 181.098 119.564C179.366 118.668 178.777 118.67 180.058 119.568ZM210.362 143.299C210.277 149.808 209.209 157.826 207.772 162.744C207.574 163.425 207.639 163.522 208.041 163.141C208.772 162.449 210.166 156.781 210.737 152.181C211.291 147.719 211.309 143.671 210.786 141.144C210.474 139.634 210.406 139.981 210.362 143.299ZM76.4546 149.98C75.083 151.234 73.9607 152.515 73.9607 152.828C73.9607 153.449 77.7623 157.164 79.1636 157.913C80.015 158.368 82.3087 159.195 96.332 164.101C100.098 165.419 105.16 167.438 107.582 168.588C111.538 170.466 118.827 172.704 119.334 172.196C119.599 171.931 116.573 166.868 114.585 164.253C113.051 162.234 112.895 162.151 110.048 161.846C108.427 161.672 104.972 160.933 102.369 160.202C93.7058 157.769 87.8369 154.874 81.9671 150.137L78.949 147.701L76.4546 149.98ZM67.4672 160.095C65.6038 162.535 65.7019 162.911 68.8861 165.54C74.1979 169.925 75.5362 170.534 82.9607 171.94C87.7717 172.851 91.6633 173.953 102.086 177.354C105.303 178.403 109.151 179.625 110.636 180.068C112.121 180.512 115.012 181.5 117.06 182.265C121.436 183.899 121.505 183.463 117.459 179.765C115.672 178.132 113.723 176.986 110.13 175.459C100.28 171.27 93.1442 168.819 88.3607 167.98C85.3115 167.446 78.3689 164.878 75.6271 163.272C74.507 162.615 72.6773 161.165 71.5613 160.049C70.4449 158.932 69.4238 158.019 69.292 158.019C69.1601 158.019 68.3389 158.953 67.4672 160.095ZM159.461 165.915C158.347 166.493 157.192 166.978 156.893 166.993C156.526 167.011 156.719 167.997 157.494 170.057C158.122 171.727 158.693 173.151 158.763 173.22C159.023 173.483 164.411 170.933 164.411 170.548C164.411 170.112 161.767 164.738 161.592 164.817C161.533 164.844 160.574 165.338 159.461 165.915ZM59.7385 170.826L58.1068 173.284L59.4716 174.989C61.6303 177.686 64.5215 180.293 67.3021 182.049L69.8684 183.67L70.795 181.575C72.0181 178.811 72.4402 179.324 71.3354 182.232L70.4714 184.506L71.6536 184.977C73.2893 185.629 76.2413 186.239 81.6913 187.051C86.8658 187.821 94.8362 189.337 102.986 191.101C114.848 193.669 123.994 195.436 124.225 195.205C124.36 195.07 124.329 193.837 124.158 192.465C123.879 190.237 123.717 189.941 122.641 189.695C120.584 189.226 108.027 185.459 106.27 184.784C105.354 184.432 101.608 183.429 97.9453 182.556C94.2823 181.682 88.3495 180.166 84.7607 179.186C81.172 178.206 76.5226 176.99 74.4292 176.485C69.8846 175.387 66.4178 173.421 63.8902 170.507C62.87 169.331 61.8859 168.37 61.7027 168.369C61.5196 168.369 60.6358 169.475 59.7385 170.826ZM163.868 178.864L160.85 180.217L161.118 183.856C161.266 185.857 161.452 187.571 161.533 187.666C161.77 187.944 168.456 184.892 168.972 184.27C169.31 183.864 169.165 182.862 168.467 180.765C167.93 179.15 167.355 177.757 167.188 177.67C167.022 177.582 165.528 178.119 163.868 178.864ZM119.901 178.996C121.797 181.108 123.098 183.188 124.201 185.871C124.772 187.259 125.244 188.062 125.25 187.657C125.262 186.839 123.229 178.787 122.936 178.495C122.835 178.393 121.848 178.173 120.744 178.005L118.736 177.699L119.901 178.996ZM52.8134 181.082C52.0624 182.381 51.3289 183.894 51.184 184.443C50.5778 186.737 55.5935 192.041 62.0474 195.932C64.4081 197.355 66.5078 198.519 66.713 198.519C66.9187 198.519 67.2256 197.152 67.3957 195.482C67.5653 193.811 67.8007 192.039 67.9186 191.544C68.09 190.822 67.5986 190.353 65.4355 189.172C61.7473 187.158 57.1141 183.137 55.6979 180.72C55.0531 179.62 54.4474 178.719 54.352 178.719C54.257 178.719 53.5645 179.782 52.8134 181.082ZM169.586 191.682C168.843 192.127 166.579 193.17 164.555 193.999C161.68 195.177 160.815 195.743 160.604 196.582C159.939 199.23 158.39 202.703 157.288 204.016C156.261 205.24 156.217 205.398 156.986 205.097C157.481 204.904 158.797 204.444 159.911 204.075C161.024 203.706 164.401 202.189 167.414 200.704L172.893 198.003L172.642 196.348C171.734 190.371 171.745 190.388 169.586 191.682ZM69.458 193.406C69.4567 194.362 69.3271 196.793 69.17 198.809L68.8847 202.473L74.2352 202.774C79.5106 203.071 88.97 203.971 95.5607 204.804C97.417 205.039 99.9482 205.337 101.186 205.467C102.423 205.597 106.169 206.001 109.511 206.364C112.852 206.727 117.459 207.162 119.748 207.33L123.911 207.635L123.994 205.665C124.217 200.335 124.287 200.555 122.317 200.445C111.283 199.829 89.9461 196.676 80.1842 194.217C68.4347 191.259 69.4612 191.336 69.458 193.406ZM46.1251 194.953C44.0092 199.656 44.0015 199.458 46.3933 201.892C48.8777 204.421 52.8769 207.099 58.0087 209.673C62.1302 211.739 67.2832 213.897 67.5235 213.656C67.6126 213.568 67.5275 211.6 67.3354 209.285L66.9857 205.075L63.8357 203.913C57.8494 201.703 51.3338 197.377 48.7963 193.926L47.4256 192.062L46.1251 194.953ZM323.519 193.911C323.402 194.028 320.41 194.395 316.871 194.726C313.332 195.057 309.423 195.435 308.186 195.566C306.948 195.698 301.379 196.222 295.811 196.731C290.242 197.24 283.863 197.851 281.636 198.088C279.408 198.325 276.137 198.648 274.367 198.806C271.469 199.065 271.094 199.211 270.599 200.269C270.297 200.916 268.477 205.191 266.555 209.769C264.634 214.348 261.842 220.929 260.352 224.394C258.862 227.859 255.373 236.061 252.599 242.619C249.825 249.178 245.785 258.696 243.622 263.769C241.459 268.843 239.546 273.45 239.37 274.007C239.194 274.563 238.858 275.019 238.624 275.019C238.138 275.019 236.415 277.687 236.413 278.444C236.412 278.739 239.603 277.974 244.173 276.584C251.818 274.26 281.321 265.208 291.187 262.161C294.976 260.99 296.378 260.349 296.794 259.597C297.098 259.046 298.491 256.063 299.888 252.969C301.285 249.876 304.787 242.514 307.67 236.61C310.552 230.706 312.911 225.778 312.911 225.658C312.911 225.538 313.518 224.127 314.261 222.523C315.003 220.919 315.611 219.536 315.611 219.449C315.611 219.363 316.522 217.368 317.636 215.017C318.749 212.665 319.661 210.317 319.661 209.799C319.661 209.281 319.853 208.505 320.088 208.075C321.566 205.374 324.643 198.379 325.211 196.427L325.885 194.11L324.809 193.904C324.217 193.791 323.636 193.794 323.519 193.911ZM126.021 202.794C125.821 206.012 125.369 211.074 125.017 214.044C124.666 217.014 124.395 220.153 124.416 221.019C124.447 222.321 124.556 222.126 125.051 219.894C125.927 215.936 126.706 206.132 126.535 201.219L126.386 196.944L126.021 202.794ZM264.527 205.607C260.89 215.318 255.804 228.076 252.373 236.094C250.573 240.302 247.943 246.579 246.529 250.044C241.817 261.591 236.762 273.438 236.304 274.007C235.966 274.426 236.124 274.569 236.924 274.569C237.877 274.569 238.256 273.928 240.319 268.832C247.856 250.209 255.176 232.352 256.874 228.444C257.95 225.969 259.664 221.877 260.681 219.351C261.699 216.824 264.028 211.408 265.857 207.313L269.183 199.869H267.93C266.736 199.869 266.573 200.144 264.527 205.607ZM170.036 206.86C165.767 208.741 159.224 210.711 155.186 211.33C152.958 211.671 150.799 212.082 150.387 212.243C149.551 212.57 144.854 217.812 145.14 218.099C145.383 218.342 153.469 217.187 157.492 216.334C160.547 215.687 167.025 213.682 170.136 212.42C171.393 211.909 171.652 211.515 172.081 209.448C172.821 205.884 172.673 205.697 170.036 206.86ZM41.5549 206.701C41.5513 206.78 40.9465 208.566 40.2107 210.669C38.7419 214.869 38.678 215.169 39.254 215.169C39.4705 215.169 40.4326 215.893 41.3915 216.778C43.9768 219.163 50.1557 222.829 55.5283 225.166C60.6407 227.389 68.5855 230.019 70.1893 230.019H71.1784L70.3337 227.23C69.8689 225.696 69.3608 223.584 69.2038 222.538C68.9248 220.677 68.8703 220.626 66.6023 220.114C63.3218 219.373 58.5797 217.579 54.3857 215.493C50.0698 213.345 47.602 211.725 44.1482 208.771C42.7249 207.553 41.558 206.622 41.5549 206.701ZM69.4634 211.243C69.4661 212.782 70.0273 216.55 70.8359 220.457L71.3246 222.819L78.1552 222.812C95.135 222.794 109.633 221.887 118.602 220.284L122.518 219.583L122.789 217.489C122.938 216.337 123.154 214.938 123.269 214.382C123.476 213.377 123.436 213.369 118.182 213.367C109.62 213.364 76.3466 211.012 70.6982 210.011C69.5584 209.809 69.4607 209.906 69.4634 211.243ZM36.8317 220.957C36.6737 221.363 36.4289 223.459 36.2872 225.615L36.0298 229.536L37.5575 230.975C41.8334 235.003 50.0054 238.951 58.3646 241.028C63.4586 242.293 72.8893 243.969 74.917 243.969C76.2269 243.969 76.2305 243.963 75.5546 242.656C75.1811 241.933 74.4638 240.242 73.9607 238.898L73.0463 236.454L69.2722 235.926C64.2538 235.224 59.6044 233.974 53.7845 231.764C47.5246 229.387 44.3053 227.394 40.352 223.448C37.8028 220.904 37.0576 220.376 36.8317 220.957ZM165.108 220.533C164.758 221.1 157.788 222.696 152.173 223.494C147.18 224.203 140.561 224.389 140.561 223.82C140.561 223.627 140.893 222.969 141.299 222.357C141.705 221.745 139.775 223.472 137.011 226.194L131.986 231.144L133.911 231.735C138.233 233.061 152.318 230.054 159.911 226.185C162.013 225.114 166.211 221.377 166.211 220.577C166.211 220.006 165.452 219.976 165.108 220.533ZM123.946 223.532C123.968 224.056 124.075 224.163 124.218 223.804C124.348 223.479 124.332 223.091 124.183 222.941C124.033 222.792 123.927 223.057 123.946 223.532ZM118.061 226.676C110.8 228.457 91.8518 230.349 80.2841 230.448C76.4555 230.48 73.2232 230.607 73.1008 230.729C72.9784 230.851 73.2493 231.906 73.7024 233.073C74.1556 234.24 75.1951 237.118 76.0127 239.469C76.8299 241.821 77.7826 243.924 78.1291 244.144C78.9485 244.665 84.9344 242.688 97.2023 237.846C106.843 234.041 110.439 232.777 116.936 230.91C118.916 230.341 120.663 229.756 120.819 229.61C120.974 229.464 121.236 228.585 121.402 227.657C121.742 225.741 121.801 225.758 118.061 226.676ZM155.881 230.256C153.575 231.231 147.526 232.788 143.486 233.446L141.686 233.74L143.036 234.126C147.787 235.485 165.799 235.837 165.75 234.571C165.744 234.418 164.733 233.852 163.503 233.311C161.976 232.641 160.965 231.819 160.319 230.724C159.229 228.878 159.161 228.871 155.881 230.256ZM283.492 233.181C281.71 234.745 280.927 236.572 281.441 237.963C281.97 239.392 284.91 239.853 286.923 239.017C288.81 238.232 289.876 236.729 290.023 234.801C290.257 231.73 286.238 230.769 283.492 233.181ZM284.685 234.057C283.398 234.841 282.903 236.259 283.7 237.33C284.606 238.548 286.67 237.311 287.494 236.487C288.467 235.514 288.745 233.937 287.494 233.536C286.599 233.25 285.483 233.571 284.685 234.057ZM130.024 234.458C129.265 235.686 127.035 242.549 126.202 246.219C125.192 250.672 124.327 259.195 124.853 259.52C125.02 259.623 125.939 259.824 126.896 259.965C127.853 260.107 129.851 260.412 131.336 260.643C132.821 260.874 134.151 261.064 134.293 261.066C134.434 261.068 134.37 259.702 134.151 258.032C133.719 254.748 133.994 246.458 134.771 239.318C135.169 235.657 135.146 234.787 134.646 234.47C133.849 233.965 130.334 233.956 130.024 234.458ZM190.061 235.926C183.254 236.083 176.806 236.421 175.73 236.677C172.62 237.418 171.23 240.079 170.864 245.994C170.668 249.145 170.771 249.847 171.688 251.616C173.02 254.187 175.948 256.193 178.763 256.463C180.132 256.594 181.979 256.316 184.187 255.645C187.266 254.71 187.447 254.59 186.436 254.153C185.415 253.711 185.477 253.665 187.298 253.52C189.765 253.323 191.916 254.344 199.869 259.485C203.13 261.594 206.168 263.319 206.618 263.319C207.59 263.319 208.678 262.52 209.288 261.356C209.776 260.428 209.075 258.379 208.269 258.373C208.012 258.371 205.886 256.776 203.544 254.829C200.941 252.666 197.668 250.477 195.123 249.2C192.834 248.05 190.961 246.995 190.961 246.854C190.961 246.294 194.053 247.303 197.036 248.836C199.026 249.858 201.206 251.497 202.957 253.287C204.481 254.845 206.019 256.119 206.375 256.119C206.73 256.119 207.407 256.554 207.878 257.085C211.033 260.639 214.495 261.513 217.855 259.605C219.586 258.621 219.622 258.554 218.977 257.467C218.561 256.765 218.878 256.968 219.824 258.01C221.579 259.944 223.621 260.887 224.492 260.164C224.807 259.903 225.318 259.077 225.628 258.328C226.131 257.113 226.079 256.813 225.147 255.531C222.293 251.607 217.405 246.395 214.586 244.269C211.557 241.985 203.817 236.452 202.886 235.905C202.638 235.759 196.867 235.769 190.061 235.926ZM118.659 238.02C116.883 239.605 114.043 242.963 111.883 246.031C110.278 248.313 108.995 252.103 108.736 255.332L108.493 258.369L110.464 258.404C111.549 258.423 112.739 258.495 113.111 258.564C113.482 258.633 114.849 258.827 116.148 258.995C118.505 259.299 118.511 259.297 118.515 258.047C118.528 253.775 119.774 243.675 121.015 237.782C121.409 235.911 120.974 235.955 118.659 238.02ZM142.649 237.782C141.913 241.901 141.421 249.853 141.546 255.627L141.686 262.111L145.511 262.918C150.605 263.994 150.625 263.993 149.831 262.757C148.087 260.041 147.536 256.554 147.536 248.244C147.536 243.105 147.731 239.615 148.07 238.695C148.599 237.261 148.588 237.241 146.945 236.785C143.862 235.929 142.943 236.142 142.649 237.782ZM202.211 241.667C202.211 241.885 203.426 242.788 204.911 243.672C206.396 244.557 207.611 245.213 207.611 245.13C207.611 244.885 202.83 241.269 202.507 241.269C202.344 241.269 202.211 241.448 202.211 241.667ZM103.436 242.711C98.2571 245.45 85.4654 250.269 83.3747 250.269C82.652 250.269 82.0607 250.455 82.0607 250.681C82.0607 251.163 87.6115 256.119 88.1501 256.119C88.3508 256.119 88.8562 256.428 89.2738 256.806C89.8327 257.312 91.5863 257.567 95.9464 257.775C99.383 257.94 101.858 257.888 101.854 257.651C101.844 257.071 100.977 255.802 100.961 256.344C100.953 256.592 100.776 256.525 100.567 256.195C99.8488 255.062 103.988 243.755 105.452 242.85C105.983 242.521 106.072 241.71 105.573 241.739C105.387 241.75 104.426 242.187 103.436 242.711ZM196.012 243.169C196.113 243.486 198.489 244.959 201.291 246.444C205.324 248.581 207.157 249.894 210.084 252.744C212.117 254.724 214.314 257.053 214.966 257.919C215.951 259.229 216.152 259.339 216.156 258.571C216.163 257.345 211.358 251.729 208.378 249.479C204.216 246.336 195.621 241.951 196.012 243.169ZM51.4607 244.59C51.4607 245.636 65.0458 251.149 73.3105 253.457C86.3717 257.103 89.6923 257.725 86.6629 255.955C84.1744 254.501 81.8555 252.759 80.3579 251.22C78.9895 249.813 78.2771 249.454 76.4357 249.244C69.9044 248.495 54.7759 245.595 52.1501 244.588C51.7708 244.442 51.4607 244.443 51.4607 244.59ZM208.511 245.939C208.511 246.033 208.865 246.387 209.298 246.727C210.012 247.286 210.028 247.27 209.468 246.557C208.88 245.807 208.511 245.569 208.511 245.939ZM212.43 249.821C213.7 251.429 215.6 253.554 216.651 254.544C218.498 256.282 218.475 256.227 215.996 252.984C214.584 251.136 212.685 249.01 211.775 248.26C210.222 246.98 210.261 247.075 212.43 249.821ZM173.411 255.797C173.782 256.169 174.592 256.621 175.211 256.802C176.64 257.22 176.318 256.898 174.311 255.902C173.096 255.3 172.89 255.276 173.411 255.797ZM295.811 267.172C289.307 269.995 262.295 278.413 245.444 282.867C241.131 284.008 237.361 285.141 237.066 285.385C236.701 285.689 234.824 285.327 231.183 284.251C217.803 280.297 216.132 279.848 215.848 280.132C215.21 280.77 216.731 281.47 222.975 283.413C233.663 286.737 235.961 287.275 237.275 286.76C237.913 286.51 243.093 285.07 248.786 283.559C264.054 279.508 273.41 276.764 285.827 272.699C299.429 268.247 301.808 267.14 299.599 266.292C298.661 265.932 298.674 265.929 295.811 267.172ZM234.601 277.524C234.309 278.407 234.177 279.236 234.308 279.366C234.572 279.63 235.961 277.131 235.961 276.392C235.961 275.311 235.092 276.034 234.601 277.524ZM132.461 298.877C129.862 299.336 124.192 300.634 119.861 301.761C86.8532 310.347 85.2107 310.811 85.2107 311.536C85.2107 311.78 85.5653 311.878 85.9982 311.755C86.4311 311.63 90.4307 310.577 94.8857 309.414C99.3407 308.25 106.226 306.441 110.186 305.392C117.943 303.34 131.527 300.098 135.723 299.299C137.147 299.027 138.311 298.617 138.311 298.387C138.311 297.858 138.15 297.872 132.461 298.877ZM225.179 308.615C224.897 310.061 224.554 311.852 224.417 312.594C224.28 313.337 223.552 315.261 222.801 316.869C221.193 320.314 215.799 325.932 210.086 330.114C208.106 331.564 206.396 332.827 206.286 332.922C206.176 333.017 206.488 333.496 206.978 333.987C207.867 334.875 207.888 334.876 212.128 333.997C214.47 333.512 218.688 332.817 221.501 332.454C224.315 332.09 226.76 331.624 226.935 331.419C227.109 331.213 227.785 328.614 228.437 325.644C231.919 309.771 232.499 306.959 232.326 306.797C232.221 306.7 230.686 306.477 228.914 306.303L225.692 305.986L225.179 308.615ZM59.4014 310.598C56.7775 311.243 55.1692 312.63 53.7242 315.493C52.5889 317.741 52.1155 318.214 50.1481 319.06C48.9011 319.597 44.5865 320.741 40.5608 321.602C36.5347 322.464 31.4173 323.765 29.1884 324.495C26.9596 325.224 24.2897 326.038 23.2561 326.304C21.3125 326.803 19.0607 328.922 19.0607 330.251C19.0607 331.005 22.0771 330.991 58.2823 330.071L69.8288 329.777L69.9976 325.686C70.1254 322.581 70.4471 320.919 71.3323 318.792L72.4982 315.989L70.867 315.69C69.6857 315.473 68.6152 314.729 66.9857 312.992C64.499 310.341 62.7224 309.78 59.4014 310.598ZM231.69 319.232C231.525 320.283 230.9 323.127 230.3 325.55C228.666 332.157 228.516 331.814 232.923 331.546C234.965 331.422 236.976 331.309 237.392 331.294C238.011 331.274 237.739 330.402 235.895 326.493C234.656 323.866 233.407 320.728 233.12 319.518C232.833 318.309 232.461 317.319 232.294 317.319C232.127 317.319 231.855 318.18 231.69 319.232Z" />
        <path d="M282.435 234.38L282.139 232.602C282.08 232.247 282.404 231.948 282.754 232.035L285.044 232.608C285.249 232.659 285.464 232.576 285.581 232.4L287.154 230.041C287.413 229.653 288.015 229.8 288.067 230.264L288.337 232.693" stroke="#768E78" stroke-width="1.5" stroke-linecap="round" stroke-linejoin="round"/>
    </g>
</svg>
