<svg viewBox="0 0 256 256" fill="currentColor" xmlns="http://www.w3.org/2000/svg">
<g filter="url(#filter0_gn_1124_15544)">
<path fill-rule="evenodd" clip-rule="evenodd" d="M119.302 27.6235C116.476 28.2374 113.204 29.8657 111.388 31.5598C110.545 32.3474 109.301 33.1392 108.475 33.4141C105.255 34.4864 103.064 36.5476 101.348 40.1204C99.8474 43.242 99.3634 46.1018 99.3634 51.8405C99.3634 54.5245 99.2121 57.448 99.0271 58.3375C98.8423 59.2267 97.6253 62.1514 96.3231 64.8367C88.0857 81.8213 84.9051 96.8563 87.6294 105.931L88.0522 107.339L69.584 107.49C51.5806 107.637 48.0706 107.813 43.5822 108.795L42.7451 108.978V101.219V93.4608L52.2576 93.2557C62.3043 93.0394 71.5075 92.5591 73.0329 92.1719C73.8298 91.9696 73.9363 91.8179 73.8694 90.98C73.6161 87.8053 60.5732 54.6521 58.9294 53.0043C57.9526 52.0254 53.7577 51.5717 43.8105 51.3691C36.4888 51.2199 33.8594 51.2787 30.5469 51.6669C28.2746 51.9333 26.1797 52.2418 25.8917 52.3525C25.026 52.6854 23.9378 55.1476 18.4866 69.1086C13.2744 82.4581 10.3978 90.6648 10.676 91.3916C10.7673 91.6299 11.2739 91.8972 11.802 91.9857C13.9885 92.3519 21.7111 92.7727 34.2219 93.2072C36.1473 93.2743 37.8939 93.3375 38.103 93.3479C38.3983 93.3628 38.482 95.3011 38.4768 101.987L38.4701 110.607L37.0936 111.523C31.5167 115.231 27.7641 127.95 27.0214 145.66L26.818 150.505L25.251 151.2L23.6839 151.894L23.9274 154.419C24.0614 155.808 24.1092 157.005 24.034 157.081C23.9585 157.156 22.0079 157.478 19.699 157.796C13.5444 158.643 6.41168 159.913 6.08536 160.22C5.55784 160.716 6.05645 160.744 8.19577 160.337C10.6498 159.871 20.0613 158.502 22.9077 158.197C24.6808 158.007 24.8224 157.938 24.6763 157.337C24.2382 155.534 24.1646 152.693 24.5423 152.185C25.3526 151.095 32.0336 149.832 40.3099 149.205C46.5221 148.734 58.3139 147.461 61.3479 146.933C66.7361 145.996 74.1613 144.897 74.2827 145.019C74.3527 145.089 74.1278 145.786 73.7826 146.568L73.1549 147.99L74.0073 148.736C74.4757 149.146 75.283 149.715 75.8011 149.999L76.7429 150.516L75.1433 154.221C72.541 160.25 70.4455 167.182 70.4455 169.762V170.508L67.4137 169.17C55.9895 164.13 44.5009 162.432 37.6997 164.777C34.1531 166 30.0833 169.214 28.8085 171.796L28.2246 172.979L28.0271 169.742C27.9184 167.962 27.8295 165.865 27.8295 165.083C27.8295 162.994 27.0533 160.815 25.815 159.43C24.6215 158.093 24.7061 158.403 26.0975 160.462C26.9343 161.7 27.0223 162.097 27.2786 165.802C27.4311 168.003 27.4664 172.207 27.3574 175.144C27.1796 179.934 27.225 180.761 27.7967 183.17C28.4389 185.874 30.0084 189.67 31.1484 191.275L31.7636 192.141L31.0903 192.452C30.7198 192.623 28.989 193.159 27.2436 193.642C23.2733 194.741 22.789 195.44 26.682 194.453C28.2338 194.059 30.2571 193.658 31.1779 193.561L32.8521 193.385L34.5263 195.047C37.2361 197.739 47.2326 207.185 49.4118 209.114C50.5167 210.092 51.457 210.992 51.5018 211.113C51.5955 211.368 51.0345 211.32 44.4193 210.512C37.9036 209.716 24.4471 207.549 22.5786 206.995C22.2858 206.908 22.0459 206.969 22.0459 207.13C22.0459 207.489 22.368 207.571 27.6265 208.543C33.3684 209.605 40.5772 210.674 47.2728 211.459L52.8661 212.114L54.9588 213.684C56.1101 214.548 57.0519 215.329 57.0519 215.42C57.0519 215.512 55.648 215.829 53.9318 216.126C48.7101 217.031 43.0139 218.503 40.7665 219.529C37.5304 221.007 35.7786 223.454 36.2535 225.833C36.5485 227.313 38.5554 229.273 40.9842 230.454C44.0406 231.94 46.0098 232.358 49.7463 232.316C53.102 232.278 53.9726 232.09 65.7273 228.86C71.0908 227.386 72.3538 226.823 74.3655 225.01C75.1886 224.268 75.9989 223.661 76.1667 223.661C76.3341 223.661 77.0674 224.003 77.7961 224.42C79.4706 225.38 80.3159 225.378 82.6915 224.407L84.6001 223.628L90.7696 225.149C96.6893 226.609 96.9976 226.722 98.3796 227.943C103.188 232.189 111.84 236.534 120.552 239.075C124.23 240.148 126.635 240.35 128.488 239.741C129.799 239.311 145.773 230.967 158.884 223.864C163.049 221.607 163.974 221.22 165.2 221.22C167.093 221.22 167.094 221.769 165.204 224.29C163.302 226.826 159.8 229.551 155.166 232.101C153.079 233.249 150.829 234.649 150.166 235.213C147.161 237.765 146.64 242.341 149.058 244.945C149.974 245.931 151.46 245.856 152.682 244.761C153.532 244 153.67 243.656 153.789 242.011C153.954 239.719 154.209 239.467 159.068 236.785C164.235 233.935 167.191 231.868 169.399 229.564C171.712 227.152 172.779 225.433 173.476 222.997L173.971 221.266L175.859 221.102C178.532 220.871 189.237 220.342 195.706 220.12C200.6 219.953 206.381 220.213 211.012 220.809C212.032 220.941 212.36 220.899 212.143 220.665C211.073 219.507 196.494 219.233 182.511 220.107C178.099 220.383 174.387 220.545 174.262 220.467C174.136 220.389 173.948 219.22 173.844 217.868L173.655 215.411L176.072 213.096C179.784 209.541 182.417 205.06 183.667 200.165C184.398 197.305 184.523 197.262 192.053 197.284C197.321 197.3 198.734 197.413 202.543 198.124C204.964 198.575 207.86 198.945 208.979 198.945C211.26 198.945 211.378 198.835 211.389 196.708C211.396 195.317 212.05 193.677 213.647 191.043C215.409 188.134 216.573 184.327 217.015 180.026C217.127 178.936 217.408 177.15 217.64 176.06C217.871 174.969 218.206 172.964 218.383 171.604C218.56 170.244 218.838 168.666 219.001 168.097C219.4 166.7 219.374 164.64 218.937 163.179C218.511 161.752 218.961 158.467 219.968 155.672C220.418 154.421 220.634 152.897 220.742 150.212L220.892 146.487L219.922 145.515C218.956 144.546 218.944 144.544 216.613 144.74C205.018 145.719 204.867 145.745 196.315 148.231C190.594 149.893 188.889 150.317 185.661 150.877C184.154 151.139 182.702 151.422 182.434 151.507C182.03 151.634 181.833 151.049 181.277 148.069C179.546 138.78 175.945 123.079 174.123 116.872C173.706 115.451 173.394 114.258 173.431 114.221C173.467 114.185 175.96 114.416 178.97 114.734C188.201 115.71 193.493 115.981 203.316 115.979C213.32 115.977 216.541 115.776 225.921 114.567C229.146 114.151 232.707 113.795 233.836 113.775C234.964 113.756 236.298 113.623 236.8 113.48C238.553 112.984 230.187 113.502 224.19 114.262C210.586 115.985 197.774 116.074 182.16 114.554C179.565 114.301 176.501 114.009 175.352 113.906C173.337 113.724 173.247 113.68 172.838 112.698C172.111 110.954 172.19 110.615 173.606 109.421L174.944 108.292L205.263 108.334C221.939 108.356 235.62 108.259 235.665 108.118C235.784 107.749 232.595 107.48 227.613 107.439C223.381 107.404 223.295 107.39 223.199 106.717C223.137 106.276 222.857 105.996 222.417 105.933C221.783 105.843 221.732 105.68 221.732 103.758C221.732 102.254 221.862 101.572 222.204 101.288C222.932 100.682 222.641 99.3759 221.732 99.1647C221.086 99.0146 220.957 98.7888 220.876 97.672C220.811 96.7706 220.939 96.1808 221.283 95.7996C221.559 95.4936 221.737 94.9929 221.678 94.6865C221.576 94.1556 220.668 94.1266 201.942 94.0582C186.407 94.0012 182.153 94.0683 181.551 94.3795C180.825 94.7549 180.794 94.8836 180.868 97.1975C180.969 100.373 181.113 100.913 181.932 101.169C182.904 101.473 183.063 101.84 183.069 103.785C183.073 105.375 183.014 105.521 182.302 105.7C181.878 105.807 181.376 106.234 181.188 106.649C180.858 107.374 180.732 107.403 177.969 107.403C175.628 107.403 175.124 107.324 175.258 106.976C175.348 106.74 175.587 105.414 175.789 104.028C176.208 101.156 176.011 97.1789 175.315 94.4351C174.259 90.2718 170.341 83.9713 168.078 82.7983C166.445 81.9522 163.671 79.057 162.021 76.4795C159.068 71.8649 156.287 64.9264 154.14 56.8155C150.771 44.0863 146.841 37.1557 140.365 32.5237C138.017 30.8439 133.42 28.6167 130.869 27.9228C128.229 27.2049 121.973 27.0428 119.302 27.6235ZM116.105 40.3902C116.105 41.1482 118.49 45.5788 119.671 47.0153C121.207 48.8846 123.035 50.2581 124.962 50.9919C127.334 51.8954 127.429 51.2632 125.146 49.7723C123.166 48.4791 119.921 45.4009 118.815 43.7665C118.479 43.2716 117.867 42.2146 117.455 41.4173C116.724 40.0069 116.105 39.5358 116.105 40.3902ZM114.149 43.4565C111.48 47.7498 107.785 51.9317 104.776 54.0656C103.277 55.1281 103.078 55.381 103.345 55.8814C103.932 56.9796 104.811 61.7895 105.149 65.7505C105.527 70.1811 106.081 71.9296 108.047 74.898C109.872 77.654 112.212 79.7884 114.83 81.0853C117.006 82.1624 117.303 82.228 119.896 82.2051C123.833 82.17 127.154 80.8891 131.836 77.6006C134.175 75.958 134.505 75.9303 134.268 77.3983C133.954 79.3396 132.499 81.8582 130.585 83.7735C128.457 85.9037 126.502 86.9592 124.685 86.9592H123.411V88.1382C123.411 90.0457 122.84 92.5432 122.205 93.4101C121.652 94.1662 121.647 94.244 122.133 94.67C124.154 96.4453 128.106 96.9003 132.219 95.8314C134.929 95.1274 139.544 93.1556 139.544 92.7019C139.544 92.5508 139.271 92.055 138.938 91.6003C138.083 90.4347 137.212 86.611 136.665 81.6193C135.904 74.6862 135.911 74.6002 137.379 72.3263C138.078 71.2427 138.722 70.0069 138.808 69.58C139.358 66.8735 139.28 66.9635 140.972 67.0739C143.073 67.2115 144.094 66.6147 145.584 64.3783C147.53 61.4576 147.648 58.6985 145.891 57.2164C144.75 56.2543 143.689 56.2418 142.156 57.1722L140.964 57.896L139.569 56.9034C138.802 56.3572 137.709 55.6737 137.14 55.3841C135.804 54.7039 129.195 52.5545 129.195 52.8002C129.195 52.903 130.153 53.4547 131.325 54.0259C133.316 54.9956 133.944 55.5299 133.095 55.5299C132.896 55.5299 131.391 54.901 129.751 54.1321C126.868 52.7816 126.7 52.7416 124.785 52.9469C123.694 53.0641 122.802 53.0788 122.802 52.9796C122.802 52.8804 123.233 52.5762 123.759 52.3034L124.716 51.8072L123.074 50.9083C120.207 49.3384 117.693 46.3749 116.288 42.9109L115.578 41.1591L114.149 43.4565ZM31.0257 52.3629C26.3042 53.0293 26.0019 53.1215 25.5261 54.0439C24.2102 56.5949 15.2244 79.7369 12.931 86.4816L11.3956 90.9965L12.2309 90.8094C14.9358 90.2037 24.7746 89.912 43.3539 89.8864C62.7168 89.8595 69.0672 90.0664 72.1958 90.8259C72.6929 90.9464 72.8807 90.8564 72.8807 90.4966C72.8807 89.1348 64.3782 66.8805 60.1896 57.2799C58.9109 54.3487 58.331 53.3454 57.8473 53.2267C55.1978 52.5759 52.5355 52.4166 42.8973 52.3312C36.8702 52.2778 31.528 52.2921 31.0257 52.3629ZM107.28 53.5749C106.187 54.05 104.843 55.1488 104.843 55.5669C104.843 55.6965 105.63 55.3844 106.593 54.8733C108.206 54.0171 108.528 53.9548 110.702 54.0762C112.435 54.1733 113.061 54.1089 113.061 53.834C113.061 53.6277 112.845 53.376 112.58 53.274C111.67 52.924 108.342 53.1129 107.28 53.5749ZM115.118 57.2082C115.45 59.1422 115.275 62.5637 114.759 64.2264C113.994 66.691 114.103 67.3879 115.335 67.9036C115.915 68.1468 116.6 68.3457 116.857 68.3457C117.677 68.3457 117.357 67.7577 116.295 67.3129C114.915 66.7349 114.845 66.5509 115.358 64.8403C115.933 62.9274 115.922 58.1331 115.341 56.9031L114.909 55.9876L115.118 57.2082ZM124.88 56.8948C122.089 58.7955 122.47 62.8136 125.444 62.8435C127.929 62.8685 128.425 59.5871 126.167 58.0534L125.166 57.373L126.003 57.0541C128.036 56.279 130.269 58.2084 130.698 61.11C130.916 62.5859 131.451 62.7205 131.564 61.3276C131.679 59.9004 130.537 57.7025 129.226 56.8292C127.852 55.9144 126.284 55.9382 124.88 56.8948ZM107.095 58.0931C105.975 59.2163 105.715 60.7185 106.414 62.0343C107.565 64.2007 110.324 63.7925 110.321 61.456C110.319 60.3667 109.283 58.5813 108.652 58.5813C107.995 58.5813 108.081 58.047 108.774 57.8267C110.32 57.3348 112.545 59.1242 112.927 61.1658C113.152 62.3623 113.67 62.3318 113.67 61.1222C113.67 60.0271 112.555 58.1633 111.54 57.5622C111.069 57.2836 110.11 57.0556 109.407 57.0556C108.361 57.0556 107.943 57.243 107.095 58.0931ZM143.158 58.79C141.42 59.8711 140.825 62.0501 142.132 62.5481C143.124 62.9262 143.097 63.5682 142.055 64.3316C141.308 64.8803 141.277 64.9685 141.767 65.1586C142.437 65.4192 143.806 64.2367 143.806 63.3964C143.806 63.0824 143.443 62.4621 143 62.0178C142.255 61.2714 142.227 61.1509 142.623 60.4295C142.858 60.0005 143.492 59.4433 144.031 59.1916C144.57 58.9399 145.013 58.6307 145.017 58.505C145.028 58.1117 143.994 58.2701 143.158 58.79ZM120.519 70.0292C119.347 70.2516 117.121 70.4445 115.573 70.4576C114.024 70.4707 112.757 70.5504 112.757 70.6343C112.757 70.7182 112.967 71.027 113.225 71.3208C113.482 71.6147 114.058 72.3199 114.504 72.888C116.992 76.0545 121.62 74.9917 123.986 70.7106L124.618 69.5663L123.634 69.5956C123.093 69.6118 121.691 69.8067 120.519 70.0292ZM117.546 71.067C115.675 71.2562 115.278 71.705 116.644 72.088C118.056 72.4837 120.976 71.7627 120.976 71.0185C120.976 70.7728 120.37 70.7814 117.546 71.067ZM22.8069 90.9397C20.1282 91.0544 17.1147 91.1844 16.1102 91.2284L14.2838 91.3086L16.1102 91.5479C18.4306 91.8518 31.188 92.4517 35.3339 92.4517H38.4835V91.5363V90.6208L33.0804 90.6761C30.1086 90.7063 25.4857 90.825 22.8069 90.9397ZM39.3967 100.361V110.101L40.6143 109.621L41.8319 109.142V99.8812V90.6208H40.6143H39.3967V100.361ZM42.7451 91.5857V92.5505L53.9318 92.3156C66.8873 92.0437 72.0609 91.7755 70.4455 91.4597C68.0002 90.9815 59.8974 90.6208 51.6044 90.6208H42.7451V91.5857ZM139.564 93.6927C136.187 95.9663 130.595 97.517 126.73 97.2515C124.37 97.0898 123.145 96.6412 121.323 95.2736L120.301 94.5059L119.192 95.1689C116.013 97.0718 113.158 98.0034 106.517 99.3054C101.921 100.206 99.7939 101.141 96.9282 103.521C92.1656 107.475 90.4174 110.267 84.9462 122.66C78.8795 136.401 76.8872 140.763 76.2851 141.621C76.0066 142.017 75.5594 143.166 75.2912 144.173C75.0227 145.18 74.7068 146.223 74.5884 146.49C74.3963 146.926 74.9253 146.974 79.6389 146.948C84.0613 146.923 85.1726 147.011 86.5787 147.496C88.2501 148.072 92.0986 149.947 93.6258 150.929C94.4087 151.432 94.4617 151.424 95.3901 150.641C96.4296 149.764 98.5413 149.06 99.2797 149.344C99.6389 149.482 99.6967 149.368 99.5403 148.831C97.9373 143.318 97.9352 137.051 99.5345 132.935C99.7035 132.5 99.1357 132.687 96.9699 133.777C95.4403 134.547 94.1886 135.069 94.1886 134.937C94.1886 134.805 95.5584 133.949 97.2326 133.035C100.135 131.45 100.277 131.326 100.277 130.369C100.277 129.238 100.759 129.278 95.7453 129.989C93.6806 130.281 92.9275 130.231 93.3305 129.827C93.4167 129.74 94.8766 129.49 96.5745 129.27C98.2725 129.051 99.7631 128.769 99.887 128.645C100.011 128.521 99.7908 127.57 99.3981 126.532C99.0055 125.493 98.4445 123.82 98.1513 122.813C97.6268 121.011 96.6238 114.851 96.6238 113.432C96.6238 112.414 97.6908 111.37 98.7318 111.37C99.7442 111.37 102.382 113.065 104.935 115.356L106.703 116.942L109.045 116.229C110.864 115.675 112.067 115.521 114.431 115.538L117.475 115.559L118.693 113.883C120.333 111.625 122.529 109.694 124.174 109.065C125.426 108.585 125.587 108.583 126.281 109.04C126.698 109.313 127.176 110.046 127.351 110.681C127.729 112.044 127.766 119.294 127.404 120.857C127.255 121.498 127.28 122.67 127.462 123.68L127.774 125.407H131.699C134.237 125.407 135.557 125.514 135.435 125.712C135.326 125.889 133.656 126.017 131.46 126.017H127.673V126.893C127.673 127.766 127.681 127.77 131.18 128.46C133.11 128.839 134.762 129.269 134.851 129.415C135.084 129.791 134.11 129.742 131.726 129.255C127.149 128.321 127.473 128.297 127.256 129.596C127.151 130.229 126.984 131.037 126.887 131.393C126.731 131.959 127.138 132.267 130.159 133.874C132.056 134.882 134.761 136.411 136.17 137.27C137.579 138.13 139.017 138.835 139.366 138.837C140.225 138.844 140.669 139.171 140.806 139.901C140.887 140.333 141.231 140.556 141.983 140.664C142.849 140.788 143.102 140.994 143.356 141.781C143.527 142.311 144.837 143.962 146.267 145.449C149.906 149.233 154.259 155.933 155.846 160.192C156.395 161.666 156.562 161.858 157.216 161.768C157.625 161.711 158.087 161.544 158.242 161.394C158.396 161.245 158.584 159.631 158.659 157.806L158.796 154.488L157.032 154.305C155.731 154.171 155.075 153.929 154.532 153.385L153.796 152.648L154.078 144.291C154.233 139.694 154.301 135.21 154.228 134.325C154.155 133.44 154.207 132.479 154.344 132.189C154.511 131.836 154.649 132.367 154.763 133.798L154.932 135.934L155.604 134.472C156.514 132.489 157.852 130.231 158.017 130.396C158.091 130.471 157.682 131.472 157.109 132.623C155.289 136.274 155.139 137.122 154.939 144.893C154.767 151.626 154.786 152.009 155.293 151.782C155.588 151.65 157.542 151.092 159.635 150.541C163.015 149.652 163.903 149.539 167.585 149.526C172.291 149.511 176.195 150.084 178.933 151.192C179.938 151.599 180.821 151.872 180.895 151.798C181.309 151.383 176.097 127.493 173.769 119.134C171.242 110.062 169.511 106.277 166.506 103.256C163.947 100.683 161.452 99.559 154.1 97.6662C147.695 96.0172 144.944 95.0862 142.409 93.7101L140.82 92.8471L139.564 93.6927ZM181.697 95.2574C181.599 95.514 181.629 96.7386 181.763 97.9783L182.008 100.233L201.946 100.237L221.884 100.242L202.312 100.085L182.74 99.9276L182.606 97.6579C182.473 95.414 182.058 94.3158 181.697 95.2574ZM184.987 95.1186C185.956 95.1793 187.462 95.1787 188.335 95.1174C189.208 95.056 188.416 95.0063 186.574 95.0069C184.732 95.0075 184.018 95.0579 184.987 95.1186ZM190.607 95.0948C190.817 95.1796 191.159 95.1796 191.368 95.0948C191.578 95.0103 191.406 94.941 190.988 94.941C190.569 94.941 190.398 95.0103 190.607 95.0948ZM192.453 95.1012C192.672 95.1894 192.935 95.1784 193.036 95.0771C193.137 94.9758 192.957 94.9038 192.637 94.9169C192.282 94.9315 192.21 95.0039 192.453 95.1012ZM196.703 95.1164C197.419 95.1811 198.515 95.1802 199.138 95.1146C199.762 95.049 199.176 94.9962 197.837 94.9974C196.497 94.9984 195.987 95.0521 196.703 95.1164ZM201.28 95.1012C201.5 95.1894 201.763 95.1784 201.864 95.0771C201.965 94.9758 201.785 94.9038 201.464 94.9169C201.11 94.9315 201.037 95.0039 201.28 95.1012ZM204.629 95.1012C204.848 95.1894 205.111 95.1784 205.212 95.0771C205.313 94.9758 205.133 94.9038 204.813 94.9169C204.458 94.9315 204.386 95.0039 204.629 95.1012ZM206.455 95.1012C206.675 95.1894 206.937 95.1784 207.038 95.0771C207.139 94.9758 206.96 94.9038 206.639 94.9169C206.284 94.9315 206.212 95.0039 206.455 95.1012ZM214.35 95.0948C214.56 95.1796 214.902 95.1796 215.111 95.0948C215.321 95.0103 215.149 94.941 214.731 94.941C214.312 94.941 214.141 95.0103 214.35 95.0948ZM217.098 95.1164C217.814 95.1811 218.91 95.1802 219.533 95.1146C220.156 95.049 219.571 94.9962 218.231 94.9974C216.892 94.9984 216.382 95.0521 217.098 95.1164ZM136.521 97.0657C133.201 98.7564 131.594 99.1675 128.343 99.1574C125.871 99.1498 123.685 98.4733 121.552 97.0565L120.519 96.3703L121.578 97.314C123.265 98.8172 125.419 99.4699 128.694 99.4699C131.888 99.4699 133.831 98.9926 136.804 97.477C138.787 96.4664 140.267 95.4869 139.696 95.5632C139.529 95.5854 138.1 96.2616 136.521 97.0657ZM184.855 96.03L183.44 96.1442L183.603 97.4257C183.692 98.1303 183.827 98.7757 183.901 98.8596C183.976 98.9435 192.115 99.0555 201.988 99.1083L219.939 99.2041L219.846 97.5826L219.753 95.9608L203.011 95.9382C193.803 95.9257 185.633 95.9672 184.855 96.03ZM183.815 101.575C183.909 101.726 184.01 102.756 184.04 103.864L184.095 105.878H202.457H220.819V103.589V101.301H202.232C191.298 101.301 183.716 101.414 183.815 101.575ZM182.265 106.869C182.187 106.995 191.207 107.067 202.309 107.028C213.41 106.989 219.274 106.921 215.34 106.876C196.778 106.665 182.393 106.662 182.265 106.869ZM51.5727 108.662C43.5843 109.247 38.5401 110.928 35.8849 113.889C33.6341 116.398 32.2138 119.705 30.0867 127.39C29.3184 130.166 28.1756 138.6 27.8478 143.913C27.407 151.063 27.365 150.54 28.3622 150.32C28.8228 150.218 30.1055 149.937 31.2132 149.696C32.321 149.454 38.1426 148.759 44.1502 148.152C58.5352 146.696 66.6654 145.655 73.1233 144.441C74.07 144.263 74.2562 144.025 75.4574 141.464C77.2263 137.691 79.5963 132.455 80.7917 129.679C81.3335 128.42 83.0628 124.492 84.6345 120.951C86.2061 117.41 87.4919 114.445 87.4919 114.364C87.4919 114.282 80.1293 114.125 71.1304 114.014C52.6122 113.786 44.0285 113.326 40.8198 112.392C39.51 112.01 40.7102 112.038 43.6708 112.458C48.7719 113.182 57.6841 113.495 73.3528 113.501L87.9792 113.506L88.6489 112.125C89.475 110.42 89.4787 110.131 88.6872 109.123L88.0565 108.319L71.5648 108.362C62.4946 108.385 53.498 108.52 51.5727 108.662ZM122.305 111.141C120.926 112.354 118.236 115.557 118.236 115.987C118.236 116.158 118.602 115.842 119.05 115.284C119.497 114.726 120.761 113.342 121.857 112.209C123.964 110.033 124.197 109.477 122.305 111.141ZM100.277 113.073C101.03 113.501 102.126 114.292 102.712 114.83C104.954 116.888 105.658 117.372 104.386 115.98C103.169 114.649 99.8693 112.282 99.2402 112.289C99.0569 112.291 99.5232 112.644 100.277 113.073ZM116.619 121.991C115.187 123.489 115.62 124.491 117.7 124.491C118.623 124.491 118.628 124.483 118.071 123.867C117.733 123.492 117.519 122.821 117.537 122.189C117.554 121.609 117.538 121.135 117.502 121.135C117.466 121.135 117.069 121.52 116.619 121.991ZM120.155 122.268C120.173 122.903 120.077 123.661 119.942 123.952C119.724 124.424 119.795 124.446 120.611 124.161C121.114 123.986 121.77 123.571 122.069 123.24C122.591 122.662 122.589 122.617 122.022 122.071C121.698 121.759 121.137 121.416 120.777 121.308C120.184 121.131 120.125 121.222 120.155 122.268ZM108.577 123.545C108.847 124.262 108.812 124.58 108.391 125.223C108.106 125.66 107.68 126.017 107.445 126.017C106.767 126.017 105.695 124.438 105.843 123.659C106.015 122.76 105.609 122.779 104.677 123.715C103.584 124.81 103.703 125.59 105.031 126.029C106.992 126.678 110.344 125.888 110.567 124.725C110.683 124.123 109.351 122.66 108.688 122.66C108.324 122.66 108.304 122.821 108.577 123.545ZM112.96 126.831C112.604 127.187 112.74 127.512 113.391 127.861C113.897 128.133 114.143 128.095 114.609 127.672C114.93 127.381 115.192 127.027 115.192 126.885C115.192 126.581 113.256 126.534 112.96 126.831ZM117.78 129.679C117.128 130.4 116.149 130.465 115.326 129.841C114.549 129.251 113.839 129.259 113.34 129.863C112.549 130.817 111.5 130.985 110.581 130.303C109.429 129.45 109.152 129.518 110.017 130.441C110.96 131.447 112.244 131.441 113.258 130.425L114.036 129.645L115.235 130.24C115.895 130.567 116.692 130.768 117.005 130.686C117.652 130.516 119.117 129.068 118.641 129.068C118.47 129.068 118.082 129.343 117.78 129.679ZM100.501 132.944C99.0803 136.502 98.7705 141.336 99.6934 145.529C100.437 148.905 100.53 149.081 102.268 150.384C103.196 151.079 103.999 151.649 104.054 151.649C104.109 151.649 104.227 151.097 104.318 150.422C104.408 149.748 104.895 148.547 105.401 147.753C105.906 146.958 106.755 145.21 107.287 143.867C108.225 141.499 108.243 141.366 107.895 139.393C107.501 137.161 107.29 136.894 104.898 135.613C103.388 134.804 102.089 133.587 101.321 132.263C101.034 131.766 100.94 131.844 100.501 132.944ZM137.093 140.612C136.348 141.087 133.517 143.215 130.802 145.341C128.086 147.468 125.792 149.207 125.703 149.207C125.237 149.207 125.733 148.38 127.512 146.189C132.406 140.162 132.283 138.612 127.264 143.059C124.719 145.314 122.808 147.669 120.643 151.213C118.569 154.61 116.327 156.933 114.169 157.924C112.365 158.752 107.416 159.942 103.399 160.515L100.89 160.872L100.567 162.134C98.6807 169.497 96.6031 172.295 93.2383 172.006C90.3075 171.754 88.7155 169.517 88.4665 165.303C88.3798 163.837 88.1971 162.941 87.9856 162.945C87.7978 162.948 85.8003 163.221 83.5465 163.552C81.2005 163.896 79.3352 164.038 79.1824 163.885C79.0295 163.732 79.0536 163.532 79.2381 163.418C79.5373 163.233 87.1506 162.028 88.0425 162.025C88.3353 162.024 91.7534 155.435 91.7534 154.871C91.7534 154.824 90.2811 153.914 88.4811 152.849C84.8588 150.704 81.0623 148.957 79.4581 148.696C78.2058 148.492 78.2959 148.348 75.6848 154.718C72.2204 163.167 71.1949 167.141 71.4199 171.248C71.5757 174.095 72.2 175.621 73.8432 177.17C75.3974 178.635 76.7115 179.16 79.2588 179.335C81.1893 179.468 82.0656 179.357 84.3979 178.684C87.3065 177.845 99.021 173.697 106.564 170.834L110.872 169.199L111.816 167.281C114.638 161.545 118.985 159.764 125.843 161.535L128.968 162.342L130.527 161.135C133.321 158.972 138.137 154.553 139.888 152.545C144.044 147.781 144.394 145.9 140.428 149.65C137.78 152.155 133.888 155.099 133.429 154.945C133.235 154.88 134.392 153.766 136 152.47C141.565 147.983 144.183 145.183 143.638 144.3C143.393 143.903 142.6 144.416 139.057 147.263C135.532 150.097 132.218 152.282 131.821 152.036C131.642 151.925 131.745 151.709 132.068 151.518C132.373 151.338 133.872 150.236 135.399 149.069C140.273 145.344 143.718 141.579 142.252 141.579C142.067 141.579 139.909 142.996 137.458 144.729C132.53 148.21 129.572 149.993 129.255 149.674C129.14 149.56 129.479 149.098 130.008 148.65C131.436 147.439 137.35 142.207 138.767 140.9C139.963 139.798 139.977 139.763 139.223 139.756C138.796 139.751 137.837 140.137 137.093 140.612ZM215.618 145.674C215.547 145.745 213.504 145.96 211.077 146.152C206.791 146.493 197.107 148.493 194.093 149.661C192.75 150.181 185.685 151.827 183.53 152.122C182.617 152.247 181.703 152.603 181.247 153.012C180.347 153.817 178.196 154.7 177.131 154.7H176.377L176.374 158.59C176.373 160.73 176.229 163.373 176.054 164.464C175.175 169.945 171.79 173.252 164.962 175.298C161.035 176.474 159.919 176.926 158.765 177.803C157.233 178.969 156.894 180.11 156.902 184.06C156.916 190.22 157.728 192.092 162.567 197.109C164.432 199.042 166.312 201.051 166.745 201.574C168.808 204.06 170.913 208.227 172.586 213.134C172.716 213.514 172.848 213.6 172.936 213.364C173.153 212.783 171.876 209.165 170.431 206.268C168.692 202.78 166.926 200.451 162.95 196.398C159.159 192.535 158.061 190.669 157.499 187.136C157.244 185.536 157.237 184.21 157.472 182.254C157.779 179.698 157.852 179.515 158.983 178.447C160.613 176.909 162.614 176.365 166.642 176.365C172.257 176.365 176.73 177.965 180.086 181.173C183.241 184.19 184.723 188.413 184.541 193.871C184.487 195.488 184.529 196.81 184.634 196.81C184.739 196.809 185.287 196.626 185.852 196.403C186.7 196.067 187.978 196.062 193.203 196.374C196.682 196.582 200.175 196.9 200.965 197.08C203.555 197.669 208.781 198.324 209.462 198.144C209.99 198.005 210.219 197.572 210.561 196.069C210.799 195.025 211.214 193.769 211.485 193.278C213.443 189.719 214.728 186.57 215.303 183.917C216.809 176.973 217.14 175.176 217.313 173.008C217.414 171.749 217.709 169.798 217.97 168.671C218.265 167.395 218.376 166.014 218.265 165.009C217.631 159.289 217.586 159.681 219.621 153.358C219.777 152.871 219.906 151.189 219.906 149.62C219.906 146.115 219.53 145.546 217.217 145.546C216.407 145.546 215.688 145.603 215.618 145.674ZM168.462 151.814C166.169 152.179 159.962 153.638 159.781 153.854C159.744 153.9 159.644 155.562 159.56 157.548C159.417 160.964 159.439 161.151 159.978 161.009C160.613 160.843 161.066 161.322 160.658 161.729C160.514 161.873 158.615 162.346 156.438 162.778C151.396 163.781 145.79 165.205 138.313 167.382C129.044 170.08 125.848 170.889 123.715 171.076C121.489 171.272 120.976 171.672 120.976 173.212C120.976 174.985 119.736 181.931 119.246 182.901C118.985 183.418 118.561 184.081 118.304 184.375C117.882 184.857 117.887 184.909 118.356 184.909C119.096 184.909 120.308 184.233 123.919 181.808C125.664 180.637 127.531 179.494 128.069 179.269C128.607 179.044 134.046 178.362 140.155 177.755C146.265 177.147 152.633 176.454 154.308 176.214C155.982 175.974 158.516 175.627 159.939 175.441C162.952 175.048 167.337 173.656 169.521 172.398C174.415 169.581 175.736 165.929 175.316 156.378L175.094 151.343L173.072 151.373C171.96 151.389 169.885 151.588 168.462 151.814ZM242.431 165.215C235.628 166.21 229.172 168.108 226.291 169.961C222.469 172.42 220.781 176.196 219.474 185.214C219.219 186.976 218.455 193.224 217.778 199.098C215.817 216.097 214.237 227.362 213.551 229.228C213.058 230.57 212.897 231.595 213.178 231.595C213.335 231.595 213.744 230.737 214.086 229.688C215.445 225.523 216.366 219.485 218.839 198.519C221.276 177.861 221.963 175.115 225.506 171.869C228.749 168.898 236.169 166.701 246.921 165.527C247.968 165.413 248.824 165.196 248.824 165.045C248.824 164.669 245.571 164.755 242.431 165.215ZM107.838 173.808C105.001 174.638 104.122 175.075 101.19 177.114C99.9342 177.987 97.9239 179.217 96.7225 179.848C94.6854 180.916 93.6922 181.857 94.6014 181.857C95.0921 181.857 98.6088 180.637 101.04 179.623C102.046 179.204 103.759 178.635 104.845 178.359C105.932 178.084 107.061 177.788 107.354 177.701C108.331 177.413 107.902 178.181 106.837 178.627C106.26 178.869 104.952 179.635 103.931 180.33C102.91 181.026 100.608 182.424 98.8164 183.438C95.177 185.498 93.5798 186.613 93.5798 187.093C93.5798 187.292 93.9019 187.337 94.4169 187.21C96.6454 186.661 106.165 182.765 106.806 182.139C107.17 181.784 107.887 181.771 107.887 182.12C107.887 182.501 104.623 184.185 100.75 185.803C96.5782 187.545 96.0756 187.83 96.4716 188.227C96.9973 188.753 101.082 187.829 105.384 186.211C109.566 184.639 111.225 184.566 107.834 186.104C106.247 186.824 104.077 187.559 99.0916 189.067C96.643 189.807 106.71 188.659 110.017 187.821C111.106 187.545 112.449 187.176 113.003 187L114.01 186.681L112.741 186.051C111.136 185.255 110.456 184.132 109.987 181.501C109.691 179.838 109.694 178.789 110.005 176.349C110.219 174.663 110.344 173.248 110.282 173.205C110.22 173.161 109.12 173.432 107.838 173.808ZM88.2623 178.79C87.8182 179.511 86.2688 184.477 85.9662 186.149C85.6639 187.821 85.7963 189.488 86.231 189.484C86.3385 189.482 86.4472 188.487 86.4724 187.271C86.5071 185.616 86.793 184.263 87.6118 181.88C88.591 179.031 88.8382 177.856 88.2623 178.79ZM68.7713 179.931C70.0479 181.221 77.6655 185.97 88.1006 191.98C97.5215 197.406 98.9951 198.211 98.4502 197.635C98.1991 197.37 95.391 195.656 92.21 193.827C84.4494 189.364 76.3396 184.55 73.3494 182.632C70.2083 180.617 68.3853 179.541 68.7713 179.931ZM116.41 186.321L115.649 186.758L116.691 186.673C117.264 186.625 117.789 186.415 117.858 186.205C118.019 185.714 117.377 185.765 116.41 186.321ZM118.541 186.084C118.541 186.658 120.548 188.075 122.999 189.231C126.606 190.932 127.146 190.647 123.623 188.903C121.981 188.09 120.337 187.154 119.97 186.822C119.054 185.997 118.541 185.732 118.541 186.084ZM146.125 186.637C146.8 189.389 149.333 193.744 151.784 196.371C152.803 197.463 154.886 199.363 156.412 200.594C157.938 201.825 159.681 203.379 160.284 204.048C162.329 206.318 164.607 210.746 166.096 215.346C167.129 218.537 167.812 219.245 166.892 216.171C165.544 211.668 163.014 206.569 160.897 204.09C160.329 203.424 158.729 201.929 157.343 200.769C154.345 198.259 151.486 195.342 149.995 193.274C148.853 191.691 146.545 187.188 146.545 186.545C146.545 186.336 146.403 186.077 146.229 185.969C146.021 185.84 145.985 186.069 146.125 186.637ZM133.195 188.768C129.978 190.056 127 191.014 124.781 191.475C122.82 191.883 120.582 192.576 119.563 193.091C117.931 193.916 113.653 195.763 97.3848 202.667C89.1268 206.172 83.3901 208.814 83.7657 208.939C83.9435 208.999 85.5738 208.368 87.3887 207.538C90.4162 206.154 99.0417 202.458 111.387 197.256C114.066 196.127 117.336 194.662 118.654 194C120.277 193.186 122.144 192.57 124.437 192.092C128.033 191.343 132.349 189.841 136.348 187.946C139.999 186.216 138.773 186.536 133.195 188.768ZM77.3834 214.494C74.7533 215.126 72.1766 215.819 71.6573 216.035C69.9542 216.742 68.6191 219.188 68.6191 221.601C68.6191 223.026 69.3792 224.778 70.1849 225.21C71.1569 225.732 72.7918 225.202 74.0803 223.949C75.3856 222.679 77.2105 222.003 84.8262 219.968C86.9598 219.398 88.7061 218.833 88.7073 218.712C88.7107 218.382 82.8205 213.289 82.4693 213.318C82.3018 213.333 80.0131 213.861 77.3834 214.494ZM61.4742 214.832C59.7187 215.127 57.3563 215.977 57.3563 216.316C57.3563 216.444 58.1441 216.272 59.1066 215.934C60.5044 215.444 61.8827 215.293 65.9519 215.183C68.792 215.108 70.9733 214.927 70.8805 214.777C70.6747 214.444 63.5441 214.486 61.4742 214.832ZM55.9524 218.482C56.1457 219.694 57.7685 223.717 58.397 224.544C58.5748 224.777 58.7334 225.602 58.7495 226.377C58.7654 227.153 58.9419 228.092 59.1416 228.466C59.5282 229.191 60.7096 229.639 61.4651 229.349C62.0599 229.12 62.0605 227.512 61.4657 227.018C60.7427 226.416 60.926 226.215 62.0745 226.349C63.195 226.481 63.4479 226.128 62.6872 225.495C62.2355 225.119 61.2374 225.238 60.4307 225.764C60.0782 225.994 60.1178 226.186 60.659 226.876C61.4794 227.921 61.4946 228.543 60.7001 228.543C60.3348 228.543 59.8429 228.142 59.4837 227.552C58.7279 226.309 58.7179 225.797 59.45 225.797C59.7641 225.797 60.2015 225.58 60.4219 225.313C60.6423 225.047 61.3439 224.621 61.981 224.365C62.6184 224.109 63.1399 223.787 63.1399 223.649C63.1399 223.211 61.9409 222.994 60.6934 223.205C58.9924 223.493 58.9693 223.83 60.6575 223.728C62.0386 223.644 62.055 223.653 61.3135 224.098C59.9428 224.921 59.2466 224.711 58.5985 223.28C58.2756 222.567 57.9152 221.502 57.798 220.915C57.5149 219.495 56.4547 217.253 56.0662 217.253C55.8751 217.253 55.8316 217.723 55.9524 218.482ZM52.036 218.158C51.7837 218.567 52.8804 221.933 53.7108 223.297C54.0639 223.878 54.8599 224.547 55.5838 224.872L56.8428 225.437L55.6821 225.758C54.2207 226.163 52.7903 227.51 52.7903 228.482C52.7903 229.162 52.8761 229.206 53.8557 229.021C54.8517 228.834 54.9211 228.873 54.9211 229.616C54.9211 230.068 55.0523 230.329 55.2255 230.222C55.3929 230.118 55.5299 229.68 55.5299 229.248C55.5299 228.351 56.5232 226.6 57.3676 226.006C57.9484 225.599 57.8987 224.271 57.3027 224.271C57.145 224.271 57.1024 224.443 57.208 224.653C57.314 224.863 56.9146 224.485 56.321 223.814C55.7275 223.142 55.0931 222.181 54.9114 221.678C53.9826 219.105 52.5404 217.34 52.036 218.158ZM89.3563 219.943C89.5 220.352 95.1667 225.529 95.3119 225.383C95.4489 225.246 89.9986 219.885 89.5666 219.732C89.3883 219.67 89.2936 219.764 89.3563 219.943ZM165.799 219.913C165.276 220.101 165.318 220.61 165.857 220.61C166.361 220.61 166.76 220.107 166.412 219.909C166.284 219.836 166.008 219.838 165.799 219.913ZM54.8544 226.728C53.6977 227.341 52.8895 228.38 53.3486 228.665C53.7093 228.888 54.7719 228.085 55.5339 227.012C55.8894 226.512 56.1366 226.108 56.0833 226.116C56.03 226.123 55.4769 226.399 54.8544 226.728ZM63.1399 228.234C63.391 228.399 63.9277 228.536 64.3322 228.539C65.309 228.545 65.0616 228.371 63.7487 228.13C62.9993 227.992 62.8187 228.023 63.1399 228.234ZM45.1803 230.923C45.8658 231.349 48.5287 231.637 48.5287 231.284C48.5287 231.119 48.1348 230.984 47.6536 230.984C47.1723 230.984 46.316 230.907 45.7511 230.811C45.05 230.694 44.8689 230.729 45.1803 230.923Z" />
</g>
<defs>
<filter id="filter0_gn_1124_15544" x="-1.8" y="-1.8" width="259.6" height="259.6" filterUnits="userSpaceOnUse" color-interpolation-filters="sRGB">
<feFlood flood-opacity="0" result="BackgroundImageFix"/>
<feBlend mode="normal" in="SourceGraphic" in2="BackgroundImageFix" result="shape"/>
<feTurbulence type="fractalNoise" baseFrequency="1.25 1.25" numOctaves="3" seed="6290" />
<feDisplacementMap in="shape" scale="3.5999999046325684" xChannelSelector="R" yChannelSelector="G" result="displacedImage" width="100%" height="100%" />
<feMerge result="effect1_texture_1124_15544">
<feMergeNode in="displacedImage"/>
</feMerge>
<feTurbulence type="fractalNoise" baseFrequency="3.3333332538604736 3.3333332538604736" stitchTiles="stitch" numOctaves="3" result="noise" seed="8744" />
<feColorMatrix in="noise" type="luminanceToAlpha" result="alphaNoise" />
<feComponentTransfer in="alphaNoise" result="coloredNoise1">
<feFuncA type="discrete" tableValues="0 0 0 0 1 1 1 1 1 1 1 1 1 1 1 1 1 1 1 1 1 1 1 1 1 1 1 1 1 1 1 1 1 1 1 1 1 1 1 1 1 1 1 1 1 0 0 0 0 0 0 0 0 0 0 0 0 0 0 0 0 0 0 0 0 0 0 0 0 0 0 0 0 0 0 0 0 0 0 0 0 0 0 0 0 0 0 0 0 0 0 0 0 0 0 0 0 0 0 0 "/>
</feComponentTransfer>
<feComposite operator="in" in2="effect1_texture_1124_15544" in="coloredNoise1" result="noise1Clipped" />
<feFlood flood-color="rgba(167, 167, 167, 0.5)" result="color1Flood" />
<feComposite operator="in" in2="noise1Clipped" in="color1Flood" result="color1" />
<feMerge result="effect2_noise_1124_15544">
<feMergeNode in="effect1_texture_1124_15544" />
<feMergeNode in="color1" />
</feMerge>
</filter>
</defs>
</svg>
