<svg viewBox="0 0 360 360" fill="currentColor" xmlns="http://www.w3.org/2000/svg">
    <g>
        <path fill-rule="evenodd" clip-rule="evenodd" d="M95.4944 65.4871C95.3628 65.6191 95.3392 65.9467 95.4424 66.2159C95.5452 66.485 94.9928 67.7652 94.2148 69.0611C93.4368 70.3566 92.8 71.8567 92.8 72.3941C92.8 72.932 93.3424 74.3225 94.0056 75.4849C95.4844 78.0763 95.3668 78.503 92.116 82.3321C84.9488 90.7749 84.316 92.8461 87.2164 98.3678C88.1056 100.06 88.7292 101.549 88.6024 101.676C88.4756 101.803 87.0732 101.957 85.486 102.018C81.1264 102.184 79.0724 102.808 77.074 104.572C73.1232 108.059 70.3756 115.834 68.0088 130.225C66.5816 138.904 65.2932 143.457 63.6036 145.796L62.3868 147.48L59.8936 145.842C56.3228 143.496 48.2108 139.584 45.416 138.861C42.2412 138.04 40.9604 138.083 40 139.046C38.4364 140.614 38.832 141.41 44.7892 148.672C49.7956 154.776 50.9636 156.49 50.6592 157.286C50.2688 158.306 48.1516 157.988 45.2772 156.479C41.0624 154.265 36.504 154.231 33.7624 156.394C32.8432 157.12 31.9156 157.342 29.01 157.535C25.0384 157.798 22.4696 158.81 19.7984 161.161C18.4252 162.37 18.2356 162.418 15.15 162.344C12.27 162.274 11.9472 162.34 12.0688 162.973C12.1788 163.545 12.9264 163.772 16.0024 164.168C27.5368 165.65 37.9852 168.903 42.7776 172.504C44.422 173.74 45.2 173.821 45.2 172.757C45.2 171.323 39.5752 168.081 33.8 166.184C32.04 165.605 28.446 164.668 25.8132 164.102C23.1804 163.534 20.9304 162.975 20.8136 162.858C20.5312 162.575 21.7548 161.679 24.2 160.38C25.8952 159.48 26.734 159.311 29.7052 159.274C32.6344 159.238 33.3576 159.096 34.1052 158.413C35.4768 157.161 36.5204 156.734 38.8932 156.454C41.2488 156.177 43.7316 156.983 45.9188 158.735L47 159.601L46 159.32C43.7608 158.692 47.4832 160.735 53 163.162C60.4572 166.443 65.6976 169.101 73.3836 173.499C76.8944 175.508 80.0444 177.197 80.3836 177.251C80.7628 177.312 81 177.047 81 176.563C81 175.978 79.7632 175.062 76.2 173.004C68.9092 168.793 60.7344 164.583 55.4 162.292C52.76 161.158 50.5276 160.159 50.4388 160.072C50.3504 159.985 50.7552 159.537 51.3388 159.077C53.5316 157.347 52.6556 155.161 47.1708 148.672C43.36 144.164 41.2 141.286 41.2 140.714C41.2 139.363 46.5716 140.755 52.2 143.564C65.3808 150.143 88.5404 170.14 100.525 185.289C103.133 188.586 104.274 189.363 104.685 188.125C105.204 186.559 87.1052 167.408 77.2 159.042C72.1188 154.75 65.4084 149.542 64.5 149.185C63.7768 148.9 63.8856 148.098 64.7548 147.309C66.728 145.519 67.8396 141.443 70.588 125.919C71.662 119.85 73.4544 113.663 75.0924 110.369C77.6084 105.309 79.3944 104.177 85.4612 103.8C87.8056 103.655 89.7724 103.338 90.0492 103.06C90.9096 102.197 90.5476 100.4 88.9896 97.8015C86.4432 93.5544 86.9544 91.2923 91.7444 85.6114C97.2652 79.0641 97.6496 78.0678 95.8104 75.0738C95.2684 74.1914 94.8192 73.0427 94.8124 72.5213C94.7988 71.4821 96.3432 68.4559 96.8872 68.4559C97.5052 68.4559 101.187 74.5824 103.998 80.2878C108.902 90.2399 113.488 102.994 118.622 120.951C120.966 129.151 121.902 131.259 122.804 130.371C123.15 130.03 122.87 128.64 121.672 124.755C120.796 121.917 119.25 116.769 118.235 113.317C111.76 91.2819 103.424 72.3833 97.6052 66.5508C96.2916 65.234 95.9288 65.0511 95.4944 65.4871ZM138.976 78.12C138.621 78.6963 142.887 84.9897 152.814 98.5371C161.594 110.518 168.295 119.276 169.36 120.162C169.879 120.594 170.143 120.614 170.507 120.249C171.108 119.646 171.162 119.731 165.601 112.56C161.275 106.982 146.852 87.2314 142.401 80.7892C140.33 77.7923 139.552 77.1859 138.976 78.12ZM181.005 82.8864C180.589 83.5611 181.448 84.6693 185.002 88.0424C199.75 102.04 214.675 110.404 229.591 113.03C236.143 114.184 245.084 114.172 250.92 113.003C259.037 111.377 265.871 108.401 272.6 103.563C276.576 100.705 277.223 100.004 276.53 99.3092C276.194 98.9727 275.067 99.5871 272.139 101.703C261.505 109.39 250.975 112.56 237.8 112.041C225.584 111.559 213.906 107.476 202.291 99.6248C195.779 95.2225 192.472 92.5425 186.773 87.0473C184.176 84.5429 181.87 82.4938 181.649 82.4938C181.428 82.4938 181.138 82.6707 181.005 82.8864ZM327.869 92.0195C327.771 92.1847 326.66 95.0276 325.4 98.3365C322.734 105.335 318.673 113.848 315.206 119.704C312.868 123.652 312.593 124.607 313.794 124.607C314.819 124.607 320.865 113.791 324.366 105.692C326.812 100.036 329.2 93.5047 329.2 92.4731C329.2 91.7419 328.229 91.411 327.869 92.0195ZM308.22 100.362C306.119 103.572 304.4 106.46 304.4 106.78C304.4 107.099 304.726 107.361 305.125 107.361C305.778 107.361 309.166 102.626 312.378 97.2235C313.24 95.7736 313.265 94.5263 312.433 94.5263C312.217 94.5263 310.322 97.1525 308.22 100.362ZM299.563 102.247C295.218 108.133 286.554 116.262 280.484 120.148C278.36 121.508 278 122.314 279.431 122.503C280.324 122.62 285.613 118.892 290.606 114.625C295.952 110.056 303.663 100.816 303.012 99.7596C302.454 98.8555 301.626 99.4531 299.563 102.247ZM186.8 104.071C186.8 105.393 197.697 123.714 198.716 124.106C199.012 124.22 199.443 124.123 199.674 123.891C199.968 123.596 199.253 122.103 197.295 118.924C195.755 116.425 193.074 111.945 191.336 108.968C188.342 103.841 186.8 102.176 186.8 104.071ZM181.499 105.591C180.952 106.139 186.356 115.583 187.216 115.583C188.353 115.583 187.962 114.304 185.502 109.97C183.222 105.952 182.226 104.862 181.499 105.591ZM224.2 125.531C220.154 127.476 214.152 135.012 209.65 143.801C208.225 146.582 207.346 147.87 206.874 147.87C205.997 147.87 197.968 149.871 193.898 151.103L190.796 152.043L186.78 147.767C178.616 139.075 168.912 133.431 162.129 133.431C159.63 133.431 159.435 133.503 158.001 134.94C155.396 137.552 154.951 142.715 156.766 149.26C157.576 152.183 157.545 152.683 156.55 152.683C155.454 152.683 152 154.377 152 154.915C152 155.851 152.642 155.887 154.934 155.079C157.916 154.028 158.246 154.069 158.761 155.551C159.373 157.312 159.326 157.496 158.266 157.496C157.312 157.496 152.764 158.882 151.5 159.557C150.587 160.045 150.597 161.106 151.514 161.106C151.906 161.106 153.237 160.75 154.471 160.315C155.704 159.881 157.436 159.409 158.319 159.267C159.704 159.046 159.988 159.131 160.393 159.889C160.936 160.908 160.674 161.908 159.864 161.908C158.275 161.908 151.033 165.955 150.594 167.089C150.048 168.499 151.244 168.369 153.819 166.739C156.506 165.037 161.408 162.945 161.939 163.274C162.095 163.371 162.74 164.534 163.372 165.859L164.52 168.268L163.28 170.206C159.324 176.388 158.162 183.269 160.034 189.44C161.226 193.374 164.456 199.78 166.778 202.818C167.874 204.252 168.778 205.534 168.786 205.667C168.794 205.799 167.935 205.77 166.878 205.603C162.367 204.888 158.877 203.623 155.068 201.322C153.405 200.318 152.613 200.038 152.306 200.345C151.64 201.014 154.161 203.146 157.4 204.653C160.831 206.249 164.097 207.122 168.005 207.486C170.508 207.719 171.347 208.003 173.33 209.288C176.388 211.27 179.372 212.368 183.15 212.901C184.828 213.138 186.916 213.452 187.79 213.6L189.381 213.87L186.99 215.207C185.676 215.942 183.052 217.516 181.16 218.703C177.642 220.912 175.809 221.563 174.87 220.937C174.384 220.611 173.403 217.321 173.703 217.02C173.775 216.948 175.296 216.767 177.082 216.617C180.676 216.317 181.79 215.91 180.8 215.258C180.003 214.734 178.944 214.761 174.266 215.425C171.048 215.883 170.1 215.891 169.066 215.473C168.37 215.191 166.63 214.671 165.2 214.318C157.562 212.429 149.589 210.379 148.015 209.9L146.23 209.357L142.92 200.172C141.1 195.12 139.692 190.761 139.792 190.485C139.893 190.21 140.309 189.984 140.718 189.984C141.724 189.984 143.135 188.405 143.424 186.956C143.706 185.541 142.84 182.736 136.845 165.663C130.537 147.696 129.526 145.098 128.408 143.976C127.321 142.887 127.589 142.895 119.92 143.715C117.728 143.949 117.63 143.919 117.386 142.944C117.246 142.387 116.705 141.527 116.183 141.036C115.41 140.307 114.91 140.178 113.491 140.338C111.437 140.571 109.643 141.38 109.046 142.344C108.73 142.855 108.791 143.499 109.283 144.832C109.926 146.569 109.922 146.638 109.163 146.879C107.958 147.263 107.066 148.904 107.334 150.245C107.534 151.249 118.897 182.733 124.842 198.758C125.937 201.709 126.758 204.197 126.667 204.289C126.576 204.38 125.174 203.927 123.551 203.282C119.538 201.687 112.402 199.37 109 198.556C104.738 197.537 98.3924 197.629 95.5372 198.751C90.758 200.628 89.1332 202.472 88.3964 206.851C87.8588 210.046 87.9552 210.017 84.204 208.126C83.1064 207.572 80.2264 206.551 77.804 205.856L73.4 204.593V203.314C73.4 202.461 73.0424 201.676 72.3268 200.959C71.3768 200.006 70.826 199.848 67.5268 199.579C65.4772 199.412 62.9 198.992 61.8 198.645C58.8628 197.719 54.2604 197.807 52.1516 198.831C49.94 199.905 41.7732 208.386 38.5288 212.979C35.74 216.926 32.1836 223.692 30.6924 227.886C29.4364 231.418 28.9016 234.011 28.2416 239.765C27.6748 244.711 27.8412 245.676 29.4432 246.729C29.9488 247.061 30.8432 248.155 31.4304 249.16C32.3576 250.745 32.4636 251.261 32.236 253.073C31.486 259.04 31.4876 259.183 32.3388 260.855C34.15 264.415 37.2256 265.825 41.538 265.073C44.1668 264.614 44.2364 264.626 47.1 265.981C48.6948 266.736 49.998 267.497 49.9952 267.674C49.9876 268.184 45.992 270.778 43.7736 271.712C39.3472 273.576 34.3184 273.613 31.3964 271.803C29.9628 270.914 27.1484 267.993 26.4308 266.648C25.9504 265.748 25.0188 265.51 24.6052 266.181C23.8932 267.336 28.1216 272.214 31.11 273.685C33.1508 274.69 33.8136 274.81 37.2 274.786C40.3452 274.764 41.4808 274.571 43.7896 273.667C46.886 272.455 49.5444 270.844 51.4784 269.007C52.1812 268.34 53.1196 267.794 53.5632 267.794C54.0068 267.794 55.3592 267.423 56.568 266.969C58.7744 266.141 61.9532 263.191 62.9172 261.076C63.5508 259.685 64.1708 259.985 65.4104 262.279C66.0356 263.437 67.4048 265.883 68.4528 267.714C69.68 269.859 70.1872 271.102 69.8788 271.207C60.6612 274.342 33.84 284.509 26.8 287.536L25 288.31L26 288.872C26.55 289.182 40.938 294.06 57.9736 299.713C81.4812 307.514 91.8948 311.181 101.174 314.926C107.898 317.64 121.05 322.838 130.4 326.477C139.75 330.116 149.698 334.013 152.506 335.137C155.315 336.261 157.884 337.181 158.216 337.181C158.869 337.181 188.427 325.481 212.2 315.812C220.34 312.502 235.46 306.374 245.8 302.196C267.162 293.565 275.141 290.269 285.4 285.839C289.36 284.129 296.11 281.245 300.4 279.43C313.22 274.005 314.928 273.229 315.084 272.758C315.166 272.511 314.82 272.192 314.316 272.049C313.516 271.824 279.551 264.303 276.104 263.589C274.355 263.226 274.216 262.839 275.359 261.506L276.329 260.374L290.664 260.139C301.404 259.963 306.054 259.732 309.2 259.215C312.522 258.669 314.586 258.582 319.078 258.8L324.756 259.075L325.032 261.293C325.448 264.633 324.962 271.203 324.032 274.813C322.598 280.375 320.351 284.352 316.432 288.266C313.739 290.955 312.225 292.091 309.4 293.542C303.793 296.422 297.123 298.177 289.2 298.857C274.271 300.137 269.496 301.409 267.277 304.693C265.948 306.661 266.165 310 267.758 312.093C271.47 316.973 282.09 320.291 292.4 319.792C301.537 319.349 310.044 316.938 319.734 312.046C330.483 306.618 339.794 296.432 343.597 285.94C346.061 279.143 346.561 276.034 346.541 267.643L346.523 260.072L351.562 260.336C354.333 260.482 357.365 260.706 358.3 260.834L360 261.066V257.028V252.99L358.7 252.79C356.933 252.517 329.182 250.937 326.273 250.943C324.125 250.948 323.966 250.887 324.201 250.144C324.634 248.776 323.467 248.813 319.936 250.279C308.824 254.891 299.351 256.451 285.2 255.999C278.164 255.774 257.608 254.299 257.307 253.997C257.251 253.941 257.879 253.445 258.703 252.895C259.526 252.345 263.53 249.631 267.6 246.864C282.372 236.82 292.304 231.511 312.4 222.917L318.6 220.266L339.353 220.416L360.106 220.567L359.83 207.782C359.678 200.75 359.391 189.412 359.192 182.586L358.83 170.174L357.547 169.15C347.341 160.999 342.848 158.046 333.377 153.264C318.899 145.953 301.983 141.719 281.4 140.254C269.692 139.421 258.078 139.983 237.812 142.363C237.113 142.445 236.967 142.053 236.509 138.846C235.598 132.468 234.014 128.299 231.646 126.045C229.913 124.395 226.984 124.193 224.2 125.531ZM224.834 142.061C222.648 144.112 220.336 148.37 219.404 152.066C218.644 155.076 218.61 157.496 219.328 157.496C219.679 157.496 220.018 156.455 220.337 154.4C221.012 150.046 223.349 145.323 226.019 142.916C227.845 141.269 228.281 140.25 227.159 140.25C226.943 140.25 225.896 141.065 224.834 142.061ZM113.499 142.089C113.204 142.385 114.096 145.025 114.5 145.046C115.915 145.123 116.045 145.033 115.78 144.16C115.305 142.6 114.09 141.496 113.499 142.089ZM228.143 146.166C226.555 147.852 224.401 152.008 224.4 153.385C224.4 154.996 225.477 154.355 226.016 152.423C226.552 150.504 228.636 147.429 230.277 146.134C230.789 145.73 231.105 145.233 230.98 145.031C230.526 144.294 229.53 144.693 228.143 146.166ZM123.6 145.535C123.6 145.795 124.758 149.18 126.174 153.056C127.589 156.932 130.635 165.428 132.942 171.935C138.746 188.31 138.773 188.38 139.455 188.38C140.692 188.38 141.6 187.551 141.6 186.42C141.6 185.282 138.702 176.382 133.879 162.71C127.302 144.064 127.782 145.063 125.39 145.063C124.282 145.063 123.6 145.243 123.6 145.535ZM120 145.819C120 146.015 123.126 154.904 126.948 165.572C142.277 208.373 151.135 233.547 151.442 235.189C151.664 236.376 154.859 241.322 155.403 241.322C155.622 241.322 154.011 236.689 145.988 214.249C141.966 202.999 137.793 191.267 136.716 188.179C135.638 185.091 133.432 178.864 131.813 174.342C130.194 169.819 127.581 162.51 126.007 158.098C124.434 153.686 122.774 149.039 122.32 147.77C121.715 146.083 121.292 145.464 120.746 145.464C120.336 145.464 120 145.624 120 145.819ZM163.26 146.851C163.344 147.27 164.124 147.795 165.2 148.156C167.414 148.898 171.725 151.727 173.578 153.656C174.337 154.444 175.192 155.09 175.478 155.09C176.628 155.09 175.867 153.83 173.336 151.539C170.585 149.05 166.803 146.864 164.46 146.409C163.322 146.189 163.14 146.256 163.26 146.851ZM158.984 152.309C158.573 152.975 158.874 153.082 162.246 153.468C167.657 154.087 171.943 156.099 174.802 159.364C175.931 160.654 177.2 160.969 177.2 159.958C177.2 159.193 172.135 154.924 170.142 154.008C166.454 152.316 159.621 151.275 158.984 152.309ZM98.8 166.431C98.8 167.223 104.258 172.471 104.759 172.161C105.732 171.558 105.078 170.286 102.7 168.159C100.299 166.011 98.8 165.347 98.8 166.431ZM92.8128 167.824C92.828 168.64 99.2544 174.743 100.098 174.743C101.934 174.743 101.292 173.669 97.348 170.141C93.9648 167.115 92.7888 166.514 92.8128 167.824ZM21.8 168.325C21.3376 169.075 22.0176 169.485 25.4816 170.545C29.9492 171.911 42.4512 176.742 45.0156 178.093L47 179.139L42.6 178.846C33.548 178.243 18.0408 178.772 14.7 179.796C14.3152 179.914 14 180.38 14 180.832C14 181.568 14.1736 181.627 15.7 181.405C23.4696 180.275 34.6828 180.04 44.1152 180.81C49.7816 181.273 51.8816 181.004 51.5028 179.865C51.0572 178.525 39.6916 173.436 29.686 170.098C22.862 167.821 22.2024 167.672 21.8 168.325ZM217 176.063C213.258 177.86 210.568 181.885 209.393 187.443C208.63 191.054 208.654 192.134 209.515 192.915C210.464 193.776 212.948 194.797 214.095 194.797C214.986 194.797 215.011 194.701 214.867 191.848C214.696 188.463 215.406 186.539 216.97 186.145C218.97 185.642 220.594 187.56 221.061 190.98C221.197 191.976 221.435 192.791 221.589 192.791C221.744 192.791 222.868 192.075 224.089 191.198C228.386 188.113 231.538 181.233 229.986 178.326C229.172 176.801 225.673 175.421 222.2 175.255C219.454 175.124 218.716 175.238 217 176.063ZM174.712 180.353C172.99 181.295 172.4 182.214 172.4 183.957C172.4 187.351 177.088 192.618 181.638 194.338L182.676 194.73L182.496 192.847C182.289 190.689 183.126 188.261 184.292 187.635C186.144 186.641 188.303 189.282 188.687 193.011C188.815 194.253 189.141 195.354 189.413 195.459C190.118 195.73 192.768 194.545 193.039 193.837C193.408 192.871 190.025 186.849 187.696 184.326C185 181.406 182.118 179.924 178.702 179.702C176.728 179.573 175.886 179.711 174.712 180.353ZM51.8 186.374C51.3628 187.083 52.0116 187.577 53.3796 187.577C54.1124 187.577 56.3968 187.928 58.456 188.357C66.4024 190.01 73.354 192.525 77.7076 195.32C80.2788 196.971 80.6144 197.063 80.9416 196.209C81.444 194.895 75.3192 191.444 68.5056 189.2C60.6644 186.618 52.5008 185.237 51.8 186.374ZM42.2676 187.194C38.986 189.783 41.152 195.122 45.7652 195.815C50.2332 196.487 53.3928 193.756 52.0124 190.415C50.6848 187.201 44.7476 185.239 42.2676 187.194ZM44.4732 188.065C44.2128 188.327 44 188.815 44 189.151C44 189.57 44.2008 189.474 44.6408 188.844C45.3428 187.839 45.2284 187.308 44.4732 188.065ZM45.7836 189.209C45.4812 189.699 45.4556 189.673 46.86 190.277C48.0396 190.784 48.4 190.606 48.4 189.516C48.4 188.969 48.0976 188.781 47.2236 188.781C46.5764 188.781 45.9284 188.973 45.7836 189.209ZM46.4 192.367C46.4 193.42 46.9336 193.677 47.802 193.04C48.6472 192.42 48.2884 191.588 47.1764 191.588C46.6744 191.588 46.4 191.863 46.4 192.367ZM49.8336 192.647C49.6228 193.198 49.6816 193.223 50.1908 192.799C50.8848 192.221 50.9572 191.989 50.4428 191.989C50.2464 191.989 49.9724 192.286 49.8336 192.647ZM67.4284 193.949C66.9904 194.659 67.4792 195.086 69.0736 195.386C72.896 196.105 77.348 199.523 78.766 202.828C79.6156 204.808 80.602 205.407 81.0572 204.217C81.4388 203.221 79.272 199.333 77.4756 197.791C74.2892 195.056 68.1848 192.722 67.4284 193.949ZM261.32 195.98C256.108 198.353 248.262 205.626 250.915 205.626C251.198 205.626 252.323 204.708 253.415 203.585C255.968 200.959 259.762 198.227 262.356 197.146C263.48 196.677 264.4 196.047 264.4 195.746C264.4 194.991 263.312 195.074 261.32 195.98ZM198.335 196.651L196.87 197.261L197.53 198.415C198.176 199.542 199.501 200.412 200.573 200.412C201.215 200.412 202.174 199.01 202.533 197.55C202.746 196.681 202.633 196.45 201.896 196.252C200.59 195.901 199.971 195.97 198.335 196.651ZM269.8 199.016C261.094 202.009 249.6 208.179 249.6 209.859C249.6 210.786 250.221 210.557 253.096 208.57C257.048 205.839 265.429 201.907 271.5 199.935C274.589 198.932 276.8 198.003 276.8 197.709C276.8 196.858 275.22 197.153 269.8 199.016ZM96.9144 200.165C94.1308 201.081 91.7512 202.691 91.0844 204.108C90.744 204.833 90.2556 206.591 90 208.016C89.1908 212.521 88.0708 214.065 83.8 216.565C78.7028 219.548 77.8224 221.379 78.9348 226.683C79.2588 228.227 79.3732 229.65 79.1888 229.845C77.4216 231.712 75.9228 223.042 77.4536 219.807C78.1604 218.314 80.3384 216.4 83.2 214.757C84.19 214.189 85.4452 213.246 85.9896 212.662C86.8224 211.768 86.8856 211.541 86.3896 211.226C83.9456 209.675 79.3428 210.777 74.392 214.097C70.6532 216.605 68.686 218.545 67.0696 221.318C63.3416 227.715 59.3736 248.51 60.6552 254.934C60.8568 255.946 61.2344 256.343 62.464 256.837C64.4852 257.648 66.1372 259.637 68.6 264.225C72.8488 272.14 75.89 275.341 81.6704 277.98C89.1028 281.374 105.001 283.794 113.714 282.858C117.231 282.481 116.774 281.832 112.99 281.832C104.167 281.832 84.0712 277.282 78.7388 274.077C75.9076 272.375 74.8 270.668 74.8 268.006C74.8 265.163 75.8436 262.179 76.8376 262.179C77.2568 262.179 77.6 262.25 77.6 262.336C77.6 262.423 77.3232 263.837 76.9844 265.478C76.3036 268.78 76.5128 269.917 78.0756 271.404C81.6028 274.761 98.8064 278.998 114 280.251C122.815 280.979 126.904 280.077 131 276.498L132.6 275.101L130.8 274.64C123.462 272.76 89.5188 261.338 89.2992 260.675C88.8668 259.368 92.4704 260.351 113.2 267.191C132.994 273.721 135.5 274.332 144.581 274.84C148.488 275.058 148.8 275.021 148.794 274.343C148.781 272.573 148.279 271.969 145.878 270.837C144.515 270.195 140.07 268.003 136 265.967C131.93 263.931 125.09 260.601 120.8 258.567C116.51 256.534 109.175 252.982 104.5 250.675C96.482 246.718 95.008 245.69 96.5196 245.108C96.8052 244.998 102.25 247.459 108.62 250.577C114.989 253.694 126.41 259.286 134 263.004C146.621 269.186 148.116 269.82 151.506 270.425C154.712 270.998 155.46 271.014 157.056 270.544C158.07 270.244 158.986 269.776 159.091 269.503C159.196 269.23 158.83 268.238 158.279 267.297C157.177 265.419 152.26 259.479 151.117 258.646C150.721 258.356 148.552 256.533 146.298 254.592C136.258 245.949 128.452 240.697 111.678 231.295C104.843 227.465 102.014 225.675 102.008 225.179C102.004 224.793 102.28 224.477 102.623 224.477C103.38 224.477 119.203 233.276 126.512 237.762C132.998 241.742 138.406 245.664 145.918 251.834C150.3 255.433 152.144 256.695 153.703 257.159C156.946 258.124 158.054 257.976 159.1 256.436C159.595 255.707 160 254.803 160 254.427C160 252.845 154.738 243.378 152.205 240.401C145.38 232.381 139.292 227.493 117.9 212.863C114.199 210.332 112.4 208.861 112.4 208.367C112.4 207.962 112.637 207.631 112.926 207.631C113.43 207.631 122.685 213.784 129.379 218.569C131.128 219.819 132.607 220.794 132.666 220.735C132.784 220.616 127.783 206.866 127.548 206.666C127.186 206.359 115.799 202.361 112 201.208C106.991 199.688 99.8632 199.195 96.9144 200.165ZM28.7164 201.515C27.0408 203.304 23.6596 208.763 21.8232 212.645C17.0864 222.658 14.2392 233.95 14.9708 239.823C15.346 242.836 17.474 247.092 18.6916 247.265C19.5664 247.39 19.5588 247.341 18.2976 244.658C16.0272 239.828 16.3196 233.408 19.226 224.293C21.7736 216.302 25.5084 208.643 29.3888 203.453C30.3648 202.147 31.0712 200.929 30.958 200.745C30.576 200.125 29.754 200.407 28.7164 201.515ZM48.0788 204.528C36.5844 216.342 30 229.818 30 241.529C30 243.605 30.1236 244.069 30.7192 244.225C31.3684 244.395 31.4832 243.901 31.8964 239.158C32.908 227.55 37.7976 218.132 48.6988 206.795C52.5324 202.808 53.1636 201.98 52.5428 201.758C52.1344 201.611 51.686 201.432 51.5468 201.358C51.4072 201.285 49.8468 202.711 48.0788 204.528ZM52.5164 205.438C46.2792 211.193 40.4672 218.871 37.3708 225.445C34.9392 230.608 33.9844 234.547 33.7172 240.521L33.4932 245.535L41.8464 249.016C46.4408 250.93 52.0916 253.291 54.404 254.264L58.6076 256.032L58.6248 251.184C58.6544 242.861 61.7436 228.154 64.7872 221.849C67.1512 216.952 69.7384 214.551 78.596 209.034L79.7924 208.289L78.596 207.951C73.5604 206.529 57.1936 202.417 56.5696 202.417C56.1412 202.417 54.3172 203.777 52.5164 205.438ZM196.742 211.154C195.5 211.816 193.43 213.074 192.142 213.949C190.854 214.825 186.56 217.484 182.6 219.858C174.116 224.945 172.633 226.056 171.585 228.116C170.244 230.752 170.69 234.908 172.314 234.903C172.691 234.902 176.102 234.01 179.893 232.921C183.684 231.832 188.454 230.577 190.493 230.133C194.315 229.3 194.694 229.119 205.621 222.952C210.532 220.181 211.6 219.836 211.6 221.022C211.6 221.525 205.38 225.404 201.26 227.469C200.083 228.059 199.183 228.601 199.26 228.674C199.337 228.747 200.39 228.654 201.6 228.468C202.81 228.282 205.78 227.942 208.2 227.713C210.62 227.485 213.275 227.181 214.1 227.038C215.27 226.835 215.6 226.908 215.6 227.368C215.6 228.462 213.47 228.943 204.226 229.936C199.161 230.48 193.081 231.363 190.714 231.899C182.618 233.731 168.392 238.159 167.626 239.085C166.938 239.916 167.524 246.934 168.306 247.234C169.393 247.653 174.753 246.191 179.549 244.168C186.928 241.055 186.404 241.111 198.676 242.123C204.574 242.609 210.3 243.154 211.4 243.333C213.298 243.643 213.472 243.594 214.8 242.372C217.714 239.692 229.173 228.907 233.791 224.499C242.971 215.735 246.013 212.725 245.852 212.564C245.59 212.301 216.104 210.513 207.2 210.22L199 209.951L196.742 211.154ZM147.2 211.761C147.2 212.047 148.526 215.868 152.585 227.284C154.507 232.689 156.482 238.284 156.974 239.718C157.732 241.929 158.106 242.461 159.434 243.221C161.449 244.373 164.008 244.426 164.993 243.336C166.087 242.123 165.636 236.293 164.038 231.007C162.6 226.245 162.634 226.482 163.377 226.482C164.169 226.482 165.197 228.048 165.214 229.279C165.222 229.837 165.465 230.721 165.754 231.243C166.266 232.169 166.311 232.126 167.501 229.577C168.172 228.138 169.518 225.725 170.492 224.215C172.949 220.405 172.881 220.553 172.586 219.62C172.153 218.251 168.828 217.05 158.351 214.476C152.934 213.146 148.209 211.945 147.851 211.807C147.493 211.669 147.2 211.649 147.2 211.761ZM76.7656 241.533C75.1868 244.748 74.8524 247.513 75.7552 249.883C76.3944 251.562 78.5224 254.157 79.26 254.157C80.1988 254.157 79.926 252.863 78.6276 251.158C77.4104 249.559 77.2012 248.977 77.2096 247.207C77.2156 245.896 77.5948 244.247 78.2408 242.726C79.784 239.092 79.8132 238.916 78.8716 238.916C78.258 238.916 77.7248 239.578 76.7656 241.533ZM8 242.997C8 244.465 10.7364 249.521 12.5172 251.345C14.9896 253.875 18.4628 255.386 22.4412 255.659C25.4704 255.867 25.6724 255.832 25.5356 255.12C25.4184 254.51 24.8868 254.295 22.8852 254.048C16.7792 253.291 13.4588 250.944 10.812 245.511C9.2112 242.226 8 241.143 8 242.997ZM181.477 245.321C172.378 249.118 171.007 249.953 166.333 254.549L162.041 258.769L163.375 263.408C165.001 269.062 165.702 274.055 165.53 278.754L165.4 282.294L163.181 280.827C161.767 279.893 160.205 278.318 158.874 276.485C157.726 274.904 156.564 273.315 156.293 272.954C155.966 272.519 154.896 272.213 153.106 272.041L150.412 271.783L150.647 273.5C150.844 274.937 150.738 275.346 149.998 276.017C149.22 276.724 148.638 276.806 145.058 276.715C142.826 276.659 140.1 276.505 139 276.374C137.364 276.178 137.091 276.23 137.5 276.657C137.775 276.944 138 277.676 138 278.283C138 280.317 133.49 282.682 125.4 284.888C118.675 286.722 110.061 286.566 98 284.392C85.7948 282.191 78.466 279.33 73.7828 274.937L71.314 272.622L65.1572 274.771C56.9072 277.65 50.886 279.922 39.2588 284.545L29.5172 288.418L62.4588 299.352C86.9892 307.494 97.3404 310.742 103 312.074C126.502 317.605 148.96 320.377 156.368 318.663C157.484 318.404 158.496 318.292 158.616 318.414C158.738 318.535 158.468 320.044 158.018 321.766C157.568 323.489 157.2 326.004 157.2 327.357C157.2 330.021 157.877 334.379 158.372 334.894C158.54 335.07 161.631 334.054 165.239 332.637C179.547 327.016 206.704 316.162 215.6 312.509C220.77 310.387 233.73 305.123 244.4 300.812C266.723 291.792 272.982 289.194 292 281.054C299.59 277.806 306.842 274.733 308.114 274.226C309.387 273.719 310.35 273.225 310.254 273.129C309.7 272.574 267.085 263.424 258.4 261.995C254.99 261.433 251.744 260.897 251.187 260.802C250.372 260.663 249.391 261.303 246.187 264.059C238.762 270.447 232.895 274.047 229.197 274.487C227.697 274.665 226.864 274.521 225.46 273.839L223.652 272.962L222.126 273.968C220.24 275.212 217.449 275.858 215.614 275.476C213.437 275.022 212.6 273.218 212.6 268.976C212.6 265.823 212.72 265.301 214.096 262.511C215.738 259.18 219.677 255.037 222.611 253.555C224.454 252.625 224.918 252.109 224.387 251.577C224.148 251.338 223.48 251.449 222.58 251.88C221.322 252.481 221.082 252.492 220.562 251.971C219.828 251.234 218.897 251.589 215.124 254.048C209.954 257.416 204.766 264.312 204.646 267.977C204.578 270.028 205.288 269.601 206.215 267.034C207.902 262.361 212.303 257.253 216.925 254.601C218.12 253.916 219.222 253.355 219.375 253.355C219.528 253.355 218.751 254.236 217.648 255.313C215.126 257.776 212.568 261.716 211.794 264.327C211.111 266.637 211.007 271.645 211.611 273.236L212.021 274.319L210.369 274.097C209.46 273.975 207.88 273.45 206.858 272.931C204.154 271.558 201.207 267 200.22 262.666C199.415 259.135 199.509 255.439 200.431 254.313C200.744 253.93 202.44 252.68 204.2 251.535C207.904 249.124 211.128 246.346 210.714 245.922C210.557 245.761 209.664 245.824 208.73 246.062C207.523 246.369 206.882 246.37 206.516 246.065C205.8 245.47 205.872 244.932 206.667 244.932C207.033 244.932 207.245 244.844 207.138 244.736C206.824 244.421 192.937 243.327 189.416 243.339C186.485 243.349 185.781 243.525 181.477 245.321ZM8.1404 252.764C7.5492 254.309 12.654 259.17 14.5688 258.884C15.9276 258.682 15.6964 257.833 14.0532 256.992C13.1736 256.542 11.6772 255.269 10.7272 254.163C8.8756 252.007 8.5064 251.807 8.1404 252.764ZM228.021 257.222C224.687 260.228 222.994 264.626 223.268 269.567C223.48 273.386 224.213 272.718 224.696 268.267C225.26 263.062 226.298 260.687 229.101 258.181C230.306 257.104 231.167 256.032 231.02 255.794C230.582 255.082 230.185 255.271 228.021 257.222ZM144 280.765C140.37 281.927 133.755 284.039 129.3 285.459C124.845 286.879 121.2 288.164 121.2 288.314C121.2 288.464 121.728 288.703 122.373 288.845C123.59 289.113 125.894 288.458 142 283.265C146.29 281.881 150.429 280.581 151.197 280.374C151.998 280.159 152.651 279.705 152.726 279.311C152.944 278.179 151.141 278.48 144 280.765Z" />
    </g>
</svg>
