<svg viewBox="0 0 360 360" fill="currentCOlor" xmlns="http://www.w3.org/2000/svg">
    <g>
        <path fill-rule="evenodd" clip-rule="evenodd" d="M167.768 38.8457C163.795 39.709 159.193 41.9987 156.64 44.3811C155.454 45.4886 153.704 46.6021 152.544 46.9887C148.015 48.4966 144.934 51.3951 142.52 56.4195C140.411 60.8092 139.73 64.8307 139.73 72.9008C139.73 76.6752 139.518 80.7864 139.257 82.0372C138.997 83.2876 137.286 87.4006 135.455 91.1766C123.871 115.061 119.398 136.204 123.229 148.965L123.824 150.945L97.853 151.158C72.5357 151.364 67.5997 151.612 61.2879 152.992L60.1108 153.25V142.34V131.429L73.4877 131.141C87.6159 130.837 100.558 130.161 102.703 129.617C103.824 129.332 103.973 129.119 103.879 127.941C103.523 123.476 85.1815 76.8545 82.8699 74.5374C81.4963 73.1608 75.5972 72.5228 61.609 72.2378C51.3128 72.028 47.6152 72.1108 42.957 72.6567C39.7615 73.0313 36.8156 73.4651 36.4107 73.6208C35.1933 74.089 33.6629 77.5514 25.9972 97.1841C18.6675 115.957 14.6223 127.497 15.0136 128.52C15.142 128.855 15.8543 129.231 16.597 129.355C19.6717 129.87 30.5317 130.462 48.125 131.073C50.8325 131.167 53.2887 131.256 53.5828 131.271C53.998 131.292 54.1157 134.017 54.1085 143.42L54.099 155.542L52.1634 156.829C44.3208 162.044 39.0437 179.929 37.9992 204.835L37.7133 211.648L35.5096 212.625L33.3059 213.602L33.6484 217.152C33.8367 219.104 33.9039 220.789 33.7982 220.895C33.6921 221.001 30.949 221.454 27.7022 221.9C19.0472 223.092 9.01686 224.878 8.55798 225.31C7.81615 226.007 8.51731 226.046 11.5257 225.474C14.9768 224.818 28.2116 222.893 32.2144 222.465C34.7078 222.198 34.9069 222.101 34.7014 221.255C34.0854 218.72 33.9819 214.724 34.5131 214.01C35.6526 212.477 45.0477 210.702 56.6863 209.82C65.4221 209.158 82.0044 207.367 86.2709 206.625C93.848 205.306 104.29 203.761 104.461 203.933C104.559 204.031 104.243 205.012 103.757 206.112L102.875 208.111L104.073 209.16C104.732 209.737 105.867 210.536 106.596 210.936L107.92 211.663L105.671 216.874C102.011 225.352 99.0644 235.1 99.0644 238.727V239.776L94.8009 237.896C78.7357 230.808 62.5798 228.42 53.0156 231.718C48.0283 233.438 42.3051 237.957 40.5124 241.589L39.6913 243.252L39.4135 238.7C39.2607 236.196 39.1357 233.248 39.1357 232.147C39.1357 229.211 38.0442 226.147 36.3028 224.198C34.6244 222.319 34.7434 222.755 36.7 225.65C37.8768 227.391 38.0005 227.949 38.3609 233.159C38.5754 236.255 38.625 242.166 38.4718 246.297C38.2218 253.032 38.2856 254.195 39.0895 257.582C39.9927 261.386 42.1998 266.724 43.8029 268.98L44.668 270.199L43.7211 270.636C43.2002 270.877 40.7662 271.629 38.3117 272.309C32.7285 273.855 32.0474 274.837 37.5219 273.449C39.7042 272.896 42.5495 272.331 43.8444 272.195L46.1987 271.947L48.5531 274.286C52.3637 278.07 66.4212 291.354 69.4857 294.067C71.0396 295.442 72.3619 296.707 72.4248 296.878C72.5566 297.236 71.7677 297.169 62.4651 296.032C53.3024 294.913 34.3791 291.866 31.7517 291.087C31.3399 290.965 31.0025 291.05 31.0025 291.277C31.0025 291.782 31.4554 291.897 38.8502 293.264C46.9247 294.757 57.0621 296.261 66.4777 297.364L74.3434 298.286L77.2863 300.493C78.9052 301.708 80.2297 302.806 80.2297 302.935C80.2297 303.063 78.2554 303.51 75.842 303.928C68.4991 305.199 60.4887 307.27 57.3284 308.713C52.7776 310.792 50.3141 314.232 50.9819 317.578C51.3967 319.659 54.2189 322.415 57.6344 324.075C61.9326 326.165 64.7017 326.754 69.9562 326.695C74.6751 326.641 75.8994 326.377 92.4294 321.834C99.9719 319.762 101.748 318.97 104.577 316.42C105.734 315.377 106.874 314.524 107.11 314.524C107.345 314.524 108.376 315.004 109.401 315.591C111.756 316.941 112.945 316.937 116.285 315.573L118.969 314.476L127.645 316.616C135.97 318.669 136.403 318.828 138.347 320.544C145.109 326.517 157.276 332.626 169.527 336.199C174.699 337.708 178.08 337.992 180.687 337.136C182.531 336.531 204.993 324.798 223.43 314.809C229.288 311.635 230.589 311.091 232.313 311.091C234.975 311.091 234.976 311.863 232.318 315.408C229.643 318.975 224.72 322.806 218.203 326.392C215.268 328.006 212.104 329.976 211.171 330.768C206.946 334.357 206.213 340.792 209.613 344.453C210.902 345.841 212.99 345.735 214.71 344.195C215.904 343.125 216.099 342.641 216.266 340.328C216.499 337.105 216.856 336.751 223.69 332.98C230.956 328.971 235.112 326.065 238.218 322.825C241.47 319.432 242.971 317.015 243.951 313.59L244.648 311.155L247.302 310.925C251.061 310.6 266.116 309.855 275.212 309.544C282.094 309.308 290.223 309.674 296.736 310.513C298.171 310.698 298.631 310.639 298.327 310.31C296.823 308.682 276.32 308.297 256.656 309.526C250.453 309.914 245.232 310.142 245.056 310.032C244.879 309.922 244.615 308.278 244.469 306.378L244.203 302.922L247.602 299.667C252.822 294.668 256.524 288.365 258.282 281.483C259.31 277.461 259.486 277.4 270.075 277.431C277.483 277.453 279.47 277.612 284.826 278.611C288.23 279.247 292.303 279.766 293.877 279.766C297.085 279.766 297.251 279.612 297.266 276.62C297.277 274.665 298.196 272.358 300.441 268.654C302.92 264.563 304.557 259.21 305.178 253.162C305.335 251.628 305.731 249.118 306.057 247.584C306.382 246.05 306.852 243.23 307.101 241.318C307.35 239.406 307.742 237.186 307.97 236.386C308.532 234.422 308.495 231.525 307.881 229.471C307.281 227.464 307.915 222.845 309.33 218.914C309.963 217.155 310.267 215.012 310.419 211.236L310.629 205.998L309.265 204.63C307.907 203.268 307.891 203.265 304.613 203.541C288.307 204.918 288.095 204.954 276.068 208.449C268.023 210.788 265.626 211.383 261.086 212.171C258.967 212.54 256.925 212.938 256.548 213.057C255.98 213.236 255.703 212.412 254.922 208.222C252.486 195.159 247.423 173.08 244.861 164.352C244.274 162.353 243.836 160.675 243.888 160.624C243.938 160.573 247.444 160.897 251.677 161.344C264.658 162.717 272.1 163.098 285.913 163.095C299.982 163.093 304.512 162.81 317.702 161.11C322.237 160.525 327.245 160.025 328.832 159.997C330.418 159.969 332.294 159.782 333 159.582C335.466 158.883 323.701 159.612 315.268 160.681C296.136 163.104 278.12 163.23 256.163 161.091C252.514 160.736 248.205 160.326 246.589 160.18C243.756 159.924 243.629 159.863 243.053 158.482C242.031 156.03 242.143 155.552 244.133 153.873L246.015 152.286L288.652 152.344C312.102 152.376 331.341 152.24 331.405 152.041C331.572 151.522 327.087 151.144 320.081 151.086C314.129 151.037 314.008 151.017 313.874 150.071C313.786 149.45 313.393 149.056 312.774 148.968C311.883 148.841 311.811 148.613 311.811 145.91C311.811 143.794 311.994 142.836 312.475 142.436C313.499 141.585 313.09 139.747 311.811 139.45C310.903 139.239 310.721 138.922 310.607 137.351C310.515 136.084 310.696 135.254 311.18 134.718C311.568 134.288 311.818 133.584 311.736 133.153C311.592 132.406 310.315 132.366 283.981 132.269C262.135 132.189 256.154 132.284 255.307 132.721C254.286 133.249 254.242 133.43 254.346 136.684C254.488 141.15 254.691 141.908 255.843 142.269C257.209 142.696 257.433 143.213 257.441 145.948C257.447 148.183 257.364 148.39 256.363 148.641C255.766 148.792 255.061 149.392 254.795 149.975C254.332 150.995 254.155 151.036 250.27 151.036C246.977 151.036 246.269 150.925 246.456 150.435C246.583 150.104 246.919 148.238 247.203 146.289C247.792 142.251 247.516 136.658 246.538 132.799C245.053 126.945 239.542 118.085 236.36 116.435C234.064 115.245 230.162 111.174 227.842 107.549C223.69 101.06 219.78 91.3028 216.76 79.8969C212.022 61.9965 206.495 52.2503 197.389 45.7366C194.087 43.3744 187.623 40.2424 184.035 39.2666C180.322 38.2569 171.525 38.0291 167.768 38.8457ZM163.274 56.7988C163.274 57.8647 166.627 64.0952 168.288 66.1154C170.448 68.7441 173.018 70.6755 175.728 71.7075C179.064 72.9781 179.198 72.0889 175.987 69.9924C173.203 68.1738 168.639 63.8451 167.083 61.5468C166.612 60.8508 165.751 59.3644 165.171 58.2432C164.144 56.2599 163.274 55.5973 163.274 56.7988ZM160.523 61.1108C156.769 67.1483 151.573 73.0291 147.342 76.0298C145.234 77.5239 144.954 77.8797 145.33 78.5834C146.155 80.1277 147.39 86.8916 147.866 92.4618C148.398 98.6923 149.177 101.151 151.941 105.325C154.507 109.201 157.798 112.203 161.48 114.026C164.54 115.541 164.957 115.633 168.604 115.601C174.14 115.552 178.811 113.75 185.395 109.126C188.684 106.816 189.149 106.777 188.815 108.841C188.373 111.571 186.327 115.113 183.636 117.807C180.643 120.802 177.894 122.286 175.338 122.286H173.547V123.945C173.547 126.627 172.744 130.139 171.852 131.358C171.073 132.421 171.067 132.531 171.75 133.13C174.592 135.626 180.15 136.266 185.934 134.763C189.745 133.773 196.234 131 196.234 130.362C196.234 130.15 195.85 129.452 195.382 128.813C194.179 127.174 192.955 121.797 192.185 114.777C191.116 105.028 191.125 104.907 193.19 101.709C194.173 100.185 195.078 98.4473 195.2 97.847C195.972 94.0409 195.863 94.1675 198.242 94.3228C201.197 94.5163 202.633 93.677 204.728 90.5321C207.464 86.4248 207.63 82.5448 205.16 80.4607C203.556 79.1077 202.064 79.0902 199.908 80.3985L198.23 81.4163L196.269 80.0205C195.191 79.2524 193.654 78.2912 192.854 77.884C190.975 76.9275 181.68 73.9049 181.68 74.2503C181.68 74.3949 183.029 75.1707 184.677 75.974C187.476 77.3377 188.359 78.0891 187.165 78.0891C186.886 78.0891 184.77 77.2047 182.462 76.1234C178.409 74.2242 178.173 74.1679 175.479 74.4567C173.946 74.6215 172.691 74.6421 172.691 74.5026C172.691 74.3632 173.297 73.9354 174.037 73.5518L175.382 72.854L173.074 71.5899C169.042 69.3822 165.506 65.2148 163.53 60.3436L162.532 57.8801L160.523 61.1108ZM43.6304 73.6354C36.9907 74.5726 36.5656 74.7022 35.8966 75.9993C34.0461 79.5866 21.4097 112.13 18.1847 121.615L16.0255 127.964L17.2001 127.701C21.0039 126.849 34.8397 126.439 60.9669 126.403C88.1959 126.365 97.1261 126.656 101.526 127.724C102.225 127.894 102.489 127.767 102.489 127.261C102.489 125.346 90.5322 94.0508 84.6421 80.55C82.8438 76.428 82.0284 75.0171 81.3482 74.8502C77.6223 73.9349 73.8785 73.7109 60.3248 73.5908C51.8492 73.5157 44.3367 73.5359 43.6304 73.6354ZM150.863 75.3398C149.326 76.0079 147.435 77.5531 147.435 78.141C147.435 78.3234 148.543 77.8844 149.897 77.1656C152.165 75.9616 152.618 75.874 155.676 76.0448C158.113 76.1813 158.993 76.0907 158.993 75.7041C158.993 75.4141 158.688 75.06 158.316 74.9167C157.037 74.4245 152.357 74.6902 150.863 75.3398ZM161.885 80.4491C162.352 83.1688 162.105 87.9803 161.38 90.3184C160.305 93.7843 160.458 94.7644 162.19 95.4895C163.006 95.8315 163.969 96.1113 164.33 96.1113C165.483 96.1113 165.033 95.2844 163.54 94.6588C161.599 93.8461 161.501 93.5873 162.223 91.1818C163.031 88.4918 163.016 81.7497 162.199 80.02L161.591 78.7327L161.885 80.4491ZM175.613 80.0084C171.689 82.6813 172.224 88.3317 176.406 88.3738C179.901 88.4089 180.598 83.7944 177.423 81.6377L176.014 80.6808L177.192 80.2324C180.051 79.1425 183.191 81.8557 183.795 85.936C184.101 88.0116 184.854 88.2008 185.012 86.242C185.174 84.2351 183.568 81.1443 181.724 79.9162C179.793 78.6297 177.588 78.6632 175.613 80.0084ZM150.603 81.6935C149.027 83.273 148.663 85.3855 149.645 87.2358C151.264 90.2824 155.143 89.7083 155.139 86.4226C155.137 84.8907 153.68 82.3801 152.793 82.3801C151.868 82.3801 151.99 81.6287 152.964 81.3189C155.137 80.6272 158.267 83.1434 158.805 86.0146C159.12 87.6971 159.849 87.6542 159.849 85.9532C159.849 84.4132 158.281 81.7922 156.853 80.9469C156.192 80.5551 154.842 80.2346 153.855 80.2346C152.382 80.2346 151.796 80.498 150.603 81.6935ZM201.317 82.6736C198.873 84.1939 198.036 87.2581 199.873 87.9584C201.268 88.49 201.23 89.3929 199.766 90.4665C198.715 91.238 198.671 91.362 199.36 91.6293C200.303 91.9958 202.227 90.333 202.227 89.1513C202.227 88.7097 201.717 87.8374 201.094 87.2126C200.047 86.163 200.007 85.9935 200.564 84.9791C200.895 84.3758 201.786 83.5923 202.544 83.2383C203.301 82.8843 203.925 82.4496 203.93 82.2728C203.946 81.7197 202.491 81.9424 201.317 82.6736ZM169.481 98.4787C167.833 98.7915 164.702 99.0627 162.525 99.0811C160.347 99.0996 158.565 99.2116 158.565 99.3296C158.565 99.4476 158.861 99.8818 159.223 100.295C159.585 100.708 160.394 101.7 161.022 102.499C164.521 106.952 171.028 105.457 174.355 99.4368L175.245 97.8277L173.861 97.8689C173.1 97.8916 171.129 98.1658 169.481 98.4787ZM165.299 99.938C162.668 100.204 162.111 100.835 164.031 101.374C166.016 101.93 170.123 100.916 170.123 99.8698C170.123 99.5244 169.271 99.5364 165.299 99.938ZM32.0727 127.884C28.3058 128.045 24.0679 128.228 22.6553 128.29L20.087 128.403L22.6553 128.739C25.9185 129.167 43.8585 130.01 49.6887 130.01H54.1179V128.723V127.436L46.5198 127.513C42.3406 127.556 35.8396 127.723 32.0727 127.884ZM55.4021 141.133V154.829L57.1143 154.155L58.8266 153.481V140.458V127.436H57.1143H55.4021V141.133ZM60.1108 128.792V130.149L75.842 129.819C94.0608 129.437 101.336 129.059 99.0644 128.615C95.6258 127.943 84.2312 127.436 72.5691 127.436H60.1108V128.792ZM196.263 131.755C191.514 134.953 183.649 137.133 178.215 136.76C174.896 136.533 173.173 135.902 170.611 133.979L169.173 132.899L167.615 133.831C163.144 136.507 159.129 137.817 149.79 139.648C143.327 140.915 140.336 142.23 136.306 145.576C129.608 151.137 127.15 155.064 119.456 172.491C110.925 191.814 108.123 197.948 107.276 199.154C106.885 199.712 106.256 201.327 105.879 202.743C105.501 204.159 105.057 205.626 104.89 206.002C104.62 206.615 105.364 206.682 111.993 206.646C118.212 206.611 119.774 206.735 121.752 207.416C124.102 208.226 129.514 210.863 131.662 212.244C132.763 212.952 132.837 212.94 134.143 211.839C135.605 210.606 138.574 209.616 139.613 210.015C140.118 210.21 140.199 210.049 139.979 209.293C137.725 201.541 137.722 192.729 139.971 186.939C140.208 186.328 139.41 186.591 136.364 188.124C134.213 189.207 132.453 189.941 132.453 189.756C132.453 189.57 134.379 188.366 136.734 187.081C140.815 184.852 141.014 184.677 141.014 183.332C141.014 181.741 141.692 181.798 134.642 182.797C131.739 183.208 130.68 183.137 131.246 182.569C131.368 182.447 133.421 182.095 135.808 181.786C138.196 181.477 140.292 181.082 140.467 180.907C140.641 180.733 140.331 179.395 139.779 177.935C139.227 176.475 138.438 174.122 138.026 172.706C137.288 170.172 135.878 161.51 135.878 159.514C135.878 158.082 137.378 156.615 138.842 156.615C140.266 156.615 143.975 158.998 147.566 162.22L150.051 164.449L153.345 163.447C155.903 162.668 157.595 162.451 160.919 162.475L165.2 162.505L166.912 160.148C169.219 156.973 172.307 154.258 174.621 153.372C176.381 152.698 176.607 152.696 177.584 153.337C178.169 153.722 178.841 154.753 179.088 155.645C179.619 157.562 179.672 167.757 179.162 169.955C178.953 170.856 178.987 172.505 179.244 173.924L179.683 176.353H185.202C188.772 176.353 190.627 176.505 190.456 176.782C190.302 177.031 187.954 177.211 184.866 177.211H179.54V178.443C179.54 179.671 179.552 179.677 184.473 180.646C187.186 181.181 189.509 181.785 189.635 181.989C189.962 182.519 188.593 182.449 185.24 181.765C178.804 180.452 179.259 180.417 178.954 182.244C178.806 183.134 178.572 184.271 178.435 184.771C178.216 185.567 178.788 186.001 183.036 188.26C185.705 189.678 189.508 191.828 191.489 193.037C193.47 194.245 195.493 195.237 195.984 195.24C197.192 195.249 197.816 195.709 198.009 196.735C198.123 197.343 198.606 197.656 199.664 197.808C200.881 197.983 201.238 198.273 201.595 199.379C201.835 200.125 203.677 202.446 205.688 204.537C210.806 209.859 216.927 219.28 219.158 225.271C219.931 227.342 220.166 227.613 221.085 227.487C221.661 227.407 222.31 227.171 222.528 226.961C222.745 226.751 223.01 224.481 223.115 221.914L223.307 217.249L220.826 216.992C218.997 216.803 218.074 216.463 217.311 215.698L216.276 214.661L216.673 202.909C216.891 196.445 216.986 190.139 216.883 188.894C216.781 187.65 216.855 186.298 217.047 185.891C217.281 185.394 217.475 186.141 217.635 188.153L217.873 191.157L218.818 189.101C220.099 186.313 221.979 183.137 222.212 183.37C222.316 183.475 221.741 184.883 220.935 186.501C218.376 191.635 218.165 192.828 217.884 203.756C217.641 213.225 217.669 213.762 218.381 213.444C218.796 213.258 221.544 212.473 224.486 211.699C229.24 210.448 230.488 210.289 235.667 210.271C242.285 210.25 247.775 211.055 251.624 212.614C253.038 213.187 254.28 213.57 254.384 213.466C254.966 212.883 247.637 179.287 244.363 167.533C240.81 154.775 238.375 149.453 234.15 145.204C230.551 141.585 227.043 140.005 216.703 137.343C207.697 135.024 203.828 133.715 200.264 131.78L198.029 130.566L196.263 131.755ZM255.512 133.956C255.374 134.317 255.416 136.039 255.605 137.782L255.949 140.952L283.987 140.959L312.025 140.965L284.502 140.744L256.978 140.523L256.79 137.332C256.604 134.176 256.019 132.632 255.512 133.956ZM260.138 133.761C261.501 133.846 263.619 133.845 264.847 133.759C266.074 133.673 264.96 133.603 262.37 133.604C259.78 133.604 258.776 133.675 260.138 133.761ZM268.042 133.727C268.336 133.846 268.818 133.846 269.112 133.727C269.406 133.608 269.165 133.511 268.577 133.511C267.988 133.511 267.748 133.608 268.042 133.727ZM270.637 133.736C270.946 133.86 271.315 133.845 271.457 133.702C271.599 133.56 271.347 133.459 270.896 133.477C270.397 133.498 270.296 133.599 270.637 133.736ZM276.614 133.758C277.621 133.849 279.162 133.847 280.039 133.755C280.915 133.663 280.092 133.589 278.208 133.59C276.325 133.592 275.607 133.667 276.614 133.758ZM283.051 133.736C283.36 133.86 283.729 133.845 283.871 133.702C284.013 133.56 283.761 133.459 283.309 133.477C282.811 133.498 282.709 133.599 283.051 133.736ZM287.76 133.736C288.068 133.86 288.438 133.845 288.58 133.702C288.722 133.56 288.469 133.459 288.018 133.477C287.519 133.498 287.418 133.599 287.76 133.736ZM290.328 133.736C290.637 133.86 291.006 133.845 291.148 133.702C291.29 133.56 291.038 133.459 290.587 133.477C290.088 133.498 289.986 133.599 290.328 133.736ZM301.431 133.727C301.725 133.846 302.207 133.846 302.501 133.727C302.795 133.608 302.554 133.511 301.966 133.511C301.377 133.511 301.137 133.608 301.431 133.727ZM305.294 133.758C306.301 133.849 307.842 133.847 308.719 133.755C309.595 133.663 308.772 133.589 306.888 133.59C305.005 133.592 304.287 133.667 305.294 133.758ZM191.984 136.499C187.314 138.876 185.054 139.454 180.482 139.44C177.007 139.429 173.932 138.478 170.933 136.486L169.481 135.521L170.97 136.848C173.342 138.962 176.371 139.88 180.977 139.88C185.468 139.88 188.2 139.208 192.381 137.077C195.17 135.656 197.251 134.279 196.448 134.386C196.213 134.417 194.204 135.368 191.984 136.499ZM259.952 135.042L257.963 135.203L258.192 137.005C258.318 137.996 258.507 138.903 258.612 139.021C258.716 139.139 270.162 139.297 284.046 139.371L309.289 139.506L309.159 137.226L309.029 134.945L285.485 134.913C272.536 134.896 261.046 134.954 259.952 135.042ZM258.491 142.84C258.622 143.053 258.764 144.501 258.807 146.059L258.885 148.891H284.706H310.527V145.672V142.454H284.39C269.013 142.454 258.351 142.613 258.491 142.84ZM256.311 150.285C256.202 150.463 268.885 150.562 284.497 150.508C300.108 150.453 308.354 150.357 302.822 150.294C276.719 149.997 256.491 149.993 256.311 150.285ZM72.5245 152.805C61.2909 153.629 54.1975 155.992 50.4635 160.156C47.2984 163.684 45.3011 168.336 42.3098 179.142C41.2294 183.046 39.6224 194.906 39.1614 202.378C38.5416 212.432 38.4825 211.696 39.8848 211.387C40.5325 211.244 42.3363 210.849 43.8941 210.51C45.4518 210.17 53.6385 209.193 62.0867 208.338C82.3156 206.292 93.7487 204.827 102.83 203.12C104.161 202.869 104.423 202.535 106.112 198.933C108.6 193.628 111.933 186.265 113.614 182.361C114.376 180.591 116.808 175.068 119.018 170.087C121.228 165.107 123.036 160.939 123.036 160.824C123.036 160.71 112.682 160.488 100.028 160.333C73.9864 160.012 61.9155 159.365 57.4033 158.051C55.5613 157.515 57.2492 157.554 61.4125 158.144C68.5859 159.162 81.1187 159.602 103.153 159.61L123.721 159.618L124.663 157.676C125.825 155.278 125.83 154.872 124.717 153.454L123.83 152.324L100.638 152.384C87.8834 152.417 75.232 152.607 72.5245 152.805ZM171.991 156.293C170.053 157.998 166.27 162.503 166.27 163.106C166.27 163.348 166.785 162.903 167.414 162.119C168.043 161.333 169.82 159.387 171.362 157.795C174.325 154.734 174.653 153.952 171.991 156.293ZM141.014 159.008C142.074 159.611 143.615 160.724 144.439 161.48C147.592 164.374 148.582 165.054 146.793 163.097C145.082 161.226 140.442 157.897 139.557 157.907C139.299 157.91 139.955 158.406 141.014 159.008ZM163.996 171.549C161.982 173.656 162.591 175.066 165.515 175.066C166.814 175.066 166.821 175.054 166.038 174.188C165.562 173.661 165.262 172.717 165.287 171.828C165.31 171.013 165.288 170.346 165.238 170.346C165.187 170.346 164.628 170.887 163.996 171.549ZM168.968 171.939C168.993 172.833 168.859 173.899 168.669 174.308C168.362 174.971 168.463 175.003 169.61 174.602C170.317 174.355 171.239 173.772 171.659 173.307C172.394 172.494 172.391 172.43 171.594 171.663C171.138 171.224 170.35 170.741 169.844 170.589C169.01 170.341 168.927 170.468 168.968 171.939ZM152.687 173.735C153.067 174.743 153.017 175.191 152.426 176.095C152.025 176.709 151.426 177.211 151.095 177.211C150.142 177.211 148.634 174.991 148.843 173.895C149.084 172.632 148.514 172.659 147.202 173.974C145.665 175.514 145.833 176.611 147.7 177.228C150.458 178.14 155.171 177.03 155.486 175.395C155.648 174.548 153.775 172.491 152.843 172.491C152.332 172.491 152.303 172.717 152.687 173.735ZM158.85 178.356C158.35 178.857 158.541 179.314 159.457 179.805C160.168 180.187 160.514 180.133 161.169 179.539C161.62 179.13 161.989 178.632 161.989 178.432C161.989 178.005 159.267 177.939 158.85 178.356ZM165.628 182.361C164.712 183.375 163.335 183.466 162.178 182.589C161.085 181.76 160.087 181.771 159.384 182.62C158.273 183.962 156.798 184.198 155.504 183.239C153.885 182.039 153.495 182.134 154.712 183.433C156.038 184.848 157.844 184.839 159.27 183.41L160.363 182.313L162.05 183.151C162.978 183.611 164.099 183.892 164.539 183.777C165.449 183.538 167.508 181.502 166.839 181.502C166.599 181.502 166.054 181.889 165.628 182.361ZM141.329 186.953C139.332 191.957 138.896 198.754 140.194 204.651C141.24 209.398 141.371 209.646 143.814 211.478C145.119 212.456 146.25 213.256 146.327 213.256C146.403 213.256 146.57 212.48 146.697 211.532C146.824 210.583 147.509 208.894 148.22 207.777C148.931 206.66 150.124 204.202 150.872 202.314C152.192 198.983 152.217 198.796 151.728 196.022C151.174 192.883 150.877 192.508 147.513 190.706C145.389 189.569 143.563 187.857 142.484 185.995C142.079 185.296 141.947 185.405 141.329 186.953ZM192.787 197.735C191.74 198.403 187.759 201.396 183.94 204.386C180.121 207.377 176.895 209.823 176.77 209.823C176.115 209.823 176.813 208.659 179.314 205.578C186.196 197.103 186.024 194.923 178.966 201.177C175.387 204.349 172.699 207.66 169.654 212.644C166.738 217.421 163.586 220.687 160.551 222.08C158.014 223.244 151.055 224.919 145.406 225.724L141.877 226.227L141.422 228.001C138.77 238.355 135.849 242.29 131.117 241.883C126.995 241.529 124.757 238.384 124.406 232.458C124.284 230.396 124.028 229.136 123.73 229.142C123.466 229.146 120.657 229.53 117.488 229.995C114.189 230.479 111.565 230.679 111.351 230.464C111.136 230.248 111.17 229.968 111.429 229.807C111.85 229.546 122.556 227.852 123.81 227.847C124.222 227.846 129.029 218.58 129.029 217.788C129.029 217.722 126.958 216.442 124.427 214.944C119.333 211.928 113.994 209.471 111.738 209.104C109.977 208.817 110.104 208.615 106.432 217.572C101.56 229.454 100.118 235.043 100.435 240.817C100.654 244.822 101.532 246.967 103.842 249.145C106.028 251.205 107.876 251.944 111.458 252.19C114.173 252.377 115.405 252.22 118.685 251.275C122.775 250.095 139.249 244.261 149.856 240.236L155.915 237.936L157.241 235.24C161.21 227.173 167.323 224.669 176.967 227.159L181.362 228.294L183.554 226.597C187.484 223.554 194.255 217.34 196.719 214.516C202.562 207.817 203.055 205.172 197.478 210.446C193.753 213.968 188.281 218.108 187.635 217.892C187.362 217.8 188.989 216.234 191.251 214.411C199.077 208.101 202.757 204.164 201.991 202.921C201.647 202.364 200.532 203.085 195.55 207.089C190.592 211.074 185.933 214.147 185.374 213.801C185.122 213.645 185.266 213.34 185.721 213.072C186.15 212.819 188.258 211.27 190.405 209.629C197.26 204.39 202.104 199.096 200.042 199.096C199.782 199.096 196.748 201.089 193.3 203.525C186.37 208.421 182.212 210.928 181.765 210.48C181.604 210.318 182.081 209.67 182.824 209.039C184.833 207.336 193.149 199.978 195.142 198.141C196.824 196.591 196.843 196.542 195.783 196.532C195.182 196.526 193.833 197.068 192.787 197.735ZM303.213 204.854C303.114 204.954 300.24 205.256 296.827 205.527C290.801 206.005 277.182 208.818 272.944 210.46C271.055 211.192 261.12 213.507 258.089 213.922C256.806 214.097 255.521 214.598 254.879 215.173C253.613 216.306 250.589 217.547 249.091 217.547H248.03L248.026 223.018C248.025 226.027 247.822 229.744 247.576 231.278C246.34 238.986 241.579 243.635 231.978 246.512C226.456 248.167 224.886 248.802 223.264 250.036C221.11 251.676 220.632 253.28 220.644 258.834C220.663 267.497 221.806 270.13 228.611 277.185C231.232 279.903 233.876 282.728 234.486 283.463C237.387 286.96 240.347 292.819 242.7 299.72C242.882 300.254 243.068 300.376 243.192 300.043C243.497 299.226 241.701 294.139 239.669 290.065C237.223 285.159 234.74 281.884 229.149 276.185C223.817 270.752 222.273 268.128 221.483 263.16C221.125 260.91 221.115 259.045 221.445 256.294C221.877 252.701 221.979 252.443 223.57 250.941C225.862 248.778 228.676 248.013 234.341 248.013C242.236 248.013 248.527 250.263 253.246 254.775C257.684 259.018 259.767 264.956 259.511 272.632C259.436 274.905 259.495 276.764 259.642 276.764C259.79 276.763 260.561 276.505 261.355 276.191C262.547 275.719 264.345 275.712 271.692 276.151C276.584 276.443 281.496 276.89 282.608 277.143C286.25 277.973 293.598 278.893 294.556 278.64C295.299 278.444 295.621 277.836 296.102 275.722C296.436 274.254 297.021 272.488 297.401 271.797C300.155 266.792 301.961 262.365 302.77 258.633C304.888 248.869 305.354 246.342 305.597 243.293C305.739 241.523 306.154 238.778 306.521 237.194C306.936 235.399 307.092 233.457 306.936 232.044C306.045 224 305.98 224.551 308.842 215.659C309.063 214.975 309.243 212.61 309.243 210.403C309.243 205.475 308.715 204.674 305.462 204.674C304.323 204.674 303.312 204.755 303.213 204.854ZM236.9 213.488C233.676 214.002 224.947 216.053 224.693 216.358C224.64 216.422 224.5 218.759 224.382 221.552C224.18 226.356 224.211 226.618 224.969 226.419C225.862 226.185 226.499 226.859 225.926 227.431C225.723 227.635 223.052 228.299 219.992 228.907C212.901 230.318 205.018 232.32 194.502 235.381C181.468 239.176 176.974 240.313 173.975 240.576C170.844 240.851 170.123 241.414 170.123 243.58C170.123 246.073 168.379 255.84 167.69 257.205C167.323 257.932 166.727 258.864 166.366 259.277C165.772 259.956 165.779 260.028 166.439 260.028C167.479 260.028 169.183 259.078 174.262 255.668C176.715 254.021 179.341 252.414 180.097 252.097C180.854 251.781 188.502 250.822 197.094 249.968C205.685 249.113 214.641 248.138 216.995 247.801C219.35 247.464 222.913 246.975 224.915 246.714C229.151 246.162 235.318 244.203 238.39 242.435C245.271 238.474 247.129 233.338 246.538 219.907L246.226 212.827L243.383 212.868C241.819 212.891 238.901 213.17 236.9 213.488ZM340.919 232.333C331.352 233.733 322.274 236.402 318.222 239.008C312.847 242.466 310.474 247.775 308.636 260.457C308.277 262.935 307.203 271.721 306.251 279.981C303.493 303.886 301.271 319.727 300.307 322.353C299.613 324.239 299.386 325.68 299.782 325.68C300.003 325.68 300.577 324.474 301.059 322.998C302.97 317.142 304.265 308.651 307.743 279.167C311.17 250.117 312.136 246.256 317.118 241.691C321.679 237.512 332.113 234.423 347.233 232.773C348.705 232.613 349.909 232.307 349.909 232.094C349.909 231.566 345.334 231.687 340.919 232.333ZM151.647 244.417C147.658 245.584 146.422 246.199 142.299 249.066C140.533 250.295 137.706 252.025 136.016 252.911C133.152 254.414 131.755 255.737 133.034 255.737C133.724 255.737 138.669 254.021 142.088 252.595C143.503 252.005 145.911 251.205 147.439 250.818C148.967 250.431 150.555 250.014 150.967 249.892C152.341 249.487 151.738 250.567 150.24 251.194C149.429 251.534 147.589 252.612 146.153 253.59C144.717 254.567 141.481 256.534 138.961 257.96C133.843 260.857 131.597 262.424 131.597 263.1C131.597 263.379 132.05 263.442 132.774 263.264C135.908 262.492 149.295 257.013 150.196 256.134C150.709 255.634 151.716 255.615 151.716 256.106C151.716 256.642 147.127 259.01 141.68 261.286C135.813 263.736 135.107 264.136 135.664 264.694C136.403 265.434 142.148 264.135 148.197 261.86C154.078 259.648 156.411 259.546 151.641 261.709C149.41 262.722 146.359 263.755 139.348 265.875C135.905 266.916 150.062 265.302 154.712 264.124C156.243 263.736 158.132 263.216 158.911 262.969L160.327 262.52L158.542 261.634C156.285 260.515 155.33 258.936 154.67 255.236C154.253 252.897 154.258 251.422 154.694 247.99C154.996 245.62 155.171 243.631 155.084 243.569C154.997 243.508 153.451 243.889 151.647 244.417ZM124.119 251.424C123.495 252.437 121.316 259.42 120.89 261.773C120.465 264.123 120.652 266.468 121.263 266.461C121.414 266.46 121.567 265.059 121.602 263.35C121.651 261.022 122.053 259.12 123.205 255.769C124.582 251.762 124.929 250.11 124.119 251.424ZM96.71 253.028C98.5053 254.842 109.218 261.52 123.892 269.971C137.14 277.602 139.212 278.734 138.446 277.925C138.093 277.552 134.144 275.142 129.671 272.57C118.757 266.294 107.353 259.524 103.148 256.826C98.7309 253.992 96.1673 252.479 96.71 253.028ZM163.702 262.014L162.632 262.629L164.097 262.508C164.903 262.442 165.641 262.147 165.738 261.851C165.964 261.161 165.062 261.233 163.702 262.014ZM166.698 261.681C166.698 262.488 169.521 264.481 172.968 266.107C178.04 268.499 178.799 268.097 173.845 265.644C171.537 264.501 169.225 263.185 168.708 262.719C167.42 261.558 166.698 261.185 166.698 261.681ZM205.488 262.459C206.439 266.328 210 272.453 213.446 276.147C214.88 277.682 217.808 280.355 219.955 282.085C222.101 283.816 224.551 286.002 225.4 286.943C228.276 290.135 231.479 296.361 233.573 302.831C235.025 307.318 235.986 308.314 234.692 303.99C232.797 297.658 229.239 290.487 226.263 287.002C225.463 286.065 223.213 283.963 221.264 282.331C217.048 278.801 213.027 274.7 210.931 271.792C209.325 269.565 206.08 263.234 206.08 262.329C206.08 262.035 205.88 261.671 205.635 261.519C205.342 261.338 205.292 261.66 205.488 262.459ZM187.305 265.455C182.781 267.266 178.594 268.614 175.474 269.262C172.716 269.835 169.569 270.81 168.136 271.534C165.841 272.694 159.825 275.292 136.948 285.001C125.335 289.929 117.268 293.644 117.796 293.821C118.046 293.904 120.339 293.018 122.891 291.851C127.148 289.904 139.278 284.707 156.639 277.391C160.406 275.804 165.004 273.744 166.857 272.813C169.139 271.668 171.765 270.802 174.991 270.13C180.047 269.077 186.116 266.964 191.74 264.299C196.874 261.866 195.15 262.316 187.305 265.455ZM108.821 301.632C105.122 302.521 101.499 303.496 100.768 303.799C98.3735 304.794 96.496 308.233 96.496 311.626C96.496 313.63 97.5649 316.095 98.698 316.702C100.065 317.435 102.364 316.691 104.176 314.928C106.011 313.142 108.578 312.191 119.287 309.33C122.288 308.528 124.743 307.734 124.745 307.564C124.75 307.099 116.467 299.938 115.973 299.979C115.737 299.999 112.519 300.743 108.821 301.632ZM86.4485 302.108C83.9799 302.522 80.6577 303.718 80.6577 304.194C80.6577 304.374 81.7655 304.133 83.1191 303.657C85.0847 302.968 87.023 302.755 92.7453 302.602C96.7392 302.495 99.8066 302.242 99.6761 302.03C99.3867 301.561 89.3594 301.621 86.4485 302.108ZM78.6835 307.24C78.9553 308.945 81.2373 314.602 82.1213 315.765C82.3713 316.093 82.5943 317.254 82.617 318.343C82.6392 319.433 82.8875 320.755 83.1683 321.281C83.7119 322.3 85.3732 322.931 86.4357 322.522C87.2721 322.2 87.273 319.939 86.4366 319.244C85.4199 318.398 85.6776 318.115 87.2927 318.304C88.8684 318.488 89.2241 317.993 88.1544 317.103C87.5191 316.574 86.1155 316.742 84.9811 317.481C84.4855 317.805 84.5411 318.075 85.3022 319.045C86.4558 320.515 86.4772 321.389 85.36 321.389C84.8463 321.389 84.1546 320.825 83.6494 319.995C82.5866 318.247 82.5724 317.527 83.6019 317.527C84.0437 317.527 84.6588 317.221 84.9687 316.847C85.2786 316.473 86.2653 315.873 87.1613 315.513C88.0576 315.154 88.7909 314.7 88.7909 314.506C88.7909 313.891 87.1048 313.586 85.3506 313.883C82.9585 314.288 82.926 314.761 85.3 314.617C87.2422 314.499 87.2653 314.512 86.2225 315.138C84.295 316.295 83.316 316 82.4046 313.987C81.9505 312.984 81.4436 311.488 81.2788 310.662C80.8807 308.665 79.3898 305.512 78.8436 305.512C78.5748 305.512 78.5136 306.174 78.6835 307.24ZM73.1761 306.785C72.8212 307.36 74.3635 312.093 75.5312 314.012C76.0278 314.828 77.1472 315.769 78.1651 316.226L79.9356 317.021L78.3034 317.472C76.2483 318.041 74.2368 319.936 74.2368 321.303C74.2368 322.259 74.3575 322.32 75.735 322.061C77.1356 321.798 77.2332 321.852 77.2332 322.897C77.2332 323.533 77.4177 323.9 77.6613 323.749C77.8967 323.603 78.0893 322.987 78.0893 322.38C78.0893 321.119 79.4861 318.656 80.6736 317.822C81.4903 317.248 81.4205 315.382 80.5824 315.382C80.3606 315.382 80.3007 315.623 80.4492 315.918C80.5982 316.213 80.0366 315.682 79.2019 314.738C78.3672 313.794 77.4751 312.442 77.2195 311.734C75.9135 308.116 73.8854 305.634 73.1761 306.785ZM125.658 309.295C125.86 309.87 133.829 317.15 134.033 316.945C134.225 316.752 126.561 309.213 125.954 308.999C125.703 308.911 125.57 309.044 125.658 309.295ZM233.155 309.253C232.419 309.518 232.479 310.233 233.236 310.233C233.945 310.233 234.507 309.525 234.018 309.247C233.837 309.145 233.449 309.148 233.155 309.253ZM77.1395 318.837C75.5128 319.698 74.3763 321.16 75.0219 321.56C75.5291 321.874 77.0235 320.744 78.0949 319.236C78.5949 318.532 78.9425 317.965 78.8676 317.975C78.7926 317.986 78.0149 318.374 77.1395 318.837ZM88.7909 320.954C89.144 321.186 89.8987 321.379 90.4676 321.383C91.8413 321.391 91.4932 321.147 89.647 320.808C88.5931 320.614 88.3393 320.657 88.7909 320.954ZM63.5352 324.735C64.4992 325.335 68.2439 325.739 68.2439 325.243C68.2439 325.011 67.69 324.822 67.0132 324.822C66.3365 324.822 65.1323 324.713 64.3379 324.579C63.352 324.413 63.0973 324.463 63.5352 324.735Z" />
    </g>
</svg>
