<svg viewBox="0 0 256 256" fill="currentColor" xmlns="http://www.w3.org/2000/svg">
<g filter="url(#filter0_gn_1124_15541)">
<path fill-rule="evenodd" clip-rule="evenodd" d="M199.041 4.88504C198.214 5.43256 196.458 7.06713 195.137 8.51705L192.737 11.1538L189.786 11.3529C183.334 11.7878 176.416 14.6735 170.377 19.4486C168.922 20.5993 167.282 21.6025 166.521 21.8073C164.777 22.277 162.844 24.0642 162.169 25.8316C160.957 29.0054 162.729 33.6946 166.636 37.6566C170.096 41.1644 179.051 46.759 185.043 49.1564C189.241 50.8364 191.756 51.327 195.474 51.1922C198.275 51.0908 198.934 50.9506 200.754 50.069C203.215 48.8777 203.909 47.8943 204.286 45.0614C204.431 43.9769 204.775 41.6492 205.05 39.8892C205.963 34.0546 205.639 26.0226 204.274 20.6886L203.648 18.2402L205.161 15.9446C206.459 13.9766 206.821 13.6351 207.704 13.5497C210.048 13.3231 213.205 15.5862 215.598 19.207C225.6 34.3433 232.305 71.3692 234.989 126.289C235.907 145.079 236.641 183.092 236.087 183.086C235.926 183.084 235.08 182.866 234.208 182.601C230.528 181.485 222.74 179.557 222.576 179.722C222.053 180.244 224.022 180.914 231.634 182.805C235.429 183.748 236.274 184.095 236.274 184.712C236.274 185.431 237.448 185.585 237.611 184.888C237.692 184.542 238.58 184.709 241.714 185.66C243.914 186.327 246.344 187.102 247.115 187.381C248.68 187.949 249.714 188.036 249.714 187.599C249.714 187.25 248.119 186.673 242.194 184.875L237.714 183.516L237.647 178.903C237.455 165.822 236.856 140.443 236.587 133.969C234.167 75.7804 227.611 36.5548 217.504 19.7919C215.014 15.6623 210.864 12.2214 208.362 12.2124C207.559 12.2095 207.515 12.1446 207.802 11.3884C208.755 8.88184 207.627 5.87992 205.264 4.6332C203.157 3.52184 200.965 3.61048 199.041 4.88504ZM166.907 22.749C164.85 23.4498 164.175 24.0322 163.282 25.8754C161.866 28.8015 163.424 32.8191 167.608 37.0258C170.416 39.8489 171.897 40.9234 178.125 44.654C184.592 48.5276 189.713 50.2892 194.507 50.2892C198.003 50.2892 200.244 49.5945 201.815 48.0239C202.977 46.8617 203.04 46.7014 202.838 45.4172C202.32 42.125 199.125 37.0441 195.523 33.7842C193.053 31.5487 187.964 28.1033 184.525 26.3375L181.895 24.9878L180.756 26.703C178.782 29.677 178.899 32.9407 181.071 35.478C183.898 38.781 188.976 39.4438 192.603 36.9826C193.666 36.2614 193.863 36.221 194.28 36.6383C194.698 37.0556 194.608 37.2028 193.514 37.8905C188.124 41.2793 181.742 39.6626 178.947 34.2002C177.681 31.7266 178.154 28.4079 180.143 25.8006C180.616 25.1798 180.948 24.622 180.879 24.5612C180.364 24.1046 178.375 23.3398 176.264 22.7865C173.114 21.9618 169.263 21.9462 166.907 22.749ZM110.971 31.718C107.647 32.5897 104.927 33.935 101.973 36.1676C97.9519 39.207 96.1333 41.5138 91.8494 49.0092C88.1893 55.4134 85.0149 59.2418 81.3797 61.6367C80.1954 62.4169 76.6543 64.1564 73.5103 65.5017C64.1237 69.5186 60.6216 71.8492 57.8623 75.9142C55.5499 79.3209 54.7887 81.8556 54.6011 86.7692C54.4664 90.302 54.5275 90.9747 55.1259 92.5292C56.0251 94.8649 57.7029 97.0921 59.5774 98.4387C60.4181 99.0428 61.6357 100.306 62.2834 101.247C62.9311 102.187 63.8962 103.373 64.4277 103.883C66.0658 105.452 65.5157 105.44 62.5247 103.842L59.6549 102.309L60.3563 101.562C60.932 100.949 60.9771 100.766 60.6072 100.537C59.9695 100.143 57.0882 102.449 52.6018 106.943C47.78 111.773 45.3976 114.818 39.0901 124.209C35.1922 130.014 29.8559 141.837 27.4639 149.969C27.0498 151.377 26.4994 153.194 26.2408 154.007C25.6322 155.919 25.0555 161.718 25.2901 163.569C25.4306 164.68 25.7746 165.329 26.7931 166.408C29.9205 169.719 36.4015 174.65 40.0581 176.501L41.7621 177.364L38.6181 180.633C30.3298 189.252 25.7109 196.599 23.5778 204.557C22.8165 207.398 22.8258 212.999 23.5963 215.569C24.5963 218.905 26.3298 221.789 28.9109 224.41L31.3144 226.851L27.3935 227.706C23.1819 228.626 17.1259 230.432 14.9112 231.43C13.2866 232.162 12.2773 233.655 12.2757 235.329L12.2744 236.529L16.6744 236.517C19.0946 236.51 28.2571 236.311 37.036 236.074C56.7583 235.541 56.1294 235.465 60.4258 238.903C64.267 241.977 72.8491 245.829 79.7355 247.57C97.7086 252.113 121.872 248.824 142.977 238.962C145.551 237.759 146.061 237.616 146.385 238.006C146.851 238.567 146.958 238.472 144.434 239.731C141.567 241.161 139.578 242.339 139.747 242.509C139.825 242.586 140.936 242.123 142.215 241.479C146.63 239.256 153.604 237.363 160.426 236.538C163.851 236.123 174.373 236.121 178.296 236.534C181.685 236.891 181.651 236.902 184.537 234.577C187.108 232.505 191.313 230.362 194.854 229.319C197.152 228.642 198.643 228.441 202.434 228.296C205.989 228.161 207.154 228.014 207.154 227.702C207.154 227.084 204.754 226.849 202.207 227.218C200.981 227.395 199.94 227.501 199.893 227.454C199.845 227.407 200.698 226.657 201.788 225.789C204.136 223.917 206.545 221.019 207.682 218.698C208.358 217.318 208.678 216.995 209.508 216.852C212.074 216.41 212.015 216.382 212.465 218.289C212.693 219.257 213.248 222.281 213.699 225.009C214.96 232.653 215.166 233.677 215.571 234.326C216.018 235.041 216.908 235.15 216.641 234.457C216.542 234.197 216.304 232.721 216.113 231.177C215.417 225.541 214.144 218.891 213.388 216.943C213.154 216.338 213.194 216.324 216.914 215.707C218.146 215.503 219.295 215.388 219.465 215.452C220.058 215.675 221.765 221.144 223.797 229.329C224.496 232.145 225.21 234.96 225.384 235.585L225.701 236.72L229.148 236.713C231.043 236.71 232.687 236.575 232.8 236.414C233.352 235.631 232.052 225.182 230.496 217.885C229.978 215.455 229.554 213.338 229.554 213.182C229.554 213.025 231.319 212.327 233.474 211.631C239.552 209.668 248.171 206.174 248.584 205.506C248.698 205.321 248.688 205.169 248.562 205.169C248.435 205.169 245.655 206.163 242.383 207.378C232.976 210.871 221.72 214.147 220.889 213.634C220.712 213.524 220.393 213.577 220.18 213.751C219.575 214.247 208.22 215.979 202.034 216.52C189.213 217.639 171.93 217.808 163.616 216.896L160.274 216.529L160.176 214.818L160.079 213.107L163.216 213.361C167.863 213.738 192.036 213.626 198.674 213.198C220.599 211.783 235.92 208.905 245.344 204.43C246.956 203.666 248.472 202.799 248.713 202.504C248.955 202.21 249.079 201.969 248.989 201.969C248.899 201.969 247.219 202.685 245.256 203.56C235.711 207.813 222.315 210.408 202.194 211.904C196.383 212.336 165.463 212.652 162.393 212.311L160.033 212.049L159.163 209.809C156.885 203.943 154.429 200.979 149.911 198.645C146.222 196.74 145.415 196.526 128.594 192.987C124.471 192.12 120.197 191.04 116.594 189.956C115.802 189.718 114.722 189.46 114.194 189.383C113.028 189.214 110.466 188.532 110.06 188.284C109.643 188.029 110.927 187.603 113.714 187.071C116.388 186.562 120.936 185.358 124.63 184.184C125.969 183.758 127.544 183.409 128.129 183.409C129.447 183.409 133.086 182.525 134.289 181.913C135.141 181.479 135.319 181.535 138.049 183.098C139.625 183.999 140.914 184.842 140.914 184.969C140.914 185.096 140.375 185.394 139.714 185.631C136.463 186.796 128.735 189.896 128.834 189.995C129.224 190.385 166.054 200.312 166.141 200.051C166.2 199.874 166.399 199.729 166.584 199.729C166.769 199.729 168.737 199.161 170.958 198.467C173.178 197.773 181.618 195.241 189.714 192.841C197.81 190.44 205.982 187.974 207.873 187.361C211.211 186.28 211.337 186.204 212.159 184.803C213.219 182.993 219.442 169.545 220.473 166.835C220.895 165.727 221.695 163.927 222.25 162.835C222.806 161.743 225.468 155.377 228.165 148.689C231.688 139.955 232.947 136.502 232.632 136.433C232.292 136.359 191.754 140.937 189.934 141.256C189.702 141.296 188.754 143.129 187.827 145.329C180.708 162.228 176.304 172.421 175.997 172.712C175.797 172.9 171.792 174.309 167.096 175.842L158.559 178.629L157.016 176.977C155.604 175.463 149.686 170.846 145.402 167.917L143.649 166.719L134.522 166.878C129.502 166.965 124.89 167.066 124.274 167.103C121.287 167.281 116.483 165.595 114.682 163.737L113.657 162.68L115.07 161.707C120.52 157.958 123.645 151.176 123.236 143.99L123.075 141.17L125.013 140.185C130.439 137.427 138.318 131.147 142.723 126.069C143.744 124.891 144.616 123.963 144.658 124.007C144.702 124.05 144.582 124.647 144.392 125.333C143.947 126.945 144.194 130.111 144.888 131.684C145.561 133.211 145.88 133.017 145.419 131.359C144.504 128.063 145.208 124.218 147.659 119.118C150.436 113.341 151.393 108.277 151.04 101.215C150.32 86.783 150.429 84.0041 152.144 73.1692C153.111 67.0674 152.929 67.5692 154.167 67.5692C155.002 67.5692 155.472 67.3139 156.233 66.4479C160.544 61.5382 157.39 49.3881 149.621 40.9756L147.154 38.3049L149.114 39.8322C151.753 41.8898 155.554 45.8604 157.134 48.2092C159.946 52.3929 160.753 54.6284 160.982 58.8668C161.193 62.7897 160.667 65.1855 159 67.8834C158.404 68.8482 157.993 69.7122 158.087 69.8034C158.439 70.1442 160.373 67.4975 161.034 65.7705C164.254 57.357 160.581 48.135 150.755 39.9574C144.805 35.0057 137.096 32.9775 131.459 34.8809L129.578 35.5158L128.461 34.535C124.983 31.4812 116.862 30.1734 110.971 31.718ZM135.318 54.3881C134.223 56.5058 130.703 60.2092 129.784 60.2092C129.438 60.2092 128.562 59.9999 127.837 59.7442C126.678 59.3353 126.382 59.3372 125.365 59.7622C124.729 60.0278 123.756 60.1948 123.202 60.1337C122.198 60.023 122.199 60.0214 123.474 59.7542C124.178 59.6066 124.958 59.3244 125.208 59.1276C125.688 58.7471 127.794 55.5801 127.794 55.2374C127.794 55.126 127.135 55.6156 126.328 56.3257C125.521 57.0358 124.214 57.8639 123.422 58.1663C122.066 58.6841 121.928 58.6844 121.062 58.1724L120.141 57.629L119.606 58.679C118.412 61.021 111.662 67.6172 110.13 67.9395C109.808 68.007 109.224 67.5215 108.611 66.6786C107.495 65.1423 105.923 64.0521 104.822 64.0505C102.053 64.046 98.9944 67.8351 98.9944 71.2706C98.9944 73.1558 99.6904 74.6162 101.268 76.0418C102.268 76.9449 102.777 77.1692 103.826 77.1692C105.336 77.1692 106.994 76.1631 106.994 75.2463C106.994 74.4473 107.587 74.1135 107.839 74.7705C108.118 75.4975 107.324 76.8684 106.276 77.4671L105.399 77.9692L105.397 85.4892C105.395 95.8121 106.283 103.14 108.493 111.016C109.254 113.728 109.384 113.966 110 113.778C111.204 113.411 112.754 112.726 112.754 112.561C112.754 111.956 111.918 110.782 111.279 110.491C110.456 110.116 110.319 109.492 110.846 108.508C111.406 107.462 110.712 107.828 110.101 108.901C109.681 109.638 109.431 109.814 109.173 109.556C108.729 109.112 110.734 104.838 112.806 101.809C113.589 100.665 114.705 99.037 115.287 98.191C115.869 97.3449 116.293 96.6172 116.229 96.574C116.166 96.5308 115.682 96.2297 115.154 95.9049C113.111 94.6479 110.045 91.9593 108.397 89.9798C105.672 86.7065 106.393 86.6607 109.429 89.9142C112.737 93.4591 115.056 95.1577 119.314 97.1535C124.82 99.734 125.892 100.023 130.034 100.037C133.548 100.049 133.81 100.002 135.836 99.0114C138.497 97.709 141.443 94.6492 142.987 91.5833C144.279 89.0182 146.528 81.6924 146.141 81.3142C145.994 81.1714 145.479 80.9567 144.994 80.837C144.324 80.6716 144.114 80.7359 144.114 81.1084C144.114 81.3769 144.026 81.8262 143.919 82.1068C143.776 82.4799 143.861 82.5634 144.239 82.4185C144.522 82.3097 144.754 82.3644 144.754 82.5401C144.754 82.9433 142.184 83.9919 141.914 83.6988C141.804 83.5795 141.877 83.423 142.076 83.3516C142.282 83.2774 142.023 82.8066 141.473 82.2575C140.943 81.7273 140.312 81.3689 140.072 81.4614C139.826 81.5555 139.634 81.4262 139.634 81.1657C139.634 80.4979 142.121 79.327 143.628 79.285C144.336 79.2652 145.424 79.358 146.048 79.4911L147.181 79.7334L148.679 75.9138C150.765 70.5948 151.548 67.5494 150.982 66.9583C150.744 66.71 150.218 66.47 149.812 66.4249C148.611 66.2908 147.311 65.693 147.116 65.1852C147.016 64.9247 147.308 63.59 147.764 62.2191C148.92 58.7484 148.8 58.0473 147.503 60.6982C146.076 63.6166 144.377 65.4543 143.392 65.1471C141.727 64.6287 141.233 64.359 140.863 63.766C140.477 63.1471 140.462 63.1471 139.69 63.7542C138.88 64.3916 138.034 64.5686 138.034 64.1007C138.034 63.9529 138.387 63.6713 138.817 63.4751C139.726 63.0614 140.496 61.9881 140.903 60.5708C141.183 59.5916 141.161 59.6012 139.691 61.0994C138.832 61.975 137.683 62.7791 136.995 62.9871C135.479 63.4447 135.136 63.0204 136.595 62.4924C138.232 61.9007 140.421 59.2681 141.204 56.9506C141.57 55.8658 141.808 54.9167 141.734 54.8418C141.659 54.767 141.24 55.4038 140.804 56.2575C139.867 58.0892 137.688 60.3666 136.114 61.1583C134.828 61.8054 129.851 62.3654 130.184 61.8252C130.299 61.6402 130.652 61.4892 130.97 61.4892C131.917 61.4892 133.131 60.311 134.193 58.3615C135.16 56.5855 136.573 52.8812 136.363 52.671C136.306 52.6137 135.835 53.3865 135.318 54.3881ZM148.62 57.8358C148.635 58.2086 148.711 58.2844 148.813 58.0294C148.905 57.7983 148.894 57.5222 148.788 57.4159C148.681 57.3097 148.606 57.4985 148.62 57.8358ZM126.834 67.1279C124.363 67.9654 123.634 68.327 123.634 68.7158C123.634 69.2799 123.635 69.2799 125.789 68.6537C126.975 68.3091 128.077 68.2066 129.118 68.3449C130.65 68.5481 131.075 68.2908 130.274 67.6447C129.785 67.2492 127.493 66.9049 126.834 67.1279ZM101.154 67.7734C99.9103 68.1353 100.681 68.5247 102.274 68.3395C103.696 68.1743 104.09 68.2511 104.834 68.8399C105.986 69.7506 105.945 70.0034 104.573 70.4563C103.238 70.8969 101.234 72.7811 101.234 73.5958C101.234 73.9068 101.407 74.334 101.618 74.5452C102.063 74.9897 103.981 75.0179 104.914 74.5932C105.377 74.3827 105.079 74.3225 103.837 74.3756C102.513 74.4322 102.038 74.3238 101.768 73.9036C101.296 73.1727 102.485 71.871 104.415 71.0038L105.836 70.3654L106.561 71.2748C107.506 72.4604 107.932 72.0124 107.183 70.6204C106.143 68.6898 104.954 67.8086 103.249 67.7042C102.405 67.6527 101.462 67.6838 101.154 67.7734ZM63.7944 71.3916C61.6757 72.5154 58.8437 75.638 57.6367 78.1807C55.9256 81.7852 55.3624 84.5382 55.5362 88.4466C55.6875 91.847 56.34 93.8076 58.0389 95.9676C58.8514 97.0003 58.86 96.5177 58.053 95.1938C56.3487 92.3987 55.9653 87.7206 57.0895 83.4294C58.1631 79.3295 59.9531 76.2409 63.2667 72.7692C64.3167 71.6694 65.117 70.7756 65.0453 70.7833C64.9733 70.7913 64.4104 71.0649 63.7944 71.3916ZM143.378 71.1347C142.036 71.6418 142.503 72.2242 144.169 72.1193C145.273 72.0498 145.872 72.2166 146.813 72.8553C148.081 73.7158 148.651 73.6774 148.078 72.7699C147.14 71.2831 144.977 70.5305 143.378 71.1347ZM119.154 75.2246C119.154 75.7916 120.749 77.4092 121.693 77.8002C122.471 78.1225 123.005 78.1026 124.625 77.6914C126.637 77.181 127.506 77.2655 126.862 77.9094C126.083 78.6889 126.976 80.3692 128.17 80.3692C128.814 80.3692 129.714 79.3462 129.714 78.6143C129.714 78.0498 129.736 78.0495 130.356 78.6111C131.174 79.351 131.528 79.0134 131.046 77.9538C130.285 76.2844 126.841 75.7142 123.681 76.7346L122.054 77.2601L120.924 76.3983C120.303 75.9244 119.794 75.3999 119.794 75.2329C119.794 75.0658 119.65 74.9292 119.474 74.9292C119.298 74.9292 119.154 75.062 119.154 75.2246ZM137.165 77.1692C136.797 77.9612 136.325 79.4508 136.116 80.4793L135.736 82.3497L134.671 82.1497C134.059 82.0348 133.517 82.0905 133.4 82.2799C133.158 82.6716 134.611 83.2946 135.922 83.3618C136.846 83.4089 136.853 83.3945 137.447 80.3692C137.775 78.6972 137.996 76.9692 137.939 76.5292C137.846 75.8143 137.763 75.8828 137.165 77.1692ZM121.234 80.3692C120.441 80.5711 120.59 80.6201 122.096 80.6514C123.097 80.6722 124.006 80.5452 124.114 80.3692C124.343 79.9999 122.686 79.9999 121.234 80.3692ZM124.359 82.8492C124.24 83.157 124.136 84.4985 124.129 85.8297C124.116 87.9612 124.222 88.4137 125.016 89.615C126.617 92.0393 130.227 92.9401 132.893 91.5804C134.153 90.9372 137.152 87.8006 136.984 87.2994C136.934 87.1468 135.817 86.6751 134.503 86.2511C130.924 85.0959 127.091 83.5308 126.231 82.8729C125.271 82.1382 124.636 82.1302 124.359 82.8492ZM124.794 84.8924C124.362 87.0511 125.695 89.8274 127.596 90.7299C129.704 91.7299 131.999 91.2988 133.795 89.566L134.836 88.5618L133.155 88.141C131.193 87.6502 128.13 86.1244 126.468 84.8111C125.827 84.3039 125.233 83.8892 125.148 83.8892C125.064 83.8892 124.904 84.3407 124.794 84.8924ZM128.041 85.0258C129.363 85.9519 132.161 87.0332 133.741 87.2287C135.146 87.4028 135.016 87.3215 132.525 86.47C130.991 85.9455 129.306 85.2943 128.781 85.023C127.549 84.3858 127.13 84.3878 128.041 85.0258ZM149.591 101.902C149.531 106.53 148.771 112.232 147.749 115.729C147.608 116.213 147.655 116.282 147.94 116.011C148.46 115.519 149.452 111.489 149.858 108.218C150.252 105.045 150.264 102.166 149.893 100.369C149.671 99.295 149.622 99.5417 149.591 101.902ZM54.3679 106.652C53.3925 107.544 52.5944 108.455 52.5944 108.678C52.5944 109.119 55.2978 111.761 56.2943 112.294C56.8997 112.617 58.5307 113.205 68.5029 116.694C71.1806 117.631 74.7806 119.067 76.5029 119.884C79.316 121.22 84.499 122.811 84.86 122.45C85.0485 122.262 82.8962 118.661 81.4831 116.802C80.3922 115.366 80.2808 115.307 78.2568 115.09C77.1039 114.967 74.6466 114.441 72.796 113.921C66.6354 112.191 62.4619 110.132 58.2878 106.764L56.1416 105.032L54.3679 106.652ZM47.9768 113.845C46.6517 115.58 46.7215 115.848 48.9858 117.717C52.7631 120.836 53.7147 121.268 58.9944 122.268C62.4155 122.916 65.1829 123.7 72.5944 126.118C74.8824 126.865 77.6184 127.733 78.6744 128.049C79.7304 128.364 81.7864 129.067 83.243 129.61C86.3544 130.772 86.404 130.462 83.5266 127.833C82.2559 126.671 80.8696 125.857 78.3147 124.77C71.3103 121.792 66.236 120.049 62.8344 119.453C60.6661 119.073 55.7291 117.247 53.7794 116.104C52.9829 115.637 51.6818 114.606 50.8882 113.812C50.0943 113.018 49.3682 112.369 49.2744 112.369C49.1807 112.369 48.5967 113.033 47.9768 113.845ZM113.394 117.984C112.602 118.395 111.781 118.74 111.569 118.75C111.307 118.763 111.445 119.465 111.996 120.929C112.443 122.117 112.849 123.13 112.898 123.179C113.083 123.365 116.914 121.553 116.914 121.278C116.914 120.968 115.035 117.147 114.91 117.203C114.868 117.222 114.186 117.573 113.394 117.984ZM42.4808 121.476L41.3205 123.224L42.2911 124.436C43.8261 126.354 45.8821 128.208 47.8594 129.457L49.6843 130.61L50.3432 129.12C51.213 127.154 51.5131 127.519 50.7275 129.587L50.1131 131.204L50.9538 131.539C52.117 132.003 54.2162 132.436 58.0917 133.014C61.7714 133.562 67.4392 134.64 73.2344 135.894C81.6696 137.72 88.1736 138.977 88.3381 138.812C88.4338 138.717 88.412 137.84 88.2901 136.864C88.092 135.28 87.9768 135.069 87.2114 134.894C85.749 134.561 76.8191 131.882 75.5701 131.402C74.9186 131.152 72.2546 130.439 69.6501 129.818C67.0453 129.196 62.8264 128.118 60.2744 127.421C57.7224 126.724 54.4162 125.86 52.9275 125.5C49.6959 124.719 47.2306 123.321 45.4331 121.249C44.7077 120.413 44.0079 119.73 43.8776 119.729C43.7474 119.729 43.1189 120.515 42.4808 121.476ZM116.528 127.192L114.383 128.154L114.573 130.742C114.678 132.165 114.81 133.384 114.868 133.451C115.036 133.649 119.791 131.479 120.158 131.036C120.398 130.747 120.296 130.035 119.799 128.544C119.417 127.396 119.008 126.405 118.889 126.343C118.771 126.281 117.709 126.663 116.528 127.192ZM85.2629 127.286C86.611 128.788 87.5365 130.267 88.3211 132.175C88.7269 133.162 89.0626 133.733 89.0667 133.445C89.0754 132.863 87.6293 127.137 87.4216 126.93C87.3493 126.858 86.6479 126.701 85.8623 126.581L84.4344 126.363L85.2629 127.286ZM37.5563 128.769C37.0223 129.693 36.5007 130.769 36.3976 131.159C35.9666 132.791 39.5333 136.562 44.1227 139.329C45.8015 140.341 47.2946 141.169 47.4405 141.169C47.5867 141.169 47.805 140.197 47.9259 139.009C48.0466 137.821 48.2139 136.561 48.2978 136.209C48.4197 135.696 48.0703 135.362 46.532 134.522C43.9093 133.09 40.6146 130.231 39.6075 128.512C39.149 127.73 38.7182 127.089 38.6504 127.089C38.5829 127.089 38.0904 127.845 37.5563 128.769ZM120.594 136.307C120.066 136.624 118.456 137.365 117.017 137.955C114.973 138.793 114.357 139.195 114.208 139.791C113.735 141.675 112.633 144.144 111.849 145.078C111.119 145.948 111.088 146.06 111.634 145.847C111.986 145.71 112.922 145.383 113.714 145.12C114.506 144.858 116.908 143.779 119.05 142.722L122.946 140.802L122.768 139.626C122.122 135.375 122.13 135.387 120.594 136.307ZM49.3925 137.533C49.3915 138.213 49.2994 139.942 49.1877 141.375L48.9848 143.98L52.7896 144.195C56.541 144.406 63.2677 145.046 67.9544 145.639C69.2744 145.805 71.0744 146.018 71.9544 146.11C72.8344 146.202 75.4984 146.489 77.8744 146.747C80.2504 147.006 83.5266 147.315 85.1544 147.434L88.1144 147.652L88.1733 146.251C88.332 142.46 88.3823 142.617 86.9813 142.538C79.1349 142.101 63.9618 139.858 57.02 138.11C48.6648 136.006 49.3947 136.061 49.3925 137.533ZM32.8002 138.633C31.2955 141.977 31.2901 141.836 32.9909 143.567C34.7576 145.366 37.6014 147.271 41.2507 149.1C44.1816 150.57 47.8459 152.104 48.0168 151.933C48.0802 151.87 48.0197 150.471 47.8831 148.825L47.6344 145.831L45.3944 145.004C41.1375 143.433 36.5042 140.357 34.6997 137.903L33.725 136.578L32.8002 138.633ZM230.058 137.892C229.975 137.975 227.848 138.236 225.331 138.472C222.814 138.707 220.034 138.976 219.154 139.069C218.274 139.163 214.314 139.536 210.354 139.898C206.394 140.26 201.858 140.694 200.274 140.862C198.69 141.031 196.364 141.261 195.105 141.373C193.045 141.557 192.778 141.661 192.426 142.414C192.211 142.873 190.917 145.913 189.551 149.169C188.184 152.425 186.199 157.105 185.139 159.569C184.08 162.033 181.599 167.865 179.626 172.529C177.653 177.193 174.781 183.961 173.243 187.569C171.704 191.177 170.344 194.453 170.219 194.849C170.094 195.245 169.855 195.569 169.688 195.569C169.343 195.569 168.117 197.467 168.116 198.005C168.115 198.214 170.384 197.67 173.634 196.682C179.071 195.029 200.051 188.593 207.067 186.425C209.761 185.593 210.758 185.137 211.053 184.602C211.27 184.21 212.26 182.089 213.254 179.889C214.247 177.689 216.737 172.454 218.787 168.256C220.837 164.058 222.514 160.553 222.514 160.468C222.514 160.383 222.946 159.379 223.474 158.239C224.002 157.098 224.434 156.114 224.434 156.053C224.434 155.991 225.082 154.573 225.874 152.901C226.666 151.228 227.314 149.559 227.314 149.19C227.314 148.822 227.451 148.27 227.618 147.965C228.67 146.044 230.857 141.07 231.261 139.682L231.741 138.034L230.975 137.887C230.554 137.807 230.141 137.809 230.058 137.892ZM89.6152 144.209C89.4725 146.497 89.1512 150.097 88.9013 152.209C88.6517 154.321 88.4591 156.553 88.4734 157.169C88.4955 158.095 88.5736 157.956 88.925 156.369C89.5483 153.554 90.1022 146.583 89.9803 143.089L89.8744 140.049L89.6152 144.209ZM188.108 146.209C185.522 153.115 181.905 162.187 179.465 167.889C178.185 170.881 176.315 175.345 175.31 177.809C171.959 186.02 168.364 194.444 168.038 194.849C167.798 195.147 167.91 195.249 168.479 195.249C169.157 195.249 169.427 194.794 170.894 191.169C176.253 177.926 181.458 165.228 182.666 162.449C183.432 160.689 184.65 157.779 185.373 155.983C186.097 154.186 187.753 150.334 189.054 147.423L191.419 142.129H190.528C189.679 142.129 189.563 142.325 188.108 146.209ZM120.914 147.1C117.879 148.438 113.226 149.839 110.354 150.279C108.77 150.522 107.235 150.814 106.942 150.929C106.348 151.161 103.007 154.889 103.211 155.092C103.384 155.265 109.134 154.444 111.995 153.838C114.167 153.378 118.773 151.951 120.985 151.054C121.88 150.691 122.064 150.411 122.369 148.94C122.895 146.406 122.79 146.274 120.914 147.1ZM29.5503 146.987C29.5477 147.043 29.1176 148.313 28.5944 149.809C27.5499 152.795 27.5045 153.009 27.9141 153.009C28.068 153.009 28.7522 153.524 29.4341 154.153C31.2725 155.849 35.6664 158.456 39.4869 160.118C43.1224 161.699 48.772 163.569 49.9125 163.569H50.6158L50.0152 161.586C49.6847 160.495 49.3234 158.993 49.2117 158.25C49.0133 156.926 48.9746 156.89 47.3618 156.525C45.029 155.999 41.6568 154.723 38.6744 153.239C35.6053 151.712 33.8504 150.56 31.3944 148.459C30.3823 147.594 29.5525 146.931 29.5503 146.987ZM49.3963 150.217C49.3983 151.311 49.7973 153.991 50.3723 156.769L50.7199 158.449L55.5771 158.444C67.6517 158.431 77.9614 157.786 84.3394 156.646L87.1243 156.148L87.317 154.659C87.4226 153.84 87.5762 152.845 87.6581 152.449C87.8053 151.735 87.7765 151.729 84.0405 151.728C77.9519 151.725 54.2911 150.053 50.2744 149.341C49.4639 149.197 49.3944 149.266 49.3963 150.217ZM26.1915 157.125C26.0792 157.413 25.9051 158.904 25.8043 160.437L25.6213 163.226L26.7077 164.249C29.7483 167.113 35.5595 169.921 41.5039 171.398C45.1263 172.298 51.8325 173.489 53.2744 173.489C54.2059 173.489 54.2085 173.484 53.7278 172.555C53.4622 172.042 52.9522 170.839 52.5944 169.883L51.9442 168.145L49.2603 167.769C45.6917 167.27 42.3855 166.382 38.2469 164.81C33.7954 163.12 31.5061 161.702 28.6949 158.896C26.8821 157.087 26.3522 156.712 26.1915 157.125ZM117.41 156.823C117.161 157.227 112.205 158.361 108.212 158.929C104.661 159.434 99.9544 159.565 99.9544 159.161C99.9544 159.024 100.191 158.555 100.479 158.121C100.768 157.685 99.396 158.913 97.4303 160.849L93.8565 164.369L95.2254 164.789C98.299 165.732 108.315 163.594 113.714 160.843C115.209 160.081 118.194 157.424 118.194 156.855C118.194 156.449 117.655 156.427 117.41 156.823ZM88.1397 158.956C88.1551 159.329 88.2309 159.404 88.333 159.149C88.4255 158.918 88.4139 158.642 88.3077 158.536C88.2015 158.43 88.1259 158.618 88.1397 158.956ZM83.9544 161.192C78.7909 162.458 65.317 163.804 57.0911 163.874C54.3685 163.897 52.0699 163.987 51.9829 164.074C51.8958 164.161 52.0885 164.911 52.4107 165.741C52.733 166.57 53.4722 168.617 54.0536 170.289C54.6347 171.961 55.3122 173.457 55.5586 173.614C56.1413 173.984 60.3979 172.578 69.1218 169.135C75.9771 166.429 78.5346 165.53 83.1544 164.202C84.5624 163.798 85.805 163.382 85.9157 163.278C86.0261 163.174 86.2127 162.549 86.3301 161.889C86.5723 160.527 86.6143 160.539 83.9544 161.192ZM110.849 163.738C109.209 164.431 104.907 165.538 102.034 166.006L100.754 166.215L101.714 166.49C105.093 167.456 117.901 167.706 117.867 166.806C117.863 166.698 117.144 166.295 116.269 165.91C115.183 165.434 114.464 164.849 114.005 164.07C113.23 162.758 113.182 162.753 110.849 163.738ZM201.594 165.818C200.327 166.93 199.77 168.229 200.136 169.218C200.512 170.234 202.603 170.562 204.034 169.967C205.376 169.41 206.134 168.341 206.239 166.97C206.405 164.786 203.547 164.103 201.594 165.818ZM202.443 166.441C201.528 166.998 201.176 168.007 201.742 168.768C202.386 169.634 203.854 168.755 204.44 168.169C205.132 167.477 205.33 166.355 204.44 166.07C203.804 165.866 203.01 166.095 202.443 166.441ZM92.4613 166.726C91.9218 167.599 90.3362 172.479 89.7439 175.089C89.0255 178.256 88.4104 184.317 88.7842 184.548C88.9029 184.621 89.5566 184.763 90.237 184.864C90.9176 184.965 92.3384 185.182 93.3944 185.346C94.4504 185.51 95.3967 185.645 95.4971 185.647C95.5976 185.648 95.5522 184.677 95.3963 183.489C95.0895 181.154 95.2846 175.259 95.837 170.182C96.1202 167.578 96.1042 166.96 95.7483 166.734C95.1819 166.375 92.6818 166.369 92.4613 166.726ZM135.154 167.77C130.314 167.882 125.728 168.122 124.963 168.304C122.752 168.83 121.763 170.723 121.503 174.929C121.364 177.17 121.438 177.669 122.089 178.927C123.036 180.755 125.119 182.181 127.12 182.374C128.094 182.467 129.407 182.269 130.978 181.792C133.167 181.127 133.296 181.042 132.576 180.731C131.851 180.417 131.895 180.384 133.19 180.281C134.944 180.14 136.474 180.866 142.129 184.523C144.448 186.022 146.608 187.249 146.929 187.249C147.62 187.249 148.393 186.681 148.827 185.853C149.174 185.193 148.676 183.736 148.103 183.732C147.92 183.73 146.408 182.596 144.743 181.212C142.891 179.673 140.564 178.117 138.754 177.209C137.127 176.391 135.794 175.641 135.794 175.541C135.794 175.142 137.993 175.86 140.114 176.95C141.53 177.677 143.08 178.842 144.325 180.115C145.409 181.223 146.503 182.129 146.755 182.129C147.008 182.129 147.489 182.438 147.825 182.816C150.068 185.343 152.53 185.965 154.92 184.608C156.15 183.908 156.176 183.861 155.717 183.088C155.422 182.588 155.647 182.733 156.319 183.474C157.567 184.849 159.02 185.519 159.639 185.005C159.863 184.82 160.226 184.233 160.447 183.7C160.804 182.836 160.768 182.623 160.104 181.711C158.075 178.92 154.599 175.214 152.594 173.702C150.441 172.078 144.936 168.144 144.274 167.754C144.098 167.651 139.994 167.658 135.154 167.77ZM84.38 169.259C83.117 170.386 81.0971 172.773 79.5615 174.955C78.4197 176.578 77.5077 179.274 77.3237 181.569L77.1506 183.729L78.5525 183.754C79.3237 183.767 80.1704 183.818 80.4344 183.868C80.6984 183.917 81.6706 184.055 82.5944 184.174C84.2703 184.391 84.2744 184.389 84.2773 183.5C84.2866 180.462 85.1727 173.28 86.0552 169.089C86.3355 167.759 86.0261 167.79 84.38 169.259ZM101.44 169.089C100.916 172.018 100.566 177.673 100.655 181.779L100.754 186.39L103.474 186.964C107.097 187.729 107.111 187.728 106.547 186.849C105.306 184.918 104.914 182.439 104.914 176.529C104.914 172.874 105.053 170.393 105.295 169.739C105.671 168.719 105.663 168.705 104.495 168.38C102.302 167.771 101.648 167.923 101.44 169.089ZM143.794 171.852C143.794 172.007 144.658 172.649 145.714 173.278C146.77 173.907 147.634 174.374 147.634 174.314C147.634 174.14 144.235 171.569 144.005 171.569C143.889 171.569 143.794 171.696 143.794 171.852ZM73.5544 172.594C69.8719 174.542 60.7755 177.969 59.2888 177.969C58.7749 177.969 58.3544 178.101 58.3544 178.262C58.3544 178.604 62.3016 182.129 62.6847 182.129C62.8274 182.129 63.1867 182.349 63.4837 182.618C63.8811 182.978 65.1282 183.159 68.2286 183.307C70.6725 183.424 72.4325 183.387 72.4296 183.218C72.4226 182.806 71.8062 181.904 71.7944 182.289C71.789 182.465 71.6632 182.418 71.5147 182.183C71.0037 181.378 73.947 173.337 74.9883 172.693C75.3659 172.459 75.429 171.882 75.0744 171.903C74.9422 171.911 74.2584 172.222 73.5544 172.594ZM139.386 172.92C139.458 173.145 141.148 174.193 143.141 175.249C146.008 176.769 147.312 177.703 149.393 179.729C150.839 181.137 152.401 182.793 152.865 183.409C153.565 184.341 153.708 184.419 153.711 183.873C153.716 183.001 150.299 179.007 148.18 177.407C145.22 175.172 139.108 172.054 139.386 172.92ZM36.5944 173.93C36.5944 174.674 46.2549 178.595 52.132 180.236C61.42 182.829 63.7813 183.271 61.627 182.012C59.8574 180.978 58.2085 179.74 57.1435 178.645C56.1704 177.645 55.6639 177.39 54.3544 177.24C49.7099 176.708 38.9519 174.645 37.0847 173.929C36.8149 173.826 36.5944 173.826 36.5944 173.93ZM148.274 174.89C148.274 174.956 148.527 175.209 148.834 175.45C149.342 175.848 149.353 175.837 148.955 175.329C148.537 174.796 148.274 174.627 148.274 174.89ZM151.062 177.65C151.964 178.794 153.315 180.305 154.063 181.009C155.376 182.245 155.36 182.206 153.598 179.9C152.593 178.586 151.242 177.074 150.596 176.541C149.491 175.63 149.519 175.698 151.062 177.65ZM123.314 181.9C123.578 182.164 124.154 182.486 124.594 182.615C125.611 182.912 125.382 182.683 123.954 181.975C123.09 181.546 122.944 181.53 123.314 181.9ZM210.354 189.989C205.729 191.996 186.521 197.982 174.538 201.15C171.471 201.961 168.79 202.767 168.58 202.941C168.32 203.156 166.986 202.899 164.397 202.134C154.882 199.322 153.694 199.003 153.492 199.205C153.038 199.659 154.12 200.157 158.56 201.538C166.161 203.902 167.795 204.284 168.729 203.918C169.183 203.741 172.866 202.716 176.914 201.642C187.772 198.761 194.425 196.81 203.255 193.92C212.927 190.754 214.619 189.966 213.048 189.363C212.381 189.107 212.39 189.105 210.354 189.989ZM166.827 197.351C166.62 197.979 166.526 198.568 166.619 198.66C166.807 198.848 167.794 197.071 167.794 196.545C167.794 195.777 167.177 196.291 166.827 197.351ZM94.1944 212.535C92.3464 212.861 88.3144 213.784 85.2344 214.585C61.7624 220.691 60.5944 221.021 60.5944 221.537C60.5944 221.71 60.8466 221.78 61.1544 221.692C61.4622 221.604 64.3064 220.855 67.4744 220.027C70.6424 219.2 75.5384 217.913 78.3544 217.168C83.8706 215.708 93.5304 213.403 96.5144 212.834C97.5266 212.642 98.3544 212.35 98.3544 212.187C98.3544 211.81 98.2402 211.82 94.1944 212.535ZM160.128 219.46C159.927 220.488 159.683 221.761 159.585 222.289C159.488 222.817 158.971 224.185 158.437 225.329C157.293 227.779 153.457 231.774 149.394 234.748C147.986 235.779 146.77 236.677 146.692 236.744C146.614 236.812 146.836 237.153 147.184 237.502C147.816 238.133 147.832 238.134 150.847 237.509C152.512 237.164 155.512 236.67 157.512 236.411C159.513 236.153 161.252 235.822 161.376 235.675C161.5 235.529 161.981 233.681 162.444 231.569C164.92 220.281 165.333 218.282 165.209 218.167C165.135 218.098 164.043 217.939 162.783 217.816L160.492 217.59L160.128 219.46ZM42.2411 220.869C40.3752 221.329 39.2315 222.315 38.204 224.35C37.3967 225.949 37.06 226.285 35.661 226.887C34.7743 227.269 31.7061 228.082 28.8434 228.695C25.9803 229.307 22.3413 230.233 20.7563 230.752C19.1714 231.27 17.2728 231.849 16.5378 232.038C15.1557 232.393 13.5544 233.9 13.5544 234.845C13.5544 235.381 15.6994 235.371 41.4453 234.717L49.6562 234.508L49.7762 231.599C49.8671 229.391 50.0959 228.209 50.7253 226.696L51.5544 224.703L50.3944 224.49C49.5544 224.337 48.7931 223.807 47.6344 222.572C45.8661 220.687 44.6027 220.288 42.2411 220.869ZM164.757 227.009C164.64 227.757 164.195 229.779 163.769 231.502C162.607 236.2 162.501 235.957 165.634 235.766C167.087 235.678 168.516 235.597 168.812 235.587C169.252 235.572 169.059 234.952 167.748 232.173C166.867 230.305 165.979 228.073 165.775 227.213C165.57 226.353 165.306 225.649 165.187 225.649C165.068 225.649 164.875 226.261 164.757 227.009Z" />
<path d="M200.843 166.67L200.668 165.624C200.609 165.268 200.933 164.969 201.283 165.056L202.599 165.385C202.804 165.437 203.019 165.353 203.137 165.178L203.978 163.915C204.237 163.527 204.84 163.673 204.891 164.137L205.039 165.471" stroke="#768E78" stroke-width="1.5" stroke-linecap="round" stroke-linejoin="round"/>
</g>
<defs>
<filter id="filter0_gn_1124_15541" x="-1.8" y="-1.8" width="259.6" height="259.6" filterUnits="userSpaceOnUse" color-interpolation-filters="sRGB">
<feFlood flood-opacity="0" result="BackgroundImageFix"/>
<feBlend mode="normal" in="SourceGraphic" in2="BackgroundImageFix" result="shape"/>
<feTurbulence type="fractalNoise" baseFrequency="1.25 1.25" numOctaves="3" seed="6290" />
<feDisplacementMap in="shape" scale="3.5999999046325684" xChannelSelector="R" yChannelSelector="G" result="displacedImage" width="100%" height="100%" />
<feMerge result="effect1_texture_1124_15541">
<feMergeNode in="displacedImage"/>
</feMerge>
<feTurbulence type="fractalNoise" baseFrequency="3.3333332538604736 3.3333332538604736" stitchTiles="stitch" numOctaves="3" result="noise" seed="8744" />
<feColorMatrix in="noise" type="luminanceToAlpha" result="alphaNoise" />
<feComponentTransfer in="alphaNoise" result="coloredNoise1">
<feFuncA type="discrete" tableValues="0 0 0 0 1 1 1 1 1 1 1 1 1 1 1 1 1 1 1 1 1 1 1 1 1 1 1 1 1 1 1 1 1 1 1 1 1 1 1 1 1 1 1 1 1 0 0 0 0 0 0 0 0 0 0 0 0 0 0 0 0 0 0 0 0 0 0 0 0 0 0 0 0 0 0 0 0 0 0 0 0 0 0 0 0 0 0 0 0 0 0 0 0 0 0 0 0 0 0 0 "/>
</feComponentTransfer>
<feComposite operator="in" in2="effect1_texture_1124_15541" in="coloredNoise1" result="noise1Clipped" />
<feFlood flood-color="rgba(167, 167, 167, 0.5)" result="color1Flood" />
<feComposite operator="in" in2="noise1Clipped" in="color1Flood" result="color1" />
<feMerge result="effect2_noise_1124_15541">
<feMergeNode in="effect1_texture_1124_15541" />
<feMergeNode in="color1" />
</feMerge>
</filter>
</defs>
</svg>
