<svg viewBox="0 0 360 360" fill="currentColor" xmlns="http://www.w3.org/2000/svg">
    <g>
        <path d="M160.812 13.0657C165.207 11.5484 169.098 12.1197 171.634 14.6555C172.893 15.9153 173.489 16.1829 175.054 16.1887C177.481 16.1985 180.163 17.7028 181.348 19.7209C182.034 20.8883 182.257 22.0379 182.257 24.3987C182.257 27.4033 182.181 27.6289 180.341 30.0676C179.288 31.4641 178.52 32.8538 178.636 33.1575C178.752 33.4605 179.711 33.9676 180.766 34.2834C181.821 34.5998 185.397 36.2172 188.713 37.8782C192.029 39.5393 196.711 41.5876 199.117 42.429C201.523 43.2708 205.979 45.1509 209.021 46.6067C212.062 48.0629 215.446 49.6471 216.541 50.1272C223.882 53.345 231.763 65.7515 231.022 72.925L230.784 75.2385L237.487 75.2551C242.541 75.268 244.897 75.4683 247.065 76.0686C254.28 78.0673 262.762 83.3015 270.005 90.2258C274.684 94.6997 288.319 111.086 294.085 119.165C305.972 135.822 322.417 168.09 324.228 178.311C325.247 184.066 327.282 189.5 330.287 194.497C335.197 202.661 340.266 216.206 342.873 228.131C344.522 235.672 344.62 246.11 343.114 253.736C341.081 264.033 335.032 273.53 325.86 280.823C319.334 286.014 313.722 287.938 305.017 287.969C300.169 287.986 299.08 287.846 296.194 286.837C293.228 285.8 292.742 285.743 291.281 286.258C282.48 289.363 269.663 289.073 261.792 285.591C260.494 285.017 259.582 284.837 259.316 285.103C258.798 285.624 262.421 292.539 266.292 298.416C270.243 304.414 275.92 314.233 278.568 319.65C282.163 327.001 282.018 329.827 277.924 332.203C272.772 335.194 265.1 336.463 246.844 337.347C245.732 337.401 244.543 337.474 243.335 337.56L234.026 338.49C234.025 338.491 234.023 338.492 234.021 338.492C234.013 338.494 234 338.495 233.983 338.497C233.95 338.502 233.899 338.509 233.834 338.518C233.703 338.536 233.509 338.562 233.262 338.594C233.094 338.616 232.901 338.638 232.686 338.665C220.154 340.764 206.74 340.955 200.837 339.116C196.929 337.899 194.494 336.498 192.664 334.414C191.41 332.986 191.253 332.54 191.438 330.907C191.587 329.582 192.14 328.363 193.117 327.23C193.613 326.591 194.274 326.029 194.955 325.554C196.69 324.27 199.078 323.1 202.164 322.008L205.703 320.756L197.962 320.478C189.669 320.18 185.06 319.391 177.778 317.021C172.153 315.19 169.9 313.812 168.794 311.526C167.72 309.308 167.698 308.931 168.503 306.618C169.571 303.551 171.267 302.223 175.223 301.353C180.659 300.157 194.965 297.599 199.066 297.089C201.1 296.836 204.454 296.072 206.52 295.391L210.273 294.153L206.44 292.95C201.366 291.36 198.09 289.997 195.567 288.426C189.629 284.728 187.053 282.986 186.395 282.226C184.781 280.361 183.309 273.166 181.649 259.044C180.226 246.928 179.615 242.68 179.297 242.677C178.646 242.677 178.926 247.783 180.063 256.619C180.681 261.42 181.072 265.461 180.934 265.603C180.53 266.006 176.614 264.843 175.4 263.96C174.792 263.518 173.97 262.283 173.573 261.216L172.853 259.276L172.32 261.925C171.303 266.987 170.031 271.585 169.196 273.223C167.602 276.348 160.932 281.333 157.159 282.22C156.255 282.432 155.708 282.263 154.992 281.547C154.076 280.631 153.977 280.621 152.663 281.318C149.414 283.039 143.423 283.983 141.897 283.015C141.597 282.824 141.237 282.08 141.098 281.363C140.891 280.297 141.31 279.327 143.382 276.076C146.6 271.028 148.434 267.053 150.46 260.74C151.345 257.983 152.442 254.988 152.896 254.085C153.352 253.182 153.725 252.315 153.725 252.157C153.724 252.001 152.499 253.006 151.002 254.392C149.505 255.778 147.6 257.236 146.77 257.632C145.403 258.284 145.147 258.287 144.073 257.671C142.581 256.815 142.665 255.638 144.412 252.889C145.121 251.774 146.843 248.97 148.239 246.658C152.747 239.195 155.883 234.798 157.588 233.55C158.504 232.879 159.406 232.207 159.591 232.057C159.776 231.906 159.526 230.62 159.037 229.198C158.548 227.776 158.148 226.246 158.147 225.797C158.147 224.677 157.632 224.767 155.189 226.317C152.657 227.922 141.606 232.319 133.375 234.996C128.839 236.472 126.618 237.471 124.134 239.156C120.399 241.688 119.361 241.667 122.316 239.118C125.099 236.719 128.351 235.093 134.26 233.15C145.049 229.6 157.216 224.446 157.249 223.411C157.267 222.768 152.536 206.835 152.238 206.537C151.64 205.939 126.139 219.19 117.669 224.501C113.791 226.933 95.6482 240.337 91.9248 243.521C88.3951 246.539 81.5877 256.149 82.2344 257.2C82.3728 257.425 83.5936 258.057 84.9463 258.607L87.4062 259.605L88.4932 258.584C89.2222 257.899 89.5801 257.082 89.5801 256.101C89.5801 254.173 90.8083 251.165 91.8164 250.626C92.9681 250.01 93.657 250.083 96.5303 251.128C98.5869 251.876 99.7223 252.718 102.297 255.406C105.368 258.614 106.607 259.333 105.501 257.266C105.025 256.375 105.394 255.875 110.02 251.146C112.79 248.313 115.66 245.22 116.397 244.273C117.134 243.326 117.987 242.635 118.293 242.737C119.136 243.017 115.554 247.589 110.9 252.172C108.686 254.353 106.943 256.207 107.027 256.29C107.114 256.373 108.264 256.128 109.586 255.743C110.909 255.359 114.862 254.662 118.37 254.196C121.878 253.729 125.617 253.038 126.678 252.659C127.739 252.281 131.024 250.527 133.978 248.762C140.215 245.034 140.753 244.784 141.821 245.123C143.139 245.541 143.198 246.86 142.033 249.821C141.425 251.366 140.331 255.03 139.601 257.962C138.87 260.894 137.783 264.377 137.186 265.703C136.251 267.775 136.078 268.905 135.953 273.753L135.808 279.394L137.799 279.453L139.789 279.512L137.738 279.799C135.614 280.097 134.09 280.973 134.512 281.656C134.645 281.871 135.688 282.068 136.829 282.092C137.97 282.116 139.402 282.311 140.011 282.525C140.736 282.779 140.002 282.83 137.88 282.672C135.713 282.511 134.435 282.604 134.014 282.953C133.155 283.666 133.624 284.258 135.06 284.272C136.677 284.287 146.268 286.824 144.877 286.868C144.269 286.888 141.78 286.409 139.348 285.803C136.916 285.198 134.552 284.703 134.094 284.702C133.636 284.702 131.91 285.978 130.257 287.536C128.604 289.095 126.818 290.509 126.286 290.678C125.472 290.936 125.363 291.205 125.6 292.378C125.754 293.145 126.074 295.634 126.312 297.91C126.756 302.177 127.141 303.317 130.923 311.559C132.117 314.162 133.562 318.375 134.334 321.503C135.07 324.488 136.043 327.659 136.497 328.548C137.574 330.659 140.653 332.921 142.447 332.921C144.227 332.921 145.762 334.348 145.762 336.001V337.277L144.414 335.93C142.899 334.415 142.021 334.589 143.408 336.13C144.888 337.774 145.007 338.236 144.188 339.142C143.276 340.148 142.665 340.246 142.665 339.385C142.665 339.047 142.273 338.3 141.795 337.726C141.09 336.879 140.922 336.823 140.91 337.429C140.902 337.84 141.095 338.3 141.338 338.45C142.028 338.877 141.857 340.317 141.08 340.615C139.65 341.164 136.659 340.86 135.292 340.027C134.522 339.557 131.834 336.831 129.319 333.969C126.805 331.107 122.651 326.565 120.087 323.876C111.305 314.665 109.256 312.348 108.001 310.205L106.744 308.061L108.115 306.646C109.603 305.111 109.801 304.609 108.919 304.609C108.253 304.609 104.241 308.688 103.111 310.514C101.709 312.781 100.64 316.626 100.64 319.405C100.64 323.042 101.601 326.62 103.798 331.152C105.306 334.264 106.299 335.574 109.559 338.758C114.095 343.188 114.979 344.878 113.525 346.331C112.593 347.264 112.583 347.264 112.583 346.375C112.583 345.261 111.45 343.641 110.99 344.099C110.804 344.285 110.888 344.673 111.176 344.961C111.464 345.249 111.698 346.042 111.698 346.723C111.698 347.782 111.521 347.962 110.469 347.962C109.508 347.962 109.128 347.671 108.737 346.635C108.462 345.905 107.916 345.308 107.523 345.308C106.876 345.308 106.872 345.428 107.484 346.613C108.396 348.375 108.345 348.546 107.017 348.213C104.506 347.582 97.256 342.012 93.9473 338.171C88.5934 331.957 86.2076 328.002 82.3184 318.893C78.1633 309.16 78.5396 309.72 76.0469 309.563C73.9093 309.428 70.0174 310.131 68.7881 310.875C68.3716 311.128 69.8367 311.23 72.7373 311.151L77.3486 311.024L78.8223 313.899C79.6327 315.48 81.0688 318.815 82.0137 321.309L83.7324 325.843L82.5645 325.898C80.5771 325.991 76.5691 325.799 75.7803 325.573C75.0442 325.361 73.0119 322.437 71.2354 319.034C70.7409 318.087 69.6284 316.512 68.7627 315.533L67.1875 313.754L66.0039 315.775C63.9792 319.23 60.7178 322.424 57.7822 323.827C56.2932 324.539 55.0752 325.363 55.0752 325.659C55.0769 326.467 59.5149 330.365 64.4297 333.874C69.1406 337.238 69.8793 338.36 68.7285 340.41C67.9022 341.883 65.9767 341.996 65.7754 340.584C65.6997 340.054 65.3614 339.391 65.0234 339.111C64.5126 338.687 64.4492 338.854 64.6504 340.094C64.9313 341.824 64.3527 342.492 62.374 342.721C61.2227 342.854 61.065 342.745 61.1826 341.897C61.3529 340.67 60.5481 339.115 59.7432 339.115C59.2561 339.115 59.2294 339.368 59.6094 340.376C61.6562 345.798 52.5179 342.472 46.4414 335.584C45.2651 334.25 43.1439 331.595 41.7266 329.684C39.3772 326.515 39.1494 326.01 39.1494 323.953C39.1494 322.226 39.524 320.973 40.7529 318.598C42.3286 315.553 42.3535 315.427 42.1318 311.491C41.9677 308.579 41.5756 306.638 40.6953 304.388C36.7299 294.246 35.9239 290.112 36.5781 283.265C36.8679 280.232 37.937 275.824 38.9912 273.311C39.1189 273.007 39.0565 272.758 38.8535 272.758C38.4478 272.76 36.7308 275.931 36.2783 277.514C36.1217 278.061 35.7818 278.509 35.5234 278.509C34.1598 278.509 29.6054 275.227 26.0537 271.686C19.1506 264.803 16.2048 258.107 15.8203 248.428C15.6159 243.28 15.682 242.654 16.79 239.364C18.4162 234.533 20.5457 231.195 24.8584 226.716C28.6654 222.762 31.4591 220.899 34.6553 220.181C39.5755 219.076 42.7315 222.624 40.6777 226.952C40.3013 227.745 37.631 230.914 34.7432 233.995C30.191 238.852 29.3705 239.96 28.5703 242.328C27.0817 246.737 27.5065 252.145 29.6816 256.463C31.3897 259.855 35.274 263.681 38.7979 265.445L41.9141 267.003L45.7705 263.356C49.858 259.489 52.8628 257.475 57.3848 255.57C59.9887 254.473 60.591 254.4 67.0186 254.407C73.5387 254.415 75.7014 254.724 79.5615 256.205C79.9853 256.368 80.6668 255.618 81.6387 253.92C84.0284 249.744 88.0053 244.796 90.7529 242.582C98.4618 236.372 114.628 224.705 119.751 221.656C126.92 217.39 135.288 213.017 144.673 208.633C148.556 206.819 151.786 205.307 151.851 205.273C151.914 205.235 151.576 203.933 151.098 202.377C146.582 187.676 147.14 176.277 152.698 169.671C154.357 167.7 158.143 165.308 161.998 163.795C165.158 162.556 165.165 162.549 165.618 160.436C166.325 157.14 167.808 153.514 169.44 151.088L170.932 148.871L169.596 146.892C168.113 144.695 167.853 144.492 168.194 145.797C168.531 147.085 166.732 146.964 164.664 145.559C162.828 144.311 157.908 138.725 156.039 135.767C155.374 134.715 154.668 133.854 154.471 133.854C153.953 133.854 156.133 137.717 158.165 140.402C160.09 142.946 159.797 143.611 157.835 141.152C157.156 140.3 156.427 139.604 156.217 139.604C155.732 139.604 156.873 141.348 159.327 144.362C160.381 145.656 161.243 146.912 161.244 147.155C161.244 148.018 159.776 148.133 157.608 147.44L155.405 146.735L154.391 147.915C153.455 149.003 153.117 149.093 150.097 149.067C145.751 149.029 142.597 147.628 140.19 144.67C139.24 143.502 137.799 141.836 136.988 140.965L135.515 139.382L136.935 142.137C138.875 145.903 140.934 147.879 144.759 149.647C148.104 151.193 148.541 151.99 146.043 151.99C142.715 151.99 138.428 148.758 135.796 144.267C134.298 141.712 132.062 135.406 132.054 133.716C132.051 133.033 131.881 132.576 131.677 132.702C130.8 133.245 132.492 140.481 134.369 144.216C135.416 146.299 139.138 150.324 141.188 151.592C143.184 152.825 143.045 153.317 140.703 153.317C138.175 153.317 136.769 152.762 133.995 150.668C130.206 147.808 127.222 142.482 126.34 137.002C125.671 132.848 126.607 121.768 128.287 113.946C128.627 112.364 129.029 109.932 129.18 108.541C129.446 106.082 129.496 106.004 130.972 105.727C133.363 105.278 132.756 104.794 129.504 104.556C123.67 104.128 119.931 100.803 117.391 93.7825C116.64 91.7078 116.436 90.1063 116.409 86.0764C116.379 81.3952 116.495 80.6533 117.855 76.7874C118.669 74.477 119.779 71.5907 120.322 70.3733C120.866 69.1559 121.532 66.7446 121.802 65.0149C122.326 61.6503 125.797 52.8805 129.286 46.1018C131.622 41.565 135.477 37.3788 140.011 34.4543C144.289 31.6949 152.129 29.7367 159.032 29.7043C163.86 29.6813 164.289 29.7551 167.438 31.1506C169.262 31.9593 171.402 32.906 172.193 33.2542C172.984 33.6027 173.631 33.6965 173.631 33.4622C173.631 32.6128 170.501 30.6791 167.347 29.5793C163.056 28.0839 155.62 28.0354 149.913 29.4651C145.694 30.5219 145.223 30.3867 144.145 27.8079C143.18 25.4992 143.403 23.221 144.813 20.9973C147.317 17.05 151.092 14.9944 155.133 15.3801C156.613 15.5217 157.193 15.3762 157.715 14.7327C158.085 14.2757 159.478 13.5257 160.812 13.0657ZM256.536 285.751C256.315 285.694 254.48 286.612 252.46 287.79C248.573 290.057 241.046 292.743 236.233 293.581L233.347 294.083L234.31 295.797C235.242 297.456 235.256 297.682 234.748 302.94C234.132 309.316 233.872 309.8 229.677 312.395C226.698 314.237 214.303 319.338 205.8 322.356L206.599 322.736L230.51 313.161L230.674 313.096L230.842 313.148H230.845C230.846 313.148 230.849 313.15 230.853 313.151C230.86 313.153 230.872 313.156 230.887 313.16C230.917 313.17 230.963 313.184 231.023 313.201C231.144 313.237 231.322 313.289 231.553 313.355C232.015 313.486 232.688 313.673 233.527 313.891C235.207 314.327 237.553 314.888 240.218 315.392C245.565 316.402 252.13 317.166 257.173 316.25C260.399 315.665 264.241 314.251 267.296 312.973C268.819 312.336 270.139 311.735 271.077 311.294C271.546 311.074 271.92 310.893 272.176 310.768C272.19 310.761 272.203 310.753 272.217 310.746C271.56 309.704 270.638 308.051 269.845 306.467C268.745 304.272 266.714 300.915 265.33 299.008C263.947 297.101 261.492 293.361 259.876 290.698C258.26 288.035 256.758 285.809 256.536 285.751ZM66.5381 299.522C65.4264 296.212 63.1261 291.342 63.0752 292.191C63.0544 292.538 63.6249 294.429 64.3428 296.393C65.0603 298.357 66.0502 301.436 66.543 303.235C67.0359 305.032 67.5705 306.623 67.7314 306.773C68.272 307.271 67.4374 302.199 66.5381 299.522ZM223.177 294.695C218.189 294.673 213.61 294.714 213.002 294.785C212.393 294.857 209.308 295.491 206.146 296.194C202.983 296.897 197.309 298.001 193.538 298.649C190.405 299.187 187.383 299.753 184.64 300.307L185.403 300.689L209.761 296.224L209.909 296.197L210.048 296.256C214.272 298.067 217.566 298.561 221.056 298.312C224.453 298.069 228.039 297.125 232.896 295.952L232.245 294.733L223.177 294.695ZM113.753 289.705C115.637 288.497 113.475 289.261 110.932 290.702C109.416 291.562 107.127 293.269 105.845 294.494C104.366 295.909 104.052 296.345 104.984 295.69C106.995 294.275 112.746 290.351 113.753 289.705ZM112.27 287.656C112.056 287.525 110.432 287.905 108.661 288.501C104.642 289.855 101.557 291.404 100.46 292.617C99.4171 293.772 99.8946 293.822 101.456 292.723C103.346 291.391 106.084 290.11 109.483 288.965C111.229 288.378 112.483 287.788 112.27 287.656ZM111.455 285.518C112.206 284.852 108.03 285.169 104.753 286.028C101.731 286.82 98.5201 288.186 99.5879 288.224C99.8617 288.234 100.9 287.954 101.895 287.603C102.889 287.252 105.353 286.723 107.369 286.428C109.384 286.133 111.223 285.723 111.455 285.518ZM237.493 212.927C237.233 211.352 236.384 210.741 235.79 211.701C235.644 211.943 237.216 217.168 239.283 223.314C243.457 235.723 244.061 237.896 245.039 244.038C245.822 248.95 246.869 253.409 248.767 259.929C249.511 262.484 250.561 266.262 251.102 268.326C251.642 270.39 252.157 271.857 252.248 271.585C252.427 271.046 250.292 261.254 248.837 255.948C248.337 254.122 247.237 248.916 246.393 244.377C245.548 239.839 244.727 235.758 244.568 235.309C244.103 233.993 244.838 234.898 250.182 242.235C261.847 258.25 273.925 271.363 283.784 278.718C288.678 282.369 294.313 285.324 297.274 285.792C298.954 286.058 298.903 286.005 296.265 284.736C283.347 278.522 267.588 263.431 252.11 242.455C248.879 238.076 245.605 233.617 244.836 232.547C243.425 230.583 238.027 216.158 237.493 212.927ZM123.945 284.445C125.045 282.941 124.481 282.564 122.389 283.403C121.821 283.63 121.44 284.066 121.541 284.37C121.839 285.263 123.314 285.308 123.945 284.445ZM133.265 282.108C133.204 282.14 132.258 282.646 131.163 283.229C130.068 283.812 129.67 284.157 130.278 283.994C132.377 283.434 133.375 282.953 133.375 282.501C133.375 282.252 133.325 282.075 133.265 282.108ZM115.886 276.343C114.021 274.706 112.14 274.56 110.06 275.893C106.482 278.185 108.309 282.048 112.97 282.048C114.215 282.048 115.124 281.714 116.088 280.903C117.9 279.378 117.842 278.06 115.886 276.343ZM255.881 170.813C251.324 168.418 243.417 167.654 237.652 169.051C234.096 169.913 230.415 171.676 229.664 172.877C229.244 173.55 228.938 175.88 228.752 179.842C228.484 185.538 228.42 185.853 227.263 187.092C225.748 188.713 204.339 204.763 195.75 210.716C190.052 214.666 176.272 223.17 172.247 225.221C169.744 226.497 163.754 230.543 160.307 233.285C157.031 235.891 156.075 237.175 148.051 249.755C147.197 251.093 146.035 252.895 145.467 253.76C144.198 255.692 144.163 256.39 145.335 256.39C146.796 256.39 148.333 255.15 154.061 249.355C159.612 243.736 161.446 242.599 158.247 246.758C156.989 248.394 155.778 250.944 154.2 255.284C150.241 266.175 147.201 272.922 144.435 276.96C143.768 277.933 143.081 279.377 142.908 280.168C142.632 281.431 142.707 281.606 143.519 281.606C144.547 281.606 146.512 279.871 147.78 277.845C148.238 277.115 149.837 274.826 151.335 272.758C152.833 270.69 154.963 267.207 156.067 265.017C158.389 260.412 159.264 259.129 159.751 259.615C160.513 260.377 153.285 273.095 148.79 278.901C147.734 280.265 147.757 280.695 148.871 280.404C150.92 279.868 157.689 272.545 160.946 267.339C161.67 266.184 162.431 265.238 162.638 265.238C164.364 265.238 159.539 272.577 154.769 277.206C151.766 280.12 151.693 281.122 154.592 279.623C155.345 279.234 156.168 279.042 156.419 279.198C156.94 279.516 163.339 273.108 163.91 271.695C164.226 270.913 164.29 271.004 164.313 272.274C164.336 273.527 163.913 274.22 161.798 276.397C160.399 277.836 158.657 279.33 157.927 279.717C157.197 280.104 156.835 280.5 157.122 280.598C158.525 281.072 165.225 276.398 167.014 273.698C168.434 271.554 170.398 265.731 170.973 261.963C172.125 254.403 175.51 242.62 177.271 240.033C178.801 237.788 190.561 231.405 207.03 223.881C220.799 217.591 224.458 215.779 232.584 211.24C245.9 203.8 249.685 201.441 252.638 198.74C256.082 195.589 256.413 194.585 257.9 182.735C258.267 179.815 258.741 176.436 258.954 175.224C259.393 172.731 259.314 172.617 255.881 170.813ZM133.436 280.304C135.159 279.253 134.645 279.101 132.783 280.11C132.093 280.484 131.623 280.884 131.737 281C131.853 281.116 132.618 280.803 133.436 280.304ZM112.437 276.592C113.432 275.597 114.352 276.736 114.353 278.961C114.353 280.455 113.685 281.009 112.785 280.263C112.135 279.724 111.89 277.138 112.437 276.592ZM130.018 278.032C132.828 274.693 129.773 270.193 126.825 273.33C125.239 275.019 124.749 277 125.598 278.295C126.641 279.887 128.553 279.773 130.018 278.032ZM127.486 274.814C128.462 273.838 129.637 276.237 128.767 277.427C128.455 277.853 127.971 278.06 127.691 277.887C127.14 277.546 126.99 275.309 127.486 274.814ZM92.623 254.178C92.4655 254.179 92.217 254.627 92.0703 255.174C91.3348 257.921 92.0259 271.821 92.915 272.162C93.2142 272.277 94.2285 272.01 95.1689 271.569C96.5269 270.932 97.1719 270.185 98.3008 267.938C99.0824 266.382 100.145 264.657 100.662 264.107C101.579 263.131 101.583 263.063 100.835 261.487C100.412 260.596 99.468 259.268 98.7363 258.536C97.4029 257.203 93.1596 254.178 92.623 254.178ZM140.447 248.87C140.267 248.871 139.349 249.591 138.407 250.47C137.464 251.35 135.15 253.359 133.265 254.934C131.379 256.509 129.836 257.999 129.836 258.245C129.836 258.492 130.7 259.656 131.757 260.83C132.813 262.006 133.973 263.575 134.333 264.319C135.415 266.554 136.319 265.288 137.619 259.708C138.243 257.032 139.208 253.498 139.763 251.856C140.318 250.214 140.626 248.87 140.447 248.87ZM103.414 250.946C103.887 250.263 104.372 249.802 104.492 249.921C104.779 250.208 102.789 253.736 102.341 253.736C101.873 253.735 102.364 252.461 103.414 250.946ZM194.644 137.904C193.184 137.909 190.599 138.284 188.9 138.736C185.145 139.735 180.256 142.162 177.594 144.347C172.841 148.248 168.526 154.894 167.461 159.952C165.839 167.657 166.777 184.277 169.433 194.901C169.767 196.239 170.652 201.215 171.398 205.959C173.008 216.186 174.051 222.01 174.32 222.28C175.532 223.49 174.237 212.913 171.347 197.997C168.317 182.361 167.786 178.352 167.804 171.234C167.827 161.394 169.674 154.891 174.116 149.007C177.604 144.388 185.337 140.18 192.303 139.113C196.906 138.407 197.904 137.891 194.644 137.904ZM247.043 78.0696C243.822 77.2034 235.406 76.5774 233.572 77.0667C231.644 77.5817 226.776 79.4327 223.841 80.7668C220.043 82.493 216.103 84.0117 215.214 84.094C214.849 84.1276 214.103 84.1891 213.556 84.2307C212.58 84.305 212.56 84.4188 212.56 89.8538C212.56 104.061 210.108 114.105 205.973 116.842C204.964 117.509 203.872 117.913 203.482 117.764C202.463 117.372 201.501 114.723 201.499 112.301L201.497 110.186L198.994 114.358C195.327 120.469 194.407 123.48 194.101 130.369L193.847 136.065H196.398C198.631 136.065 198.918 135.968 198.693 135.29C198.552 134.865 197.937 133.122 197.326 131.419C196.244 128.402 195.817 124.563 196.564 124.563C196.769 124.564 197.174 125.609 197.465 126.885C197.755 128.162 198.74 130.882 199.653 132.929L201.313 136.651L205.721 138.081C211.155 139.846 215.802 141.998 219.859 144.629L222.956 146.637L223.095 140.134C223.253 132.734 222.546 119.914 221.603 113.095C221.252 110.559 220.965 105.972 220.965 102.903C220.965 94.1215 222.397 89.9372 226.96 85.387C230.663 81.6942 233.731 80.5262 239.545 80.5979C244.644 80.6607 247.771 81.7111 250.799 84.3762C251.929 85.3706 252.752 86.2858 252.629 86.4104C252.505 86.5347 251.695 86.014 250.828 85.2532C247.505 82.3362 246.053 81.8733 240.208 81.8733C235.315 81.8733 234.707 81.9691 232.428 83.0881C228.019 85.2535 224.791 89.3688 223.318 94.7024C222.158 98.9044 222.061 105.807 223.089 111.137C224.571 118.828 225.251 140.203 224.557 157.298C224.255 164.719 223.889 171.581 223.742 172.546L223.476 174.301L225.428 172.627C232.787 166.321 247.653 164.612 256.438 169.063C259.176 170.451 262.6 173.606 264.993 176.947C265.96 178.295 266.884 179.403 267.047 179.407C267.782 179.431 268.377 174.44 268.734 165.261C269.229 152.556 269.596 148.688 270.244 149.335C270.572 149.663 270.732 153.292 270.732 160.417V171.012L274.05 173.144C275.875 174.316 278.636 176.335 280.187 177.629C284.096 180.893 300.099 196.886 304.55 201.979C309.303 207.417 314.303 212.595 314.8 212.595C315.388 212.595 315.273 212.029 314.44 210.814C313.005 208.721 301.775 196.416 296.665 191.339C293.837 188.529 290.528 185.181 289.312 183.9C288.095 182.618 286.118 181.036 284.917 180.383C282.811 179.238 281.419 177.598 283.102 178.243C283.524 178.405 285.217 178.748 286.864 179.003C289.604 179.428 290.164 179.37 293.408 178.32C297.314 177.055 299.085 176.895 304.353 177.335C306.299 177.498 309.285 177.747 310.988 177.889C315.72 178.284 319.285 178.968 320.42 179.7C321.338 180.293 321.562 180.287 322.543 179.644C323.225 179.197 323.559 178.643 323.427 178.176C323.309 177.764 322.904 176.177 322.525 174.65C321.838 171.874 312.068 151.96 306.416 141.816C303.019 135.72 297.391 126.64 293.804 121.466C285.637 109.691 268.61 90.4018 261.885 85.3079C258.468 82.72 251.253 79.2012 247.043 78.0696ZM259.667 179.584C259.489 182.677 259.425 185.288 259.525 185.389C259.94 185.803 264.392 182.834 264.845 181.84C265.376 180.674 264.711 179.46 261.479 175.694L259.992 173.961L259.667 179.584ZM225.941 174.208C225.394 174.793 224.953 175.458 224.961 175.686C224.983 176.297 226.698 178.253 226.973 177.981C227.102 177.852 227.147 176.711 227.072 175.446L226.938 173.145L225.941 174.208ZM184.242 56.7327C183.63 56.5893 182.654 56.7139 182.072 57.0081C179.863 58.1268 179.159 59.7391 179.171 63.6594C179.178 66.3331 179.398 67.677 180.01 68.8157L180.837 70.3547L179.226 68.9397C177.378 67.318 176.798 67.3864 174.516 69.4983C172.582 71.2881 171.542 71.8298 167.659 73.0706C165.333 73.8142 164.893 74.0687 165.89 74.093C169.16 74.1735 172.999 73.1856 175.29 71.6741C177.942 69.9245 178.367 70.2812 176.052 72.3137C173.035 74.9626 169.028 76.2847 163.707 76.387L161.466 76.4299L163.125 77.1106C164.037 77.4848 164.783 77.9461 164.783 78.135C164.782 78.3239 163.952 78.6187 162.937 78.7903C161.92 78.9619 159.703 79.8254 158.01 80.7092C152.102 83.7925 147.694 82.6751 141.448 76.512C138.042 73.1509 137.448 72.9114 139.498 75.7249C142.336 79.6191 146.575 82.6091 151.07 83.8889C153.991 84.7205 154.161 85.0568 152.44 86.6018C150.991 87.9033 150.816 87.9453 147.698 87.7454C141.791 87.3662 136.051 83.4229 133.679 78.1135C132.477 75.4255 132.222 76.5174 133.371 79.4309C135.46 84.7297 139.024 87.9882 144.324 89.4436C147.777 90.3924 147.962 91.1562 144.654 90.8147C138.182 90.1467 133.153 85.7157 130.488 78.3342C129.927 76.7795 129.319 79.762 129.571 82.8313C129.943 87.3411 132.071 90.7981 136.14 93.4983C137.052 94.1039 137.799 94.6978 137.799 94.8186C137.798 95.2328 133.235 94.4321 132.021 93.804C131.353 93.4584 130.091 92.5004 129.216 91.675C128.341 90.8497 127.624 90.4399 127.624 90.7649C127.624 91.8903 130.704 94.4495 132.824 95.0852C134.602 95.6182 134.787 95.772 134.038 96.0901C133.551 96.2966 132.208 96.4527 131.053 96.4368C129.897 96.4208 128.951 96.5669 128.951 96.762C128.952 96.9579 130.694 98.8702 132.822 101.013C135.857 104.067 137.442 105.276 140.164 106.609L143.636 108.309L145.521 107.366C148.125 106.066 154.167 106.06 154.167 107.358C154.167 107.575 153.828 107.752 153.414 107.752C152.83 107.752 152.781 107.871 153.193 108.283C154.428 109.518 153.085 112.176 151.227 112.176C150.176 112.176 147.898 109.856 148.119 109.012C148.368 108.06 148.379 108.063 146.877 108.634L145.724 109.073L147.893 110.956C151.091 113.735 157.509 118.308 159.857 119.482C163.895 121.501 173.975 122.835 178.628 121.967C182.25 121.291 184.143 120.287 186.681 117.698C189.089 115.239 192.255 109.577 194.221 104.213C195.223 101.478 195.473 99.944 195.646 95.4768C195.865 89.8618 196.309 88.5597 196.796 92.1106C197.256 95.469 197.106 98.9583 196.381 101.781C196.005 103.24 195.591 104.864 195.459 105.39C195.244 106.248 195.48 106.396 197.808 106.857C199.231 107.138 202.286 107.833 204.598 108.402C206.907 108.97 208.852 109.383 208.921 109.321C209.847 108.445 211.324 90.8701 210.87 86.1155C210.723 84.5757 210.547 84.3069 209.685 84.3069C206.778 84.3069 199.366 81.3699 194.709 78.3733C191.728 76.4551 191.347 76.0734 192.025 75.6877C192.461 75.4405 193.298 74.7403 193.886 74.1321C197.445 70.4466 190.679 58.2387 184.242 56.7327ZM177.253 111.739C180.251 108.528 180.732 108.176 181.535 108.606C183.01 109.395 183.199 111.811 181.975 114.251C180.571 117.049 178.442 118.149 174.428 118.149C170.613 118.149 169.778 117.446 172.152 116.235C173.1 115.751 175.396 113.728 177.253 111.739ZM151.07 103.055C151.071 103.008 151.518 103.086 152.065 103.228C153.585 103.623 157.901 108.179 159.219 110.78C159.9 112.125 160.865 113.31 161.522 113.61C162.617 114.109 163.538 113.913 167.821 112.274C169.307 111.705 167.353 113.868 165.486 114.859C163.584 115.868 163.394 115.888 161.6 115.265C159.965 114.697 159.505 114.226 158.156 111.735C157.3 110.153 155.356 107.572 153.835 106C152.315 104.428 151.07 103.102 151.07 103.055ZM203.841 109.964C202.822 109.964 202.786 110.061 203.059 112.066C203.511 115.394 203.692 115.78 204.73 115.63C205.769 115.48 207.693 112.935 207.693 111.712C207.693 110.879 205.677 109.964 203.841 109.964ZM139.789 100.198C141.074 99.6565 144.553 99.9122 144.769 100.564C144.879 100.899 144.543 101.121 143.918 101.127C142.59 101.14 139.525 102.532 138.74 103.48C138.406 103.883 137.845 104.213 137.493 104.213C136.119 104.213 137.979 100.96 139.789 100.198ZM169.429 91.5461C170.922 90.8819 174.774 90.926 174.666 91.6057C174.627 91.849 173.333 92.4843 171.791 93.0178C169.88 93.6787 168.51 94.507 167.492 95.6165C166.073 97.1638 166.011 97.3696 166.248 99.7336L166.498 102.223L165.655 101.197C164.501 99.7903 164.12 97.4109 164.79 95.7922C165.412 94.2926 167.45 92.426 169.429 91.5461ZM168.575 95.6184C169.593 94.6012 171.305 94.7701 172.545 96.01C173.894 97.3588 173.932 98.6443 172.647 99.5432C171.262 100.514 170.221 100.401 168.966 99.1458C167.718 97.8979 167.576 96.6176 168.575 95.6184ZM162.571 84.1262C164.25 83.4003 166.553 83.2022 166.553 83.7834C166.551 83.9831 165.252 84.9738 163.665 85.9856C161.647 87.2724 160.362 88.4954 159.396 90.0481C157.888 92.4754 156.821 92.9285 156.821 91.1418C156.821 88.8022 159.6 85.4114 162.571 84.1262ZM183.363 61.5237C183.717 60.595 184.052 60.3883 185.022 60.5002C185.746 60.5834 186.238 60.9081 186.238 61.303C186.238 61.6895 185.915 61.9126 185.465 61.8372C184.825 61.7297 184.69 62.0451 184.69 63.6614C184.69 65.4756 184.785 65.6354 186.005 65.8792C187.541 66.1868 189.999 69.2652 189.999 70.8811C189.999 72.3183 189.461 72.1648 188.672 70.5022C187.778 68.6183 186.72 68.0064 185.583 68.7161C184.351 69.4854 184.28 69.4512 183.562 67.7317C182.818 65.9507 182.729 63.1909 183.363 61.5237Z" />
    </g>
</svg>
